M48
; DRILL file {KiCad (6.0.11)} date Tue Jun 13 18:52:11 2023
; FORMAT={-:-/ absolute / metric / decimal}
; #@! TF.CreationDate,2023-06-13T18:52:11+03:00
; #@! TF.GenerationSoftware,Kicad,Pcbnew,(6.0.11)
; #@! TF.FileFunction,Plated,1,2,PTH
FMAT,2
METRIC
; #@! TA.AperFunction,Plated,PTH,ViaDrill
T1C0.400
; #@! TA.AperFunction,Plated,PTH,ComponentDrill
T2C0.500
; #@! TA.AperFunction,Plated,PTH,ComponentDrill
T3C0.850
; #@! TA.AperFunction,Plated,PTH,ComponentDrill
T4C1.000
; #@! TA.AperFunction,Plated,PTH,ComponentDrill
T5C1.016
; #@! TA.AperFunction,Plated,PTH,ComponentDrill
T6C1.100
; #@! TA.AperFunction,Plated,PTH,ComponentDrill
T7C2.200
%
G90
G05
T1
X123.5Y-55.25
X144.532Y-61.214
X155.5Y-54.25
X159.25Y-51.0
X162.5Y-53.0
X163.5Y-48.25
T2
X117.4Y-78.2
X121.2Y-42.2
X156.5Y-39.0
X160.75Y-81.0
X166.0Y-39.5
X171.75Y-48.75
T3
X170.18Y-60.5
X170.18Y-65.5
T4
X120.33Y-52.95
X127.95Y-45.33
X140.65Y-73.27
X148.27Y-65.65
T5
X105.725Y-56.76
X105.725Y-59.3
X105.725Y-61.84
T6
X153.189Y-56.71
X153.189Y-61.79
T7
X125.75Y-40.0
X133.5Y-78.75
X170.5Y-75.75
X171.5Y-42.75
T0
M30
