%TF.GenerationSoftware,KiCad,Pcbnew,(6.0.11)*%
%TF.CreationDate,2023-06-13T18:52:51+03:00*%
%TF.ProjectId,flyback_48V_48W,666c7962-6163-46b5-9f34-38565f343857,rev?*%
%TF.SameCoordinates,Original*%
%TF.FileFunction,Drillmap*%
%TF.FilePolarity,Positive*%
%FSLAX45Y45*%
G04 Gerber Fmt 4.5, Leading zero omitted, Abs format (unit mm)*
G04 Created by KiCad (PCBNEW (6.0.11)) date 2023-06-13 18:52:51*
%MOMM*%
%LPD*%
G01*
G04 APERTURE LIST*
%ADD10C,0.100000*%
%ADD11C,0.200000*%
G04 APERTURE END LIST*
D10*
X10070000Y-3700000D02*
X17530000Y-3700000D01*
X17530000Y-3700000D02*
X17530000Y-8480000D01*
X17530000Y-8480000D02*
X10070000Y-8480000D01*
X10070000Y-8480000D02*
X10070000Y-3700000D01*
D11*
X10322619Y-8795476D02*
X10322619Y-8595476D01*
X10370238Y-8595476D01*
X10398810Y-8605000D01*
X10417857Y-8624048D01*
X10427381Y-8643095D01*
X10436905Y-8681190D01*
X10436905Y-8709762D01*
X10427381Y-8747857D01*
X10417857Y-8766905D01*
X10398810Y-8785952D01*
X10370238Y-8795476D01*
X10322619Y-8795476D01*
X10522619Y-8795476D02*
X10522619Y-8662143D01*
X10522619Y-8700238D02*
X10532143Y-8681190D01*
X10541667Y-8671667D01*
X10560714Y-8662143D01*
X10579762Y-8662143D01*
X10646429Y-8795476D02*
X10646429Y-8662143D01*
X10646429Y-8595476D02*
X10636905Y-8605000D01*
X10646429Y-8614524D01*
X10655952Y-8605000D01*
X10646429Y-8595476D01*
X10646429Y-8614524D01*
X10770238Y-8795476D02*
X10751190Y-8785952D01*
X10741667Y-8766905D01*
X10741667Y-8595476D01*
X10875000Y-8795476D02*
X10855952Y-8785952D01*
X10846429Y-8766905D01*
X10846429Y-8595476D01*
X11103571Y-8795476D02*
X11103571Y-8595476D01*
X11170238Y-8738333D01*
X11236905Y-8595476D01*
X11236905Y-8795476D01*
X11417857Y-8795476D02*
X11417857Y-8690714D01*
X11408333Y-8671667D01*
X11389286Y-8662143D01*
X11351190Y-8662143D01*
X11332143Y-8671667D01*
X11417857Y-8785952D02*
X11398809Y-8795476D01*
X11351190Y-8795476D01*
X11332143Y-8785952D01*
X11322619Y-8766905D01*
X11322619Y-8747857D01*
X11332143Y-8728810D01*
X11351190Y-8719286D01*
X11398809Y-8719286D01*
X11417857Y-8709762D01*
X11513095Y-8662143D02*
X11513095Y-8862143D01*
X11513095Y-8671667D02*
X11532143Y-8662143D01*
X11570238Y-8662143D01*
X11589286Y-8671667D01*
X11598809Y-8681190D01*
X11608333Y-8700238D01*
X11608333Y-8757381D01*
X11598809Y-8776429D01*
X11589286Y-8785952D01*
X11570238Y-8795476D01*
X11532143Y-8795476D01*
X11513095Y-8785952D01*
X11694048Y-8776429D02*
X11703571Y-8785952D01*
X11694048Y-8795476D01*
X11684524Y-8785952D01*
X11694048Y-8776429D01*
X11694048Y-8795476D01*
X11694048Y-8671667D02*
X11703571Y-8681190D01*
X11694048Y-8690714D01*
X11684524Y-8681190D01*
X11694048Y-8671667D01*
X11694048Y-8690714D01*
M02*
