G04 #@! TF.GenerationSoftware,KiCad,Pcbnew,(6.0.11)*
G04 #@! TF.CreationDate,2023-06-15T09:23:19+03:00*
G04 #@! TF.ProjectId,flyback_48V_48W,666c7962-6163-46b5-9f34-38565f343857,rev?*
G04 #@! TF.SameCoordinates,Original*
G04 #@! TF.FileFunction,Legend,Bot*
G04 #@! TF.FilePolarity,Positive*
%FSLAX46Y46*%
G04 Gerber Fmt 4.6, Leading zero omitted, Abs format (unit mm)*
G04 Created by KiCad (PCBNEW (6.0.11)) date 2023-06-15 09:23:19*
%MOMM*%
%LPD*%
G01*
G04 APERTURE LIST*
G04 Aperture macros list*
%AMRoundRect*
0 Rectangle with rounded corners*
0 $1 Rounding radius*
0 $2 $3 $4 $5 $6 $7 $8 $9 X,Y pos of 4 corners*
0 Add a 4 corners polygon primitive as box body*
4,1,4,$2,$3,$4,$5,$6,$7,$8,$9,$2,$3,0*
0 Add four circle primitives for the rounded corners*
1,1,$1+$1,$2,$3*
1,1,$1+$1,$4,$5*
1,1,$1+$1,$6,$7*
1,1,$1+$1,$8,$9*
0 Add four rect primitives between the rounded corners*
20,1,$1+$1,$2,$3,$4,$5,0*
20,1,$1+$1,$4,$5,$6,$7,0*
20,1,$1+$1,$6,$7,$8,$9,0*
20,1,$1+$1,$8,$9,$2,$3,0*%
G04 Aperture macros list end*
%ADD10C,0.150000*%
%ADD11C,0.120000*%
%ADD12O,2.000000X2.000000*%
%ADD13R,2.000000X2.000000*%
%ADD14C,2.000000*%
%ADD15C,7.500000*%
%ADD16C,4.700000*%
%ADD17O,3.048000X1.524000*%
%ADD18C,4.300000*%
%ADD19C,1.200000*%
%ADD20R,1.200000X1.200000*%
%ADD21C,1.000000*%
%ADD22RoundRect,0.250000X-0.400000X-0.625000X0.400000X-0.625000X0.400000X0.625000X-0.400000X0.625000X0*%
%ADD23RoundRect,0.250000X0.400000X0.625000X-0.400000X0.625000X-0.400000X-0.625000X0.400000X-0.625000X0*%
%ADD24RoundRect,0.250000X0.650000X-0.412500X0.650000X0.412500X-0.650000X0.412500X-0.650000X-0.412500X0*%
%ADD25RoundRect,0.250000X0.625000X-0.400000X0.625000X0.400000X-0.625000X0.400000X-0.625000X-0.400000X0*%
%ADD26RoundRect,0.150000X-0.825000X-0.150000X0.825000X-0.150000X0.825000X0.150000X-0.825000X0.150000X0*%
%ADD27RoundRect,0.150000X-0.662500X-0.150000X0.662500X-0.150000X0.662500X0.150000X-0.662500X0.150000X0*%
%ADD28RoundRect,0.250000X-0.650000X0.412500X-0.650000X-0.412500X0.650000X-0.412500X0.650000X0.412500X0*%
%ADD29RoundRect,0.250000X0.412500X0.650000X-0.412500X0.650000X-0.412500X-0.650000X0.412500X-0.650000X0*%
%ADD30RoundRect,0.250000X-0.625000X0.400000X-0.625000X-0.400000X0.625000X-0.400000X0.625000X0.400000X0*%
%ADD31R,1.200000X0.900000*%
%ADD32RoundRect,0.150000X-0.150000X0.587500X-0.150000X-0.587500X0.150000X-0.587500X0.150000X0.587500X0*%
%ADD33RoundRect,0.250000X-0.412500X-0.650000X0.412500X-0.650000X0.412500X0.650000X-0.412500X0.650000X0*%
G04 APERTURE END LIST*
D10*
X146398952Y-74890380D02*
X145827523Y-74890380D01*
X146113238Y-75890380D02*
X146113238Y-74890380D01*
X145065619Y-75842761D02*
X145160857Y-75890380D01*
X145351333Y-75890380D01*
X145446571Y-75842761D01*
X145494190Y-75795142D01*
X145541809Y-75699904D01*
X145541809Y-75414190D01*
X145494190Y-75318952D01*
X145446571Y-75271333D01*
X145351333Y-75223714D01*
X145160857Y-75223714D01*
X145065619Y-75271333D01*
X144494190Y-75890380D02*
X144589428Y-75842761D01*
X144637047Y-75795142D01*
X144684666Y-75699904D01*
X144684666Y-75414190D01*
X144637047Y-75318952D01*
X144589428Y-75271333D01*
X144494190Y-75223714D01*
X144351333Y-75223714D01*
X144256095Y-75271333D01*
X144208476Y-75318952D01*
X144160857Y-75414190D01*
X144160857Y-75699904D01*
X144208476Y-75795142D01*
X144256095Y-75842761D01*
X144351333Y-75890380D01*
X144494190Y-75890380D01*
X143732285Y-75223714D02*
X143732285Y-75890380D01*
X143732285Y-75318952D02*
X143684666Y-75271333D01*
X143589428Y-75223714D01*
X143446571Y-75223714D01*
X143351333Y-75271333D01*
X143303714Y-75366571D01*
X143303714Y-75890380D01*
X142970380Y-75223714D02*
X142589428Y-75223714D01*
X142827523Y-74890380D02*
X142827523Y-75747523D01*
X142779904Y-75842761D01*
X142684666Y-75890380D01*
X142589428Y-75890380D01*
X141732285Y-75890380D02*
X142303714Y-75890380D01*
X142018000Y-75890380D02*
X142018000Y-74890380D01*
X142113238Y-75033238D01*
X142208476Y-75128476D01*
X142303714Y-75176095D01*
X153304666Y-90892380D02*
X152733238Y-90892380D01*
X153018952Y-91892380D02*
X153018952Y-90892380D01*
X152257047Y-91892380D02*
X152352285Y-91844761D01*
X152399904Y-91797142D01*
X152447523Y-91701904D01*
X152447523Y-91416190D01*
X152399904Y-91320952D01*
X152352285Y-91273333D01*
X152257047Y-91225714D01*
X152114190Y-91225714D01*
X152018952Y-91273333D01*
X151971333Y-91320952D01*
X151923714Y-91416190D01*
X151923714Y-91701904D01*
X151971333Y-91797142D01*
X152018952Y-91844761D01*
X152114190Y-91892380D01*
X152257047Y-91892380D01*
X151495142Y-91225714D02*
X151495142Y-92225714D01*
X151495142Y-91273333D02*
X151399904Y-91225714D01*
X151209428Y-91225714D01*
X151114190Y-91273333D01*
X151066571Y-91320952D01*
X151018952Y-91416190D01*
X151018952Y-91701904D01*
X151066571Y-91797142D01*
X151114190Y-91844761D01*
X151209428Y-91892380D01*
X151399904Y-91892380D01*
X151495142Y-91844761D01*
X150066571Y-91892380D02*
X150638000Y-91892380D01*
X150352285Y-91892380D02*
X150352285Y-90892380D01*
X150447523Y-91035238D01*
X150542761Y-91130476D01*
X150638000Y-91178095D01*
X115768380Y-62881047D02*
X115292190Y-62547714D01*
X115768380Y-62309619D02*
X114768380Y-62309619D01*
X114768380Y-62690571D01*
X114816000Y-62785809D01*
X114863619Y-62833428D01*
X114958857Y-62881047D01*
X115101714Y-62881047D01*
X115196952Y-62833428D01*
X115244571Y-62785809D01*
X115292190Y-62690571D01*
X115292190Y-62309619D01*
X115768380Y-63309619D02*
X115101714Y-63309619D01*
X115292190Y-63309619D02*
X115196952Y-63357238D01*
X115149333Y-63404857D01*
X115101714Y-63500095D01*
X115101714Y-63595333D01*
X115101714Y-63928666D02*
X115768380Y-63928666D01*
X115196952Y-63928666D02*
X115149333Y-63976285D01*
X115101714Y-64071523D01*
X115101714Y-64214380D01*
X115149333Y-64309619D01*
X115244571Y-64357238D01*
X115768380Y-64357238D01*
X115101714Y-65262000D02*
X115911238Y-65262000D01*
X116006476Y-65214380D01*
X116054095Y-65166761D01*
X116101714Y-65071523D01*
X116101714Y-64928666D01*
X116054095Y-64833428D01*
X115720761Y-65262000D02*
X115768380Y-65166761D01*
X115768380Y-64976285D01*
X115720761Y-64881047D01*
X115673142Y-64833428D01*
X115577904Y-64785809D01*
X115292190Y-64785809D01*
X115196952Y-64833428D01*
X115149333Y-64881047D01*
X115101714Y-64976285D01*
X115101714Y-65166761D01*
X115149333Y-65262000D01*
X115768380Y-66262000D02*
X115768380Y-65690571D01*
X115768380Y-65976285D02*
X114768380Y-65976285D01*
X114911238Y-65881047D01*
X115006476Y-65785809D01*
X115054095Y-65690571D01*
X107619047Y-50880380D02*
X107952380Y-50404190D01*
X108190476Y-50880380D02*
X108190476Y-49880380D01*
X107809523Y-49880380D01*
X107714285Y-49928000D01*
X107666666Y-49975619D01*
X107619047Y-50070857D01*
X107619047Y-50213714D01*
X107666666Y-50308952D01*
X107714285Y-50356571D01*
X107809523Y-50404190D01*
X108190476Y-50404190D01*
X106761904Y-50213714D02*
X106761904Y-51023238D01*
X106809523Y-51118476D01*
X106857142Y-51166095D01*
X106952380Y-51213714D01*
X107095238Y-51213714D01*
X107190476Y-51166095D01*
X106761904Y-50832761D02*
X106857142Y-50880380D01*
X107047619Y-50880380D01*
X107142857Y-50832761D01*
X107190476Y-50785142D01*
X107238095Y-50689904D01*
X107238095Y-50404190D01*
X107190476Y-50308952D01*
X107142857Y-50261333D01*
X107047619Y-50213714D01*
X106857142Y-50213714D01*
X106761904Y-50261333D01*
X105761904Y-50880380D02*
X106333333Y-50880380D01*
X106047619Y-50880380D02*
X106047619Y-49880380D01*
X106142857Y-50023238D01*
X106238095Y-50118476D01*
X106333333Y-50166095D01*
X125714000Y-79351142D02*
X125761619Y-79398761D01*
X125904476Y-79446380D01*
X125999714Y-79446380D01*
X126142571Y-79398761D01*
X126237809Y-79303523D01*
X126285428Y-79208285D01*
X126333047Y-79017809D01*
X126333047Y-78874952D01*
X126285428Y-78684476D01*
X126237809Y-78589238D01*
X126142571Y-78494000D01*
X125999714Y-78446380D01*
X125904476Y-78446380D01*
X125761619Y-78494000D01*
X125714000Y-78541619D01*
X124856857Y-79398761D02*
X124952095Y-79446380D01*
X125142571Y-79446380D01*
X125237809Y-79398761D01*
X125285428Y-79351142D01*
X125333047Y-79255904D01*
X125333047Y-78970190D01*
X125285428Y-78874952D01*
X125237809Y-78827333D01*
X125142571Y-78779714D01*
X124952095Y-78779714D01*
X124856857Y-78827333D01*
X124475904Y-79398761D02*
X124380666Y-79446380D01*
X124190190Y-79446380D01*
X124094952Y-79398761D01*
X124047333Y-79303523D01*
X124047333Y-79255904D01*
X124094952Y-79160666D01*
X124190190Y-79113047D01*
X124333047Y-79113047D01*
X124428285Y-79065428D01*
X124475904Y-78970190D01*
X124475904Y-78922571D01*
X124428285Y-78827333D01*
X124333047Y-78779714D01*
X124190190Y-78779714D01*
X124094952Y-78827333D01*
X123094952Y-79446380D02*
X123666380Y-79446380D01*
X123380666Y-79446380D02*
X123380666Y-78446380D01*
X123475904Y-78589238D01*
X123571142Y-78684476D01*
X123666380Y-78732095D01*
X122626380Y-90543333D02*
X122150190Y-90210000D01*
X122626380Y-89971904D02*
X121626380Y-89971904D01*
X121626380Y-90352857D01*
X121674000Y-90448095D01*
X121721619Y-90495714D01*
X121816857Y-90543333D01*
X121959714Y-90543333D01*
X122054952Y-90495714D01*
X122102571Y-90448095D01*
X122150190Y-90352857D01*
X122150190Y-89971904D01*
X122578761Y-91400476D02*
X122626380Y-91305238D01*
X122626380Y-91114761D01*
X122578761Y-91019523D01*
X122531142Y-90971904D01*
X122435904Y-90924285D01*
X122150190Y-90924285D01*
X122054952Y-90971904D01*
X122007333Y-91019523D01*
X121959714Y-91114761D01*
X121959714Y-91305238D01*
X122007333Y-91400476D01*
X122626380Y-91971904D02*
X122578761Y-91876666D01*
X122531142Y-91829047D01*
X122435904Y-91781428D01*
X122150190Y-91781428D01*
X122054952Y-91829047D01*
X122007333Y-91876666D01*
X121959714Y-91971904D01*
X121959714Y-92114761D01*
X122007333Y-92210000D01*
X122054952Y-92257619D01*
X122150190Y-92305238D01*
X122435904Y-92305238D01*
X122531142Y-92257619D01*
X122578761Y-92210000D01*
X122626380Y-92114761D01*
X122626380Y-91971904D01*
X122626380Y-92733809D02*
X121959714Y-92733809D01*
X122054952Y-92733809D02*
X122007333Y-92781428D01*
X121959714Y-92876666D01*
X121959714Y-93019523D01*
X122007333Y-93114761D01*
X122102571Y-93162380D01*
X122626380Y-93162380D01*
X122102571Y-93162380D02*
X122007333Y-93210000D01*
X121959714Y-93305238D01*
X121959714Y-93448095D01*
X122007333Y-93543333D01*
X122102571Y-93590952D01*
X122626380Y-93590952D01*
X121959714Y-94067142D02*
X122959714Y-94067142D01*
X122007333Y-94067142D02*
X121959714Y-94162380D01*
X121959714Y-94352857D01*
X122007333Y-94448095D01*
X122054952Y-94495714D01*
X122150190Y-94543333D01*
X122435904Y-94543333D01*
X122531142Y-94495714D01*
X122578761Y-94448095D01*
X122626380Y-94352857D01*
X122626380Y-94162380D01*
X122578761Y-94067142D01*
X121721619Y-94924285D02*
X121674000Y-94971904D01*
X121626380Y-95067142D01*
X121626380Y-95305238D01*
X121674000Y-95400476D01*
X121721619Y-95448095D01*
X121816857Y-95495714D01*
X121912095Y-95495714D01*
X122054952Y-95448095D01*
X122626380Y-94876666D01*
X122626380Y-95495714D01*
X135989904Y-83980380D02*
X135989904Y-84789904D01*
X135942285Y-84885142D01*
X135894666Y-84932761D01*
X135799428Y-84980380D01*
X135608952Y-84980380D01*
X135513714Y-84932761D01*
X135466095Y-84885142D01*
X135418476Y-84789904D01*
X135418476Y-83980380D01*
X134989904Y-84075619D02*
X134942285Y-84028000D01*
X134847047Y-83980380D01*
X134608952Y-83980380D01*
X134513714Y-84028000D01*
X134466095Y-84075619D01*
X134418476Y-84170857D01*
X134418476Y-84266095D01*
X134466095Y-84408952D01*
X135037523Y-84980380D01*
X134418476Y-84980380D01*
X150875904Y-81966380D02*
X150875904Y-82775904D01*
X150828285Y-82871142D01*
X150780666Y-82918761D01*
X150685428Y-82966380D01*
X150494952Y-82966380D01*
X150399714Y-82918761D01*
X150352095Y-82871142D01*
X150304476Y-82775904D01*
X150304476Y-81966380D01*
X149923523Y-81966380D02*
X149304476Y-81966380D01*
X149637809Y-82347333D01*
X149494952Y-82347333D01*
X149399714Y-82394952D01*
X149352095Y-82442571D01*
X149304476Y-82537809D01*
X149304476Y-82775904D01*
X149352095Y-82871142D01*
X149399714Y-82918761D01*
X149494952Y-82966380D01*
X149780666Y-82966380D01*
X149875904Y-82918761D01*
X149923523Y-82871142D01*
X140565142Y-88471523D02*
X140612761Y-88423904D01*
X140660380Y-88281047D01*
X140660380Y-88185809D01*
X140612761Y-88042952D01*
X140517523Y-87947714D01*
X140422285Y-87900095D01*
X140231809Y-87852476D01*
X140088952Y-87852476D01*
X139898476Y-87900095D01*
X139803238Y-87947714D01*
X139708000Y-88042952D01*
X139660380Y-88185809D01*
X139660380Y-88281047D01*
X139708000Y-88423904D01*
X139755619Y-88471523D01*
X140660380Y-88900095D02*
X139993714Y-88900095D01*
X140184190Y-88900095D02*
X140088952Y-88947714D01*
X140041333Y-88995333D01*
X139993714Y-89090571D01*
X139993714Y-89185809D01*
X140612761Y-89900095D02*
X140660380Y-89804857D01*
X140660380Y-89614380D01*
X140612761Y-89519142D01*
X140517523Y-89471523D01*
X140136571Y-89471523D01*
X140041333Y-89519142D01*
X139993714Y-89614380D01*
X139993714Y-89804857D01*
X140041333Y-89900095D01*
X140136571Y-89947714D01*
X140231809Y-89947714D01*
X140327047Y-89471523D01*
X139993714Y-90233428D02*
X139993714Y-90614380D01*
X140660380Y-90376285D02*
X139803238Y-90376285D01*
X139708000Y-90423904D01*
X139660380Y-90519142D01*
X139660380Y-90614380D01*
X140660380Y-91471523D02*
X140660380Y-90900095D01*
X140660380Y-91185809D02*
X139660380Y-91185809D01*
X139803238Y-91090571D01*
X139898476Y-90995333D01*
X139946095Y-90900095D01*
X112124952Y-67413142D02*
X112172571Y-67460761D01*
X112315428Y-67508380D01*
X112410666Y-67508380D01*
X112553523Y-67460761D01*
X112648761Y-67365523D01*
X112696380Y-67270285D01*
X112744000Y-67079809D01*
X112744000Y-66936952D01*
X112696380Y-66746476D01*
X112648761Y-66651238D01*
X112553523Y-66556000D01*
X112410666Y-66508380D01*
X112315428Y-66508380D01*
X112172571Y-66556000D01*
X112124952Y-66603619D01*
X111696380Y-67508380D02*
X111696380Y-66841714D01*
X111696380Y-67032190D02*
X111648761Y-66936952D01*
X111601142Y-66889333D01*
X111505904Y-66841714D01*
X111410666Y-66841714D01*
X111077333Y-66841714D02*
X111077333Y-67508380D01*
X111077333Y-66936952D02*
X111029714Y-66889333D01*
X110934476Y-66841714D01*
X110791619Y-66841714D01*
X110696380Y-66889333D01*
X110648761Y-66984571D01*
X110648761Y-67508380D01*
X109744000Y-66841714D02*
X109744000Y-67651238D01*
X109791619Y-67746476D01*
X109839238Y-67794095D01*
X109934476Y-67841714D01*
X110077333Y-67841714D01*
X110172571Y-67794095D01*
X109744000Y-67460761D02*
X109839238Y-67508380D01*
X110029714Y-67508380D01*
X110124952Y-67460761D01*
X110172571Y-67413142D01*
X110220190Y-67317904D01*
X110220190Y-67032190D01*
X110172571Y-66936952D01*
X110124952Y-66889333D01*
X110029714Y-66841714D01*
X109839238Y-66841714D01*
X109744000Y-66889333D01*
X108744000Y-67508380D02*
X109315428Y-67508380D01*
X109029714Y-67508380D02*
X109029714Y-66508380D01*
X109124952Y-66651238D01*
X109220190Y-66746476D01*
X109315428Y-66794095D01*
X168175047Y-84713142D02*
X168222666Y-84760761D01*
X168365523Y-84808380D01*
X168460761Y-84808380D01*
X168603619Y-84760761D01*
X168698857Y-84665523D01*
X168746476Y-84570285D01*
X168794095Y-84379809D01*
X168794095Y-84236952D01*
X168746476Y-84046476D01*
X168698857Y-83951238D01*
X168603619Y-83856000D01*
X168460761Y-83808380D01*
X168365523Y-83808380D01*
X168222666Y-83856000D01*
X168175047Y-83903619D01*
X167746476Y-84141714D02*
X167746476Y-85141714D01*
X167746476Y-84189333D02*
X167651238Y-84141714D01*
X167460761Y-84141714D01*
X167365523Y-84189333D01*
X167317904Y-84236952D01*
X167270285Y-84332190D01*
X167270285Y-84617904D01*
X167317904Y-84713142D01*
X167365523Y-84760761D01*
X167460761Y-84808380D01*
X167651238Y-84808380D01*
X167746476Y-84760761D01*
X166317904Y-84808380D02*
X166889333Y-84808380D01*
X166603619Y-84808380D02*
X166603619Y-83808380D01*
X166698857Y-83951238D01*
X166794095Y-84046476D01*
X166889333Y-84094095D01*
X126944380Y-74017142D02*
X126992000Y-74064761D01*
X127134857Y-74112380D01*
X127230095Y-74112380D01*
X127372952Y-74064761D01*
X127468190Y-73969523D01*
X127515809Y-73874285D01*
X127563428Y-73683809D01*
X127563428Y-73540952D01*
X127515809Y-73350476D01*
X127468190Y-73255238D01*
X127372952Y-73160000D01*
X127230095Y-73112380D01*
X127134857Y-73112380D01*
X126992000Y-73160000D01*
X126944380Y-73207619D01*
X126658666Y-73445714D02*
X126277714Y-73445714D01*
X126515809Y-73112380D02*
X126515809Y-73969523D01*
X126468190Y-74064761D01*
X126372952Y-74112380D01*
X126277714Y-74112380D01*
X125420571Y-74112380D02*
X125992000Y-74112380D01*
X125706285Y-74112380D02*
X125706285Y-73112380D01*
X125801523Y-73255238D01*
X125896761Y-73350476D01*
X125992000Y-73398095D01*
X180030380Y-67476761D02*
X179554190Y-67143428D01*
X180030380Y-66905333D02*
X179030380Y-66905333D01*
X179030380Y-67286285D01*
X179078000Y-67381523D01*
X179125619Y-67429142D01*
X179220857Y-67476761D01*
X179363714Y-67476761D01*
X179458952Y-67429142D01*
X179506571Y-67381523D01*
X179554190Y-67286285D01*
X179554190Y-66905333D01*
X179982761Y-68286285D02*
X180030380Y-68191047D01*
X180030380Y-68000571D01*
X179982761Y-67905333D01*
X179887523Y-67857714D01*
X179506571Y-67857714D01*
X179411333Y-67905333D01*
X179363714Y-68000571D01*
X179363714Y-68191047D01*
X179411333Y-68286285D01*
X179506571Y-68333904D01*
X179601809Y-68333904D01*
X179697047Y-67857714D01*
X180030380Y-69286285D02*
X180030380Y-68714857D01*
X180030380Y-69000571D02*
X179030380Y-69000571D01*
X179173238Y-68905333D01*
X179268476Y-68810095D01*
X179316095Y-68714857D01*
X175458380Y-75239619D02*
X174982190Y-74906285D01*
X175458380Y-74668190D02*
X174458380Y-74668190D01*
X174458380Y-75049142D01*
X174506000Y-75144380D01*
X174553619Y-75192000D01*
X174648857Y-75239619D01*
X174791714Y-75239619D01*
X174886952Y-75192000D01*
X174934571Y-75144380D01*
X174982190Y-75049142D01*
X174982190Y-74668190D01*
X174791714Y-75525333D02*
X174791714Y-75906285D01*
X175458380Y-75668190D02*
X174601238Y-75668190D01*
X174506000Y-75715809D01*
X174458380Y-75811047D01*
X174458380Y-75906285D01*
X175458380Y-76763428D02*
X175458380Y-76192000D01*
X175458380Y-76477714D02*
X174458380Y-76477714D01*
X174601238Y-76382476D01*
X174696476Y-76287238D01*
X174744095Y-76192000D01*
X132278380Y-73969619D02*
X131802190Y-73636285D01*
X132278380Y-73398190D02*
X131278380Y-73398190D01*
X131278380Y-73779142D01*
X131326000Y-73874380D01*
X131373619Y-73922000D01*
X131468857Y-73969619D01*
X131611714Y-73969619D01*
X131706952Y-73922000D01*
X131754571Y-73874380D01*
X131802190Y-73779142D01*
X131802190Y-73398190D01*
X131611714Y-74255333D02*
X131611714Y-74636285D01*
X131278380Y-74398190D02*
X132135523Y-74398190D01*
X132230761Y-74445809D01*
X132278380Y-74541047D01*
X132278380Y-74636285D01*
X132278380Y-75493428D02*
X132278380Y-74922000D01*
X132278380Y-75207714D02*
X131278380Y-75207714D01*
X131421238Y-75112476D01*
X131516476Y-75017238D01*
X131564095Y-74922000D01*
X126420571Y-54269047D02*
X126468190Y-54411904D01*
X126515809Y-54459523D01*
X126611047Y-54507142D01*
X126753904Y-54507142D01*
X126849142Y-54459523D01*
X126896761Y-54411904D01*
X126944380Y-54316666D01*
X126944380Y-53935714D01*
X125944380Y-53935714D01*
X125944380Y-54269047D01*
X125992000Y-54364285D01*
X126039619Y-54411904D01*
X126134857Y-54459523D01*
X126230095Y-54459523D01*
X126325333Y-54411904D01*
X126372952Y-54364285D01*
X126420571Y-54269047D01*
X126420571Y-53935714D01*
X125944380Y-55411904D02*
X125944380Y-54935714D01*
X126420571Y-54888095D01*
X126372952Y-54935714D01*
X126325333Y-55030952D01*
X126325333Y-55269047D01*
X126372952Y-55364285D01*
X126420571Y-55411904D01*
X126515809Y-55459523D01*
X126753904Y-55459523D01*
X126849142Y-55411904D01*
X126896761Y-55364285D01*
X126944380Y-55269047D01*
X126944380Y-55030952D01*
X126896761Y-54935714D01*
X126849142Y-54888095D01*
X126372952Y-56030952D02*
X126325333Y-55935714D01*
X126277714Y-55888095D01*
X126182476Y-55840476D01*
X126134857Y-55840476D01*
X126039619Y-55888095D01*
X125992000Y-55935714D01*
X125944380Y-56030952D01*
X125944380Y-56221428D01*
X125992000Y-56316666D01*
X126039619Y-56364285D01*
X126134857Y-56411904D01*
X126182476Y-56411904D01*
X126277714Y-56364285D01*
X126325333Y-56316666D01*
X126372952Y-56221428D01*
X126372952Y-56030952D01*
X126420571Y-55935714D01*
X126468190Y-55888095D01*
X126563428Y-55840476D01*
X126753904Y-55840476D01*
X126849142Y-55888095D01*
X126896761Y-55935714D01*
X126944380Y-56030952D01*
X126944380Y-56221428D01*
X126896761Y-56316666D01*
X126849142Y-56364285D01*
X126753904Y-56411904D01*
X126563428Y-56411904D01*
X126468190Y-56364285D01*
X126420571Y-56316666D01*
X126372952Y-56221428D01*
X126944380Y-57364285D02*
X126944380Y-56792857D01*
X126944380Y-57078571D02*
X125944380Y-57078571D01*
X126087238Y-56983333D01*
X126182476Y-56888095D01*
X126230095Y-56792857D01*
X126944380Y-57840476D02*
X126944380Y-58030952D01*
X126896761Y-58126190D01*
X126849142Y-58173809D01*
X126706285Y-58269047D01*
X126515809Y-58316666D01*
X126134857Y-58316666D01*
X126039619Y-58269047D01*
X125992000Y-58221428D01*
X125944380Y-58126190D01*
X125944380Y-57935714D01*
X125992000Y-57840476D01*
X126039619Y-57792857D01*
X126134857Y-57745238D01*
X126372952Y-57745238D01*
X126468190Y-57792857D01*
X126515809Y-57840476D01*
X126563428Y-57935714D01*
X126563428Y-58126190D01*
X126515809Y-58221428D01*
X126468190Y-58269047D01*
X126372952Y-58316666D01*
X125944380Y-58650000D02*
X126944380Y-58888095D01*
X126230095Y-59078571D01*
X126944380Y-59269047D01*
X125944380Y-59507142D01*
X126944380Y-60411904D02*
X126944380Y-59840476D01*
X126944380Y-60126190D02*
X125944380Y-60126190D01*
X126087238Y-60030952D01*
X126182476Y-59935714D01*
X126230095Y-59840476D01*
X169275047Y-77827142D02*
X169322666Y-77874761D01*
X169465523Y-77922380D01*
X169560761Y-77922380D01*
X169703619Y-77874761D01*
X169798857Y-77779523D01*
X169846476Y-77684285D01*
X169894095Y-77493809D01*
X169894095Y-77350952D01*
X169846476Y-77160476D01*
X169798857Y-77065238D01*
X169703619Y-76970000D01*
X169560761Y-76922380D01*
X169465523Y-76922380D01*
X169322666Y-76970000D01*
X169275047Y-77017619D01*
X168846476Y-77255714D02*
X168846476Y-78255714D01*
X168846476Y-77303333D02*
X168751238Y-77255714D01*
X168560761Y-77255714D01*
X168465523Y-77303333D01*
X168417904Y-77350952D01*
X168370285Y-77446190D01*
X168370285Y-77731904D01*
X168417904Y-77827142D01*
X168465523Y-77874761D01*
X168560761Y-77922380D01*
X168751238Y-77922380D01*
X168846476Y-77874761D01*
X167989333Y-77017619D02*
X167941714Y-76970000D01*
X167846476Y-76922380D01*
X167608380Y-76922380D01*
X167513142Y-76970000D01*
X167465523Y-77017619D01*
X167417904Y-77112857D01*
X167417904Y-77208095D01*
X167465523Y-77350952D01*
X168036952Y-77922380D01*
X167417904Y-77922380D01*
X126118666Y-88844380D02*
X126452000Y-88368190D01*
X126690095Y-88844380D02*
X126690095Y-87844380D01*
X126309142Y-87844380D01*
X126213904Y-87892000D01*
X126166285Y-87939619D01*
X126118666Y-88034857D01*
X126118666Y-88177714D01*
X126166285Y-88272952D01*
X126213904Y-88320571D01*
X126309142Y-88368190D01*
X126690095Y-88368190D01*
X125261523Y-88796761D02*
X125356761Y-88844380D01*
X125547238Y-88844380D01*
X125642476Y-88796761D01*
X125690095Y-88749142D01*
X125737714Y-88653904D01*
X125737714Y-88368190D01*
X125690095Y-88272952D01*
X125642476Y-88225333D01*
X125547238Y-88177714D01*
X125356761Y-88177714D01*
X125261523Y-88225333D01*
X124690095Y-88844380D02*
X124785333Y-88796761D01*
X124832952Y-88749142D01*
X124880571Y-88653904D01*
X124880571Y-88368190D01*
X124832952Y-88272952D01*
X124785333Y-88225333D01*
X124690095Y-88177714D01*
X124547238Y-88177714D01*
X124452000Y-88225333D01*
X124404380Y-88272952D01*
X124356761Y-88368190D01*
X124356761Y-88653904D01*
X124404380Y-88749142D01*
X124452000Y-88796761D01*
X124547238Y-88844380D01*
X124690095Y-88844380D01*
X123928190Y-88844380D02*
X123928190Y-88177714D01*
X123928190Y-88272952D02*
X123880571Y-88225333D01*
X123785333Y-88177714D01*
X123642476Y-88177714D01*
X123547238Y-88225333D01*
X123499619Y-88320571D01*
X123499619Y-88844380D01*
X123499619Y-88320571D02*
X123452000Y-88225333D01*
X123356761Y-88177714D01*
X123213904Y-88177714D01*
X123118666Y-88225333D01*
X123071047Y-88320571D01*
X123071047Y-88844380D01*
X122594857Y-88177714D02*
X122594857Y-89177714D01*
X122594857Y-88225333D02*
X122499619Y-88177714D01*
X122309142Y-88177714D01*
X122213904Y-88225333D01*
X122166285Y-88272952D01*
X122118666Y-88368190D01*
X122118666Y-88653904D01*
X122166285Y-88749142D01*
X122213904Y-88796761D01*
X122309142Y-88844380D01*
X122499619Y-88844380D01*
X122594857Y-88796761D01*
X121166285Y-88844380D02*
X121737714Y-88844380D01*
X121452000Y-88844380D02*
X121452000Y-87844380D01*
X121547238Y-87987238D01*
X121642476Y-88082476D01*
X121737714Y-88130095D01*
X174688285Y-85288380D02*
X175021619Y-84812190D01*
X175259714Y-85288380D02*
X175259714Y-84288380D01*
X174878761Y-84288380D01*
X174783523Y-84336000D01*
X174735904Y-84383619D01*
X174688285Y-84478857D01*
X174688285Y-84621714D01*
X174735904Y-84716952D01*
X174783523Y-84764571D01*
X174878761Y-84812190D01*
X175259714Y-84812190D01*
X174259714Y-85288380D02*
X174259714Y-84288380D01*
X174259714Y-84669333D02*
X174164476Y-84621714D01*
X173974000Y-84621714D01*
X173878761Y-84669333D01*
X173831142Y-84716952D01*
X173783523Y-84812190D01*
X173783523Y-85097904D01*
X173831142Y-85193142D01*
X173878761Y-85240761D01*
X173974000Y-85288380D01*
X174164476Y-85288380D01*
X174259714Y-85240761D01*
X173354952Y-85288380D02*
X173354952Y-84621714D01*
X173354952Y-84288380D02*
X173402571Y-84336000D01*
X173354952Y-84383619D01*
X173307333Y-84336000D01*
X173354952Y-84288380D01*
X173354952Y-84383619D01*
X172450190Y-85288380D02*
X172450190Y-84764571D01*
X172497809Y-84669333D01*
X172593047Y-84621714D01*
X172783523Y-84621714D01*
X172878761Y-84669333D01*
X172450190Y-85240761D02*
X172545428Y-85288380D01*
X172783523Y-85288380D01*
X172878761Y-85240761D01*
X172926380Y-85145523D01*
X172926380Y-85050285D01*
X172878761Y-84955047D01*
X172783523Y-84907428D01*
X172545428Y-84907428D01*
X172450190Y-84859809D01*
X172021619Y-85240761D02*
X171926380Y-85288380D01*
X171735904Y-85288380D01*
X171640666Y-85240761D01*
X171593047Y-85145523D01*
X171593047Y-85097904D01*
X171640666Y-85002666D01*
X171735904Y-84955047D01*
X171878761Y-84955047D01*
X171974000Y-84907428D01*
X172021619Y-84812190D01*
X172021619Y-84764571D01*
X171974000Y-84669333D01*
X171878761Y-84621714D01*
X171735904Y-84621714D01*
X171640666Y-84669333D01*
X171212095Y-84383619D02*
X171164476Y-84336000D01*
X171069238Y-84288380D01*
X170831142Y-84288380D01*
X170735904Y-84336000D01*
X170688285Y-84383619D01*
X170640666Y-84478857D01*
X170640666Y-84574095D01*
X170688285Y-84716952D01*
X171259714Y-85288380D01*
X170640666Y-85288380D01*
X120480380Y-70368380D02*
X120813714Y-69892190D01*
X121051809Y-70368380D02*
X121051809Y-69368380D01*
X120670857Y-69368380D01*
X120575619Y-69416000D01*
X120528000Y-69463619D01*
X120480380Y-69558857D01*
X120480380Y-69701714D01*
X120528000Y-69796952D01*
X120575619Y-69844571D01*
X120670857Y-69892190D01*
X121051809Y-69892190D01*
X120194666Y-69701714D02*
X119813714Y-69701714D01*
X120051809Y-69368380D02*
X120051809Y-70225523D01*
X120004190Y-70320761D01*
X119908952Y-70368380D01*
X119813714Y-70368380D01*
X119528000Y-69463619D02*
X119480380Y-69416000D01*
X119385142Y-69368380D01*
X119147047Y-69368380D01*
X119051809Y-69416000D01*
X119004190Y-69463619D01*
X118956571Y-69558857D01*
X118956571Y-69654095D01*
X119004190Y-69796952D01*
X119575619Y-70368380D01*
X118956571Y-70368380D01*
X165060380Y-89408095D02*
X165869904Y-89408095D01*
X165965142Y-89455714D01*
X166012761Y-89503333D01*
X166060380Y-89598571D01*
X166060380Y-89789047D01*
X166012761Y-89884285D01*
X165965142Y-89931904D01*
X165869904Y-89979523D01*
X165060380Y-89979523D01*
X165393714Y-90884285D02*
X166060380Y-90884285D01*
X165012761Y-90646190D02*
X165727047Y-90408095D01*
X165727047Y-91027142D01*
X145121238Y-87828380D02*
X145454571Y-87352190D01*
X145692666Y-87828380D02*
X145692666Y-86828380D01*
X145311714Y-86828380D01*
X145216476Y-86876000D01*
X145168857Y-86923619D01*
X145121238Y-87018857D01*
X145121238Y-87161714D01*
X145168857Y-87256952D01*
X145216476Y-87304571D01*
X145311714Y-87352190D01*
X145692666Y-87352190D01*
X144264095Y-87780761D02*
X144359333Y-87828380D01*
X144549809Y-87828380D01*
X144645047Y-87780761D01*
X144692666Y-87733142D01*
X144740285Y-87637904D01*
X144740285Y-87352190D01*
X144692666Y-87256952D01*
X144645047Y-87209333D01*
X144549809Y-87161714D01*
X144359333Y-87161714D01*
X144264095Y-87209333D01*
X143311714Y-87828380D02*
X143883142Y-87828380D01*
X143597428Y-87828380D02*
X143597428Y-86828380D01*
X143692666Y-86971238D01*
X143787904Y-87066476D01*
X143883142Y-87114095D01*
X158432285Y-101290380D02*
X158765619Y-100814190D01*
X159003714Y-101290380D02*
X159003714Y-100290380D01*
X158622761Y-100290380D01*
X158527523Y-100338000D01*
X158479904Y-100385619D01*
X158432285Y-100480857D01*
X158432285Y-100623714D01*
X158479904Y-100718952D01*
X158527523Y-100766571D01*
X158622761Y-100814190D01*
X159003714Y-100814190D01*
X158003714Y-101290380D02*
X158003714Y-100290380D01*
X158003714Y-100671333D02*
X157908476Y-100623714D01*
X157718000Y-100623714D01*
X157622761Y-100671333D01*
X157575142Y-100718952D01*
X157527523Y-100814190D01*
X157527523Y-101099904D01*
X157575142Y-101195142D01*
X157622761Y-101242761D01*
X157718000Y-101290380D01*
X157908476Y-101290380D01*
X158003714Y-101242761D01*
X157098952Y-101290380D02*
X157098952Y-100623714D01*
X157098952Y-100290380D02*
X157146571Y-100338000D01*
X157098952Y-100385619D01*
X157051333Y-100338000D01*
X157098952Y-100290380D01*
X157098952Y-100385619D01*
X156194190Y-101290380D02*
X156194190Y-100766571D01*
X156241809Y-100671333D01*
X156337047Y-100623714D01*
X156527523Y-100623714D01*
X156622761Y-100671333D01*
X156194190Y-101242761D02*
X156289428Y-101290380D01*
X156527523Y-101290380D01*
X156622761Y-101242761D01*
X156670380Y-101147523D01*
X156670380Y-101052285D01*
X156622761Y-100957047D01*
X156527523Y-100909428D01*
X156289428Y-100909428D01*
X156194190Y-100861809D01*
X155765619Y-101242761D02*
X155670380Y-101290380D01*
X155479904Y-101290380D01*
X155384666Y-101242761D01*
X155337047Y-101147523D01*
X155337047Y-101099904D01*
X155384666Y-101004666D01*
X155479904Y-100957047D01*
X155622761Y-100957047D01*
X155718000Y-100909428D01*
X155765619Y-100814190D01*
X155765619Y-100766571D01*
X155718000Y-100671333D01*
X155622761Y-100623714D01*
X155479904Y-100623714D01*
X155384666Y-100671333D01*
X154384666Y-101290380D02*
X154956095Y-101290380D01*
X154670380Y-101290380D02*
X154670380Y-100290380D01*
X154765619Y-100433238D01*
X154860857Y-100528476D01*
X154956095Y-100576095D01*
X178146000Y-80602380D02*
X177574571Y-80602380D01*
X177860285Y-81602380D02*
X177860285Y-80602380D01*
X177384095Y-80935714D02*
X177003142Y-80935714D01*
X177241238Y-81602380D02*
X177241238Y-80745238D01*
X177193619Y-80650000D01*
X177098380Y-80602380D01*
X177003142Y-80602380D01*
X176669809Y-81602380D02*
X176669809Y-80602380D01*
X176669809Y-80983333D02*
X176574571Y-80935714D01*
X176384095Y-80935714D01*
X176288857Y-80983333D01*
X176241238Y-81030952D01*
X176193619Y-81126190D01*
X176193619Y-81411904D01*
X176241238Y-81507142D01*
X176288857Y-81554761D01*
X176384095Y-81602380D01*
X176574571Y-81602380D01*
X176669809Y-81554761D01*
X175241238Y-81602380D02*
X175812666Y-81602380D01*
X175526952Y-81602380D02*
X175526952Y-80602380D01*
X175622190Y-80745238D01*
X175717428Y-80840476D01*
X175812666Y-80888095D01*
X145699047Y-96422380D02*
X146032380Y-95946190D01*
X146270476Y-96422380D02*
X146270476Y-95422380D01*
X145889523Y-95422380D01*
X145794285Y-95470000D01*
X145746666Y-95517619D01*
X145699047Y-95612857D01*
X145699047Y-95755714D01*
X145746666Y-95850952D01*
X145794285Y-95898571D01*
X145889523Y-95946190D01*
X146270476Y-95946190D01*
X145270476Y-96422380D02*
X145270476Y-95422380D01*
X145270476Y-95803333D02*
X145175238Y-95755714D01*
X144984761Y-95755714D01*
X144889523Y-95803333D01*
X144841904Y-95850952D01*
X144794285Y-95946190D01*
X144794285Y-96231904D01*
X144841904Y-96327142D01*
X144889523Y-96374761D01*
X144984761Y-96422380D01*
X145175238Y-96422380D01*
X145270476Y-96374761D01*
X143841904Y-96422380D02*
X144413333Y-96422380D01*
X144127619Y-96422380D02*
X144127619Y-95422380D01*
X144222857Y-95565238D01*
X144318095Y-95660476D01*
X144413333Y-95708095D01*
X177220571Y-91607047D02*
X177268190Y-91749904D01*
X177315809Y-91797523D01*
X177411047Y-91845142D01*
X177553904Y-91845142D01*
X177649142Y-91797523D01*
X177696761Y-91749904D01*
X177744380Y-91654666D01*
X177744380Y-91273714D01*
X176744380Y-91273714D01*
X176744380Y-91607047D01*
X176792000Y-91702285D01*
X176839619Y-91749904D01*
X176934857Y-91797523D01*
X177030095Y-91797523D01*
X177125333Y-91749904D01*
X177172952Y-91702285D01*
X177220571Y-91607047D01*
X177220571Y-91273714D01*
X176744380Y-92749904D02*
X176744380Y-92273714D01*
X177220571Y-92226095D01*
X177172952Y-92273714D01*
X177125333Y-92368952D01*
X177125333Y-92607047D01*
X177172952Y-92702285D01*
X177220571Y-92749904D01*
X177315809Y-92797523D01*
X177553904Y-92797523D01*
X177649142Y-92749904D01*
X177696761Y-92702285D01*
X177744380Y-92607047D01*
X177744380Y-92368952D01*
X177696761Y-92273714D01*
X177649142Y-92226095D01*
X177172952Y-93368952D02*
X177125333Y-93273714D01*
X177077714Y-93226095D01*
X176982476Y-93178476D01*
X176934857Y-93178476D01*
X176839619Y-93226095D01*
X176792000Y-93273714D01*
X176744380Y-93368952D01*
X176744380Y-93559428D01*
X176792000Y-93654666D01*
X176839619Y-93702285D01*
X176934857Y-93749904D01*
X176982476Y-93749904D01*
X177077714Y-93702285D01*
X177125333Y-93654666D01*
X177172952Y-93559428D01*
X177172952Y-93368952D01*
X177220571Y-93273714D01*
X177268190Y-93226095D01*
X177363428Y-93178476D01*
X177553904Y-93178476D01*
X177649142Y-93226095D01*
X177696761Y-93273714D01*
X177744380Y-93368952D01*
X177744380Y-93559428D01*
X177696761Y-93654666D01*
X177649142Y-93702285D01*
X177553904Y-93749904D01*
X177363428Y-93749904D01*
X177268190Y-93702285D01*
X177220571Y-93654666D01*
X177172952Y-93559428D01*
X177744380Y-94702285D02*
X177744380Y-94130857D01*
X177744380Y-94416571D02*
X176744380Y-94416571D01*
X176887238Y-94321333D01*
X176982476Y-94226095D01*
X177030095Y-94130857D01*
X177744380Y-95178476D02*
X177744380Y-95368952D01*
X177696761Y-95464190D01*
X177649142Y-95511809D01*
X177506285Y-95607047D01*
X177315809Y-95654666D01*
X176934857Y-95654666D01*
X176839619Y-95607047D01*
X176792000Y-95559428D01*
X176744380Y-95464190D01*
X176744380Y-95273714D01*
X176792000Y-95178476D01*
X176839619Y-95130857D01*
X176934857Y-95083238D01*
X177172952Y-95083238D01*
X177268190Y-95130857D01*
X177315809Y-95178476D01*
X177363428Y-95273714D01*
X177363428Y-95464190D01*
X177315809Y-95559428D01*
X177268190Y-95607047D01*
X177172952Y-95654666D01*
X176744380Y-95988000D02*
X177744380Y-96226095D01*
X177030095Y-96416571D01*
X177744380Y-96607047D01*
X176744380Y-96845142D01*
X176839619Y-97178476D02*
X176792000Y-97226095D01*
X176744380Y-97321333D01*
X176744380Y-97559428D01*
X176792000Y-97654666D01*
X176839619Y-97702285D01*
X176934857Y-97749904D01*
X177030095Y-97749904D01*
X177172952Y-97702285D01*
X177744380Y-97130857D01*
X177744380Y-97749904D01*
X129166666Y-97893142D02*
X129214285Y-97940761D01*
X129357142Y-97988380D01*
X129452380Y-97988380D01*
X129595238Y-97940761D01*
X129690476Y-97845523D01*
X129738095Y-97750285D01*
X129785714Y-97559809D01*
X129785714Y-97416952D01*
X129738095Y-97226476D01*
X129690476Y-97131238D01*
X129595238Y-97036000D01*
X129452380Y-96988380D01*
X129357142Y-96988380D01*
X129214285Y-97036000D01*
X129166666Y-97083619D01*
X128309523Y-97940761D02*
X128404761Y-97988380D01*
X128595238Y-97988380D01*
X128690476Y-97940761D01*
X128738095Y-97893142D01*
X128785714Y-97797904D01*
X128785714Y-97512190D01*
X128738095Y-97416952D01*
X128690476Y-97369333D01*
X128595238Y-97321714D01*
X128404761Y-97321714D01*
X128309523Y-97369333D01*
X127738095Y-97988380D02*
X127833333Y-97940761D01*
X127880952Y-97893142D01*
X127928571Y-97797904D01*
X127928571Y-97512190D01*
X127880952Y-97416952D01*
X127833333Y-97369333D01*
X127738095Y-97321714D01*
X127595238Y-97321714D01*
X127500000Y-97369333D01*
X127452380Y-97416952D01*
X127404761Y-97512190D01*
X127404761Y-97797904D01*
X127452380Y-97893142D01*
X127500000Y-97940761D01*
X127595238Y-97988380D01*
X127738095Y-97988380D01*
X126976190Y-97988380D02*
X126976190Y-97321714D01*
X126976190Y-97416952D02*
X126928571Y-97369333D01*
X126833333Y-97321714D01*
X126690476Y-97321714D01*
X126595238Y-97369333D01*
X126547619Y-97464571D01*
X126547619Y-97988380D01*
X126547619Y-97464571D02*
X126500000Y-97369333D01*
X126404761Y-97321714D01*
X126261904Y-97321714D01*
X126166666Y-97369333D01*
X126119047Y-97464571D01*
X126119047Y-97988380D01*
X125642857Y-97321714D02*
X125642857Y-98321714D01*
X125642857Y-97369333D02*
X125547619Y-97321714D01*
X125357142Y-97321714D01*
X125261904Y-97369333D01*
X125214285Y-97416952D01*
X125166666Y-97512190D01*
X125166666Y-97797904D01*
X125214285Y-97893142D01*
X125261904Y-97940761D01*
X125357142Y-97988380D01*
X125547619Y-97988380D01*
X125642857Y-97940761D01*
X124214285Y-97988380D02*
X124785714Y-97988380D01*
X124500000Y-97988380D02*
X124500000Y-96988380D01*
X124595238Y-97131238D01*
X124690476Y-97226476D01*
X124785714Y-97274095D01*
X162417047Y-77414380D02*
X162750380Y-76938190D01*
X162988476Y-77414380D02*
X162988476Y-76414380D01*
X162607523Y-76414380D01*
X162512285Y-76462000D01*
X162464666Y-76509619D01*
X162417047Y-76604857D01*
X162417047Y-76747714D01*
X162464666Y-76842952D01*
X162512285Y-76890571D01*
X162607523Y-76938190D01*
X162988476Y-76938190D01*
X161988476Y-76747714D02*
X161988476Y-77747714D01*
X161988476Y-76795333D02*
X161893238Y-76747714D01*
X161702761Y-76747714D01*
X161607523Y-76795333D01*
X161559904Y-76842952D01*
X161512285Y-76938190D01*
X161512285Y-77223904D01*
X161559904Y-77319142D01*
X161607523Y-77366761D01*
X161702761Y-77414380D01*
X161893238Y-77414380D01*
X161988476Y-77366761D01*
X160559904Y-77414380D02*
X161131333Y-77414380D01*
X160845619Y-77414380D02*
X160845619Y-76414380D01*
X160940857Y-76557238D01*
X161036095Y-76652476D01*
X161131333Y-76700095D01*
X162599523Y-95210380D02*
X162028095Y-95210380D01*
X162313809Y-96210380D02*
X162313809Y-95210380D01*
X161837619Y-95543714D02*
X161456666Y-95543714D01*
X161694761Y-95210380D02*
X161694761Y-96067523D01*
X161647142Y-96162761D01*
X161551904Y-96210380D01*
X161456666Y-96210380D01*
X160980476Y-96210380D02*
X161075714Y-96162761D01*
X161123333Y-96067523D01*
X161123333Y-95210380D01*
X160075714Y-96210380D02*
X160647142Y-96210380D01*
X160361428Y-96210380D02*
X160361428Y-95210380D01*
X160456666Y-95353238D01*
X160551904Y-95448476D01*
X160647142Y-95496095D01*
X183586380Y-82867714D02*
X183110190Y-82534380D01*
X183586380Y-82296285D02*
X182586380Y-82296285D01*
X182586380Y-82677238D01*
X182634000Y-82772476D01*
X182681619Y-82820095D01*
X182776857Y-82867714D01*
X182919714Y-82867714D01*
X183014952Y-82820095D01*
X183062571Y-82772476D01*
X183110190Y-82677238D01*
X183110190Y-82296285D01*
X183538761Y-83724857D02*
X183586380Y-83629619D01*
X183586380Y-83439142D01*
X183538761Y-83343904D01*
X183491142Y-83296285D01*
X183395904Y-83248666D01*
X183110190Y-83248666D01*
X183014952Y-83296285D01*
X182967333Y-83343904D01*
X182919714Y-83439142D01*
X182919714Y-83629619D01*
X182967333Y-83724857D01*
X183586380Y-84296285D02*
X183538761Y-84201047D01*
X183491142Y-84153428D01*
X183395904Y-84105809D01*
X183110190Y-84105809D01*
X183014952Y-84153428D01*
X182967333Y-84201047D01*
X182919714Y-84296285D01*
X182919714Y-84439142D01*
X182967333Y-84534380D01*
X183014952Y-84582000D01*
X183110190Y-84629619D01*
X183395904Y-84629619D01*
X183491142Y-84582000D01*
X183538761Y-84534380D01*
X183586380Y-84439142D01*
X183586380Y-84296285D01*
X183586380Y-85058190D02*
X182919714Y-85058190D01*
X183014952Y-85058190D02*
X182967333Y-85105809D01*
X182919714Y-85201047D01*
X182919714Y-85343904D01*
X182967333Y-85439142D01*
X183062571Y-85486761D01*
X183586380Y-85486761D01*
X183062571Y-85486761D02*
X182967333Y-85534380D01*
X182919714Y-85629619D01*
X182919714Y-85772476D01*
X182967333Y-85867714D01*
X183062571Y-85915333D01*
X183586380Y-85915333D01*
X183586380Y-86915333D02*
X183586380Y-86343904D01*
X183586380Y-86629619D02*
X182586380Y-86629619D01*
X182729238Y-86534380D01*
X182824476Y-86439142D01*
X182872095Y-86343904D01*
X179253047Y-51594380D02*
X179586380Y-51118190D01*
X179824476Y-51594380D02*
X179824476Y-50594380D01*
X179443523Y-50594380D01*
X179348285Y-50642000D01*
X179300666Y-50689619D01*
X179253047Y-50784857D01*
X179253047Y-50927714D01*
X179300666Y-51022952D01*
X179348285Y-51070571D01*
X179443523Y-51118190D01*
X179824476Y-51118190D01*
X178395904Y-51594380D02*
X178395904Y-50594380D01*
X178395904Y-51546761D02*
X178491142Y-51594380D01*
X178681619Y-51594380D01*
X178776857Y-51546761D01*
X178824476Y-51499142D01*
X178872095Y-51403904D01*
X178872095Y-51118190D01*
X178824476Y-51022952D01*
X178776857Y-50975333D01*
X178681619Y-50927714D01*
X178491142Y-50927714D01*
X178395904Y-50975333D01*
X177395904Y-51594380D02*
X177967333Y-51594380D01*
X177681619Y-51594380D02*
X177681619Y-50594380D01*
X177776857Y-50737238D01*
X177872095Y-50832476D01*
X177967333Y-50880095D01*
D11*
X145226000Y-77470000D02*
G75*
G03*
X145226000Y-77470000I-700000J0D01*
G01*
X152846000Y-88900000D02*
G75*
G03*
X152846000Y-88900000I-700000J0D01*
G01*
X111272936Y-65310000D02*
X112727064Y-65310000D01*
X111272936Y-63490000D02*
X112727064Y-63490000D01*
X107927064Y-51668000D02*
X106472936Y-51668000D01*
X107927064Y-53488000D02*
X106472936Y-53488000D01*
X128884000Y-82753252D02*
X128884000Y-81330748D01*
X130704000Y-82753252D02*
X130704000Y-81330748D01*
X125116000Y-92929064D02*
X125116000Y-91474936D01*
X123296000Y-92929064D02*
X123296000Y-91474936D01*
X135128000Y-81768000D02*
X133178000Y-81768000D01*
X135128000Y-86888000D02*
X131678000Y-86888000D01*
X135128000Y-86888000D02*
X137078000Y-86888000D01*
X135128000Y-81768000D02*
X137078000Y-81768000D01*
X152424000Y-81674000D02*
X152424000Y-81459000D01*
X150114000Y-81674000D02*
X147804000Y-81674000D01*
X152424000Y-78854000D02*
X152424000Y-79069000D01*
X147804000Y-78854000D02*
X147804000Y-79069000D01*
X150114000Y-81674000D02*
X152424000Y-81674000D01*
X147804000Y-81674000D02*
X147804000Y-81459000D01*
X147804000Y-81459000D02*
X146114000Y-81459000D01*
X150114000Y-78854000D02*
X147804000Y-78854000D01*
X150114000Y-78854000D02*
X152424000Y-78854000D01*
X136758000Y-89204748D02*
X136758000Y-90627252D01*
X138578000Y-89204748D02*
X138578000Y-90627252D01*
X112711252Y-70810000D02*
X111288748Y-70810000D01*
X112711252Y-68990000D02*
X111288748Y-68990000D01*
X164033252Y-83418000D02*
X162610748Y-83418000D01*
X164033252Y-85238000D02*
X162610748Y-85238000D01*
X123139252Y-74062000D02*
X121716748Y-74062000D01*
X123139252Y-72242000D02*
X121716748Y-72242000D01*
X176128000Y-68360936D02*
X176128000Y-69815064D01*
X177948000Y-68360936D02*
X177948000Y-69815064D01*
X179218000Y-76996936D02*
X179218000Y-78451064D01*
X177398000Y-76996936D02*
X177398000Y-78451064D01*
X130704000Y-73117064D02*
X130704000Y-71662936D01*
X128884000Y-73117064D02*
X128884000Y-71662936D01*
X127778000Y-59908000D02*
X127778000Y-56008000D01*
X129778000Y-59908000D02*
X129778000Y-56008000D01*
X129778000Y-59908000D02*
X127778000Y-59908000D01*
X169367252Y-80666000D02*
X167944748Y-80666000D01*
X169367252Y-78846000D02*
X167944748Y-78846000D01*
X128812936Y-90318000D02*
X130267064Y-90318000D01*
X128812936Y-88498000D02*
X130267064Y-88498000D01*
X173955064Y-87778000D02*
X172500936Y-87778000D01*
X173955064Y-85958000D02*
X172500936Y-85958000D01*
X125187064Y-69998000D02*
X123732936Y-69998000D01*
X125187064Y-68178000D02*
X123732936Y-68178000D01*
X164374000Y-90170000D02*
X164374000Y-90820000D01*
X161254000Y-90170000D02*
X161254000Y-88495000D01*
X164374000Y-90170000D02*
X164374000Y-89520000D01*
X161254000Y-90170000D02*
X161254000Y-90820000D01*
X145507064Y-88244000D02*
X144052936Y-88244000D01*
X145507064Y-90064000D02*
X144052936Y-90064000D01*
X156937064Y-96372000D02*
X155482936Y-96372000D01*
X156937064Y-98192000D02*
X155482936Y-98192000D01*
X176976000Y-82804000D02*
G75*
G03*
X176976000Y-82804000I-700000J0D01*
G01*
X145507064Y-92860000D02*
X144052936Y-92860000D01*
X145507064Y-94680000D02*
X144052936Y-94680000D01*
X175752000Y-91730000D02*
X175752000Y-95630000D01*
X173752000Y-91730000D02*
X175752000Y-91730000D01*
X173752000Y-91730000D02*
X173752000Y-95630000D01*
X129082748Y-93324000D02*
X130505252Y-93324000D01*
X129082748Y-95144000D02*
X130505252Y-95144000D01*
X162017064Y-80666000D02*
X160562936Y-80666000D01*
X162017064Y-78846000D02*
X160562936Y-78846000D01*
X159958000Y-93726000D02*
G75*
G03*
X159958000Y-93726000I-700000J0D01*
G01*
X141626000Y-84023252D02*
X141626000Y-82600748D01*
X139806000Y-84023252D02*
X139806000Y-82600748D01*
X125836000Y-82769064D02*
X125836000Y-81314936D01*
X127656000Y-82769064D02*
X127656000Y-81314936D01*
X181758000Y-83854936D02*
X181758000Y-85309064D01*
X179938000Y-83854936D02*
X179938000Y-85309064D01*
X179035064Y-52430000D02*
X177580936Y-52430000D01*
X179035064Y-54250000D02*
X177580936Y-54250000D01*
%LPC*%
D12*
X152146000Y-72930000D03*
D13*
X157226000Y-72930000D03*
D14*
X141732000Y-36068000D03*
X136652000Y-36068000D03*
X134112000Y-38608000D03*
X134112000Y-43688000D03*
X154432000Y-64008000D03*
X159512000Y-64008000D03*
X162052000Y-56388000D03*
X162052000Y-61468000D03*
D15*
X116000000Y-94000000D03*
D16*
X116000000Y-94000000D03*
D17*
X105725000Y-61840000D03*
X105725000Y-56760000D03*
X105725000Y-59300000D03*
D18*
X186098500Y-94234000D03*
D15*
X186000000Y-54500000D03*
D16*
X186000000Y-54500000D03*
D18*
X186098500Y-36234000D03*
D19*
X171196000Y-64476000D03*
D20*
X171196000Y-59476000D03*
D18*
X106000000Y-94000000D03*
X106000000Y-36000000D03*
D21*
X144526000Y-77470000D03*
D15*
X186000000Y-70000000D03*
D16*
X186000000Y-70000000D03*
D21*
X103632000Y-80010000D03*
X173482000Y-46228000D03*
D16*
X116000000Y-36000000D03*
D15*
X116000000Y-36000000D03*
D21*
X152146000Y-88900000D03*
D22*
X110450000Y-64400000D03*
X113550000Y-64400000D03*
D23*
X105650000Y-52578000D03*
X108750000Y-52578000D03*
D24*
X129794000Y-83604500D03*
X129794000Y-80479500D03*
D25*
X124206000Y-93752000D03*
X124206000Y-90652000D03*
D26*
X137603000Y-86233000D03*
X137603000Y-84963000D03*
X137603000Y-83693000D03*
X137603000Y-82423000D03*
X132653000Y-82423000D03*
X132653000Y-83693000D03*
X132653000Y-84963000D03*
X132653000Y-86233000D03*
D27*
X146926500Y-80899000D03*
X146926500Y-79629000D03*
X153301500Y-79629000D03*
X153301500Y-80899000D03*
D28*
X137668000Y-91478500D03*
X137668000Y-88353500D03*
D29*
X113562500Y-69900000D03*
X110437500Y-69900000D03*
X164884500Y-84328000D03*
X161759500Y-84328000D03*
X123990500Y-73152000D03*
X120865500Y-73152000D03*
D30*
X177038000Y-67538000D03*
X177038000Y-70638000D03*
X178308000Y-79274000D03*
X178308000Y-76174000D03*
D25*
X129794000Y-73940000D03*
X129794000Y-70840000D03*
D31*
X128778000Y-56008000D03*
X128778000Y-59308000D03*
D29*
X170218500Y-79756000D03*
X167093500Y-79756000D03*
D22*
X127990000Y-89408000D03*
X131090000Y-89408000D03*
D23*
X174778000Y-86868000D03*
X171678000Y-86868000D03*
X126010000Y-69088000D03*
X122910000Y-69088000D03*
D32*
X161864000Y-89232500D03*
X163764000Y-89232500D03*
X162814000Y-91107500D03*
D23*
X146330000Y-89154000D03*
X143230000Y-89154000D03*
X157760000Y-97282000D03*
X154660000Y-97282000D03*
D21*
X176276000Y-82804000D03*
D23*
X146330000Y-93770000D03*
X143230000Y-93770000D03*
D31*
X174752000Y-92330000D03*
X174752000Y-95630000D03*
D33*
X128231500Y-94234000D03*
X131356500Y-94234000D03*
D23*
X162840000Y-79756000D03*
X159740000Y-79756000D03*
D21*
X159258000Y-93726000D03*
D24*
X140716000Y-81749500D03*
X140716000Y-84874500D03*
D21*
X119380000Y-54356000D03*
D25*
X126746000Y-83592000D03*
X126746000Y-80492000D03*
D30*
X180848000Y-83032000D03*
X180848000Y-86132000D03*
D23*
X179858000Y-53340000D03*
X176758000Y-53340000D03*
M02*
