G04 #@! TF.GenerationSoftware,KiCad,Pcbnew,(6.0.11)*
G04 #@! TF.CreationDate,2023-06-14T07:53:09+03:00*
G04 #@! TF.ProjectId,flyback_48V_48W,666c7962-6163-46b5-9f34-38565f343857,rev?*
G04 #@! TF.SameCoordinates,Original*
G04 #@! TF.FileFunction,Legend,Bot*
G04 #@! TF.FilePolarity,Positive*
%FSLAX46Y46*%
G04 Gerber Fmt 4.6, Leading zero omitted, Abs format (unit mm)*
G04 Created by KiCad (PCBNEW (6.0.11)) date 2023-06-14 07:53:09*
%MOMM*%
%LPD*%
G01*
G04 APERTURE LIST*
G04 Aperture macros list*
%AMRoundRect*
0 Rectangle with rounded corners*
0 $1 Rounding radius*
0 $2 $3 $4 $5 $6 $7 $8 $9 X,Y pos of 4 corners*
0 Add a 4 corners polygon primitive as box body*
4,1,4,$2,$3,$4,$5,$6,$7,$8,$9,$2,$3,0*
0 Add four circle primitives for the rounded corners*
1,1,$1+$1,$2,$3*
1,1,$1+$1,$4,$5*
1,1,$1+$1,$6,$7*
1,1,$1+$1,$8,$9*
0 Add four rect primitives between the rounded corners*
20,1,$1+$1,$2,$3,$4,$5,0*
20,1,$1+$1,$4,$5,$6,$7,0*
20,1,$1+$1,$6,$7,$8,$9,0*
20,1,$1+$1,$8,$9,$2,$3,0*%
G04 Aperture macros list end*
%ADD10C,0.150000*%
%ADD11C,0.120000*%
%ADD12C,3.800000*%
%ADD13O,3.048000X1.524000*%
%ADD14R,2.000000X2.000000*%
%ADD15O,2.000000X2.000000*%
%ADD16R,1.200000X1.200000*%
%ADD17C,1.200000*%
%ADD18C,1.524000*%
%ADD19C,1.000000*%
%ADD20RoundRect,0.250000X0.400000X0.625000X-0.400000X0.625000X-0.400000X-0.625000X0.400000X-0.625000X0*%
%ADD21RoundRect,0.250000X-0.400000X-0.625000X0.400000X-0.625000X0.400000X0.625000X-0.400000X0.625000X0*%
%ADD22RoundRect,0.250000X0.650000X-0.412500X0.650000X0.412500X-0.650000X0.412500X-0.650000X-0.412500X0*%
%ADD23RoundRect,0.150000X-0.825000X-0.150000X0.825000X-0.150000X0.825000X0.150000X-0.825000X0.150000X0*%
%ADD24RoundRect,0.150000X-0.662500X-0.150000X0.662500X-0.150000X0.662500X0.150000X-0.662500X0.150000X0*%
%ADD25RoundRect,0.250000X-0.650000X0.412500X-0.650000X-0.412500X0.650000X-0.412500X0.650000X0.412500X0*%
%ADD26RoundRect,0.250000X0.412500X0.650000X-0.412500X0.650000X-0.412500X-0.650000X0.412500X-0.650000X0*%
%ADD27RoundRect,0.250000X-0.412500X-0.650000X0.412500X-0.650000X0.412500X0.650000X-0.412500X0.650000X0*%
%ADD28R,0.900000X1.200000*%
%ADD29RoundRect,0.250000X-0.625000X0.400000X-0.625000X-0.400000X0.625000X-0.400000X0.625000X0.400000X0*%
%ADD30RoundRect,0.150000X-0.150000X0.587500X-0.150000X-0.587500X0.150000X-0.587500X0.150000X0.587500X0*%
%ADD31RoundRect,0.250000X0.625000X-0.400000X0.625000X0.400000X-0.625000X0.400000X-0.625000X-0.400000X0*%
%ADD32R,1.200000X0.900000*%
G04 APERTURE END LIST*
D10*
X171846666Y-46188380D02*
X171275238Y-46188380D01*
X171560952Y-47188380D02*
X171560952Y-46188380D01*
X170799047Y-47188380D02*
X170894285Y-47140761D01*
X170941904Y-47093142D01*
X170989523Y-46997904D01*
X170989523Y-46712190D01*
X170941904Y-46616952D01*
X170894285Y-46569333D01*
X170799047Y-46521714D01*
X170656190Y-46521714D01*
X170560952Y-46569333D01*
X170513333Y-46616952D01*
X170465714Y-46712190D01*
X170465714Y-46997904D01*
X170513333Y-47093142D01*
X170560952Y-47140761D01*
X170656190Y-47188380D01*
X170799047Y-47188380D01*
X170037142Y-46521714D02*
X170037142Y-47521714D01*
X170037142Y-46569333D02*
X169941904Y-46521714D01*
X169751428Y-46521714D01*
X169656190Y-46569333D01*
X169608571Y-46616952D01*
X169560952Y-46712190D01*
X169560952Y-46997904D01*
X169608571Y-47093142D01*
X169656190Y-47140761D01*
X169751428Y-47188380D01*
X169941904Y-47188380D01*
X170037142Y-47140761D01*
X168608571Y-47188380D02*
X169180000Y-47188380D01*
X168894285Y-47188380D02*
X168894285Y-46188380D01*
X168989523Y-46331238D01*
X169084761Y-46426476D01*
X169180000Y-46474095D01*
X115370380Y-40278190D02*
X114894190Y-39944857D01*
X115370380Y-39706761D02*
X114370380Y-39706761D01*
X114370380Y-40087714D01*
X114418000Y-40182952D01*
X114465619Y-40230571D01*
X114560857Y-40278190D01*
X114703714Y-40278190D01*
X114798952Y-40230571D01*
X114846571Y-40182952D01*
X114894190Y-40087714D01*
X114894190Y-39706761D01*
X115322761Y-40659142D02*
X115370380Y-40754380D01*
X115370380Y-40944857D01*
X115322761Y-41040095D01*
X115227523Y-41087714D01*
X115179904Y-41087714D01*
X115084666Y-41040095D01*
X115037047Y-40944857D01*
X115037047Y-40802000D01*
X114989428Y-40706761D01*
X114894190Y-40659142D01*
X114846571Y-40659142D01*
X114751333Y-40706761D01*
X114703714Y-40802000D01*
X114703714Y-40944857D01*
X114751333Y-41040095D01*
X114703714Y-41516285D02*
X115370380Y-41516285D01*
X114798952Y-41516285D02*
X114751333Y-41563904D01*
X114703714Y-41659142D01*
X114703714Y-41802000D01*
X114751333Y-41897238D01*
X114846571Y-41944857D01*
X115370380Y-41944857D01*
X114465619Y-42373428D02*
X114418000Y-42421047D01*
X114370380Y-42516285D01*
X114370380Y-42754380D01*
X114418000Y-42849619D01*
X114465619Y-42897238D01*
X114560857Y-42944857D01*
X114656095Y-42944857D01*
X114798952Y-42897238D01*
X115370380Y-42325809D01*
X115370380Y-42944857D01*
X115768380Y-62881047D02*
X115292190Y-62547714D01*
X115768380Y-62309619D02*
X114768380Y-62309619D01*
X114768380Y-62690571D01*
X114816000Y-62785809D01*
X114863619Y-62833428D01*
X114958857Y-62881047D01*
X115101714Y-62881047D01*
X115196952Y-62833428D01*
X115244571Y-62785809D01*
X115292190Y-62690571D01*
X115292190Y-62309619D01*
X115768380Y-63309619D02*
X115101714Y-63309619D01*
X115292190Y-63309619D02*
X115196952Y-63357238D01*
X115149333Y-63404857D01*
X115101714Y-63500095D01*
X115101714Y-63595333D01*
X115101714Y-63928666D02*
X115768380Y-63928666D01*
X115196952Y-63928666D02*
X115149333Y-63976285D01*
X115101714Y-64071523D01*
X115101714Y-64214380D01*
X115149333Y-64309619D01*
X115244571Y-64357238D01*
X115768380Y-64357238D01*
X115101714Y-65262000D02*
X115911238Y-65262000D01*
X116006476Y-65214380D01*
X116054095Y-65166761D01*
X116101714Y-65071523D01*
X116101714Y-64928666D01*
X116054095Y-64833428D01*
X115720761Y-65262000D02*
X115768380Y-65166761D01*
X115768380Y-64976285D01*
X115720761Y-64881047D01*
X115673142Y-64833428D01*
X115577904Y-64785809D01*
X115292190Y-64785809D01*
X115196952Y-64833428D01*
X115149333Y-64881047D01*
X115101714Y-64976285D01*
X115101714Y-65166761D01*
X115149333Y-65262000D01*
X115768380Y-66262000D02*
X115768380Y-65690571D01*
X115768380Y-65976285D02*
X114768380Y-65976285D01*
X114911238Y-65881047D01*
X115006476Y-65785809D01*
X115054095Y-65690571D01*
X107619047Y-50802380D02*
X107952380Y-50326190D01*
X108190476Y-50802380D02*
X108190476Y-49802380D01*
X107809523Y-49802380D01*
X107714285Y-49850000D01*
X107666666Y-49897619D01*
X107619047Y-49992857D01*
X107619047Y-50135714D01*
X107666666Y-50230952D01*
X107714285Y-50278571D01*
X107809523Y-50326190D01*
X108190476Y-50326190D01*
X106761904Y-50135714D02*
X106761904Y-50945238D01*
X106809523Y-51040476D01*
X106857142Y-51088095D01*
X106952380Y-51135714D01*
X107095238Y-51135714D01*
X107190476Y-51088095D01*
X106761904Y-50754761D02*
X106857142Y-50802380D01*
X107047619Y-50802380D01*
X107142857Y-50754761D01*
X107190476Y-50707142D01*
X107238095Y-50611904D01*
X107238095Y-50326190D01*
X107190476Y-50230952D01*
X107142857Y-50183333D01*
X107047619Y-50135714D01*
X106857142Y-50135714D01*
X106761904Y-50183333D01*
X105761904Y-50802380D02*
X106333333Y-50802380D01*
X106047619Y-50802380D02*
X106047619Y-49802380D01*
X106142857Y-49945238D01*
X106238095Y-50040476D01*
X106333333Y-50088095D01*
X129135142Y-52340000D02*
X129182761Y-52292380D01*
X129230380Y-52149523D01*
X129230380Y-52054285D01*
X129182761Y-51911428D01*
X129087523Y-51816190D01*
X128992285Y-51768571D01*
X128801809Y-51720952D01*
X128658952Y-51720952D01*
X128468476Y-51768571D01*
X128373238Y-51816190D01*
X128278000Y-51911428D01*
X128230380Y-52054285D01*
X128230380Y-52149523D01*
X128278000Y-52292380D01*
X128325619Y-52340000D01*
X129182761Y-53197142D02*
X129230380Y-53101904D01*
X129230380Y-52911428D01*
X129182761Y-52816190D01*
X129135142Y-52768571D01*
X129039904Y-52720952D01*
X128754190Y-52720952D01*
X128658952Y-52768571D01*
X128611333Y-52816190D01*
X128563714Y-52911428D01*
X128563714Y-53101904D01*
X128611333Y-53197142D01*
X129182761Y-53578095D02*
X129230380Y-53673333D01*
X129230380Y-53863809D01*
X129182761Y-53959047D01*
X129087523Y-54006666D01*
X129039904Y-54006666D01*
X128944666Y-53959047D01*
X128897047Y-53863809D01*
X128897047Y-53720952D01*
X128849428Y-53625714D01*
X128754190Y-53578095D01*
X128706571Y-53578095D01*
X128611333Y-53625714D01*
X128563714Y-53720952D01*
X128563714Y-53863809D01*
X128611333Y-53959047D01*
X129230380Y-54959047D02*
X129230380Y-54387619D01*
X129230380Y-54673333D02*
X128230380Y-54673333D01*
X128373238Y-54578095D01*
X128468476Y-54482857D01*
X128516095Y-54387619D01*
X113138380Y-43016190D02*
X112662190Y-42682857D01*
X113138380Y-42444761D02*
X112138380Y-42444761D01*
X112138380Y-42825714D01*
X112186000Y-42920952D01*
X112233619Y-42968571D01*
X112328857Y-43016190D01*
X112471714Y-43016190D01*
X112566952Y-42968571D01*
X112614571Y-42920952D01*
X112662190Y-42825714D01*
X112662190Y-42444761D01*
X113090761Y-43397142D02*
X113138380Y-43492380D01*
X113138380Y-43682857D01*
X113090761Y-43778095D01*
X112995523Y-43825714D01*
X112947904Y-43825714D01*
X112852666Y-43778095D01*
X112805047Y-43682857D01*
X112805047Y-43540000D01*
X112757428Y-43444761D01*
X112662190Y-43397142D01*
X112614571Y-43397142D01*
X112519333Y-43444761D01*
X112471714Y-43540000D01*
X112471714Y-43682857D01*
X112519333Y-43778095D01*
X112471714Y-44254285D02*
X113138380Y-44254285D01*
X112566952Y-44254285D02*
X112519333Y-44301904D01*
X112471714Y-44397142D01*
X112471714Y-44540000D01*
X112519333Y-44635238D01*
X112614571Y-44682857D01*
X113138380Y-44682857D01*
X113138380Y-45682857D02*
X113138380Y-45111428D01*
X113138380Y-45397142D02*
X112138380Y-45397142D01*
X112281238Y-45301904D01*
X112376476Y-45206666D01*
X112424095Y-45111428D01*
X122880380Y-61587333D02*
X122404190Y-61254000D01*
X122880380Y-61015904D02*
X121880380Y-61015904D01*
X121880380Y-61396857D01*
X121928000Y-61492095D01*
X121975619Y-61539714D01*
X122070857Y-61587333D01*
X122213714Y-61587333D01*
X122308952Y-61539714D01*
X122356571Y-61492095D01*
X122404190Y-61396857D01*
X122404190Y-61015904D01*
X122832761Y-62444476D02*
X122880380Y-62349238D01*
X122880380Y-62158761D01*
X122832761Y-62063523D01*
X122785142Y-62015904D01*
X122689904Y-61968285D01*
X122404190Y-61968285D01*
X122308952Y-62015904D01*
X122261333Y-62063523D01*
X122213714Y-62158761D01*
X122213714Y-62349238D01*
X122261333Y-62444476D01*
X122880380Y-63015904D02*
X122832761Y-62920666D01*
X122785142Y-62873047D01*
X122689904Y-62825428D01*
X122404190Y-62825428D01*
X122308952Y-62873047D01*
X122261333Y-62920666D01*
X122213714Y-63015904D01*
X122213714Y-63158761D01*
X122261333Y-63254000D01*
X122308952Y-63301619D01*
X122404190Y-63349238D01*
X122689904Y-63349238D01*
X122785142Y-63301619D01*
X122832761Y-63254000D01*
X122880380Y-63158761D01*
X122880380Y-63015904D01*
X122880380Y-63777809D02*
X122213714Y-63777809D01*
X122308952Y-63777809D02*
X122261333Y-63825428D01*
X122213714Y-63920666D01*
X122213714Y-64063523D01*
X122261333Y-64158761D01*
X122356571Y-64206380D01*
X122880380Y-64206380D01*
X122356571Y-64206380D02*
X122261333Y-64254000D01*
X122213714Y-64349238D01*
X122213714Y-64492095D01*
X122261333Y-64587333D01*
X122356571Y-64634952D01*
X122880380Y-64634952D01*
X122213714Y-65111142D02*
X123213714Y-65111142D01*
X122261333Y-65111142D02*
X122213714Y-65206380D01*
X122213714Y-65396857D01*
X122261333Y-65492095D01*
X122308952Y-65539714D01*
X122404190Y-65587333D01*
X122689904Y-65587333D01*
X122785142Y-65539714D01*
X122832761Y-65492095D01*
X122880380Y-65396857D01*
X122880380Y-65206380D01*
X122832761Y-65111142D01*
X121975619Y-65968285D02*
X121928000Y-66015904D01*
X121880380Y-66111142D01*
X121880380Y-66349238D01*
X121928000Y-66444476D01*
X121975619Y-66492095D01*
X122070857Y-66539714D01*
X122166095Y-66539714D01*
X122308952Y-66492095D01*
X122880380Y-65920666D01*
X122880380Y-66539714D01*
X137361904Y-56652380D02*
X137361904Y-57461904D01*
X137314285Y-57557142D01*
X137266666Y-57604761D01*
X137171428Y-57652380D01*
X136980952Y-57652380D01*
X136885714Y-57604761D01*
X136838095Y-57557142D01*
X136790476Y-57461904D01*
X136790476Y-56652380D01*
X136361904Y-56747619D02*
X136314285Y-56700000D01*
X136219047Y-56652380D01*
X135980952Y-56652380D01*
X135885714Y-56700000D01*
X135838095Y-56747619D01*
X135790476Y-56842857D01*
X135790476Y-56938095D01*
X135838095Y-57080952D01*
X136409523Y-57652380D01*
X135790476Y-57652380D01*
X150511904Y-53452380D02*
X150511904Y-54261904D01*
X150464285Y-54357142D01*
X150416666Y-54404761D01*
X150321428Y-54452380D01*
X150130952Y-54452380D01*
X150035714Y-54404761D01*
X149988095Y-54357142D01*
X149940476Y-54261904D01*
X149940476Y-53452380D01*
X149559523Y-53452380D02*
X148940476Y-53452380D01*
X149273809Y-53833333D01*
X149130952Y-53833333D01*
X149035714Y-53880952D01*
X148988095Y-53928571D01*
X148940476Y-54023809D01*
X148940476Y-54261904D01*
X148988095Y-54357142D01*
X149035714Y-54404761D01*
X149130952Y-54452380D01*
X149416666Y-54452380D01*
X149511904Y-54404761D01*
X149559523Y-54357142D01*
X142089142Y-63833523D02*
X142136761Y-63785904D01*
X142184380Y-63643047D01*
X142184380Y-63547809D01*
X142136761Y-63404952D01*
X142041523Y-63309714D01*
X141946285Y-63262095D01*
X141755809Y-63214476D01*
X141612952Y-63214476D01*
X141422476Y-63262095D01*
X141327238Y-63309714D01*
X141232000Y-63404952D01*
X141184380Y-63547809D01*
X141184380Y-63643047D01*
X141232000Y-63785904D01*
X141279619Y-63833523D01*
X142184380Y-64262095D02*
X141517714Y-64262095D01*
X141708190Y-64262095D02*
X141612952Y-64309714D01*
X141565333Y-64357333D01*
X141517714Y-64452571D01*
X141517714Y-64547809D01*
X142136761Y-65262095D02*
X142184380Y-65166857D01*
X142184380Y-64976380D01*
X142136761Y-64881142D01*
X142041523Y-64833523D01*
X141660571Y-64833523D01*
X141565333Y-64881142D01*
X141517714Y-64976380D01*
X141517714Y-65166857D01*
X141565333Y-65262095D01*
X141660571Y-65309714D01*
X141755809Y-65309714D01*
X141851047Y-64833523D01*
X141517714Y-65595428D02*
X141517714Y-65976380D01*
X142184380Y-65738285D02*
X141327238Y-65738285D01*
X141232000Y-65785904D01*
X141184380Y-65881142D01*
X141184380Y-65976380D01*
X142184380Y-66833523D02*
X142184380Y-66262095D01*
X142184380Y-66547809D02*
X141184380Y-66547809D01*
X141327238Y-66452571D01*
X141422476Y-66357333D01*
X141470095Y-66262095D01*
X112124952Y-67413142D02*
X112172571Y-67460761D01*
X112315428Y-67508380D01*
X112410666Y-67508380D01*
X112553523Y-67460761D01*
X112648761Y-67365523D01*
X112696380Y-67270285D01*
X112744000Y-67079809D01*
X112744000Y-66936952D01*
X112696380Y-66746476D01*
X112648761Y-66651238D01*
X112553523Y-66556000D01*
X112410666Y-66508380D01*
X112315428Y-66508380D01*
X112172571Y-66556000D01*
X112124952Y-66603619D01*
X111696380Y-67508380D02*
X111696380Y-66841714D01*
X111696380Y-67032190D02*
X111648761Y-66936952D01*
X111601142Y-66889333D01*
X111505904Y-66841714D01*
X111410666Y-66841714D01*
X111077333Y-66841714D02*
X111077333Y-67508380D01*
X111077333Y-66936952D02*
X111029714Y-66889333D01*
X110934476Y-66841714D01*
X110791619Y-66841714D01*
X110696380Y-66889333D01*
X110648761Y-66984571D01*
X110648761Y-67508380D01*
X109744000Y-66841714D02*
X109744000Y-67651238D01*
X109791619Y-67746476D01*
X109839238Y-67794095D01*
X109934476Y-67841714D01*
X110077333Y-67841714D01*
X110172571Y-67794095D01*
X109744000Y-67460761D02*
X109839238Y-67508380D01*
X110029714Y-67508380D01*
X110124952Y-67460761D01*
X110172571Y-67413142D01*
X110220190Y-67317904D01*
X110220190Y-67032190D01*
X110172571Y-66936952D01*
X110124952Y-66889333D01*
X110029714Y-66841714D01*
X109839238Y-66841714D01*
X109744000Y-66889333D01*
X108744000Y-67508380D02*
X109315428Y-67508380D01*
X109029714Y-67508380D02*
X109029714Y-66508380D01*
X109124952Y-66651238D01*
X109220190Y-66746476D01*
X109315428Y-66794095D01*
X154797047Y-42615142D02*
X154844666Y-42662761D01*
X154987523Y-42710380D01*
X155082761Y-42710380D01*
X155225619Y-42662761D01*
X155320857Y-42567523D01*
X155368476Y-42472285D01*
X155416095Y-42281809D01*
X155416095Y-42138952D01*
X155368476Y-41948476D01*
X155320857Y-41853238D01*
X155225619Y-41758000D01*
X155082761Y-41710380D01*
X154987523Y-41710380D01*
X154844666Y-41758000D01*
X154797047Y-41805619D01*
X154368476Y-42043714D02*
X154368476Y-43043714D01*
X154368476Y-42091333D02*
X154273238Y-42043714D01*
X154082761Y-42043714D01*
X153987523Y-42091333D01*
X153939904Y-42138952D01*
X153892285Y-42234190D01*
X153892285Y-42519904D01*
X153939904Y-42615142D01*
X153987523Y-42662761D01*
X154082761Y-42710380D01*
X154273238Y-42710380D01*
X154368476Y-42662761D01*
X153511333Y-41805619D02*
X153463714Y-41758000D01*
X153368476Y-41710380D01*
X153130380Y-41710380D01*
X153035142Y-41758000D01*
X152987523Y-41805619D01*
X152939904Y-41900857D01*
X152939904Y-41996095D01*
X152987523Y-42138952D01*
X153558952Y-42710380D01*
X152939904Y-42710380D01*
X142438380Y-46839142D02*
X142486000Y-46886761D01*
X142628857Y-46934380D01*
X142724095Y-46934380D01*
X142866952Y-46886761D01*
X142962190Y-46791523D01*
X143009809Y-46696285D01*
X143057428Y-46505809D01*
X143057428Y-46362952D01*
X143009809Y-46172476D01*
X142962190Y-46077238D01*
X142866952Y-45982000D01*
X142724095Y-45934380D01*
X142628857Y-45934380D01*
X142486000Y-45982000D01*
X142438380Y-46029619D01*
X142152666Y-46267714D02*
X141771714Y-46267714D01*
X142009809Y-45934380D02*
X142009809Y-46791523D01*
X141962190Y-46886761D01*
X141866952Y-46934380D01*
X141771714Y-46934380D01*
X140914571Y-46934380D02*
X141486000Y-46934380D01*
X141200285Y-46934380D02*
X141200285Y-45934380D01*
X141295523Y-46077238D01*
X141390761Y-46172476D01*
X141486000Y-46220095D01*
X164679238Y-66492380D02*
X165012571Y-66016190D01*
X165250666Y-66492380D02*
X165250666Y-65492380D01*
X164869714Y-65492380D01*
X164774476Y-65540000D01*
X164726857Y-65587619D01*
X164679238Y-65682857D01*
X164679238Y-65825714D01*
X164726857Y-65920952D01*
X164774476Y-65968571D01*
X164869714Y-66016190D01*
X165250666Y-66016190D01*
X163869714Y-66444761D02*
X163964952Y-66492380D01*
X164155428Y-66492380D01*
X164250666Y-66444761D01*
X164298285Y-66349523D01*
X164298285Y-65968571D01*
X164250666Y-65873333D01*
X164155428Y-65825714D01*
X163964952Y-65825714D01*
X163869714Y-65873333D01*
X163822095Y-65968571D01*
X163822095Y-66063809D01*
X164298285Y-66159047D01*
X162869714Y-66492380D02*
X163441142Y-66492380D01*
X163155428Y-66492380D02*
X163155428Y-65492380D01*
X163250666Y-65635238D01*
X163345904Y-65730476D01*
X163441142Y-65778095D01*
X160218380Y-71572380D02*
X160551714Y-71096190D01*
X160789809Y-71572380D02*
X160789809Y-70572380D01*
X160408857Y-70572380D01*
X160313619Y-70620000D01*
X160266000Y-70667619D01*
X160218380Y-70762857D01*
X160218380Y-70905714D01*
X160266000Y-71000952D01*
X160313619Y-71048571D01*
X160408857Y-71096190D01*
X160789809Y-71096190D01*
X159932666Y-70905714D02*
X159551714Y-70905714D01*
X159789809Y-71572380D02*
X159789809Y-70715238D01*
X159742190Y-70620000D01*
X159646952Y-70572380D01*
X159551714Y-70572380D01*
X158694571Y-71572380D02*
X159266000Y-71572380D01*
X158980285Y-71572380D02*
X158980285Y-70572380D01*
X159075523Y-70715238D01*
X159170761Y-70810476D01*
X159266000Y-70858095D01*
X137866380Y-50236380D02*
X138199714Y-49760190D01*
X138437809Y-50236380D02*
X138437809Y-49236380D01*
X138056857Y-49236380D01*
X137961619Y-49284000D01*
X137914000Y-49331619D01*
X137866380Y-49426857D01*
X137866380Y-49569714D01*
X137914000Y-49664952D01*
X137961619Y-49712571D01*
X138056857Y-49760190D01*
X138437809Y-49760190D01*
X137580666Y-49569714D02*
X137199714Y-49569714D01*
X137437809Y-49236380D02*
X137437809Y-50093523D01*
X137390190Y-50188761D01*
X137294952Y-50236380D01*
X137199714Y-50236380D01*
X136342571Y-50236380D02*
X136914000Y-50236380D01*
X136628285Y-50236380D02*
X136628285Y-49236380D01*
X136723523Y-49379238D01*
X136818761Y-49474476D01*
X136914000Y-49522095D01*
X113609238Y-57602380D02*
X113609238Y-56602380D01*
X113371142Y-56602380D01*
X113228285Y-56650000D01*
X113133047Y-56745238D01*
X113085428Y-56840476D01*
X113037809Y-57030952D01*
X113037809Y-57173809D01*
X113085428Y-57364285D01*
X113133047Y-57459523D01*
X113228285Y-57554761D01*
X113371142Y-57602380D01*
X113609238Y-57602380D01*
X112656857Y-57554761D02*
X112561619Y-57602380D01*
X112371142Y-57602380D01*
X112275904Y-57554761D01*
X112228285Y-57459523D01*
X112228285Y-57411904D01*
X112275904Y-57316666D01*
X112371142Y-57269047D01*
X112514000Y-57269047D01*
X112609238Y-57221428D01*
X112656857Y-57126190D01*
X112656857Y-57078571D01*
X112609238Y-56983333D01*
X112514000Y-56935714D01*
X112371142Y-56935714D01*
X112275904Y-56983333D01*
X111799714Y-56935714D02*
X111799714Y-57602380D01*
X111799714Y-57030952D02*
X111752095Y-56983333D01*
X111656857Y-56935714D01*
X111514000Y-56935714D01*
X111418761Y-56983333D01*
X111371142Y-57078571D01*
X111371142Y-57602380D01*
X110371142Y-57602380D02*
X110942571Y-57602380D01*
X110656857Y-57602380D02*
X110656857Y-56602380D01*
X110752095Y-56745238D01*
X110847333Y-56840476D01*
X110942571Y-56888095D01*
X150550571Y-55285047D02*
X150598190Y-55427904D01*
X150645809Y-55475523D01*
X150741047Y-55523142D01*
X150883904Y-55523142D01*
X150979142Y-55475523D01*
X151026761Y-55427904D01*
X151074380Y-55332666D01*
X151074380Y-54951714D01*
X150074380Y-54951714D01*
X150074380Y-55285047D01*
X150122000Y-55380285D01*
X150169619Y-55427904D01*
X150264857Y-55475523D01*
X150360095Y-55475523D01*
X150455333Y-55427904D01*
X150502952Y-55380285D01*
X150550571Y-55285047D01*
X150550571Y-54951714D01*
X150074380Y-56427904D02*
X150074380Y-55951714D01*
X150550571Y-55904095D01*
X150502952Y-55951714D01*
X150455333Y-56046952D01*
X150455333Y-56285047D01*
X150502952Y-56380285D01*
X150550571Y-56427904D01*
X150645809Y-56475523D01*
X150883904Y-56475523D01*
X150979142Y-56427904D01*
X151026761Y-56380285D01*
X151074380Y-56285047D01*
X151074380Y-56046952D01*
X151026761Y-55951714D01*
X150979142Y-55904095D01*
X150502952Y-57046952D02*
X150455333Y-56951714D01*
X150407714Y-56904095D01*
X150312476Y-56856476D01*
X150264857Y-56856476D01*
X150169619Y-56904095D01*
X150122000Y-56951714D01*
X150074380Y-57046952D01*
X150074380Y-57237428D01*
X150122000Y-57332666D01*
X150169619Y-57380285D01*
X150264857Y-57427904D01*
X150312476Y-57427904D01*
X150407714Y-57380285D01*
X150455333Y-57332666D01*
X150502952Y-57237428D01*
X150502952Y-57046952D01*
X150550571Y-56951714D01*
X150598190Y-56904095D01*
X150693428Y-56856476D01*
X150883904Y-56856476D01*
X150979142Y-56904095D01*
X151026761Y-56951714D01*
X151074380Y-57046952D01*
X151074380Y-57237428D01*
X151026761Y-57332666D01*
X150979142Y-57380285D01*
X150883904Y-57427904D01*
X150693428Y-57427904D01*
X150598190Y-57380285D01*
X150550571Y-57332666D01*
X150502952Y-57237428D01*
X151074380Y-58380285D02*
X151074380Y-57808857D01*
X151074380Y-58094571D02*
X150074380Y-58094571D01*
X150217238Y-57999333D01*
X150312476Y-57904095D01*
X150360095Y-57808857D01*
X151074380Y-58856476D02*
X151074380Y-59046952D01*
X151026761Y-59142190D01*
X150979142Y-59189809D01*
X150836285Y-59285047D01*
X150645809Y-59332666D01*
X150264857Y-59332666D01*
X150169619Y-59285047D01*
X150122000Y-59237428D01*
X150074380Y-59142190D01*
X150074380Y-58951714D01*
X150122000Y-58856476D01*
X150169619Y-58808857D01*
X150264857Y-58761238D01*
X150502952Y-58761238D01*
X150598190Y-58808857D01*
X150645809Y-58856476D01*
X150693428Y-58951714D01*
X150693428Y-59142190D01*
X150645809Y-59237428D01*
X150598190Y-59285047D01*
X150502952Y-59332666D01*
X150074380Y-59666000D02*
X151074380Y-59904095D01*
X150360095Y-60094571D01*
X151074380Y-60285047D01*
X150074380Y-60523142D01*
X151074380Y-61427904D02*
X151074380Y-60856476D01*
X151074380Y-61142190D02*
X150074380Y-61142190D01*
X150217238Y-61046952D01*
X150312476Y-60951714D01*
X150360095Y-60856476D01*
X163687047Y-39981142D02*
X163734666Y-40028761D01*
X163877523Y-40076380D01*
X163972761Y-40076380D01*
X164115619Y-40028761D01*
X164210857Y-39933523D01*
X164258476Y-39838285D01*
X164306095Y-39647809D01*
X164306095Y-39504952D01*
X164258476Y-39314476D01*
X164210857Y-39219238D01*
X164115619Y-39124000D01*
X163972761Y-39076380D01*
X163877523Y-39076380D01*
X163734666Y-39124000D01*
X163687047Y-39171619D01*
X163258476Y-39409714D02*
X163258476Y-40409714D01*
X163258476Y-39457333D02*
X163163238Y-39409714D01*
X162972761Y-39409714D01*
X162877523Y-39457333D01*
X162829904Y-39504952D01*
X162782285Y-39600190D01*
X162782285Y-39885904D01*
X162829904Y-39981142D01*
X162877523Y-40028761D01*
X162972761Y-40076380D01*
X163163238Y-40076380D01*
X163258476Y-40028761D01*
X161829904Y-40076380D02*
X162401333Y-40076380D01*
X162115619Y-40076380D02*
X162115619Y-39076380D01*
X162210857Y-39219238D01*
X162306095Y-39314476D01*
X162401333Y-39362095D01*
X132976666Y-61666380D02*
X133310000Y-61190190D01*
X133548095Y-61666380D02*
X133548095Y-60666380D01*
X133167142Y-60666380D01*
X133071904Y-60714000D01*
X133024285Y-60761619D01*
X132976666Y-60856857D01*
X132976666Y-60999714D01*
X133024285Y-61094952D01*
X133071904Y-61142571D01*
X133167142Y-61190190D01*
X133548095Y-61190190D01*
X132119523Y-61618761D02*
X132214761Y-61666380D01*
X132405238Y-61666380D01*
X132500476Y-61618761D01*
X132548095Y-61571142D01*
X132595714Y-61475904D01*
X132595714Y-61190190D01*
X132548095Y-61094952D01*
X132500476Y-61047333D01*
X132405238Y-60999714D01*
X132214761Y-60999714D01*
X132119523Y-61047333D01*
X131548095Y-61666380D02*
X131643333Y-61618761D01*
X131690952Y-61571142D01*
X131738571Y-61475904D01*
X131738571Y-61190190D01*
X131690952Y-61094952D01*
X131643333Y-61047333D01*
X131548095Y-60999714D01*
X131405238Y-60999714D01*
X131310000Y-61047333D01*
X131262380Y-61094952D01*
X131214761Y-61190190D01*
X131214761Y-61475904D01*
X131262380Y-61571142D01*
X131310000Y-61618761D01*
X131405238Y-61666380D01*
X131548095Y-61666380D01*
X130786190Y-61666380D02*
X130786190Y-60999714D01*
X130786190Y-61094952D02*
X130738571Y-61047333D01*
X130643333Y-60999714D01*
X130500476Y-60999714D01*
X130405238Y-61047333D01*
X130357619Y-61142571D01*
X130357619Y-61666380D01*
X130357619Y-61142571D02*
X130310000Y-61047333D01*
X130214761Y-60999714D01*
X130071904Y-60999714D01*
X129976666Y-61047333D01*
X129929047Y-61142571D01*
X129929047Y-61666380D01*
X129452857Y-60999714D02*
X129452857Y-61999714D01*
X129452857Y-61047333D02*
X129357619Y-60999714D01*
X129167142Y-60999714D01*
X129071904Y-61047333D01*
X129024285Y-61094952D01*
X128976666Y-61190190D01*
X128976666Y-61475904D01*
X129024285Y-61571142D01*
X129071904Y-61618761D01*
X129167142Y-61666380D01*
X129357619Y-61666380D01*
X129452857Y-61618761D01*
X128024285Y-61666380D02*
X128595714Y-61666380D01*
X128310000Y-61666380D02*
X128310000Y-60666380D01*
X128405238Y-60809238D01*
X128500476Y-60904476D01*
X128595714Y-60952095D01*
X114358209Y-38616942D02*
X114405828Y-38664561D01*
X114548685Y-38712180D01*
X114643923Y-38712180D01*
X114786780Y-38664561D01*
X114882019Y-38569323D01*
X114929638Y-38474085D01*
X114977257Y-38283609D01*
X114977257Y-38140752D01*
X114929638Y-37950276D01*
X114882019Y-37855038D01*
X114786780Y-37759800D01*
X114643923Y-37712180D01*
X114548685Y-37712180D01*
X114405828Y-37759800D01*
X114358209Y-37807419D01*
X113977257Y-38664561D02*
X113882019Y-38712180D01*
X113691542Y-38712180D01*
X113596304Y-38664561D01*
X113548685Y-38569323D01*
X113548685Y-38521704D01*
X113596304Y-38426466D01*
X113691542Y-38378847D01*
X113834400Y-38378847D01*
X113929638Y-38331228D01*
X113977257Y-38235990D01*
X113977257Y-38188371D01*
X113929638Y-38093133D01*
X113834400Y-38045514D01*
X113691542Y-38045514D01*
X113596304Y-38093133D01*
X113120114Y-38045514D02*
X113120114Y-38712180D01*
X113120114Y-38140752D02*
X113072495Y-38093133D01*
X112977257Y-38045514D01*
X112834400Y-38045514D01*
X112739161Y-38093133D01*
X112691542Y-38188371D01*
X112691542Y-38712180D01*
X111691542Y-38712180D02*
X112262971Y-38712180D01*
X111977257Y-38712180D02*
X111977257Y-37712180D01*
X112072495Y-37855038D01*
X112167733Y-37950276D01*
X112262971Y-37997895D01*
X124055142Y-40798857D02*
X124102761Y-40751238D01*
X124150380Y-40608380D01*
X124150380Y-40513142D01*
X124102761Y-40370285D01*
X124007523Y-40275047D01*
X123912285Y-40227428D01*
X123721809Y-40179809D01*
X123578952Y-40179809D01*
X123388476Y-40227428D01*
X123293238Y-40275047D01*
X123198000Y-40370285D01*
X123150380Y-40513142D01*
X123150380Y-40608380D01*
X123198000Y-40751238D01*
X123245619Y-40798857D01*
X124150380Y-41227428D02*
X123483714Y-41227428D01*
X123150380Y-41227428D02*
X123198000Y-41179809D01*
X123245619Y-41227428D01*
X123198000Y-41275047D01*
X123150380Y-41227428D01*
X123245619Y-41227428D01*
X123483714Y-41703619D02*
X124150380Y-41703619D01*
X123578952Y-41703619D02*
X123531333Y-41751238D01*
X123483714Y-41846476D01*
X123483714Y-41989333D01*
X123531333Y-42084571D01*
X123626571Y-42132190D01*
X124150380Y-42132190D01*
X123245619Y-42560761D02*
X123198000Y-42608380D01*
X123150380Y-42703619D01*
X123150380Y-42941714D01*
X123198000Y-43036952D01*
X123245619Y-43084571D01*
X123340857Y-43132190D01*
X123436095Y-43132190D01*
X123578952Y-43084571D01*
X124150380Y-42513142D01*
X124150380Y-43132190D01*
X167322285Y-58872380D02*
X167655619Y-58396190D01*
X167893714Y-58872380D02*
X167893714Y-57872380D01*
X167512761Y-57872380D01*
X167417523Y-57920000D01*
X167369904Y-57967619D01*
X167322285Y-58062857D01*
X167322285Y-58205714D01*
X167369904Y-58300952D01*
X167417523Y-58348571D01*
X167512761Y-58396190D01*
X167893714Y-58396190D01*
X166893714Y-58872380D02*
X166893714Y-57872380D01*
X166893714Y-58253333D02*
X166798476Y-58205714D01*
X166608000Y-58205714D01*
X166512761Y-58253333D01*
X166465142Y-58300952D01*
X166417523Y-58396190D01*
X166417523Y-58681904D01*
X166465142Y-58777142D01*
X166512761Y-58824761D01*
X166608000Y-58872380D01*
X166798476Y-58872380D01*
X166893714Y-58824761D01*
X165988952Y-58872380D02*
X165988952Y-58205714D01*
X165988952Y-57872380D02*
X166036571Y-57920000D01*
X165988952Y-57967619D01*
X165941333Y-57920000D01*
X165988952Y-57872380D01*
X165988952Y-57967619D01*
X165084190Y-58872380D02*
X165084190Y-58348571D01*
X165131809Y-58253333D01*
X165227047Y-58205714D01*
X165417523Y-58205714D01*
X165512761Y-58253333D01*
X165084190Y-58824761D02*
X165179428Y-58872380D01*
X165417523Y-58872380D01*
X165512761Y-58824761D01*
X165560380Y-58729523D01*
X165560380Y-58634285D01*
X165512761Y-58539047D01*
X165417523Y-58491428D01*
X165179428Y-58491428D01*
X165084190Y-58443809D01*
X164655619Y-58824761D02*
X164560380Y-58872380D01*
X164369904Y-58872380D01*
X164274666Y-58824761D01*
X164227047Y-58729523D01*
X164227047Y-58681904D01*
X164274666Y-58586666D01*
X164369904Y-58539047D01*
X164512761Y-58539047D01*
X164608000Y-58491428D01*
X164655619Y-58396190D01*
X164655619Y-58348571D01*
X164608000Y-58253333D01*
X164512761Y-58205714D01*
X164369904Y-58205714D01*
X164274666Y-58253333D01*
X163846095Y-57967619D02*
X163798476Y-57920000D01*
X163703238Y-57872380D01*
X163465142Y-57872380D01*
X163369904Y-57920000D01*
X163322285Y-57967619D01*
X163274666Y-58062857D01*
X163274666Y-58158095D01*
X163322285Y-58300952D01*
X163893714Y-58872380D01*
X163274666Y-58872380D01*
X132024380Y-51760380D02*
X132357714Y-51284190D01*
X132595809Y-51760380D02*
X132595809Y-50760380D01*
X132214857Y-50760380D01*
X132119619Y-50808000D01*
X132072000Y-50855619D01*
X132024380Y-50950857D01*
X132024380Y-51093714D01*
X132072000Y-51188952D01*
X132119619Y-51236571D01*
X132214857Y-51284190D01*
X132595809Y-51284190D01*
X131738666Y-51093714D02*
X131357714Y-51093714D01*
X131595809Y-50760380D02*
X131595809Y-51617523D01*
X131548190Y-51712761D01*
X131452952Y-51760380D01*
X131357714Y-51760380D01*
X131072000Y-50855619D02*
X131024380Y-50808000D01*
X130929142Y-50760380D01*
X130691047Y-50760380D01*
X130595809Y-50808000D01*
X130548190Y-50855619D01*
X130500571Y-50950857D01*
X130500571Y-51046095D01*
X130548190Y-51188952D01*
X131119619Y-51760380D01*
X130500571Y-51760380D01*
X162266380Y-55626095D02*
X163075904Y-55626095D01*
X163171142Y-55673714D01*
X163218761Y-55721333D01*
X163266380Y-55816571D01*
X163266380Y-56007047D01*
X163218761Y-56102285D01*
X163171142Y-56149904D01*
X163075904Y-56197523D01*
X162266380Y-56197523D01*
X162599714Y-57102285D02*
X163266380Y-57102285D01*
X162218761Y-56864190D02*
X162933047Y-56626095D01*
X162933047Y-57245142D01*
X144978380Y-38520761D02*
X144502190Y-38187428D01*
X144978380Y-37949333D02*
X143978380Y-37949333D01*
X143978380Y-38330285D01*
X144026000Y-38425523D01*
X144073619Y-38473142D01*
X144168857Y-38520761D01*
X144311714Y-38520761D01*
X144406952Y-38473142D01*
X144454571Y-38425523D01*
X144502190Y-38330285D01*
X144502190Y-37949333D01*
X144930761Y-39377904D02*
X144978380Y-39282666D01*
X144978380Y-39092190D01*
X144930761Y-38996952D01*
X144883142Y-38949333D01*
X144787904Y-38901714D01*
X144502190Y-38901714D01*
X144406952Y-38949333D01*
X144359333Y-38996952D01*
X144311714Y-39092190D01*
X144311714Y-39282666D01*
X144359333Y-39377904D01*
X144978380Y-40330285D02*
X144978380Y-39758857D01*
X144978380Y-40044571D02*
X143978380Y-40044571D01*
X144121238Y-39949333D01*
X144216476Y-39854095D01*
X144264095Y-39758857D01*
X167838380Y-43243714D02*
X167362190Y-42910380D01*
X167838380Y-42672285D02*
X166838380Y-42672285D01*
X166838380Y-43053238D01*
X166886000Y-43148476D01*
X166933619Y-43196095D01*
X167028857Y-43243714D01*
X167171714Y-43243714D01*
X167266952Y-43196095D01*
X167314571Y-43148476D01*
X167362190Y-43053238D01*
X167362190Y-42672285D01*
X167838380Y-43672285D02*
X166838380Y-43672285D01*
X167219333Y-43672285D02*
X167171714Y-43767523D01*
X167171714Y-43958000D01*
X167219333Y-44053238D01*
X167266952Y-44100857D01*
X167362190Y-44148476D01*
X167647904Y-44148476D01*
X167743142Y-44100857D01*
X167790761Y-44053238D01*
X167838380Y-43958000D01*
X167838380Y-43767523D01*
X167790761Y-43672285D01*
X167838380Y-44577047D02*
X167171714Y-44577047D01*
X166838380Y-44577047D02*
X166886000Y-44529428D01*
X166933619Y-44577047D01*
X166886000Y-44624666D01*
X166838380Y-44577047D01*
X166933619Y-44577047D01*
X167838380Y-45481809D02*
X167314571Y-45481809D01*
X167219333Y-45434190D01*
X167171714Y-45338952D01*
X167171714Y-45148476D01*
X167219333Y-45053238D01*
X167790761Y-45481809D02*
X167838380Y-45386571D01*
X167838380Y-45148476D01*
X167790761Y-45053238D01*
X167695523Y-45005619D01*
X167600285Y-45005619D01*
X167505047Y-45053238D01*
X167457428Y-45148476D01*
X167457428Y-45386571D01*
X167409809Y-45481809D01*
X167790761Y-45910380D02*
X167838380Y-46005619D01*
X167838380Y-46196095D01*
X167790761Y-46291333D01*
X167695523Y-46338952D01*
X167647904Y-46338952D01*
X167552666Y-46291333D01*
X167505047Y-46196095D01*
X167505047Y-46053238D01*
X167457428Y-45958000D01*
X167362190Y-45910380D01*
X167314571Y-45910380D01*
X167219333Y-45958000D01*
X167171714Y-46053238D01*
X167171714Y-46196095D01*
X167219333Y-46291333D01*
X167838380Y-47291333D02*
X167838380Y-46719904D01*
X167838380Y-47005619D02*
X166838380Y-47005619D01*
X166981238Y-46910380D01*
X167076476Y-46815142D01*
X167124095Y-46719904D01*
X167870000Y-37298380D02*
X167298571Y-37298380D01*
X167584285Y-38298380D02*
X167584285Y-37298380D01*
X167108095Y-37631714D02*
X166727142Y-37631714D01*
X166965238Y-38298380D02*
X166965238Y-37441238D01*
X166917619Y-37346000D01*
X166822380Y-37298380D01*
X166727142Y-37298380D01*
X166393809Y-38298380D02*
X166393809Y-37298380D01*
X166393809Y-37679333D02*
X166298571Y-37631714D01*
X166108095Y-37631714D01*
X166012857Y-37679333D01*
X165965238Y-37726952D01*
X165917619Y-37822190D01*
X165917619Y-38107904D01*
X165965238Y-38203142D01*
X166012857Y-38250761D01*
X166108095Y-38298380D01*
X166298571Y-38298380D01*
X166393809Y-38250761D01*
X164965238Y-38298380D02*
X165536666Y-38298380D01*
X165250952Y-38298380D02*
X165250952Y-37298380D01*
X165346190Y-37441238D01*
X165441428Y-37536476D01*
X165536666Y-37584095D01*
X135169047Y-47902380D02*
X135502380Y-47426190D01*
X135740476Y-47902380D02*
X135740476Y-46902380D01*
X135359523Y-46902380D01*
X135264285Y-46950000D01*
X135216666Y-46997619D01*
X135169047Y-47092857D01*
X135169047Y-47235714D01*
X135216666Y-47330952D01*
X135264285Y-47378571D01*
X135359523Y-47426190D01*
X135740476Y-47426190D01*
X134740476Y-47902380D02*
X134740476Y-46902380D01*
X134740476Y-47283333D02*
X134645238Y-47235714D01*
X134454761Y-47235714D01*
X134359523Y-47283333D01*
X134311904Y-47330952D01*
X134264285Y-47426190D01*
X134264285Y-47711904D01*
X134311904Y-47807142D01*
X134359523Y-47854761D01*
X134454761Y-47902380D01*
X134645238Y-47902380D01*
X134740476Y-47854761D01*
X133311904Y-47902380D02*
X133883333Y-47902380D01*
X133597619Y-47902380D02*
X133597619Y-46902380D01*
X133692857Y-47045238D01*
X133788095Y-47140476D01*
X133883333Y-47188095D01*
X174330952Y-39044571D02*
X174188095Y-39092190D01*
X174140476Y-39139809D01*
X174092857Y-39235047D01*
X174092857Y-39377904D01*
X174140476Y-39473142D01*
X174188095Y-39520761D01*
X174283333Y-39568380D01*
X174664285Y-39568380D01*
X174664285Y-38568380D01*
X174330952Y-38568380D01*
X174235714Y-38616000D01*
X174188095Y-38663619D01*
X174140476Y-38758857D01*
X174140476Y-38854095D01*
X174188095Y-38949333D01*
X174235714Y-38996952D01*
X174330952Y-39044571D01*
X174664285Y-39044571D01*
X173188095Y-38568380D02*
X173664285Y-38568380D01*
X173711904Y-39044571D01*
X173664285Y-38996952D01*
X173569047Y-38949333D01*
X173330952Y-38949333D01*
X173235714Y-38996952D01*
X173188095Y-39044571D01*
X173140476Y-39139809D01*
X173140476Y-39377904D01*
X173188095Y-39473142D01*
X173235714Y-39520761D01*
X173330952Y-39568380D01*
X173569047Y-39568380D01*
X173664285Y-39520761D01*
X173711904Y-39473142D01*
X172569047Y-38996952D02*
X172664285Y-38949333D01*
X172711904Y-38901714D01*
X172759523Y-38806476D01*
X172759523Y-38758857D01*
X172711904Y-38663619D01*
X172664285Y-38616000D01*
X172569047Y-38568380D01*
X172378571Y-38568380D01*
X172283333Y-38616000D01*
X172235714Y-38663619D01*
X172188095Y-38758857D01*
X172188095Y-38806476D01*
X172235714Y-38901714D01*
X172283333Y-38949333D01*
X172378571Y-38996952D01*
X172569047Y-38996952D01*
X172664285Y-39044571D01*
X172711904Y-39092190D01*
X172759523Y-39187428D01*
X172759523Y-39377904D01*
X172711904Y-39473142D01*
X172664285Y-39520761D01*
X172569047Y-39568380D01*
X172378571Y-39568380D01*
X172283333Y-39520761D01*
X172235714Y-39473142D01*
X172188095Y-39377904D01*
X172188095Y-39187428D01*
X172235714Y-39092190D01*
X172283333Y-39044571D01*
X172378571Y-38996952D01*
X171235714Y-39568380D02*
X171807142Y-39568380D01*
X171521428Y-39568380D02*
X171521428Y-38568380D01*
X171616666Y-38711238D01*
X171711904Y-38806476D01*
X171807142Y-38854095D01*
X170759523Y-39568380D02*
X170569047Y-39568380D01*
X170473809Y-39520761D01*
X170426190Y-39473142D01*
X170330952Y-39330285D01*
X170283333Y-39139809D01*
X170283333Y-38758857D01*
X170330952Y-38663619D01*
X170378571Y-38616000D01*
X170473809Y-38568380D01*
X170664285Y-38568380D01*
X170759523Y-38616000D01*
X170807142Y-38663619D01*
X170854761Y-38758857D01*
X170854761Y-38996952D01*
X170807142Y-39092190D01*
X170759523Y-39139809D01*
X170664285Y-39187428D01*
X170473809Y-39187428D01*
X170378571Y-39139809D01*
X170330952Y-39092190D01*
X170283333Y-38996952D01*
X169950000Y-38568380D02*
X169711904Y-39568380D01*
X169521428Y-38854095D01*
X169330952Y-39568380D01*
X169092857Y-38568380D01*
X168759523Y-38663619D02*
X168711904Y-38616000D01*
X168616666Y-38568380D01*
X168378571Y-38568380D01*
X168283333Y-38616000D01*
X168235714Y-38663619D01*
X168188095Y-38758857D01*
X168188095Y-38854095D01*
X168235714Y-38996952D01*
X168807142Y-39568380D01*
X168188095Y-39568380D01*
X128404666Y-68683142D02*
X128452285Y-68730761D01*
X128595142Y-68778380D01*
X128690380Y-68778380D01*
X128833238Y-68730761D01*
X128928476Y-68635523D01*
X128976095Y-68540285D01*
X129023714Y-68349809D01*
X129023714Y-68206952D01*
X128976095Y-68016476D01*
X128928476Y-67921238D01*
X128833238Y-67826000D01*
X128690380Y-67778380D01*
X128595142Y-67778380D01*
X128452285Y-67826000D01*
X128404666Y-67873619D01*
X127547523Y-68730761D02*
X127642761Y-68778380D01*
X127833238Y-68778380D01*
X127928476Y-68730761D01*
X127976095Y-68683142D01*
X128023714Y-68587904D01*
X128023714Y-68302190D01*
X127976095Y-68206952D01*
X127928476Y-68159333D01*
X127833238Y-68111714D01*
X127642761Y-68111714D01*
X127547523Y-68159333D01*
X126976095Y-68778380D02*
X127071333Y-68730761D01*
X127118952Y-68683142D01*
X127166571Y-68587904D01*
X127166571Y-68302190D01*
X127118952Y-68206952D01*
X127071333Y-68159333D01*
X126976095Y-68111714D01*
X126833238Y-68111714D01*
X126738000Y-68159333D01*
X126690380Y-68206952D01*
X126642761Y-68302190D01*
X126642761Y-68587904D01*
X126690380Y-68683142D01*
X126738000Y-68730761D01*
X126833238Y-68778380D01*
X126976095Y-68778380D01*
X126214190Y-68778380D02*
X126214190Y-68111714D01*
X126214190Y-68206952D02*
X126166571Y-68159333D01*
X126071333Y-68111714D01*
X125928476Y-68111714D01*
X125833238Y-68159333D01*
X125785619Y-68254571D01*
X125785619Y-68778380D01*
X125785619Y-68254571D02*
X125738000Y-68159333D01*
X125642761Y-68111714D01*
X125499904Y-68111714D01*
X125404666Y-68159333D01*
X125357047Y-68254571D01*
X125357047Y-68778380D01*
X124880857Y-68111714D02*
X124880857Y-69111714D01*
X124880857Y-68159333D02*
X124785619Y-68111714D01*
X124595142Y-68111714D01*
X124499904Y-68159333D01*
X124452285Y-68206952D01*
X124404666Y-68302190D01*
X124404666Y-68587904D01*
X124452285Y-68683142D01*
X124499904Y-68730761D01*
X124595142Y-68778380D01*
X124785619Y-68778380D01*
X124880857Y-68730761D01*
X123452285Y-68778380D02*
X124023714Y-68778380D01*
X123738000Y-68778380D02*
X123738000Y-67778380D01*
X123833238Y-67921238D01*
X123928476Y-68016476D01*
X124023714Y-68064095D01*
X157591047Y-47442380D02*
X157924380Y-46966190D01*
X158162476Y-47442380D02*
X158162476Y-46442380D01*
X157781523Y-46442380D01*
X157686285Y-46490000D01*
X157638666Y-46537619D01*
X157591047Y-46632857D01*
X157591047Y-46775714D01*
X157638666Y-46870952D01*
X157686285Y-46918571D01*
X157781523Y-46966190D01*
X158162476Y-46966190D01*
X157162476Y-46775714D02*
X157162476Y-47775714D01*
X157162476Y-46823333D02*
X157067238Y-46775714D01*
X156876761Y-46775714D01*
X156781523Y-46823333D01*
X156733904Y-46870952D01*
X156686285Y-46966190D01*
X156686285Y-47251904D01*
X156733904Y-47347142D01*
X156781523Y-47394761D01*
X156876761Y-47442380D01*
X157067238Y-47442380D01*
X157162476Y-47394761D01*
X155733904Y-47442380D02*
X156305333Y-47442380D01*
X156019619Y-47442380D02*
X156019619Y-46442380D01*
X156114857Y-46585238D01*
X156210095Y-46680476D01*
X156305333Y-46728095D01*
X160349523Y-37944380D02*
X159778095Y-37944380D01*
X160063809Y-38944380D02*
X160063809Y-37944380D01*
X159587619Y-38277714D02*
X159206666Y-38277714D01*
X159444761Y-37944380D02*
X159444761Y-38801523D01*
X159397142Y-38896761D01*
X159301904Y-38944380D01*
X159206666Y-38944380D01*
X158730476Y-38944380D02*
X158825714Y-38896761D01*
X158873333Y-38801523D01*
X158873333Y-37944380D01*
X157825714Y-38944380D02*
X158397142Y-38944380D01*
X158111428Y-38944380D02*
X158111428Y-37944380D01*
X158206666Y-38087238D01*
X158301904Y-38182476D01*
X158397142Y-38230095D01*
X114980380Y-51780190D02*
X114980380Y-52351619D01*
X115980380Y-52065904D02*
X114980380Y-52065904D01*
X115980380Y-53113523D02*
X114980380Y-53113523D01*
X115932761Y-53113523D02*
X115980380Y-53018285D01*
X115980380Y-52827809D01*
X115932761Y-52732571D01*
X115885142Y-52684952D01*
X115789904Y-52637333D01*
X115504190Y-52637333D01*
X115408952Y-52684952D01*
X115361333Y-52732571D01*
X115313714Y-52827809D01*
X115313714Y-53018285D01*
X115361333Y-53113523D01*
X115980380Y-53589714D02*
X115313714Y-53589714D01*
X115504190Y-53589714D02*
X115408952Y-53637333D01*
X115361333Y-53684952D01*
X115313714Y-53780190D01*
X115313714Y-53875428D01*
X115980380Y-54732571D02*
X115980380Y-54161142D01*
X115980380Y-54446857D02*
X114980380Y-54446857D01*
X115123238Y-54351619D01*
X115218476Y-54256380D01*
X115266095Y-54161142D01*
X182316380Y-41973714D02*
X181840190Y-41640380D01*
X182316380Y-41402285D02*
X181316380Y-41402285D01*
X181316380Y-41783238D01*
X181364000Y-41878476D01*
X181411619Y-41926095D01*
X181506857Y-41973714D01*
X181649714Y-41973714D01*
X181744952Y-41926095D01*
X181792571Y-41878476D01*
X181840190Y-41783238D01*
X181840190Y-41402285D01*
X182268761Y-42830857D02*
X182316380Y-42735619D01*
X182316380Y-42545142D01*
X182268761Y-42449904D01*
X182221142Y-42402285D01*
X182125904Y-42354666D01*
X181840190Y-42354666D01*
X181744952Y-42402285D01*
X181697333Y-42449904D01*
X181649714Y-42545142D01*
X181649714Y-42735619D01*
X181697333Y-42830857D01*
X182316380Y-43402285D02*
X182268761Y-43307047D01*
X182221142Y-43259428D01*
X182125904Y-43211809D01*
X181840190Y-43211809D01*
X181744952Y-43259428D01*
X181697333Y-43307047D01*
X181649714Y-43402285D01*
X181649714Y-43545142D01*
X181697333Y-43640380D01*
X181744952Y-43688000D01*
X181840190Y-43735619D01*
X182125904Y-43735619D01*
X182221142Y-43688000D01*
X182268761Y-43640380D01*
X182316380Y-43545142D01*
X182316380Y-43402285D01*
X182316380Y-44164190D02*
X181649714Y-44164190D01*
X181744952Y-44164190D02*
X181697333Y-44211809D01*
X181649714Y-44307047D01*
X181649714Y-44449904D01*
X181697333Y-44545142D01*
X181792571Y-44592761D01*
X182316380Y-44592761D01*
X181792571Y-44592761D02*
X181697333Y-44640380D01*
X181649714Y-44735619D01*
X181649714Y-44878476D01*
X181697333Y-44973714D01*
X181792571Y-45021333D01*
X182316380Y-45021333D01*
X182316380Y-46021333D02*
X182316380Y-45449904D01*
X182316380Y-45735619D02*
X181316380Y-45735619D01*
X181459238Y-45640380D01*
X181554476Y-45545142D01*
X181602095Y-45449904D01*
X164195047Y-60904380D02*
X164528380Y-60428190D01*
X164766476Y-60904380D02*
X164766476Y-59904380D01*
X164385523Y-59904380D01*
X164290285Y-59952000D01*
X164242666Y-59999619D01*
X164195047Y-60094857D01*
X164195047Y-60237714D01*
X164242666Y-60332952D01*
X164290285Y-60380571D01*
X164385523Y-60428190D01*
X164766476Y-60428190D01*
X163337904Y-60904380D02*
X163337904Y-59904380D01*
X163337904Y-60856761D02*
X163433142Y-60904380D01*
X163623619Y-60904380D01*
X163718857Y-60856761D01*
X163766476Y-60809142D01*
X163814095Y-60713904D01*
X163814095Y-60428190D01*
X163766476Y-60332952D01*
X163718857Y-60285333D01*
X163623619Y-60237714D01*
X163433142Y-60237714D01*
X163337904Y-60285333D01*
X162337904Y-60904380D02*
X162909333Y-60904380D01*
X162623619Y-60904380D02*
X162623619Y-59904380D01*
X162718857Y-60047238D01*
X162814095Y-60142476D01*
X162909333Y-60190095D01*
X123801142Y-38258857D02*
X123848761Y-38211238D01*
X123896380Y-38068380D01*
X123896380Y-37973142D01*
X123848761Y-37830285D01*
X123753523Y-37735047D01*
X123658285Y-37687428D01*
X123467809Y-37639809D01*
X123324952Y-37639809D01*
X123134476Y-37687428D01*
X123039238Y-37735047D01*
X122944000Y-37830285D01*
X122896380Y-37973142D01*
X122896380Y-38068380D01*
X122944000Y-38211238D01*
X122991619Y-38258857D01*
X123896380Y-38687428D02*
X123229714Y-38687428D01*
X122896380Y-38687428D02*
X122944000Y-38639809D01*
X122991619Y-38687428D01*
X122944000Y-38735047D01*
X122896380Y-38687428D01*
X122991619Y-38687428D01*
X123229714Y-39163619D02*
X123896380Y-39163619D01*
X123324952Y-39163619D02*
X123277333Y-39211238D01*
X123229714Y-39306476D01*
X123229714Y-39449333D01*
X123277333Y-39544571D01*
X123372571Y-39592190D01*
X123896380Y-39592190D01*
X123896380Y-40592190D02*
X123896380Y-40020761D01*
X123896380Y-40306476D02*
X122896380Y-40306476D01*
X123039238Y-40211238D01*
X123134476Y-40116000D01*
X123182095Y-40020761D01*
D11*
X172450000Y-48750000D02*
G75*
G03*
X172450000Y-48750000I-700000J0D01*
G01*
X119345064Y-42312000D02*
X117890936Y-42312000D01*
X119345064Y-40492000D02*
X117890936Y-40492000D01*
X111272936Y-65310000D02*
X112727064Y-65310000D01*
X111272936Y-63490000D02*
X112727064Y-63490000D01*
X107927064Y-53410000D02*
X106472936Y-53410000D01*
X107927064Y-51590000D02*
X106472936Y-51590000D01*
X129900000Y-56083252D02*
X129900000Y-54660748D01*
X131720000Y-56083252D02*
X131720000Y-54660748D01*
X117313064Y-44852000D02*
X115858936Y-44852000D01*
X117313064Y-43032000D02*
X115858936Y-43032000D01*
X126022936Y-64010000D02*
X127477064Y-64010000D01*
X126022936Y-62190000D02*
X127477064Y-62190000D01*
X136500000Y-54440000D02*
X138450000Y-54440000D01*
X136500000Y-59560000D02*
X138450000Y-59560000D01*
X136500000Y-59560000D02*
X133050000Y-59560000D01*
X136500000Y-54440000D02*
X134550000Y-54440000D01*
X152060000Y-53160000D02*
X152060000Y-52945000D01*
X149750000Y-53160000D02*
X147440000Y-53160000D01*
X152060000Y-50340000D02*
X152060000Y-50555000D01*
X147440000Y-50340000D02*
X147440000Y-50555000D01*
X149750000Y-53160000D02*
X152060000Y-53160000D01*
X147440000Y-53160000D02*
X147440000Y-52945000D01*
X147440000Y-52945000D02*
X145750000Y-52945000D01*
X149750000Y-50340000D02*
X147440000Y-50340000D01*
X149750000Y-50340000D02*
X152060000Y-50340000D01*
X140610000Y-62534748D02*
X140610000Y-63957252D01*
X138790000Y-62534748D02*
X138790000Y-63957252D01*
X112711252Y-70810000D02*
X111288748Y-70810000D01*
X112711252Y-68990000D02*
X111288748Y-68990000D01*
X160961252Y-40840000D02*
X159538748Y-40840000D01*
X160961252Y-42660000D02*
X159538748Y-42660000D01*
X141288748Y-47590000D02*
X142711252Y-47590000D01*
X141288748Y-49410000D02*
X142711252Y-49410000D01*
X160727064Y-64840000D02*
X159272936Y-64840000D01*
X160727064Y-66660000D02*
X159272936Y-66660000D01*
X159172936Y-69660000D02*
X160627064Y-69660000D01*
X159172936Y-67840000D02*
X160627064Y-67840000D01*
X142477064Y-50840000D02*
X141022936Y-50840000D01*
X142477064Y-52660000D02*
X141022936Y-52660000D01*
X114250000Y-58400000D02*
X110350000Y-58400000D01*
X114250000Y-60400000D02*
X110350000Y-60400000D01*
X114250000Y-58400000D02*
X114250000Y-60400000D01*
X143546000Y-60000000D02*
X143546000Y-58000000D01*
X143546000Y-60000000D02*
X147446000Y-60000000D01*
X143546000Y-58000000D02*
X147446000Y-58000000D01*
X162711252Y-45660000D02*
X161288748Y-45660000D01*
X162711252Y-43840000D02*
X161288748Y-43840000D01*
X132022936Y-63910000D02*
X133477064Y-63910000D01*
X132022936Y-62090000D02*
X133477064Y-62090000D01*
X119329252Y-39772000D02*
X117906748Y-39772000D01*
X119329252Y-37952000D02*
X117906748Y-37952000D01*
X127965252Y-41508000D02*
X126542748Y-41508000D01*
X127965252Y-43328000D02*
X126542748Y-43328000D01*
X166410000Y-53522936D02*
X166410000Y-54977064D01*
X164590000Y-53522936D02*
X164590000Y-54977064D01*
X136477064Y-52660000D02*
X135022936Y-52660000D01*
X136477064Y-50840000D02*
X135022936Y-50840000D01*
X160810000Y-55500000D02*
X160810000Y-56150000D01*
X157690000Y-55500000D02*
X157690000Y-53825000D01*
X160810000Y-55500000D02*
X160810000Y-54850000D01*
X157690000Y-55500000D02*
X157690000Y-56150000D01*
X140340000Y-40022936D02*
X140340000Y-41477064D01*
X142160000Y-40022936D02*
X142160000Y-41477064D01*
X166410000Y-49477064D02*
X166410000Y-48022936D01*
X164590000Y-49477064D02*
X164590000Y-48022936D01*
X166700000Y-39500000D02*
G75*
G03*
X166700000Y-39500000I-700000J0D01*
G01*
X134977064Y-44340000D02*
X133522936Y-44340000D01*
X134977064Y-46160000D02*
X133522936Y-46160000D01*
X168672000Y-44922000D02*
X168672000Y-41022000D01*
X170672000Y-44922000D02*
X168672000Y-44922000D01*
X170672000Y-44922000D02*
X170672000Y-41022000D01*
X126038748Y-65440000D02*
X127461252Y-65440000D01*
X126038748Y-67260000D02*
X127461252Y-67260000D01*
X156477064Y-45660000D02*
X155022936Y-45660000D01*
X156477064Y-43840000D02*
X155022936Y-43840000D01*
X157200000Y-39000000D02*
G75*
G03*
X157200000Y-39000000I-700000J0D01*
G01*
X141076000Y-56845252D02*
X141076000Y-55422748D01*
X142896000Y-56845252D02*
X142896000Y-55422748D01*
X118302000Y-53086000D02*
G75*
G03*
X118302000Y-53086000I-700000J0D01*
G01*
X125074000Y-57369064D02*
X125074000Y-55914936D01*
X126894000Y-57369064D02*
X126894000Y-55914936D01*
X173630000Y-41944936D02*
X173630000Y-43399064D01*
X171810000Y-41944936D02*
X171810000Y-43399064D01*
X163977064Y-61740000D02*
X162522936Y-61740000D01*
X163977064Y-63560000D02*
X162522936Y-63560000D01*
X127965252Y-38714000D02*
X126542748Y-38714000D01*
X127965252Y-40534000D02*
X126542748Y-40534000D01*
%LPC*%
D12*
X133350000Y-81280000D03*
D13*
X105725000Y-59300000D03*
X105725000Y-56760000D03*
X105725000Y-61840000D03*
D12*
X172466000Y-53848000D03*
D14*
X153189500Y-56710000D03*
D15*
X153189500Y-61790000D03*
D16*
X170180000Y-60500000D03*
D17*
X170180000Y-65500000D03*
D18*
X127950000Y-45330000D03*
X122870000Y-45330000D03*
X120330000Y-47870000D03*
X120330000Y-52950000D03*
X140650000Y-73270000D03*
X145730000Y-73270000D03*
X148270000Y-70730000D03*
X148270000Y-65650000D03*
D12*
X172466000Y-72136000D03*
D19*
X117400000Y-78200000D03*
X160750000Y-81000000D03*
D12*
X133350000Y-39878000D03*
D19*
X171750000Y-48750000D03*
D20*
X120168000Y-41402000D03*
X117068000Y-41402000D03*
D21*
X110450000Y-64400000D03*
X113550000Y-64400000D03*
D20*
X108750000Y-52500000D03*
X105650000Y-52500000D03*
D22*
X130810000Y-56934500D03*
X130810000Y-53809500D03*
D20*
X118136000Y-43942000D03*
X115036000Y-43942000D03*
D21*
X125200000Y-63100000D03*
X128300000Y-63100000D03*
D23*
X134025000Y-58905000D03*
X134025000Y-57635000D03*
X134025000Y-56365000D03*
X134025000Y-55095000D03*
X138975000Y-55095000D03*
X138975000Y-56365000D03*
X138975000Y-57635000D03*
X138975000Y-58905000D03*
D24*
X146562500Y-52385000D03*
X146562500Y-51115000D03*
X152937500Y-51115000D03*
X152937500Y-52385000D03*
D25*
X139700000Y-61683500D03*
X139700000Y-64808500D03*
D26*
X113562500Y-69900000D03*
X110437500Y-69900000D03*
X161812500Y-41750000D03*
X158687500Y-41750000D03*
D27*
X140437500Y-48500000D03*
X143562500Y-48500000D03*
D20*
X161550000Y-65750000D03*
X158450000Y-65750000D03*
D21*
X158350000Y-68750000D03*
X161450000Y-68750000D03*
D20*
X143300000Y-51750000D03*
X140200000Y-51750000D03*
D28*
X113650000Y-59400000D03*
X110350000Y-59400000D03*
X144146000Y-59000000D03*
X147446000Y-59000000D03*
D26*
X163562500Y-44750000D03*
X160437500Y-44750000D03*
D21*
X131200000Y-63000000D03*
X134300000Y-63000000D03*
D26*
X120180500Y-38862000D03*
X117055500Y-38862000D03*
X128816500Y-42418000D03*
X125691500Y-42418000D03*
D29*
X165500000Y-52700000D03*
X165500000Y-55800000D03*
D20*
X137300000Y-51750000D03*
X134200000Y-51750000D03*
D30*
X158300000Y-54562500D03*
X160200000Y-54562500D03*
X159250000Y-56437500D03*
D29*
X141250000Y-39200000D03*
X141250000Y-42300000D03*
D31*
X165500000Y-50300000D03*
X165500000Y-47200000D03*
D19*
X166000000Y-39500000D03*
D20*
X135800000Y-45250000D03*
X132700000Y-45250000D03*
D32*
X169672000Y-44322000D03*
X169672000Y-41022000D03*
D27*
X125187500Y-66350000D03*
X128312500Y-66350000D03*
D20*
X157300000Y-44750000D03*
X154200000Y-44750000D03*
D19*
X156500000Y-39000000D03*
D22*
X141986000Y-57696500D03*
X141986000Y-54571500D03*
D19*
X117602000Y-53086000D03*
D31*
X125984000Y-58192000D03*
X125984000Y-55092000D03*
D29*
X172720000Y-41122000D03*
X172720000Y-44222000D03*
D20*
X164800000Y-62650000D03*
X161700000Y-62650000D03*
D26*
X128816500Y-39624000D03*
X125691500Y-39624000D03*
M02*
