G04 #@! TF.GenerationSoftware,KiCad,Pcbnew,(6.0.11)*
G04 #@! TF.CreationDate,2023-06-14T07:53:08+03:00*
G04 #@! TF.ProjectId,flyback_48V_48W,666c7962-6163-46b5-9f34-38565f343857,rev?*
G04 #@! TF.SameCoordinates,Original*
G04 #@! TF.FileFunction,Copper,L1,Top*
G04 #@! TF.FilePolarity,Positive*
%FSLAX46Y46*%
G04 Gerber Fmt 4.6, Leading zero omitted, Abs format (unit mm)*
G04 Created by KiCad (PCBNEW (6.0.11)) date 2023-06-14 07:53:08*
%MOMM*%
%LPD*%
G01*
G04 APERTURE LIST*
G04 Aperture macros list*
%AMRoundRect*
0 Rectangle with rounded corners*
0 $1 Rounding radius*
0 $2 $3 $4 $5 $6 $7 $8 $9 X,Y pos of 4 corners*
0 Add a 4 corners polygon primitive as box body*
4,1,4,$2,$3,$4,$5,$6,$7,$8,$9,$2,$3,0*
0 Add four circle primitives for the rounded corners*
1,1,$1+$1,$2,$3*
1,1,$1+$1,$4,$5*
1,1,$1+$1,$6,$7*
1,1,$1+$1,$8,$9*
0 Add four rect primitives between the rounded corners*
20,1,$1+$1,$2,$3,$4,$5,0*
20,1,$1+$1,$4,$5,$6,$7,0*
20,1,$1+$1,$6,$7,$8,$9,0*
20,1,$1+$1,$8,$9,$2,$3,0*%
G04 Aperture macros list end*
G04 #@! TA.AperFunction,ComponentPad*
%ADD10C,3.800000*%
G04 #@! TD*
G04 #@! TA.AperFunction,ComponentPad*
%ADD11O,3.048000X1.524000*%
G04 #@! TD*
G04 #@! TA.AperFunction,SMDPad,CuDef*
%ADD12RoundRect,0.249999X-0.450001X-1.425001X0.450001X-1.425001X0.450001X1.425001X-0.450001X1.425001X0*%
G04 #@! TD*
G04 #@! TA.AperFunction,ComponentPad*
%ADD13R,2.000000X2.000000*%
G04 #@! TD*
G04 #@! TA.AperFunction,ComponentPad*
%ADD14O,2.000000X2.000000*%
G04 #@! TD*
G04 #@! TA.AperFunction,ComponentPad*
%ADD15R,1.200000X1.200000*%
G04 #@! TD*
G04 #@! TA.AperFunction,ComponentPad*
%ADD16C,1.200000*%
G04 #@! TD*
G04 #@! TA.AperFunction,ComponentPad*
%ADD17C,1.524000*%
G04 #@! TD*
G04 #@! TA.AperFunction,ComponentPad*
%ADD18C,1.000000*%
G04 #@! TD*
G04 #@! TA.AperFunction,ViaPad*
%ADD19C,0.800000*%
G04 #@! TD*
G04 #@! TA.AperFunction,Conductor*
%ADD20C,0.300000*%
G04 #@! TD*
G04 #@! TA.AperFunction,Conductor*
%ADD21C,3.000000*%
G04 #@! TD*
G04 APERTURE END LIST*
D10*
X133350000Y-81280000D03*
D11*
X105725000Y-59300000D03*
X105725000Y-56760000D03*
X105725000Y-61840000D03*
D10*
X172466000Y-53848000D03*
D12*
X120350000Y-76600000D03*
X126450000Y-76600000D03*
D13*
X153189500Y-56710000D03*
D14*
X153189500Y-61790000D03*
D15*
X170180000Y-60500000D03*
D16*
X170180000Y-65500000D03*
D17*
X127950000Y-45330000D03*
X122870000Y-45330000D03*
X120330000Y-47870000D03*
X120330000Y-52950000D03*
X140650000Y-73270000D03*
X145730000Y-73270000D03*
X148270000Y-70730000D03*
X148270000Y-65650000D03*
D10*
X172466000Y-72136000D03*
D18*
X117400000Y-78200000D03*
D12*
X120250000Y-81300000D03*
X126350000Y-81300000D03*
D18*
X160750000Y-81000000D03*
D10*
X133350000Y-39878000D03*
D18*
X171750000Y-48750000D03*
X166000000Y-39500000D03*
X156500000Y-39000000D03*
X117602000Y-53086000D03*
D19*
X144532000Y-61214000D03*
X162500000Y-53000000D03*
X159250000Y-51000000D03*
X163500000Y-48250000D03*
X155500000Y-54250000D03*
X123500000Y-55250000D03*
D20*
X144532000Y-61214000D02*
X141986000Y-61214000D01*
X141986000Y-61214000D02*
X127950000Y-47178000D01*
X127950000Y-47178000D02*
X127950000Y-45330000D01*
X162500000Y-53000000D02*
X162500000Y-51250000D01*
X161750000Y-50500000D02*
X159750000Y-50500000D01*
X162500000Y-51250000D02*
X161750000Y-50500000D01*
X159750000Y-50500000D02*
X159250000Y-51000000D01*
X158540000Y-81000000D02*
X148270000Y-70730000D01*
X160750000Y-81000000D02*
X158540000Y-81000000D01*
D21*
X148270000Y-65650000D02*
X149329500Y-65650000D01*
X148270000Y-65650000D02*
X148270000Y-70730000D01*
X149329500Y-65650000D02*
X153189500Y-61790000D01*
D20*
X157750000Y-48250000D02*
X163500000Y-48250000D01*
X155500000Y-50500000D02*
X157750000Y-48250000D01*
X155500000Y-54250000D02*
X155500000Y-50500000D01*
X123444000Y-55306000D02*
X123444000Y-73506000D01*
X123444000Y-73506000D02*
X120350000Y-76600000D01*
X123500000Y-55250000D02*
X123444000Y-55306000D01*
G04 #@! TA.AperFunction,Conductor*
G36*
X122442121Y-47434002D02*
G01*
X122488614Y-47487658D01*
X122500000Y-47540000D01*
X122500000Y-55182174D01*
X122499215Y-55196219D01*
X122494757Y-55235963D01*
X122495273Y-55242107D01*
X122499558Y-55293137D01*
X122500000Y-55303680D01*
X122500000Y-59878000D01*
X122479998Y-59946121D01*
X122426342Y-59992614D01*
X122374000Y-60004000D01*
X101426500Y-60004000D01*
X101358379Y-59983998D01*
X101311886Y-59930342D01*
X101300500Y-59878000D01*
X101300500Y-56695585D01*
X103597092Y-56695585D01*
X103605767Y-56926647D01*
X103606862Y-56931865D01*
X103633483Y-57058738D01*
X103653249Y-57152944D01*
X103738180Y-57368006D01*
X103858134Y-57565682D01*
X104009678Y-57740322D01*
X104013809Y-57743709D01*
X104184353Y-57883548D01*
X104184359Y-57883552D01*
X104188481Y-57886932D01*
X104193117Y-57889571D01*
X104193120Y-57889573D01*
X104302497Y-57951834D01*
X104389430Y-58001319D01*
X104606779Y-58080212D01*
X104612028Y-58081161D01*
X104612031Y-58081162D01*
X104830230Y-58120619D01*
X104830238Y-58120620D01*
X104834314Y-58121357D01*
X104852098Y-58122196D01*
X104857062Y-58122430D01*
X104857069Y-58122430D01*
X104858550Y-58122500D01*
X106545056Y-58122500D01*
X106717397Y-58107877D01*
X106722561Y-58106537D01*
X106722565Y-58106536D01*
X106936043Y-58051127D01*
X106936042Y-58051127D01*
X106941206Y-58049787D01*
X107152028Y-57954819D01*
X107343834Y-57825687D01*
X107511142Y-57666084D01*
X107649165Y-57480573D01*
X107753959Y-57274459D01*
X107793314Y-57147717D01*
X107820943Y-57058738D01*
X107820944Y-57058732D01*
X107822527Y-57053635D01*
X107852908Y-56824415D01*
X107844233Y-56593353D01*
X107817588Y-56466365D01*
X107797848Y-56372283D01*
X107797847Y-56372280D01*
X107796751Y-56367056D01*
X107711820Y-56151994D01*
X107591866Y-55954318D01*
X107483565Y-55829511D01*
X107443822Y-55783711D01*
X107443820Y-55783709D01*
X107440322Y-55779678D01*
X107340702Y-55697994D01*
X107265647Y-55636452D01*
X107265641Y-55636448D01*
X107261519Y-55633068D01*
X107256883Y-55630429D01*
X107256880Y-55630427D01*
X107065213Y-55521324D01*
X107060570Y-55518681D01*
X106843221Y-55439788D01*
X106837972Y-55438839D01*
X106837969Y-55438838D01*
X106619770Y-55399381D01*
X106619762Y-55399380D01*
X106615686Y-55398643D01*
X106597902Y-55397804D01*
X106592938Y-55397570D01*
X106592931Y-55397570D01*
X106591450Y-55397500D01*
X104904944Y-55397500D01*
X104732603Y-55412123D01*
X104727439Y-55413463D01*
X104727435Y-55413464D01*
X104626015Y-55439788D01*
X104508794Y-55470213D01*
X104297972Y-55565181D01*
X104106166Y-55694313D01*
X103938858Y-55853916D01*
X103800835Y-56039427D01*
X103696041Y-56245541D01*
X103661757Y-56355953D01*
X103629057Y-56461262D01*
X103629056Y-56461268D01*
X103627473Y-56466365D01*
X103597092Y-56695585D01*
X101300500Y-56695585D01*
X101300500Y-47540000D01*
X101320502Y-47471879D01*
X101374158Y-47425386D01*
X101426500Y-47414000D01*
X122374000Y-47414000D01*
X122442121Y-47434002D01*
G37*
G04 #@! TD.AperFunction*
G04 #@! TA.AperFunction,Conductor*
G36*
X121942121Y-61016002D02*
G01*
X121988614Y-61069658D01*
X122000000Y-61122000D01*
X122000000Y-84073500D01*
X121979998Y-84141621D01*
X121926342Y-84188114D01*
X121874000Y-84199500D01*
X101426500Y-84199500D01*
X101358379Y-84179498D01*
X101311886Y-84125842D01*
X101300500Y-84073500D01*
X101300500Y-61122000D01*
X101320502Y-61053879D01*
X101374158Y-61007386D01*
X101426500Y-60996000D01*
X121874000Y-60996000D01*
X121942121Y-61016002D01*
G37*
G04 #@! TD.AperFunction*
G04 #@! TA.AperFunction,Conductor*
G36*
X175190682Y-63270805D02*
G01*
X175237896Y-63323828D01*
X175250000Y-63377714D01*
X175250000Y-83973500D01*
X175229998Y-84041621D01*
X175176342Y-84088114D01*
X175124000Y-84099500D01*
X139864000Y-84099500D01*
X139795879Y-84079498D01*
X139749386Y-84025842D01*
X139738000Y-83973500D01*
X139738000Y-69630000D01*
X139758002Y-69561879D01*
X139811658Y-69515386D01*
X139864000Y-69504000D01*
X145843500Y-69504000D01*
X145911621Y-69524002D01*
X145958114Y-69577658D01*
X145969500Y-69630000D01*
X145969500Y-70805310D01*
X145984287Y-71030920D01*
X146043120Y-71326691D01*
X146044447Y-71330599D01*
X146044448Y-71330604D01*
X146115595Y-71540195D01*
X146140055Y-71612252D01*
X146273434Y-71882718D01*
X146440975Y-72133461D01*
X146443689Y-72136555D01*
X146443693Y-72136561D01*
X146637102Y-72357100D01*
X146639811Y-72360189D01*
X146642900Y-72362898D01*
X146863439Y-72556307D01*
X146863445Y-72556311D01*
X146866539Y-72559025D01*
X146869965Y-72561314D01*
X146869970Y-72561318D01*
X147057533Y-72686643D01*
X147117282Y-72726566D01*
X147120981Y-72728390D01*
X147120986Y-72728393D01*
X147259834Y-72796865D01*
X147387748Y-72859945D01*
X147391653Y-72861271D01*
X147391654Y-72861271D01*
X147669396Y-72955552D01*
X147669400Y-72955553D01*
X147673309Y-72956880D01*
X147677353Y-72957684D01*
X147677359Y-72957686D01*
X147965041Y-73014910D01*
X147965047Y-73014911D01*
X147969080Y-73015713D01*
X147973185Y-73015982D01*
X147973192Y-73015983D01*
X148265881Y-73035166D01*
X148270000Y-73035436D01*
X148274119Y-73035166D01*
X148566808Y-73015983D01*
X148566815Y-73015982D01*
X148570920Y-73015713D01*
X148574953Y-73014911D01*
X148574959Y-73014910D01*
X148862641Y-72957686D01*
X148862647Y-72957684D01*
X148866691Y-72956880D01*
X149006003Y-72909590D01*
X149076936Y-72906634D01*
X149135598Y-72939808D01*
X157856979Y-81661189D01*
X157859431Y-81663710D01*
X157915721Y-81723235D01*
X157920950Y-81726896D01*
X157920953Y-81726899D01*
X157962475Y-81755973D01*
X157969839Y-81761543D01*
X158009120Y-81793579D01*
X158014069Y-81797615D01*
X158037950Y-81810100D01*
X158051832Y-81818540D01*
X158073898Y-81833991D01*
X158126293Y-81856664D01*
X158134591Y-81860622D01*
X158185194Y-81887077D01*
X158191333Y-81888837D01*
X158191332Y-81888837D01*
X158211087Y-81894502D01*
X158226400Y-81899985D01*
X158245255Y-81908145D01*
X158245262Y-81908147D01*
X158251115Y-81910680D01*
X158257363Y-81911985D01*
X158257362Y-81911985D01*
X158306974Y-81922350D01*
X158315937Y-81924568D01*
X158370812Y-81940303D01*
X158397680Y-81942370D01*
X158413772Y-81944661D01*
X158427892Y-81947611D01*
X158435388Y-81949177D01*
X158435391Y-81949177D01*
X158440133Y-81950168D01*
X158446468Y-81950500D01*
X158498493Y-81950500D01*
X158508159Y-81950871D01*
X158556982Y-81954628D01*
X158556986Y-81954628D01*
X158563342Y-81955117D01*
X158592020Y-81951494D01*
X158607813Y-81950500D01*
X159809124Y-81950500D01*
X159877245Y-81970502D01*
X159898219Y-81987405D01*
X159910861Y-82000047D01*
X160097266Y-82130568D01*
X160102244Y-82132889D01*
X160102247Y-82132891D01*
X160298522Y-82224416D01*
X160303504Y-82226739D01*
X160308812Y-82228161D01*
X160308814Y-82228162D01*
X160517993Y-82284211D01*
X160517995Y-82284211D01*
X160523308Y-82285635D01*
X160750000Y-82305468D01*
X160976692Y-82285635D01*
X160982005Y-82284211D01*
X160982007Y-82284211D01*
X161191186Y-82228162D01*
X161191188Y-82228161D01*
X161196496Y-82226739D01*
X161201478Y-82224416D01*
X161397753Y-82132891D01*
X161397756Y-82132889D01*
X161402734Y-82130568D01*
X161589139Y-82000047D01*
X161750047Y-81839139D01*
X161880568Y-81652734D01*
X161976739Y-81446496D01*
X162035635Y-81226692D01*
X162055468Y-81000000D01*
X162035635Y-80773308D01*
X161976739Y-80553504D01*
X161880568Y-80347266D01*
X161750047Y-80160861D01*
X161589139Y-79999953D01*
X161402734Y-79869432D01*
X161397756Y-79867111D01*
X161397753Y-79867109D01*
X161201478Y-79775584D01*
X161201476Y-79775583D01*
X161196496Y-79773261D01*
X161191188Y-79771839D01*
X161191186Y-79771838D01*
X160982007Y-79715789D01*
X160982005Y-79715789D01*
X160976692Y-79714365D01*
X160750000Y-79694532D01*
X160523308Y-79714365D01*
X160517995Y-79715789D01*
X160517993Y-79715789D01*
X160308814Y-79771838D01*
X160308812Y-79771839D01*
X160303504Y-79773261D01*
X160298524Y-79775583D01*
X160298522Y-79775584D01*
X160102247Y-79867109D01*
X160102244Y-79867111D01*
X160097266Y-79869432D01*
X159910861Y-79999953D01*
X159898219Y-80012595D01*
X159835907Y-80046621D01*
X159809124Y-80049500D01*
X158985900Y-80049500D01*
X158917779Y-80029498D01*
X158896805Y-80012595D01*
X150479808Y-71595598D01*
X150445782Y-71533286D01*
X150449590Y-71466003D01*
X150496880Y-71326691D01*
X150555713Y-71030920D01*
X150570500Y-70805310D01*
X150570500Y-69630000D01*
X150590502Y-69561879D01*
X150644158Y-69515386D01*
X150696500Y-69504000D01*
X156750000Y-69504000D01*
X156750000Y-63624308D01*
X156770002Y-63556187D01*
X156823658Y-63509694D01*
X156874296Y-63498320D01*
X166413024Y-63369419D01*
X175122297Y-63251726D01*
X175190682Y-63270805D01*
G37*
G04 #@! TD.AperFunction*
G04 #@! TA.AperFunction,Conductor*
G36*
X144192121Y-37620502D02*
G01*
X144238614Y-37674158D01*
X144250000Y-37726500D01*
X144250000Y-46020000D01*
X144229998Y-46088121D01*
X144176342Y-46134614D01*
X144124000Y-46146000D01*
X101426500Y-46146000D01*
X101358379Y-46125998D01*
X101311886Y-46072342D01*
X101300500Y-46020000D01*
X101300500Y-37726500D01*
X101320502Y-37658379D01*
X101374158Y-37611886D01*
X101426500Y-37600500D01*
X144124000Y-37600500D01*
X144192121Y-37620502D01*
G37*
G04 #@! TD.AperFunction*
G04 #@! TA.AperFunction,Conductor*
G36*
X136942121Y-61270002D02*
G01*
X136988614Y-61323658D01*
X137000000Y-61376000D01*
X137000000Y-84073500D01*
X136979998Y-84141621D01*
X136926342Y-84188114D01*
X136874000Y-84199500D01*
X124626000Y-84199500D01*
X124557879Y-84179498D01*
X124511386Y-84125842D01*
X124500000Y-84073500D01*
X124500000Y-61376000D01*
X124520002Y-61307879D01*
X124573658Y-61261386D01*
X124626000Y-61250000D01*
X136874000Y-61250000D01*
X136942121Y-61270002D01*
G37*
G04 #@! TD.AperFunction*
G04 #@! TA.AperFunction,Conductor*
G36*
X155946028Y-37720502D02*
G01*
X155992521Y-37774158D01*
X156002625Y-37844432D01*
X155973131Y-37909012D01*
X155942331Y-37934784D01*
X155791341Y-38024614D01*
X155625457Y-38170090D01*
X155488863Y-38343360D01*
X155386131Y-38538620D01*
X155320703Y-38749333D01*
X155294770Y-38968440D01*
X155309200Y-39188604D01*
X155310621Y-39194200D01*
X155310622Y-39194205D01*
X155362090Y-39396857D01*
X155363511Y-39402452D01*
X155365928Y-39407694D01*
X155365928Y-39407695D01*
X155404046Y-39490379D01*
X155455883Y-39602821D01*
X155583222Y-39783002D01*
X155741264Y-39936961D01*
X155746060Y-39940166D01*
X155746063Y-39940168D01*
X155828757Y-39995422D01*
X155924717Y-40059540D01*
X155930020Y-40061818D01*
X155930023Y-40061820D01*
X156036433Y-40107537D01*
X156127436Y-40146635D01*
X156207088Y-40164658D01*
X156336995Y-40194054D01*
X156337001Y-40194055D01*
X156342632Y-40195329D01*
X156348403Y-40195556D01*
X156348405Y-40195556D01*
X156416211Y-40198220D01*
X156563098Y-40203991D01*
X156678034Y-40187326D01*
X156775738Y-40173160D01*
X156775743Y-40173159D01*
X156781452Y-40172331D01*
X156786916Y-40170476D01*
X156786921Y-40170475D01*
X156984907Y-40103268D01*
X156984912Y-40103266D01*
X156990379Y-40101410D01*
X157182884Y-39993602D01*
X157299207Y-39896857D01*
X157348086Y-39856204D01*
X157352518Y-39852518D01*
X157416376Y-39775738D01*
X157489908Y-39687326D01*
X157489910Y-39687323D01*
X157493602Y-39682884D01*
X157601410Y-39490379D01*
X157603266Y-39484912D01*
X157603268Y-39484907D01*
X157608858Y-39468440D01*
X164794770Y-39468440D01*
X164809200Y-39688604D01*
X164810621Y-39694200D01*
X164810622Y-39694205D01*
X164834197Y-39787029D01*
X164863511Y-39902452D01*
X164865928Y-39907694D01*
X164865928Y-39907695D01*
X164903829Y-39989908D01*
X164955883Y-40102821D01*
X165083222Y-40283002D01*
X165241264Y-40436961D01*
X165246060Y-40440166D01*
X165246063Y-40440168D01*
X165330261Y-40496427D01*
X165424717Y-40559540D01*
X165430020Y-40561818D01*
X165430023Y-40561820D01*
X165622129Y-40644355D01*
X165627436Y-40646635D01*
X165707088Y-40664658D01*
X165836995Y-40694054D01*
X165837001Y-40694055D01*
X165842632Y-40695329D01*
X165848403Y-40695556D01*
X165848405Y-40695556D01*
X165916211Y-40698220D01*
X166063098Y-40703991D01*
X166172275Y-40688161D01*
X166275738Y-40673160D01*
X166275743Y-40673159D01*
X166281452Y-40672331D01*
X166286916Y-40670476D01*
X166286921Y-40670475D01*
X166484907Y-40603268D01*
X166484912Y-40603266D01*
X166490379Y-40601410D01*
X166682884Y-40493602D01*
X166852518Y-40352518D01*
X166914256Y-40278287D01*
X166989908Y-40187326D01*
X166989910Y-40187323D01*
X166993602Y-40182884D01*
X167101410Y-39990379D01*
X167103266Y-39984912D01*
X167103268Y-39984907D01*
X167170475Y-39786921D01*
X167170476Y-39786916D01*
X167172331Y-39781452D01*
X167173159Y-39775743D01*
X167173160Y-39775738D01*
X167192346Y-39643413D01*
X167203991Y-39563098D01*
X167205643Y-39500000D01*
X167185454Y-39280289D01*
X167159597Y-39188604D01*
X167127134Y-39073500D01*
X167125565Y-39067936D01*
X167027980Y-38870053D01*
X166895967Y-38693267D01*
X166733949Y-38543499D01*
X166547350Y-38425764D01*
X166342421Y-38344006D01*
X166336761Y-38342880D01*
X166336757Y-38342879D01*
X166131691Y-38302089D01*
X166131688Y-38302089D01*
X166126024Y-38300962D01*
X166120249Y-38300886D01*
X166120245Y-38300886D01*
X166009504Y-38299437D01*
X165905406Y-38298074D01*
X165899709Y-38299053D01*
X165899708Y-38299053D01*
X165693654Y-38334459D01*
X165693653Y-38334459D01*
X165687957Y-38335438D01*
X165480957Y-38411804D01*
X165291341Y-38524614D01*
X165125457Y-38670090D01*
X164988863Y-38843360D01*
X164886131Y-39038620D01*
X164820703Y-39249333D01*
X164794770Y-39468440D01*
X157608858Y-39468440D01*
X157670475Y-39286921D01*
X157670476Y-39286916D01*
X157672331Y-39281452D01*
X157673159Y-39275743D01*
X157673160Y-39275738D01*
X157702483Y-39073500D01*
X157703991Y-39063098D01*
X157705643Y-39000000D01*
X157685454Y-38780289D01*
X157625565Y-38567936D01*
X157527980Y-38370053D01*
X157474231Y-38298074D01*
X157399420Y-38197891D01*
X157399420Y-38197890D01*
X157395967Y-38193267D01*
X157233949Y-38043499D01*
X157148197Y-37989393D01*
X157058917Y-37933062D01*
X157011978Y-37879795D01*
X157001289Y-37809608D01*
X157030244Y-37744784D01*
X157089648Y-37705904D01*
X157126152Y-37700500D01*
X175124000Y-37700500D01*
X175192121Y-37720502D01*
X175238614Y-37774158D01*
X175250000Y-37826500D01*
X175250000Y-61124000D01*
X175229998Y-61192121D01*
X175176342Y-61238614D01*
X175124000Y-61250000D01*
X158126000Y-61250000D01*
X158057879Y-61229998D01*
X158011386Y-61176342D01*
X158000000Y-61124000D01*
X158000000Y-58250000D01*
X150376000Y-58250000D01*
X150307879Y-58229998D01*
X150261386Y-58176342D01*
X150250000Y-58124000D01*
X150250000Y-54221069D01*
X154395164Y-54221069D01*
X154408392Y-54422894D01*
X154458178Y-54618928D01*
X154542856Y-54802607D01*
X154659588Y-54967780D01*
X154804466Y-55108913D01*
X154972637Y-55221282D01*
X154977940Y-55223560D01*
X154977943Y-55223562D01*
X155066291Y-55261519D01*
X155158470Y-55301122D01*
X155355740Y-55345760D01*
X155361509Y-55345987D01*
X155361512Y-55345987D01*
X155437683Y-55348979D01*
X155557842Y-55353700D01*
X155644132Y-55341189D01*
X155752286Y-55325508D01*
X155752291Y-55325507D01*
X155758007Y-55324678D01*
X155763479Y-55322820D01*
X155763481Y-55322820D01*
X155944067Y-55261519D01*
X155944069Y-55261518D01*
X155949531Y-55259664D01*
X156126001Y-55160837D01*
X156188433Y-55108913D01*
X156277073Y-55035191D01*
X156281505Y-55031505D01*
X156410837Y-54876001D01*
X156509664Y-54699531D01*
X156574678Y-54508007D01*
X156575507Y-54502291D01*
X156575508Y-54502286D01*
X156603167Y-54311516D01*
X156603700Y-54307842D01*
X156605215Y-54250000D01*
X156586708Y-54048591D01*
X156575730Y-54009664D01*
X156548653Y-53913658D01*
X156531807Y-53853926D01*
X156442351Y-53672527D01*
X156375542Y-53583059D01*
X156350810Y-53516509D01*
X156350500Y-53507670D01*
X156350500Y-50971069D01*
X158145164Y-50971069D01*
X158158392Y-51172894D01*
X158208178Y-51368928D01*
X158292856Y-51552607D01*
X158296189Y-51557323D01*
X158364852Y-51654479D01*
X158409588Y-51717780D01*
X158554466Y-51858913D01*
X158722637Y-51971282D01*
X158727940Y-51973560D01*
X158727943Y-51973562D01*
X158816291Y-52011519D01*
X158908470Y-52051122D01*
X159105740Y-52095760D01*
X159111509Y-52095987D01*
X159111512Y-52095987D01*
X159187683Y-52098979D01*
X159307842Y-52103700D01*
X159394132Y-52091189D01*
X159502286Y-52075508D01*
X159502291Y-52075507D01*
X159508007Y-52074678D01*
X159513479Y-52072820D01*
X159513481Y-52072820D01*
X159694067Y-52011519D01*
X159694069Y-52011518D01*
X159699531Y-52009664D01*
X159876001Y-51910837D01*
X159938433Y-51858913D01*
X160027073Y-51785191D01*
X160031505Y-51781505D01*
X160160837Y-51626001D01*
X160259664Y-51449531D01*
X160264258Y-51435996D01*
X160305096Y-51377922D01*
X160370849Y-51351144D01*
X160383571Y-51350500D01*
X161345521Y-51350500D01*
X161413642Y-51370502D01*
X161434616Y-51387405D01*
X161612595Y-51565384D01*
X161646621Y-51627696D01*
X161649500Y-51654479D01*
X161649500Y-52257437D01*
X161629498Y-52325558D01*
X161622450Y-52335442D01*
X161573089Y-52398057D01*
X161478914Y-52577053D01*
X161418937Y-52770213D01*
X161395164Y-52971069D01*
X161408392Y-53172894D01*
X161458178Y-53368928D01*
X161542856Y-53552607D01*
X161546189Y-53557323D01*
X161627607Y-53672527D01*
X161659588Y-53717780D01*
X161804466Y-53858913D01*
X161972637Y-53971282D01*
X161977940Y-53973560D01*
X161977943Y-53973562D01*
X162066291Y-54011519D01*
X162158470Y-54051122D01*
X162355740Y-54095760D01*
X162361509Y-54095987D01*
X162361512Y-54095987D01*
X162437683Y-54098979D01*
X162557842Y-54103700D01*
X162644132Y-54091189D01*
X162752286Y-54075508D01*
X162752291Y-54075507D01*
X162758007Y-54074678D01*
X162763479Y-54072820D01*
X162763481Y-54072820D01*
X162944067Y-54011519D01*
X162944069Y-54011518D01*
X162949531Y-54009664D01*
X163126001Y-53910837D01*
X163188433Y-53858913D01*
X163277073Y-53785191D01*
X163281505Y-53781505D01*
X163410837Y-53626001D01*
X163509664Y-53449531D01*
X163574678Y-53258007D01*
X163575507Y-53252291D01*
X163575508Y-53252286D01*
X163603167Y-53061516D01*
X163603700Y-53057842D01*
X163605215Y-53000000D01*
X163586708Y-52798591D01*
X163531807Y-52603926D01*
X163442351Y-52422527D01*
X163375542Y-52333059D01*
X163350810Y-52266509D01*
X163350500Y-52257670D01*
X163350500Y-51291062D01*
X163350942Y-51280518D01*
X163354689Y-51235895D01*
X163355260Y-51229098D01*
X163354358Y-51222334D01*
X163344619Y-51149341D01*
X163344249Y-51146287D01*
X163336295Y-51073072D01*
X163336294Y-51073069D01*
X163335558Y-51066291D01*
X163333384Y-51059831D01*
X163332714Y-51056783D01*
X163332633Y-51056322D01*
X163332597Y-51056171D01*
X163332464Y-51055712D01*
X163331722Y-51052693D01*
X163330820Y-51045931D01*
X163328487Y-51039521D01*
X163328486Y-51039517D01*
X163303303Y-50970329D01*
X163302285Y-50967423D01*
X163278795Y-50897623D01*
X163278794Y-50897621D01*
X163276617Y-50891152D01*
X163273100Y-50885298D01*
X163271800Y-50882486D01*
X163271618Y-50882043D01*
X163271542Y-50881884D01*
X163271314Y-50881466D01*
X163269951Y-50878697D01*
X163267618Y-50872285D01*
X163263964Y-50866527D01*
X163263961Y-50866521D01*
X163224510Y-50804356D01*
X163222892Y-50801737D01*
X163184959Y-50738607D01*
X163184958Y-50738605D01*
X163181443Y-50732756D01*
X163176754Y-50727797D01*
X163174872Y-50725318D01*
X163174332Y-50724541D01*
X163171375Y-50720631D01*
X163168602Y-50716262D01*
X163164817Y-50712028D01*
X163111312Y-50658523D01*
X163108859Y-50656001D01*
X163059165Y-50603451D01*
X163059163Y-50603449D01*
X163054476Y-50598493D01*
X163048834Y-50594659D01*
X163043634Y-50590233D01*
X163043977Y-50589830D01*
X163036085Y-50583296D01*
X162380432Y-49927644D01*
X162373289Y-49919876D01*
X162344386Y-49885674D01*
X162339980Y-49880460D01*
X162276062Y-49831591D01*
X162273647Y-49829698D01*
X162268766Y-49825773D01*
X162244584Y-49806330D01*
X162216247Y-49783546D01*
X162216244Y-49783544D01*
X162210927Y-49779269D01*
X162204810Y-49776232D01*
X162202198Y-49774562D01*
X162201804Y-49774286D01*
X162201680Y-49774209D01*
X162201258Y-49773977D01*
X162198605Y-49772370D01*
X162193180Y-49768223D01*
X162120262Y-49734221D01*
X162117495Y-49732890D01*
X162051520Y-49700139D01*
X162051516Y-49700137D01*
X162045407Y-49697105D01*
X162038782Y-49695453D01*
X162035879Y-49694385D01*
X162035427Y-49694197D01*
X162035292Y-49694149D01*
X162034833Y-49694014D01*
X162031892Y-49693013D01*
X162025703Y-49690127D01*
X161993522Y-49682934D01*
X161947169Y-49672573D01*
X161944172Y-49671864D01*
X161872728Y-49654051D01*
X161872727Y-49654051D01*
X161866106Y-49652400D01*
X161859286Y-49652210D01*
X161856208Y-49651788D01*
X161855291Y-49651623D01*
X161850415Y-49650946D01*
X161845363Y-49649817D01*
X161839693Y-49649500D01*
X161764036Y-49649500D01*
X161760518Y-49649451D01*
X161758788Y-49649403D01*
X161681389Y-49647241D01*
X161674683Y-49648520D01*
X161667886Y-49649067D01*
X161667843Y-49648538D01*
X161657637Y-49649500D01*
X159791062Y-49649500D01*
X159780521Y-49649058D01*
X159729098Y-49644740D01*
X159722338Y-49645642D01*
X159722334Y-49645642D01*
X159649341Y-49655381D01*
X159646287Y-49655751D01*
X159573072Y-49663705D01*
X159573069Y-49663706D01*
X159566291Y-49664442D01*
X159559831Y-49666616D01*
X159556783Y-49667286D01*
X159556322Y-49667367D01*
X159556171Y-49667403D01*
X159555712Y-49667536D01*
X159552693Y-49668278D01*
X159545931Y-49669180D01*
X159539521Y-49671513D01*
X159539517Y-49671514D01*
X159470329Y-49696697D01*
X159467423Y-49697715D01*
X159397623Y-49721205D01*
X159397621Y-49721206D01*
X159391152Y-49723383D01*
X159385298Y-49726900D01*
X159382486Y-49728200D01*
X159382043Y-49728382D01*
X159381884Y-49728458D01*
X159381466Y-49728686D01*
X159378697Y-49730049D01*
X159372285Y-49732382D01*
X159366527Y-49736036D01*
X159366521Y-49736039D01*
X159304356Y-49775490D01*
X159301737Y-49777108D01*
X159238607Y-49815041D01*
X159238605Y-49815042D01*
X159232756Y-49818557D01*
X159227797Y-49823246D01*
X159225318Y-49825128D01*
X159224541Y-49825668D01*
X159220628Y-49828627D01*
X159216262Y-49831398D01*
X159212028Y-49835183D01*
X159210766Y-49836445D01*
X159174367Y-49872845D01*
X159106609Y-49907931D01*
X158963949Y-49932444D01*
X158774193Y-50002449D01*
X158769232Y-50005401D01*
X158769231Y-50005401D01*
X158697091Y-50048320D01*
X158600371Y-50105862D01*
X158448305Y-50239220D01*
X158323089Y-50398057D01*
X158228914Y-50577053D01*
X158168937Y-50770213D01*
X158145164Y-50971069D01*
X156350500Y-50971069D01*
X156350500Y-50904479D01*
X156370502Y-50836358D01*
X156387405Y-50815384D01*
X158065384Y-49137405D01*
X158127696Y-49103379D01*
X158154479Y-49100500D01*
X162753653Y-49100500D01*
X162823656Y-49121735D01*
X162972637Y-49221282D01*
X162977940Y-49223560D01*
X162977943Y-49223562D01*
X163066291Y-49261519D01*
X163158470Y-49301122D01*
X163355740Y-49345760D01*
X163361509Y-49345987D01*
X163361512Y-49345987D01*
X163437683Y-49348979D01*
X163557842Y-49353700D01*
X163644132Y-49341189D01*
X163752286Y-49325508D01*
X163752291Y-49325507D01*
X163758007Y-49324678D01*
X163763479Y-49322820D01*
X163763481Y-49322820D01*
X163944067Y-49261519D01*
X163944069Y-49261518D01*
X163949531Y-49259664D01*
X164126001Y-49160837D01*
X164188433Y-49108913D01*
X164277073Y-49035191D01*
X164281505Y-49031505D01*
X164410837Y-48876001D01*
X164499075Y-48718440D01*
X170544770Y-48718440D01*
X170559200Y-48938604D01*
X170560621Y-48944200D01*
X170560622Y-48944205D01*
X170612090Y-49146857D01*
X170613511Y-49152452D01*
X170615928Y-49157694D01*
X170615928Y-49157695D01*
X170654046Y-49240379D01*
X170705883Y-49352821D01*
X170833222Y-49533002D01*
X170991264Y-49686961D01*
X170996060Y-49690166D01*
X170996063Y-49690168D01*
X171122424Y-49774599D01*
X171174717Y-49809540D01*
X171180020Y-49811818D01*
X171180023Y-49811820D01*
X171361853Y-49889940D01*
X171377436Y-49896635D01*
X171436589Y-49910020D01*
X171586995Y-49944054D01*
X171587001Y-49944055D01*
X171592632Y-49945329D01*
X171598403Y-49945556D01*
X171598405Y-49945556D01*
X171666211Y-49948220D01*
X171813098Y-49953991D01*
X171922275Y-49938161D01*
X172025738Y-49923160D01*
X172025743Y-49923159D01*
X172031452Y-49922331D01*
X172036916Y-49920476D01*
X172036921Y-49920475D01*
X172234907Y-49853268D01*
X172234912Y-49853266D01*
X172240379Y-49851410D01*
X172269355Y-49835183D01*
X172369196Y-49779269D01*
X172432884Y-49743602D01*
X172441978Y-49736039D01*
X172598086Y-49606204D01*
X172602518Y-49602518D01*
X172743602Y-49432884D01*
X172851410Y-49240379D01*
X172853266Y-49234912D01*
X172853268Y-49234907D01*
X172920475Y-49036921D01*
X172920476Y-49036916D01*
X172922331Y-49031452D01*
X172923159Y-49025743D01*
X172923160Y-49025738D01*
X172953458Y-48816772D01*
X172953991Y-48813098D01*
X172955643Y-48750000D01*
X172935454Y-48530289D01*
X172927557Y-48502286D01*
X172877134Y-48323500D01*
X172875565Y-48317936D01*
X172777980Y-48120053D01*
X172645967Y-47943267D01*
X172483949Y-47793499D01*
X172297350Y-47675764D01*
X172092421Y-47594006D01*
X172086761Y-47592880D01*
X172086757Y-47592879D01*
X171881691Y-47552089D01*
X171881688Y-47552089D01*
X171876024Y-47550962D01*
X171870249Y-47550886D01*
X171870245Y-47550886D01*
X171759504Y-47549437D01*
X171655406Y-47548074D01*
X171649709Y-47549053D01*
X171649708Y-47549053D01*
X171443654Y-47584459D01*
X171443653Y-47584459D01*
X171437957Y-47585438D01*
X171230957Y-47661804D01*
X171225996Y-47664756D01*
X171225995Y-47664756D01*
X171157518Y-47705496D01*
X171041341Y-47774614D01*
X170875457Y-47920090D01*
X170738863Y-48093360D01*
X170636131Y-48288620D01*
X170570703Y-48499333D01*
X170544770Y-48718440D01*
X164499075Y-48718440D01*
X164509664Y-48699531D01*
X164574678Y-48508007D01*
X164575507Y-48502291D01*
X164575508Y-48502286D01*
X164592809Y-48382956D01*
X164603700Y-48307842D01*
X164605215Y-48250000D01*
X164586708Y-48048591D01*
X164531807Y-47853926D01*
X164458869Y-47706022D01*
X164444906Y-47677708D01*
X164442351Y-47672527D01*
X164378071Y-47586445D01*
X164324788Y-47515091D01*
X164324787Y-47515090D01*
X164321335Y-47510467D01*
X164287068Y-47478791D01*
X164177053Y-47377094D01*
X164177051Y-47377092D01*
X164172812Y-47373174D01*
X164145374Y-47355862D01*
X164006637Y-47268325D01*
X164001757Y-47265246D01*
X163813898Y-47190298D01*
X163615526Y-47150839D01*
X163609752Y-47150763D01*
X163609748Y-47150763D01*
X163507257Y-47149422D01*
X163413286Y-47148192D01*
X163407589Y-47149171D01*
X163407588Y-47149171D01*
X163219646Y-47181465D01*
X163219645Y-47181465D01*
X163213949Y-47182444D01*
X163024193Y-47252449D01*
X162850371Y-47355862D01*
X162836265Y-47368232D01*
X162771864Y-47398108D01*
X162753189Y-47399500D01*
X157791062Y-47399500D01*
X157780521Y-47399058D01*
X157729098Y-47394740D01*
X157722338Y-47395642D01*
X157722334Y-47395642D01*
X157649341Y-47405381D01*
X157646287Y-47405751D01*
X157573072Y-47413705D01*
X157573069Y-47413706D01*
X157566291Y-47414442D01*
X157559831Y-47416616D01*
X157556783Y-47417286D01*
X157556322Y-47417367D01*
X157556171Y-47417403D01*
X157555712Y-47417536D01*
X157552693Y-47418278D01*
X157545931Y-47419180D01*
X157539521Y-47421513D01*
X157539517Y-47421514D01*
X157470329Y-47446697D01*
X157467423Y-47447715D01*
X157397623Y-47471205D01*
X157397621Y-47471206D01*
X157391152Y-47473383D01*
X157385298Y-47476900D01*
X157382486Y-47478200D01*
X157382043Y-47478382D01*
X157381884Y-47478458D01*
X157381466Y-47478686D01*
X157378697Y-47480049D01*
X157372285Y-47482382D01*
X157366527Y-47486036D01*
X157366521Y-47486039D01*
X157304356Y-47525490D01*
X157301737Y-47527108D01*
X157238607Y-47565041D01*
X157238605Y-47565042D01*
X157232756Y-47568557D01*
X157227797Y-47573246D01*
X157225318Y-47575128D01*
X157224546Y-47575665D01*
X157220636Y-47578622D01*
X157216262Y-47581398D01*
X157212029Y-47585183D01*
X157158540Y-47638672D01*
X157156018Y-47641125D01*
X157117333Y-47677708D01*
X157098493Y-47695524D01*
X157094659Y-47701165D01*
X157090233Y-47706366D01*
X157089828Y-47706022D01*
X157083291Y-47713921D01*
X154927650Y-49869562D01*
X154919883Y-49876705D01*
X154880460Y-49910020D01*
X154876313Y-49915444D01*
X154876312Y-49915445D01*
X154831598Y-49973929D01*
X154829705Y-49976345D01*
X154779269Y-50039073D01*
X154776232Y-50045190D01*
X154774562Y-50047802D01*
X154774286Y-50048196D01*
X154774209Y-50048320D01*
X154773977Y-50048742D01*
X154772370Y-50051395D01*
X154768223Y-50056820D01*
X154765338Y-50063008D01*
X154734225Y-50129730D01*
X154732890Y-50132505D01*
X154700139Y-50198480D01*
X154700137Y-50198484D01*
X154697105Y-50204593D01*
X154695453Y-50211218D01*
X154694385Y-50214121D01*
X154694197Y-50214573D01*
X154694149Y-50214708D01*
X154694014Y-50215167D01*
X154693013Y-50218108D01*
X154690127Y-50224297D01*
X154686791Y-50239220D01*
X154672573Y-50302831D01*
X154671864Y-50305828D01*
X154654051Y-50377272D01*
X154652400Y-50383894D01*
X154652210Y-50390714D01*
X154651788Y-50393792D01*
X154651623Y-50394709D01*
X154650946Y-50399585D01*
X154649817Y-50404637D01*
X154649500Y-50410307D01*
X154649500Y-50485964D01*
X154649451Y-50489482D01*
X154647241Y-50568611D01*
X154648520Y-50575317D01*
X154649067Y-50582114D01*
X154648538Y-50582157D01*
X154649500Y-50592363D01*
X154649500Y-53507437D01*
X154629498Y-53575558D01*
X154622450Y-53585442D01*
X154573089Y-53648057D01*
X154478914Y-53827053D01*
X154468842Y-53859490D01*
X154421637Y-54011519D01*
X154418937Y-54020213D01*
X154395164Y-54221069D01*
X150250000Y-54221069D01*
X150250000Y-37826500D01*
X150270002Y-37758379D01*
X150323658Y-37711886D01*
X150376000Y-37700500D01*
X155877907Y-37700500D01*
X155946028Y-37720502D01*
G37*
G04 #@! TD.AperFunction*
M02*
