%TF.GenerationSoftware,KiCad,Pcbnew,(6.0.11)*%
%TF.CreationDate,2023-06-14T07:53:35+03:00*%
%TF.ProjectId,flyback_48V_48W,666c7962-6163-46b5-9f34-38565f343857,rev?*%
%TF.SameCoordinates,Original*%
%TF.FileFunction,Drillmap*%
%TF.FilePolarity,Positive*%
%FSLAX45Y45*%
G04 Gerber Fmt 4.5, Leading zero omitted, Abs format (unit mm)*
G04 Created by KiCad (PCBNEW (6.0.11)) date 2023-06-14 07:53:35*
%MOMM*%
%LPD*%
G01*
G04 APERTURE LIST*
%ADD10C,0.100000*%
%ADD11C,0.200000*%
%ADD12C,0.040000*%
%ADD13C,0.050000*%
%ADD14C,0.085000*%
%ADD15C,0.101600*%
%ADD16C,0.110000*%
%ADD17C,0.220000*%
G04 APERTURE END LIST*
D10*
X10070000Y-3700000D02*
X17657000Y-3700000D01*
X17657000Y-3700000D02*
X17657000Y-8480000D01*
X17657000Y-8480000D02*
X10070000Y-8480000D01*
X10070000Y-8480000D02*
X10070000Y-3700000D01*
D11*
D12*
X12330000Y-5505000D02*
X12370000Y-5545000D01*
X12370000Y-5505000D02*
X12330000Y-5545000D01*
X14433200Y-6101400D02*
X14473200Y-6141400D01*
X14473200Y-6101400D02*
X14433200Y-6141400D01*
X15530000Y-5405000D02*
X15570000Y-5445000D01*
X15570000Y-5405000D02*
X15530000Y-5445000D01*
X15905000Y-5080000D02*
X15945000Y-5120000D01*
X15945000Y-5080000D02*
X15905000Y-5120000D01*
X16230000Y-5280000D02*
X16270000Y-5320000D01*
X16270000Y-5280000D02*
X16230000Y-5320000D01*
X16330000Y-4805000D02*
X16370000Y-4845000D01*
X16370000Y-4805000D02*
X16330000Y-4845000D01*
D13*
X11765000Y-7820000D02*
G75*
G03*
X11765000Y-7820000I-25000J0D01*
G01*
X11785200Y-5308600D02*
G75*
G03*
X11785200Y-5308600I-25000J0D01*
G01*
X15675000Y-3900000D02*
G75*
G03*
X15675000Y-3900000I-25000J0D01*
G01*
X16100000Y-8100000D02*
G75*
G03*
X16100000Y-8100000I-25000J0D01*
G01*
X16625000Y-3950000D02*
G75*
G03*
X16625000Y-3950000I-25000J0D01*
G01*
X17200000Y-4875000D02*
G75*
G03*
X17200000Y-4875000I-25000J0D01*
G01*
D14*
X17018000Y-6007500D02*
X17018000Y-6092500D01*
X16975500Y-6050000D02*
X17060500Y-6050000D01*
X17018000Y-6507500D02*
X17018000Y-6592500D01*
X16975500Y-6550000D02*
X17060500Y-6550000D01*
D10*
X12068356Y-4822356D02*
X12068356Y-4751644D01*
X11997644Y-4751644D01*
X11997644Y-4822356D01*
X12068356Y-4822356D01*
X12068356Y-5330356D02*
X12068356Y-5259644D01*
X11997644Y-5259644D01*
X11997644Y-5330356D01*
X12068356Y-5330356D01*
X12322356Y-4568356D02*
X12322356Y-4497644D01*
X12251644Y-4497644D01*
X12251644Y-4568356D01*
X12322356Y-4568356D01*
X12830356Y-4568356D02*
X12830356Y-4497644D01*
X12759644Y-4497644D01*
X12759644Y-4568356D01*
X12830356Y-4568356D01*
X14100356Y-7362356D02*
X14100356Y-7291644D01*
X14029644Y-7291644D01*
X14029644Y-7362356D01*
X14100356Y-7362356D01*
X14608356Y-7362356D02*
X14608356Y-7291644D01*
X14537644Y-7291644D01*
X14537644Y-7362356D01*
X14608356Y-7362356D01*
X14862356Y-6600356D02*
X14862356Y-6529644D01*
X14791644Y-6529644D01*
X14791644Y-6600356D01*
X14862356Y-6600356D01*
X14862356Y-7108356D02*
X14862356Y-7037644D01*
X14791644Y-7037644D01*
X14791644Y-7108356D01*
X14862356Y-7108356D01*
D15*
X10572500Y-5726800D02*
X10623300Y-5676000D01*
X10572500Y-5625200D01*
X10521700Y-5676000D01*
X10572500Y-5726800D01*
X10572500Y-5980800D02*
X10623300Y-5930000D01*
X10572500Y-5879200D01*
X10521700Y-5930000D01*
X10572500Y-5980800D01*
X10572500Y-6234800D02*
X10623300Y-6184000D01*
X10572500Y-6133200D01*
X10521700Y-6184000D01*
X10572500Y-6234800D01*
D16*
X15263950Y-5616000D02*
X15373950Y-5726000D01*
X15373950Y-5616000D02*
X15263950Y-5726000D01*
X15373950Y-5671000D02*
G75*
G03*
X15373950Y-5671000I-55000J0D01*
G01*
X15263950Y-6124000D02*
X15373950Y-6234000D01*
X15373950Y-6124000D02*
X15263950Y-6234000D01*
X15373950Y-6179000D02*
G75*
G03*
X15373950Y-6179000I-55000J0D01*
G01*
D17*
X13225000Y-3877800D02*
X13445000Y-4097800D01*
X13445000Y-3877800D02*
X13225000Y-4097800D01*
X13335000Y-3877800D02*
X13335000Y-4097800D01*
X13225000Y-3987800D02*
X13445000Y-3987800D01*
X13225000Y-8018000D02*
X13445000Y-8238000D01*
X13445000Y-8018000D02*
X13225000Y-8238000D01*
X13335000Y-8018000D02*
X13335000Y-8238000D01*
X13225000Y-8128000D02*
X13445000Y-8128000D01*
X17136600Y-5274800D02*
X17356600Y-5494800D01*
X17356600Y-5274800D02*
X17136600Y-5494800D01*
X17246600Y-5274800D02*
X17246600Y-5494800D01*
X17136600Y-5384800D02*
X17356600Y-5384800D01*
X17136600Y-7103600D02*
X17356600Y-7323600D01*
X17356600Y-7103600D02*
X17136600Y-7323600D01*
X17246600Y-7103600D02*
X17246600Y-7323600D01*
X17136600Y-7213600D02*
X17356600Y-7213600D01*
D11*
X10322619Y-8795476D02*
X10322619Y-8595476D01*
X10370238Y-8595476D01*
X10398810Y-8605000D01*
X10417857Y-8624048D01*
X10427381Y-8643095D01*
X10436905Y-8681190D01*
X10436905Y-8709762D01*
X10427381Y-8747857D01*
X10417857Y-8766905D01*
X10398810Y-8785952D01*
X10370238Y-8795476D01*
X10322619Y-8795476D01*
X10522619Y-8795476D02*
X10522619Y-8662143D01*
X10522619Y-8700238D02*
X10532143Y-8681190D01*
X10541667Y-8671667D01*
X10560714Y-8662143D01*
X10579762Y-8662143D01*
X10646429Y-8795476D02*
X10646429Y-8662143D01*
X10646429Y-8595476D02*
X10636905Y-8605000D01*
X10646429Y-8614524D01*
X10655952Y-8605000D01*
X10646429Y-8595476D01*
X10646429Y-8614524D01*
X10770238Y-8795476D02*
X10751190Y-8785952D01*
X10741667Y-8766905D01*
X10741667Y-8595476D01*
X10875000Y-8795476D02*
X10855952Y-8785952D01*
X10846429Y-8766905D01*
X10846429Y-8595476D01*
X11103571Y-8795476D02*
X11103571Y-8595476D01*
X11170238Y-8738333D01*
X11236905Y-8595476D01*
X11236905Y-8795476D01*
X11417857Y-8795476D02*
X11417857Y-8690714D01*
X11408333Y-8671667D01*
X11389286Y-8662143D01*
X11351190Y-8662143D01*
X11332143Y-8671667D01*
X11417857Y-8785952D02*
X11398809Y-8795476D01*
X11351190Y-8795476D01*
X11332143Y-8785952D01*
X11322619Y-8766905D01*
X11322619Y-8747857D01*
X11332143Y-8728810D01*
X11351190Y-8719286D01*
X11398809Y-8719286D01*
X11417857Y-8709762D01*
X11513095Y-8662143D02*
X11513095Y-8862143D01*
X11513095Y-8671667D02*
X11532143Y-8662143D01*
X11570238Y-8662143D01*
X11589286Y-8671667D01*
X11598809Y-8681190D01*
X11608333Y-8700238D01*
X11608333Y-8757381D01*
X11598809Y-8776429D01*
X11589286Y-8785952D01*
X11570238Y-8795476D01*
X11532143Y-8795476D01*
X11513095Y-8785952D01*
X11694048Y-8776429D02*
X11703571Y-8785952D01*
X11694048Y-8795476D01*
X11684524Y-8785952D01*
X11694048Y-8776429D01*
X11694048Y-8795476D01*
X11694048Y-8671667D02*
X11703571Y-8681190D01*
X11694048Y-8690714D01*
X11684524Y-8681190D01*
X11694048Y-8671667D01*
X11694048Y-8690714D01*
D12*
X10025000Y-9105000D02*
X10065000Y-9145000D01*
X10065000Y-9105000D02*
X10025000Y-9145000D01*
D11*
X10360714Y-9015476D02*
X10379762Y-9015476D01*
X10398810Y-9025000D01*
X10408333Y-9034524D01*
X10417857Y-9053571D01*
X10427381Y-9091667D01*
X10427381Y-9139286D01*
X10417857Y-9177381D01*
X10408333Y-9196429D01*
X10398810Y-9205952D01*
X10379762Y-9215476D01*
X10360714Y-9215476D01*
X10341667Y-9205952D01*
X10332143Y-9196429D01*
X10322619Y-9177381D01*
X10313095Y-9139286D01*
X10313095Y-9091667D01*
X10322619Y-9053571D01*
X10332143Y-9034524D01*
X10341667Y-9025000D01*
X10360714Y-9015476D01*
X10513095Y-9196429D02*
X10522619Y-9205952D01*
X10513095Y-9215476D01*
X10503571Y-9205952D01*
X10513095Y-9196429D01*
X10513095Y-9215476D01*
X10694048Y-9082143D02*
X10694048Y-9215476D01*
X10646429Y-9005952D02*
X10598810Y-9148810D01*
X10722619Y-9148810D01*
X10836905Y-9015476D02*
X10855952Y-9015476D01*
X10875000Y-9025000D01*
X10884524Y-9034524D01*
X10894048Y-9053571D01*
X10903571Y-9091667D01*
X10903571Y-9139286D01*
X10894048Y-9177381D01*
X10884524Y-9196429D01*
X10875000Y-9205952D01*
X10855952Y-9215476D01*
X10836905Y-9215476D01*
X10817857Y-9205952D01*
X10808333Y-9196429D01*
X10798810Y-9177381D01*
X10789286Y-9139286D01*
X10789286Y-9091667D01*
X10798810Y-9053571D01*
X10808333Y-9034524D01*
X10817857Y-9025000D01*
X10836905Y-9015476D01*
X11027381Y-9015476D02*
X11046429Y-9015476D01*
X11065476Y-9025000D01*
X11075000Y-9034524D01*
X11084524Y-9053571D01*
X11094048Y-9091667D01*
X11094048Y-9139286D01*
X11084524Y-9177381D01*
X11075000Y-9196429D01*
X11065476Y-9205952D01*
X11046429Y-9215476D01*
X11027381Y-9215476D01*
X11008333Y-9205952D01*
X10998810Y-9196429D01*
X10989286Y-9177381D01*
X10979762Y-9139286D01*
X10979762Y-9091667D01*
X10989286Y-9053571D01*
X10998810Y-9034524D01*
X11008333Y-9025000D01*
X11027381Y-9015476D01*
X11179762Y-9215476D02*
X11179762Y-9082143D01*
X11179762Y-9101190D02*
X11189286Y-9091667D01*
X11208333Y-9082143D01*
X11236905Y-9082143D01*
X11255952Y-9091667D01*
X11265476Y-9110714D01*
X11265476Y-9215476D01*
X11265476Y-9110714D02*
X11275000Y-9091667D01*
X11294048Y-9082143D01*
X11322619Y-9082143D01*
X11341667Y-9091667D01*
X11351190Y-9110714D01*
X11351190Y-9215476D01*
X11446428Y-9215476D02*
X11446428Y-9082143D01*
X11446428Y-9101190D02*
X11455952Y-9091667D01*
X11475000Y-9082143D01*
X11503571Y-9082143D01*
X11522619Y-9091667D01*
X11532143Y-9110714D01*
X11532143Y-9215476D01*
X11532143Y-9110714D02*
X11541667Y-9091667D01*
X11560714Y-9082143D01*
X11589286Y-9082143D01*
X11608333Y-9091667D01*
X11617857Y-9110714D01*
X11617857Y-9215476D01*
X12008333Y-9005952D02*
X11836905Y-9263095D01*
X12265476Y-9015476D02*
X12284524Y-9015476D01*
X12303571Y-9025000D01*
X12313095Y-9034524D01*
X12322619Y-9053571D01*
X12332143Y-9091667D01*
X12332143Y-9139286D01*
X12322619Y-9177381D01*
X12313095Y-9196429D01*
X12303571Y-9205952D01*
X12284524Y-9215476D01*
X12265476Y-9215476D01*
X12246428Y-9205952D01*
X12236905Y-9196429D01*
X12227381Y-9177381D01*
X12217857Y-9139286D01*
X12217857Y-9091667D01*
X12227381Y-9053571D01*
X12236905Y-9034524D01*
X12246428Y-9025000D01*
X12265476Y-9015476D01*
X12417857Y-9196429D02*
X12427381Y-9205952D01*
X12417857Y-9215476D01*
X12408333Y-9205952D01*
X12417857Y-9196429D01*
X12417857Y-9215476D01*
X12551190Y-9015476D02*
X12570238Y-9015476D01*
X12589286Y-9025000D01*
X12598809Y-9034524D01*
X12608333Y-9053571D01*
X12617857Y-9091667D01*
X12617857Y-9139286D01*
X12608333Y-9177381D01*
X12598809Y-9196429D01*
X12589286Y-9205952D01*
X12570238Y-9215476D01*
X12551190Y-9215476D01*
X12532143Y-9205952D01*
X12522619Y-9196429D01*
X12513095Y-9177381D01*
X12503571Y-9139286D01*
X12503571Y-9091667D01*
X12513095Y-9053571D01*
X12522619Y-9034524D01*
X12532143Y-9025000D01*
X12551190Y-9015476D01*
X12808333Y-9215476D02*
X12694048Y-9215476D01*
X12751190Y-9215476D02*
X12751190Y-9015476D01*
X12732143Y-9044048D01*
X12713095Y-9063095D01*
X12694048Y-9072619D01*
X12989286Y-9015476D02*
X12894048Y-9015476D01*
X12884524Y-9110714D01*
X12894048Y-9101190D01*
X12913095Y-9091667D01*
X12960714Y-9091667D01*
X12979762Y-9101190D01*
X12989286Y-9110714D01*
X12998809Y-9129762D01*
X12998809Y-9177381D01*
X12989286Y-9196429D01*
X12979762Y-9205952D01*
X12960714Y-9215476D01*
X12913095Y-9215476D01*
X12894048Y-9205952D01*
X12884524Y-9196429D01*
X13065476Y-9015476D02*
X13198809Y-9015476D01*
X13113095Y-9215476D01*
X13265476Y-9015476D02*
X13265476Y-9053571D01*
X13341667Y-9015476D02*
X13341667Y-9053571D01*
X13636905Y-9291667D02*
X13627381Y-9282143D01*
X13608333Y-9253571D01*
X13598809Y-9234524D01*
X13589286Y-9205952D01*
X13579762Y-9158333D01*
X13579762Y-9120238D01*
X13589286Y-9072619D01*
X13598809Y-9044048D01*
X13608333Y-9025000D01*
X13627381Y-8996429D01*
X13636905Y-8986905D01*
X13798809Y-9015476D02*
X13760714Y-9015476D01*
X13741667Y-9025000D01*
X13732143Y-9034524D01*
X13713095Y-9063095D01*
X13703571Y-9101190D01*
X13703571Y-9177381D01*
X13713095Y-9196429D01*
X13722619Y-9205952D01*
X13741667Y-9215476D01*
X13779762Y-9215476D01*
X13798809Y-9205952D01*
X13808333Y-9196429D01*
X13817857Y-9177381D01*
X13817857Y-9129762D01*
X13808333Y-9110714D01*
X13798809Y-9101190D01*
X13779762Y-9091667D01*
X13741667Y-9091667D01*
X13722619Y-9101190D01*
X13713095Y-9110714D01*
X13703571Y-9129762D01*
X14055952Y-9215476D02*
X14055952Y-9015476D01*
X14141667Y-9215476D02*
X14141667Y-9110714D01*
X14132143Y-9091667D01*
X14113095Y-9082143D01*
X14084524Y-9082143D01*
X14065476Y-9091667D01*
X14055952Y-9101190D01*
X14265476Y-9215476D02*
X14246428Y-9205952D01*
X14236905Y-9196429D01*
X14227381Y-9177381D01*
X14227381Y-9120238D01*
X14236905Y-9101190D01*
X14246428Y-9091667D01*
X14265476Y-9082143D01*
X14294048Y-9082143D01*
X14313095Y-9091667D01*
X14322619Y-9101190D01*
X14332143Y-9120238D01*
X14332143Y-9177381D01*
X14322619Y-9196429D01*
X14313095Y-9205952D01*
X14294048Y-9215476D01*
X14265476Y-9215476D01*
X14446428Y-9215476D02*
X14427381Y-9205952D01*
X14417857Y-9186905D01*
X14417857Y-9015476D01*
X14598809Y-9205952D02*
X14579762Y-9215476D01*
X14541667Y-9215476D01*
X14522619Y-9205952D01*
X14513095Y-9186905D01*
X14513095Y-9110714D01*
X14522619Y-9091667D01*
X14541667Y-9082143D01*
X14579762Y-9082143D01*
X14598809Y-9091667D01*
X14608333Y-9110714D01*
X14608333Y-9129762D01*
X14513095Y-9148810D01*
X14684524Y-9205952D02*
X14703571Y-9215476D01*
X14741667Y-9215476D01*
X14760714Y-9205952D01*
X14770238Y-9186905D01*
X14770238Y-9177381D01*
X14760714Y-9158333D01*
X14741667Y-9148810D01*
X14713095Y-9148810D01*
X14694048Y-9139286D01*
X14684524Y-9120238D01*
X14684524Y-9110714D01*
X14694048Y-9091667D01*
X14713095Y-9082143D01*
X14741667Y-9082143D01*
X14760714Y-9091667D01*
X14836905Y-9291667D02*
X14846428Y-9282143D01*
X14865476Y-9253571D01*
X14875000Y-9234524D01*
X14884524Y-9205952D01*
X14894048Y-9158333D01*
X14894048Y-9120238D01*
X14884524Y-9072619D01*
X14875000Y-9044048D01*
X14865476Y-9025000D01*
X14846428Y-8996429D01*
X14836905Y-8986905D01*
D13*
X10065000Y-9389000D02*
G75*
G03*
X10065000Y-9389000I-25000J0D01*
G01*
D11*
X10360714Y-9279476D02*
X10379762Y-9279476D01*
X10398810Y-9289000D01*
X10408333Y-9298524D01*
X10417857Y-9317571D01*
X10427381Y-9355667D01*
X10427381Y-9403286D01*
X10417857Y-9441381D01*
X10408333Y-9460429D01*
X10398810Y-9469952D01*
X10379762Y-9479476D01*
X10360714Y-9479476D01*
X10341667Y-9469952D01*
X10332143Y-9460429D01*
X10322619Y-9441381D01*
X10313095Y-9403286D01*
X10313095Y-9355667D01*
X10322619Y-9317571D01*
X10332143Y-9298524D01*
X10341667Y-9289000D01*
X10360714Y-9279476D01*
X10513095Y-9460429D02*
X10522619Y-9469952D01*
X10513095Y-9479476D01*
X10503571Y-9469952D01*
X10513095Y-9460429D01*
X10513095Y-9479476D01*
X10703571Y-9279476D02*
X10608333Y-9279476D01*
X10598810Y-9374714D01*
X10608333Y-9365190D01*
X10627381Y-9355667D01*
X10675000Y-9355667D01*
X10694048Y-9365190D01*
X10703571Y-9374714D01*
X10713095Y-9393762D01*
X10713095Y-9441381D01*
X10703571Y-9460429D01*
X10694048Y-9469952D01*
X10675000Y-9479476D01*
X10627381Y-9479476D01*
X10608333Y-9469952D01*
X10598810Y-9460429D01*
X10836905Y-9279476D02*
X10855952Y-9279476D01*
X10875000Y-9289000D01*
X10884524Y-9298524D01*
X10894048Y-9317571D01*
X10903571Y-9355667D01*
X10903571Y-9403286D01*
X10894048Y-9441381D01*
X10884524Y-9460429D01*
X10875000Y-9469952D01*
X10855952Y-9479476D01*
X10836905Y-9479476D01*
X10817857Y-9469952D01*
X10808333Y-9460429D01*
X10798810Y-9441381D01*
X10789286Y-9403286D01*
X10789286Y-9355667D01*
X10798810Y-9317571D01*
X10808333Y-9298524D01*
X10817857Y-9289000D01*
X10836905Y-9279476D01*
X11027381Y-9279476D02*
X11046429Y-9279476D01*
X11065476Y-9289000D01*
X11075000Y-9298524D01*
X11084524Y-9317571D01*
X11094048Y-9355667D01*
X11094048Y-9403286D01*
X11084524Y-9441381D01*
X11075000Y-9460429D01*
X11065476Y-9469952D01*
X11046429Y-9479476D01*
X11027381Y-9479476D01*
X11008333Y-9469952D01*
X10998810Y-9460429D01*
X10989286Y-9441381D01*
X10979762Y-9403286D01*
X10979762Y-9355667D01*
X10989286Y-9317571D01*
X10998810Y-9298524D01*
X11008333Y-9289000D01*
X11027381Y-9279476D01*
X11179762Y-9479476D02*
X11179762Y-9346143D01*
X11179762Y-9365190D02*
X11189286Y-9355667D01*
X11208333Y-9346143D01*
X11236905Y-9346143D01*
X11255952Y-9355667D01*
X11265476Y-9374714D01*
X11265476Y-9479476D01*
X11265476Y-9374714D02*
X11275000Y-9355667D01*
X11294048Y-9346143D01*
X11322619Y-9346143D01*
X11341667Y-9355667D01*
X11351190Y-9374714D01*
X11351190Y-9479476D01*
X11446428Y-9479476D02*
X11446428Y-9346143D01*
X11446428Y-9365190D02*
X11455952Y-9355667D01*
X11475000Y-9346143D01*
X11503571Y-9346143D01*
X11522619Y-9355667D01*
X11532143Y-9374714D01*
X11532143Y-9479476D01*
X11532143Y-9374714D02*
X11541667Y-9355667D01*
X11560714Y-9346143D01*
X11589286Y-9346143D01*
X11608333Y-9355667D01*
X11617857Y-9374714D01*
X11617857Y-9479476D01*
X12008333Y-9269952D02*
X11836905Y-9527095D01*
X12265476Y-9279476D02*
X12284524Y-9279476D01*
X12303571Y-9289000D01*
X12313095Y-9298524D01*
X12322619Y-9317571D01*
X12332143Y-9355667D01*
X12332143Y-9403286D01*
X12322619Y-9441381D01*
X12313095Y-9460429D01*
X12303571Y-9469952D01*
X12284524Y-9479476D01*
X12265476Y-9479476D01*
X12246428Y-9469952D01*
X12236905Y-9460429D01*
X12227381Y-9441381D01*
X12217857Y-9403286D01*
X12217857Y-9355667D01*
X12227381Y-9317571D01*
X12236905Y-9298524D01*
X12246428Y-9289000D01*
X12265476Y-9279476D01*
X12417857Y-9460429D02*
X12427381Y-9469952D01*
X12417857Y-9479476D01*
X12408333Y-9469952D01*
X12417857Y-9460429D01*
X12417857Y-9479476D01*
X12551190Y-9279476D02*
X12570238Y-9279476D01*
X12589286Y-9289000D01*
X12598809Y-9298524D01*
X12608333Y-9317571D01*
X12617857Y-9355667D01*
X12617857Y-9403286D01*
X12608333Y-9441381D01*
X12598809Y-9460429D01*
X12589286Y-9469952D01*
X12570238Y-9479476D01*
X12551190Y-9479476D01*
X12532143Y-9469952D01*
X12522619Y-9460429D01*
X12513095Y-9441381D01*
X12503571Y-9403286D01*
X12503571Y-9355667D01*
X12513095Y-9317571D01*
X12522619Y-9298524D01*
X12532143Y-9289000D01*
X12551190Y-9279476D01*
X12808333Y-9479476D02*
X12694048Y-9479476D01*
X12751190Y-9479476D02*
X12751190Y-9279476D01*
X12732143Y-9308048D01*
X12713095Y-9327095D01*
X12694048Y-9336619D01*
X12903571Y-9479476D02*
X12941667Y-9479476D01*
X12960714Y-9469952D01*
X12970238Y-9460429D01*
X12989286Y-9431857D01*
X12998809Y-9393762D01*
X12998809Y-9317571D01*
X12989286Y-9298524D01*
X12979762Y-9289000D01*
X12960714Y-9279476D01*
X12922619Y-9279476D01*
X12903571Y-9289000D01*
X12894048Y-9298524D01*
X12884524Y-9317571D01*
X12884524Y-9365190D01*
X12894048Y-9384238D01*
X12903571Y-9393762D01*
X12922619Y-9403286D01*
X12960714Y-9403286D01*
X12979762Y-9393762D01*
X12989286Y-9384238D01*
X12998809Y-9365190D01*
X13065476Y-9279476D02*
X13198809Y-9279476D01*
X13113095Y-9479476D01*
X13265476Y-9279476D02*
X13265476Y-9317571D01*
X13341667Y-9279476D02*
X13341667Y-9317571D01*
X13636905Y-9555667D02*
X13627381Y-9546143D01*
X13608333Y-9517571D01*
X13598809Y-9498524D01*
X13589286Y-9469952D01*
X13579762Y-9422333D01*
X13579762Y-9384238D01*
X13589286Y-9336619D01*
X13598809Y-9308048D01*
X13608333Y-9289000D01*
X13627381Y-9260429D01*
X13636905Y-9250905D01*
X13798809Y-9279476D02*
X13760714Y-9279476D01*
X13741667Y-9289000D01*
X13732143Y-9298524D01*
X13713095Y-9327095D01*
X13703571Y-9365190D01*
X13703571Y-9441381D01*
X13713095Y-9460429D01*
X13722619Y-9469952D01*
X13741667Y-9479476D01*
X13779762Y-9479476D01*
X13798809Y-9469952D01*
X13808333Y-9460429D01*
X13817857Y-9441381D01*
X13817857Y-9393762D01*
X13808333Y-9374714D01*
X13798809Y-9365190D01*
X13779762Y-9355667D01*
X13741667Y-9355667D01*
X13722619Y-9365190D01*
X13713095Y-9374714D01*
X13703571Y-9393762D01*
X14055952Y-9479476D02*
X14055952Y-9279476D01*
X14141667Y-9479476D02*
X14141667Y-9374714D01*
X14132143Y-9355667D01*
X14113095Y-9346143D01*
X14084524Y-9346143D01*
X14065476Y-9355667D01*
X14055952Y-9365190D01*
X14265476Y-9479476D02*
X14246428Y-9469952D01*
X14236905Y-9460429D01*
X14227381Y-9441381D01*
X14227381Y-9384238D01*
X14236905Y-9365190D01*
X14246428Y-9355667D01*
X14265476Y-9346143D01*
X14294048Y-9346143D01*
X14313095Y-9355667D01*
X14322619Y-9365190D01*
X14332143Y-9384238D01*
X14332143Y-9441381D01*
X14322619Y-9460429D01*
X14313095Y-9469952D01*
X14294048Y-9479476D01*
X14265476Y-9479476D01*
X14446428Y-9479476D02*
X14427381Y-9469952D01*
X14417857Y-9450905D01*
X14417857Y-9279476D01*
X14598809Y-9469952D02*
X14579762Y-9479476D01*
X14541667Y-9479476D01*
X14522619Y-9469952D01*
X14513095Y-9450905D01*
X14513095Y-9374714D01*
X14522619Y-9355667D01*
X14541667Y-9346143D01*
X14579762Y-9346143D01*
X14598809Y-9355667D01*
X14608333Y-9374714D01*
X14608333Y-9393762D01*
X14513095Y-9412810D01*
X14684524Y-9469952D02*
X14703571Y-9479476D01*
X14741667Y-9479476D01*
X14760714Y-9469952D01*
X14770238Y-9450905D01*
X14770238Y-9441381D01*
X14760714Y-9422333D01*
X14741667Y-9412810D01*
X14713095Y-9412810D01*
X14694048Y-9403286D01*
X14684524Y-9384238D01*
X14684524Y-9374714D01*
X14694048Y-9355667D01*
X14713095Y-9346143D01*
X14741667Y-9346143D01*
X14760714Y-9355667D01*
X14836905Y-9555667D02*
X14846428Y-9546143D01*
X14865476Y-9517571D01*
X14875000Y-9498524D01*
X14884524Y-9469952D01*
X14894048Y-9422333D01*
X14894048Y-9384238D01*
X14884524Y-9336619D01*
X14875000Y-9308048D01*
X14865476Y-9289000D01*
X14846428Y-9260429D01*
X14836905Y-9250905D01*
D14*
X10022500Y-9610500D02*
X10022500Y-9695500D01*
X9980000Y-9653000D02*
X10065000Y-9653000D01*
D11*
X10360714Y-9543476D02*
X10379762Y-9543476D01*
X10398810Y-9553000D01*
X10408333Y-9562524D01*
X10417857Y-9581571D01*
X10427381Y-9619667D01*
X10427381Y-9667286D01*
X10417857Y-9705381D01*
X10408333Y-9724429D01*
X10398810Y-9733952D01*
X10379762Y-9743476D01*
X10360714Y-9743476D01*
X10341667Y-9733952D01*
X10332143Y-9724429D01*
X10322619Y-9705381D01*
X10313095Y-9667286D01*
X10313095Y-9619667D01*
X10322619Y-9581571D01*
X10332143Y-9562524D01*
X10341667Y-9553000D01*
X10360714Y-9543476D01*
X10513095Y-9724429D02*
X10522619Y-9733952D01*
X10513095Y-9743476D01*
X10503571Y-9733952D01*
X10513095Y-9724429D01*
X10513095Y-9743476D01*
X10636905Y-9629190D02*
X10617857Y-9619667D01*
X10608333Y-9610143D01*
X10598810Y-9591095D01*
X10598810Y-9581571D01*
X10608333Y-9562524D01*
X10617857Y-9553000D01*
X10636905Y-9543476D01*
X10675000Y-9543476D01*
X10694048Y-9553000D01*
X10703571Y-9562524D01*
X10713095Y-9581571D01*
X10713095Y-9591095D01*
X10703571Y-9610143D01*
X10694048Y-9619667D01*
X10675000Y-9629190D01*
X10636905Y-9629190D01*
X10617857Y-9638714D01*
X10608333Y-9648238D01*
X10598810Y-9667286D01*
X10598810Y-9705381D01*
X10608333Y-9724429D01*
X10617857Y-9733952D01*
X10636905Y-9743476D01*
X10675000Y-9743476D01*
X10694048Y-9733952D01*
X10703571Y-9724429D01*
X10713095Y-9705381D01*
X10713095Y-9667286D01*
X10703571Y-9648238D01*
X10694048Y-9638714D01*
X10675000Y-9629190D01*
X10894048Y-9543476D02*
X10798810Y-9543476D01*
X10789286Y-9638714D01*
X10798810Y-9629190D01*
X10817857Y-9619667D01*
X10865476Y-9619667D01*
X10884524Y-9629190D01*
X10894048Y-9638714D01*
X10903571Y-9657762D01*
X10903571Y-9705381D01*
X10894048Y-9724429D01*
X10884524Y-9733952D01*
X10865476Y-9743476D01*
X10817857Y-9743476D01*
X10798810Y-9733952D01*
X10789286Y-9724429D01*
X11027381Y-9543476D02*
X11046429Y-9543476D01*
X11065476Y-9553000D01*
X11075000Y-9562524D01*
X11084524Y-9581571D01*
X11094048Y-9619667D01*
X11094048Y-9667286D01*
X11084524Y-9705381D01*
X11075000Y-9724429D01*
X11065476Y-9733952D01*
X11046429Y-9743476D01*
X11027381Y-9743476D01*
X11008333Y-9733952D01*
X10998810Y-9724429D01*
X10989286Y-9705381D01*
X10979762Y-9667286D01*
X10979762Y-9619667D01*
X10989286Y-9581571D01*
X10998810Y-9562524D01*
X11008333Y-9553000D01*
X11027381Y-9543476D01*
X11179762Y-9743476D02*
X11179762Y-9610143D01*
X11179762Y-9629190D02*
X11189286Y-9619667D01*
X11208333Y-9610143D01*
X11236905Y-9610143D01*
X11255952Y-9619667D01*
X11265476Y-9638714D01*
X11265476Y-9743476D01*
X11265476Y-9638714D02*
X11275000Y-9619667D01*
X11294048Y-9610143D01*
X11322619Y-9610143D01*
X11341667Y-9619667D01*
X11351190Y-9638714D01*
X11351190Y-9743476D01*
X11446428Y-9743476D02*
X11446428Y-9610143D01*
X11446428Y-9629190D02*
X11455952Y-9619667D01*
X11475000Y-9610143D01*
X11503571Y-9610143D01*
X11522619Y-9619667D01*
X11532143Y-9638714D01*
X11532143Y-9743476D01*
X11532143Y-9638714D02*
X11541667Y-9619667D01*
X11560714Y-9610143D01*
X11589286Y-9610143D01*
X11608333Y-9619667D01*
X11617857Y-9638714D01*
X11617857Y-9743476D01*
X12008333Y-9533952D02*
X11836905Y-9791095D01*
X12265476Y-9543476D02*
X12284524Y-9543476D01*
X12303571Y-9553000D01*
X12313095Y-9562524D01*
X12322619Y-9581571D01*
X12332143Y-9619667D01*
X12332143Y-9667286D01*
X12322619Y-9705381D01*
X12313095Y-9724429D01*
X12303571Y-9733952D01*
X12284524Y-9743476D01*
X12265476Y-9743476D01*
X12246428Y-9733952D01*
X12236905Y-9724429D01*
X12227381Y-9705381D01*
X12217857Y-9667286D01*
X12217857Y-9619667D01*
X12227381Y-9581571D01*
X12236905Y-9562524D01*
X12246428Y-9553000D01*
X12265476Y-9543476D01*
X12417857Y-9724429D02*
X12427381Y-9733952D01*
X12417857Y-9743476D01*
X12408333Y-9733952D01*
X12417857Y-9724429D01*
X12417857Y-9743476D01*
X12551190Y-9543476D02*
X12570238Y-9543476D01*
X12589286Y-9553000D01*
X12598809Y-9562524D01*
X12608333Y-9581571D01*
X12617857Y-9619667D01*
X12617857Y-9667286D01*
X12608333Y-9705381D01*
X12598809Y-9724429D01*
X12589286Y-9733952D01*
X12570238Y-9743476D01*
X12551190Y-9743476D01*
X12532143Y-9733952D01*
X12522619Y-9724429D01*
X12513095Y-9705381D01*
X12503571Y-9667286D01*
X12503571Y-9619667D01*
X12513095Y-9581571D01*
X12522619Y-9562524D01*
X12532143Y-9553000D01*
X12551190Y-9543476D01*
X12684524Y-9543476D02*
X12808333Y-9543476D01*
X12741667Y-9619667D01*
X12770238Y-9619667D01*
X12789286Y-9629190D01*
X12798809Y-9638714D01*
X12808333Y-9657762D01*
X12808333Y-9705381D01*
X12798809Y-9724429D01*
X12789286Y-9733952D01*
X12770238Y-9743476D01*
X12713095Y-9743476D01*
X12694048Y-9733952D01*
X12684524Y-9724429D01*
X12875000Y-9543476D02*
X12998809Y-9543476D01*
X12932143Y-9619667D01*
X12960714Y-9619667D01*
X12979762Y-9629190D01*
X12989286Y-9638714D01*
X12998809Y-9657762D01*
X12998809Y-9705381D01*
X12989286Y-9724429D01*
X12979762Y-9733952D01*
X12960714Y-9743476D01*
X12903571Y-9743476D01*
X12884524Y-9733952D01*
X12875000Y-9724429D01*
X13179762Y-9543476D02*
X13084524Y-9543476D01*
X13075000Y-9638714D01*
X13084524Y-9629190D01*
X13103571Y-9619667D01*
X13151190Y-9619667D01*
X13170238Y-9629190D01*
X13179762Y-9638714D01*
X13189286Y-9657762D01*
X13189286Y-9705381D01*
X13179762Y-9724429D01*
X13170238Y-9733952D01*
X13151190Y-9743476D01*
X13103571Y-9743476D01*
X13084524Y-9733952D01*
X13075000Y-9724429D01*
X13265476Y-9543476D02*
X13265476Y-9581571D01*
X13341667Y-9543476D02*
X13341667Y-9581571D01*
X13636905Y-9819667D02*
X13627381Y-9810143D01*
X13608333Y-9781571D01*
X13598809Y-9762524D01*
X13589286Y-9733952D01*
X13579762Y-9686333D01*
X13579762Y-9648238D01*
X13589286Y-9600619D01*
X13598809Y-9572048D01*
X13608333Y-9553000D01*
X13627381Y-9524429D01*
X13636905Y-9514905D01*
X13703571Y-9562524D02*
X13713095Y-9553000D01*
X13732143Y-9543476D01*
X13779762Y-9543476D01*
X13798809Y-9553000D01*
X13808333Y-9562524D01*
X13817857Y-9581571D01*
X13817857Y-9600619D01*
X13808333Y-9629190D01*
X13694048Y-9743476D01*
X13817857Y-9743476D01*
X14055952Y-9743476D02*
X14055952Y-9543476D01*
X14141667Y-9743476D02*
X14141667Y-9638714D01*
X14132143Y-9619667D01*
X14113095Y-9610143D01*
X14084524Y-9610143D01*
X14065476Y-9619667D01*
X14055952Y-9629190D01*
X14265476Y-9743476D02*
X14246428Y-9733952D01*
X14236905Y-9724429D01*
X14227381Y-9705381D01*
X14227381Y-9648238D01*
X14236905Y-9629190D01*
X14246428Y-9619667D01*
X14265476Y-9610143D01*
X14294048Y-9610143D01*
X14313095Y-9619667D01*
X14322619Y-9629190D01*
X14332143Y-9648238D01*
X14332143Y-9705381D01*
X14322619Y-9724429D01*
X14313095Y-9733952D01*
X14294048Y-9743476D01*
X14265476Y-9743476D01*
X14446428Y-9743476D02*
X14427381Y-9733952D01*
X14417857Y-9714905D01*
X14417857Y-9543476D01*
X14598809Y-9733952D02*
X14579762Y-9743476D01*
X14541667Y-9743476D01*
X14522619Y-9733952D01*
X14513095Y-9714905D01*
X14513095Y-9638714D01*
X14522619Y-9619667D01*
X14541667Y-9610143D01*
X14579762Y-9610143D01*
X14598809Y-9619667D01*
X14608333Y-9638714D01*
X14608333Y-9657762D01*
X14513095Y-9676810D01*
X14684524Y-9733952D02*
X14703571Y-9743476D01*
X14741667Y-9743476D01*
X14760714Y-9733952D01*
X14770238Y-9714905D01*
X14770238Y-9705381D01*
X14760714Y-9686333D01*
X14741667Y-9676810D01*
X14713095Y-9676810D01*
X14694048Y-9667286D01*
X14684524Y-9648238D01*
X14684524Y-9638714D01*
X14694048Y-9619667D01*
X14713095Y-9610143D01*
X14741667Y-9610143D01*
X14760714Y-9619667D01*
X14836905Y-9819667D02*
X14846428Y-9810143D01*
X14865476Y-9781571D01*
X14875000Y-9762524D01*
X14884524Y-9733952D01*
X14894048Y-9686333D01*
X14894048Y-9648238D01*
X14884524Y-9600619D01*
X14875000Y-9572048D01*
X14865476Y-9553000D01*
X14846428Y-9524429D01*
X14836905Y-9514905D01*
D10*
X10050356Y-9952356D02*
X10050356Y-9881644D01*
X9979644Y-9881644D01*
X9979644Y-9952356D01*
X10050356Y-9952356D01*
D11*
X10427381Y-10007476D02*
X10313095Y-10007476D01*
X10370238Y-10007476D02*
X10370238Y-9807476D01*
X10351190Y-9836048D01*
X10332143Y-9855095D01*
X10313095Y-9864619D01*
X10513095Y-9988429D02*
X10522619Y-9997952D01*
X10513095Y-10007476D01*
X10503571Y-9997952D01*
X10513095Y-9988429D01*
X10513095Y-10007476D01*
X10646429Y-9807476D02*
X10665476Y-9807476D01*
X10684524Y-9817000D01*
X10694048Y-9826524D01*
X10703571Y-9845571D01*
X10713095Y-9883667D01*
X10713095Y-9931286D01*
X10703571Y-9969381D01*
X10694048Y-9988429D01*
X10684524Y-9997952D01*
X10665476Y-10007476D01*
X10646429Y-10007476D01*
X10627381Y-9997952D01*
X10617857Y-9988429D01*
X10608333Y-9969381D01*
X10598810Y-9931286D01*
X10598810Y-9883667D01*
X10608333Y-9845571D01*
X10617857Y-9826524D01*
X10627381Y-9817000D01*
X10646429Y-9807476D01*
X10836905Y-9807476D02*
X10855952Y-9807476D01*
X10875000Y-9817000D01*
X10884524Y-9826524D01*
X10894048Y-9845571D01*
X10903571Y-9883667D01*
X10903571Y-9931286D01*
X10894048Y-9969381D01*
X10884524Y-9988429D01*
X10875000Y-9997952D01*
X10855952Y-10007476D01*
X10836905Y-10007476D01*
X10817857Y-9997952D01*
X10808333Y-9988429D01*
X10798810Y-9969381D01*
X10789286Y-9931286D01*
X10789286Y-9883667D01*
X10798810Y-9845571D01*
X10808333Y-9826524D01*
X10817857Y-9817000D01*
X10836905Y-9807476D01*
X11027381Y-9807476D02*
X11046429Y-9807476D01*
X11065476Y-9817000D01*
X11075000Y-9826524D01*
X11084524Y-9845571D01*
X11094048Y-9883667D01*
X11094048Y-9931286D01*
X11084524Y-9969381D01*
X11075000Y-9988429D01*
X11065476Y-9997952D01*
X11046429Y-10007476D01*
X11027381Y-10007476D01*
X11008333Y-9997952D01*
X10998810Y-9988429D01*
X10989286Y-9969381D01*
X10979762Y-9931286D01*
X10979762Y-9883667D01*
X10989286Y-9845571D01*
X10998810Y-9826524D01*
X11008333Y-9817000D01*
X11027381Y-9807476D01*
X11179762Y-10007476D02*
X11179762Y-9874143D01*
X11179762Y-9893190D02*
X11189286Y-9883667D01*
X11208333Y-9874143D01*
X11236905Y-9874143D01*
X11255952Y-9883667D01*
X11265476Y-9902714D01*
X11265476Y-10007476D01*
X11265476Y-9902714D02*
X11275000Y-9883667D01*
X11294048Y-9874143D01*
X11322619Y-9874143D01*
X11341667Y-9883667D01*
X11351190Y-9902714D01*
X11351190Y-10007476D01*
X11446428Y-10007476D02*
X11446428Y-9874143D01*
X11446428Y-9893190D02*
X11455952Y-9883667D01*
X11475000Y-9874143D01*
X11503571Y-9874143D01*
X11522619Y-9883667D01*
X11532143Y-9902714D01*
X11532143Y-10007476D01*
X11532143Y-9902714D02*
X11541667Y-9883667D01*
X11560714Y-9874143D01*
X11589286Y-9874143D01*
X11608333Y-9883667D01*
X11617857Y-9902714D01*
X11617857Y-10007476D01*
X12008333Y-9797952D02*
X11836905Y-10055095D01*
X12265476Y-9807476D02*
X12284524Y-9807476D01*
X12303571Y-9817000D01*
X12313095Y-9826524D01*
X12322619Y-9845571D01*
X12332143Y-9883667D01*
X12332143Y-9931286D01*
X12322619Y-9969381D01*
X12313095Y-9988429D01*
X12303571Y-9997952D01*
X12284524Y-10007476D01*
X12265476Y-10007476D01*
X12246428Y-9997952D01*
X12236905Y-9988429D01*
X12227381Y-9969381D01*
X12217857Y-9931286D01*
X12217857Y-9883667D01*
X12227381Y-9845571D01*
X12236905Y-9826524D01*
X12246428Y-9817000D01*
X12265476Y-9807476D01*
X12417857Y-9988429D02*
X12427381Y-9997952D01*
X12417857Y-10007476D01*
X12408333Y-9997952D01*
X12417857Y-9988429D01*
X12417857Y-10007476D01*
X12551190Y-9807476D02*
X12570238Y-9807476D01*
X12589286Y-9817000D01*
X12598809Y-9826524D01*
X12608333Y-9845571D01*
X12617857Y-9883667D01*
X12617857Y-9931286D01*
X12608333Y-9969381D01*
X12598809Y-9988429D01*
X12589286Y-9997952D01*
X12570238Y-10007476D01*
X12551190Y-10007476D01*
X12532143Y-9997952D01*
X12522619Y-9988429D01*
X12513095Y-9969381D01*
X12503571Y-9931286D01*
X12503571Y-9883667D01*
X12513095Y-9845571D01*
X12522619Y-9826524D01*
X12532143Y-9817000D01*
X12551190Y-9807476D01*
X12684524Y-9807476D02*
X12808333Y-9807476D01*
X12741667Y-9883667D01*
X12770238Y-9883667D01*
X12789286Y-9893190D01*
X12798809Y-9902714D01*
X12808333Y-9921762D01*
X12808333Y-9969381D01*
X12798809Y-9988429D01*
X12789286Y-9997952D01*
X12770238Y-10007476D01*
X12713095Y-10007476D01*
X12694048Y-9997952D01*
X12684524Y-9988429D01*
X12903571Y-10007476D02*
X12941667Y-10007476D01*
X12960714Y-9997952D01*
X12970238Y-9988429D01*
X12989286Y-9959857D01*
X12998809Y-9921762D01*
X12998809Y-9845571D01*
X12989286Y-9826524D01*
X12979762Y-9817000D01*
X12960714Y-9807476D01*
X12922619Y-9807476D01*
X12903571Y-9817000D01*
X12894048Y-9826524D01*
X12884524Y-9845571D01*
X12884524Y-9893190D01*
X12894048Y-9912238D01*
X12903571Y-9921762D01*
X12922619Y-9931286D01*
X12960714Y-9931286D01*
X12979762Y-9921762D01*
X12989286Y-9912238D01*
X12998809Y-9893190D01*
X13170238Y-9874143D02*
X13170238Y-10007476D01*
X13122619Y-9797952D02*
X13075000Y-9940810D01*
X13198809Y-9940810D01*
X13265476Y-9807476D02*
X13265476Y-9845571D01*
X13341667Y-9807476D02*
X13341667Y-9845571D01*
X13636905Y-10083667D02*
X13627381Y-10074143D01*
X13608333Y-10045571D01*
X13598809Y-10026524D01*
X13589286Y-9997952D01*
X13579762Y-9950333D01*
X13579762Y-9912238D01*
X13589286Y-9864619D01*
X13598809Y-9836048D01*
X13608333Y-9817000D01*
X13627381Y-9788429D01*
X13636905Y-9778905D01*
X13741667Y-9893190D02*
X13722619Y-9883667D01*
X13713095Y-9874143D01*
X13703571Y-9855095D01*
X13703571Y-9845571D01*
X13713095Y-9826524D01*
X13722619Y-9817000D01*
X13741667Y-9807476D01*
X13779762Y-9807476D01*
X13798809Y-9817000D01*
X13808333Y-9826524D01*
X13817857Y-9845571D01*
X13817857Y-9855095D01*
X13808333Y-9874143D01*
X13798809Y-9883667D01*
X13779762Y-9893190D01*
X13741667Y-9893190D01*
X13722619Y-9902714D01*
X13713095Y-9912238D01*
X13703571Y-9931286D01*
X13703571Y-9969381D01*
X13713095Y-9988429D01*
X13722619Y-9997952D01*
X13741667Y-10007476D01*
X13779762Y-10007476D01*
X13798809Y-9997952D01*
X13808333Y-9988429D01*
X13817857Y-9969381D01*
X13817857Y-9931286D01*
X13808333Y-9912238D01*
X13798809Y-9902714D01*
X13779762Y-9893190D01*
X14055952Y-10007476D02*
X14055952Y-9807476D01*
X14141667Y-10007476D02*
X14141667Y-9902714D01*
X14132143Y-9883667D01*
X14113095Y-9874143D01*
X14084524Y-9874143D01*
X14065476Y-9883667D01*
X14055952Y-9893190D01*
X14265476Y-10007476D02*
X14246428Y-9997952D01*
X14236905Y-9988429D01*
X14227381Y-9969381D01*
X14227381Y-9912238D01*
X14236905Y-9893190D01*
X14246428Y-9883667D01*
X14265476Y-9874143D01*
X14294048Y-9874143D01*
X14313095Y-9883667D01*
X14322619Y-9893190D01*
X14332143Y-9912238D01*
X14332143Y-9969381D01*
X14322619Y-9988429D01*
X14313095Y-9997952D01*
X14294048Y-10007476D01*
X14265476Y-10007476D01*
X14446428Y-10007476D02*
X14427381Y-9997952D01*
X14417857Y-9978905D01*
X14417857Y-9807476D01*
X14598809Y-9997952D02*
X14579762Y-10007476D01*
X14541667Y-10007476D01*
X14522619Y-9997952D01*
X14513095Y-9978905D01*
X14513095Y-9902714D01*
X14522619Y-9883667D01*
X14541667Y-9874143D01*
X14579762Y-9874143D01*
X14598809Y-9883667D01*
X14608333Y-9902714D01*
X14608333Y-9921762D01*
X14513095Y-9940810D01*
X14684524Y-9997952D02*
X14703571Y-10007476D01*
X14741667Y-10007476D01*
X14760714Y-9997952D01*
X14770238Y-9978905D01*
X14770238Y-9969381D01*
X14760714Y-9950333D01*
X14741667Y-9940810D01*
X14713095Y-9940810D01*
X14694048Y-9931286D01*
X14684524Y-9912238D01*
X14684524Y-9902714D01*
X14694048Y-9883667D01*
X14713095Y-9874143D01*
X14741667Y-9874143D01*
X14760714Y-9883667D01*
X14836905Y-10083667D02*
X14846428Y-10074143D01*
X14865476Y-10045571D01*
X14875000Y-10026524D01*
X14884524Y-9997952D01*
X14894048Y-9950333D01*
X14894048Y-9912238D01*
X14884524Y-9864619D01*
X14875000Y-9836048D01*
X14865476Y-9817000D01*
X14846428Y-9788429D01*
X14836905Y-9778905D01*
D15*
X10014200Y-10231800D02*
X10065000Y-10181000D01*
X10014200Y-10130200D01*
X9963400Y-10181000D01*
X10014200Y-10231800D01*
D11*
X10427381Y-10271476D02*
X10313095Y-10271476D01*
X10370238Y-10271476D02*
X10370238Y-10071476D01*
X10351190Y-10100048D01*
X10332143Y-10119095D01*
X10313095Y-10128619D01*
X10513095Y-10252429D02*
X10522619Y-10261952D01*
X10513095Y-10271476D01*
X10503571Y-10261952D01*
X10513095Y-10252429D01*
X10513095Y-10271476D01*
X10646429Y-10071476D02*
X10665476Y-10071476D01*
X10684524Y-10081000D01*
X10694048Y-10090524D01*
X10703571Y-10109571D01*
X10713095Y-10147667D01*
X10713095Y-10195286D01*
X10703571Y-10233381D01*
X10694048Y-10252429D01*
X10684524Y-10261952D01*
X10665476Y-10271476D01*
X10646429Y-10271476D01*
X10627381Y-10261952D01*
X10617857Y-10252429D01*
X10608333Y-10233381D01*
X10598810Y-10195286D01*
X10598810Y-10147667D01*
X10608333Y-10109571D01*
X10617857Y-10090524D01*
X10627381Y-10081000D01*
X10646429Y-10071476D01*
X10903571Y-10271476D02*
X10789286Y-10271476D01*
X10846429Y-10271476D02*
X10846429Y-10071476D01*
X10827381Y-10100048D01*
X10808333Y-10119095D01*
X10789286Y-10128619D01*
X11075000Y-10071476D02*
X11036905Y-10071476D01*
X11017857Y-10081000D01*
X11008333Y-10090524D01*
X10989286Y-10119095D01*
X10979762Y-10157190D01*
X10979762Y-10233381D01*
X10989286Y-10252429D01*
X10998810Y-10261952D01*
X11017857Y-10271476D01*
X11055952Y-10271476D01*
X11075000Y-10261952D01*
X11084524Y-10252429D01*
X11094048Y-10233381D01*
X11094048Y-10185762D01*
X11084524Y-10166714D01*
X11075000Y-10157190D01*
X11055952Y-10147667D01*
X11017857Y-10147667D01*
X10998810Y-10157190D01*
X10989286Y-10166714D01*
X10979762Y-10185762D01*
X11179762Y-10271476D02*
X11179762Y-10138143D01*
X11179762Y-10157190D02*
X11189286Y-10147667D01*
X11208333Y-10138143D01*
X11236905Y-10138143D01*
X11255952Y-10147667D01*
X11265476Y-10166714D01*
X11265476Y-10271476D01*
X11265476Y-10166714D02*
X11275000Y-10147667D01*
X11294048Y-10138143D01*
X11322619Y-10138143D01*
X11341667Y-10147667D01*
X11351190Y-10166714D01*
X11351190Y-10271476D01*
X11446428Y-10271476D02*
X11446428Y-10138143D01*
X11446428Y-10157190D02*
X11455952Y-10147667D01*
X11475000Y-10138143D01*
X11503571Y-10138143D01*
X11522619Y-10147667D01*
X11532143Y-10166714D01*
X11532143Y-10271476D01*
X11532143Y-10166714D02*
X11541667Y-10147667D01*
X11560714Y-10138143D01*
X11589286Y-10138143D01*
X11608333Y-10147667D01*
X11617857Y-10166714D01*
X11617857Y-10271476D01*
X12008333Y-10061952D02*
X11836905Y-10319095D01*
X12265476Y-10071476D02*
X12284524Y-10071476D01*
X12303571Y-10081000D01*
X12313095Y-10090524D01*
X12322619Y-10109571D01*
X12332143Y-10147667D01*
X12332143Y-10195286D01*
X12322619Y-10233381D01*
X12313095Y-10252429D01*
X12303571Y-10261952D01*
X12284524Y-10271476D01*
X12265476Y-10271476D01*
X12246428Y-10261952D01*
X12236905Y-10252429D01*
X12227381Y-10233381D01*
X12217857Y-10195286D01*
X12217857Y-10147667D01*
X12227381Y-10109571D01*
X12236905Y-10090524D01*
X12246428Y-10081000D01*
X12265476Y-10071476D01*
X12417857Y-10252429D02*
X12427381Y-10261952D01*
X12417857Y-10271476D01*
X12408333Y-10261952D01*
X12417857Y-10252429D01*
X12417857Y-10271476D01*
X12551190Y-10071476D02*
X12570238Y-10071476D01*
X12589286Y-10081000D01*
X12598809Y-10090524D01*
X12608333Y-10109571D01*
X12617857Y-10147667D01*
X12617857Y-10195286D01*
X12608333Y-10233381D01*
X12598809Y-10252429D01*
X12589286Y-10261952D01*
X12570238Y-10271476D01*
X12551190Y-10271476D01*
X12532143Y-10261952D01*
X12522619Y-10252429D01*
X12513095Y-10233381D01*
X12503571Y-10195286D01*
X12503571Y-10147667D01*
X12513095Y-10109571D01*
X12522619Y-10090524D01*
X12532143Y-10081000D01*
X12551190Y-10071476D01*
X12789286Y-10138143D02*
X12789286Y-10271476D01*
X12741667Y-10061952D02*
X12694048Y-10204810D01*
X12817857Y-10204810D01*
X12932143Y-10071476D02*
X12951190Y-10071476D01*
X12970238Y-10081000D01*
X12979762Y-10090524D01*
X12989286Y-10109571D01*
X12998809Y-10147667D01*
X12998809Y-10195286D01*
X12989286Y-10233381D01*
X12979762Y-10252429D01*
X12970238Y-10261952D01*
X12951190Y-10271476D01*
X12932143Y-10271476D01*
X12913095Y-10261952D01*
X12903571Y-10252429D01*
X12894048Y-10233381D01*
X12884524Y-10195286D01*
X12884524Y-10147667D01*
X12894048Y-10109571D01*
X12903571Y-10090524D01*
X12913095Y-10081000D01*
X12932143Y-10071476D01*
X13122619Y-10071476D02*
X13141667Y-10071476D01*
X13160714Y-10081000D01*
X13170238Y-10090524D01*
X13179762Y-10109571D01*
X13189286Y-10147667D01*
X13189286Y-10195286D01*
X13179762Y-10233381D01*
X13170238Y-10252429D01*
X13160714Y-10261952D01*
X13141667Y-10271476D01*
X13122619Y-10271476D01*
X13103571Y-10261952D01*
X13094048Y-10252429D01*
X13084524Y-10233381D01*
X13075000Y-10195286D01*
X13075000Y-10147667D01*
X13084524Y-10109571D01*
X13094048Y-10090524D01*
X13103571Y-10081000D01*
X13122619Y-10071476D01*
X13265476Y-10071476D02*
X13265476Y-10109571D01*
X13341667Y-10071476D02*
X13341667Y-10109571D01*
X13636905Y-10347667D02*
X13627381Y-10338143D01*
X13608333Y-10309571D01*
X13598809Y-10290524D01*
X13589286Y-10261952D01*
X13579762Y-10214333D01*
X13579762Y-10176238D01*
X13589286Y-10128619D01*
X13598809Y-10100048D01*
X13608333Y-10081000D01*
X13627381Y-10052429D01*
X13636905Y-10042905D01*
X13694048Y-10071476D02*
X13817857Y-10071476D01*
X13751190Y-10147667D01*
X13779762Y-10147667D01*
X13798809Y-10157190D01*
X13808333Y-10166714D01*
X13817857Y-10185762D01*
X13817857Y-10233381D01*
X13808333Y-10252429D01*
X13798809Y-10261952D01*
X13779762Y-10271476D01*
X13722619Y-10271476D01*
X13703571Y-10261952D01*
X13694048Y-10252429D01*
X14055952Y-10271476D02*
X14055952Y-10071476D01*
X14141667Y-10271476D02*
X14141667Y-10166714D01*
X14132143Y-10147667D01*
X14113095Y-10138143D01*
X14084524Y-10138143D01*
X14065476Y-10147667D01*
X14055952Y-10157190D01*
X14265476Y-10271476D02*
X14246428Y-10261952D01*
X14236905Y-10252429D01*
X14227381Y-10233381D01*
X14227381Y-10176238D01*
X14236905Y-10157190D01*
X14246428Y-10147667D01*
X14265476Y-10138143D01*
X14294048Y-10138143D01*
X14313095Y-10147667D01*
X14322619Y-10157190D01*
X14332143Y-10176238D01*
X14332143Y-10233381D01*
X14322619Y-10252429D01*
X14313095Y-10261952D01*
X14294048Y-10271476D01*
X14265476Y-10271476D01*
X14446428Y-10271476D02*
X14427381Y-10261952D01*
X14417857Y-10242905D01*
X14417857Y-10071476D01*
X14598809Y-10261952D02*
X14579762Y-10271476D01*
X14541667Y-10271476D01*
X14522619Y-10261952D01*
X14513095Y-10242905D01*
X14513095Y-10166714D01*
X14522619Y-10147667D01*
X14541667Y-10138143D01*
X14579762Y-10138143D01*
X14598809Y-10147667D01*
X14608333Y-10166714D01*
X14608333Y-10185762D01*
X14513095Y-10204810D01*
X14684524Y-10261952D02*
X14703571Y-10271476D01*
X14741667Y-10271476D01*
X14760714Y-10261952D01*
X14770238Y-10242905D01*
X14770238Y-10233381D01*
X14760714Y-10214333D01*
X14741667Y-10204810D01*
X14713095Y-10204810D01*
X14694048Y-10195286D01*
X14684524Y-10176238D01*
X14684524Y-10166714D01*
X14694048Y-10147667D01*
X14713095Y-10138143D01*
X14741667Y-10138143D01*
X14760714Y-10147667D01*
X14836905Y-10347667D02*
X14846428Y-10338143D01*
X14865476Y-10309571D01*
X14875000Y-10290524D01*
X14884524Y-10261952D01*
X14894048Y-10214333D01*
X14894048Y-10176238D01*
X14884524Y-10128619D01*
X14875000Y-10100048D01*
X14865476Y-10081000D01*
X14846428Y-10052429D01*
X14836905Y-10042905D01*
D16*
X9955000Y-10390000D02*
X10065000Y-10500000D01*
X10065000Y-10390000D02*
X9955000Y-10500000D01*
X10065000Y-10445000D02*
G75*
G03*
X10065000Y-10445000I-55000J0D01*
G01*
D11*
X10427381Y-10535476D02*
X10313095Y-10535476D01*
X10370238Y-10535476D02*
X10370238Y-10335476D01*
X10351190Y-10364048D01*
X10332143Y-10383095D01*
X10313095Y-10392619D01*
X10513095Y-10516429D02*
X10522619Y-10525952D01*
X10513095Y-10535476D01*
X10503571Y-10525952D01*
X10513095Y-10516429D01*
X10513095Y-10535476D01*
X10713095Y-10535476D02*
X10598810Y-10535476D01*
X10655952Y-10535476D02*
X10655952Y-10335476D01*
X10636905Y-10364048D01*
X10617857Y-10383095D01*
X10598810Y-10392619D01*
X10836905Y-10335476D02*
X10855952Y-10335476D01*
X10875000Y-10345000D01*
X10884524Y-10354524D01*
X10894048Y-10373571D01*
X10903571Y-10411667D01*
X10903571Y-10459286D01*
X10894048Y-10497381D01*
X10884524Y-10516429D01*
X10875000Y-10525952D01*
X10855952Y-10535476D01*
X10836905Y-10535476D01*
X10817857Y-10525952D01*
X10808333Y-10516429D01*
X10798810Y-10497381D01*
X10789286Y-10459286D01*
X10789286Y-10411667D01*
X10798810Y-10373571D01*
X10808333Y-10354524D01*
X10817857Y-10345000D01*
X10836905Y-10335476D01*
X11027381Y-10335476D02*
X11046429Y-10335476D01*
X11065476Y-10345000D01*
X11075000Y-10354524D01*
X11084524Y-10373571D01*
X11094048Y-10411667D01*
X11094048Y-10459286D01*
X11084524Y-10497381D01*
X11075000Y-10516429D01*
X11065476Y-10525952D01*
X11046429Y-10535476D01*
X11027381Y-10535476D01*
X11008333Y-10525952D01*
X10998810Y-10516429D01*
X10989286Y-10497381D01*
X10979762Y-10459286D01*
X10979762Y-10411667D01*
X10989286Y-10373571D01*
X10998810Y-10354524D01*
X11008333Y-10345000D01*
X11027381Y-10335476D01*
X11179762Y-10535476D02*
X11179762Y-10402143D01*
X11179762Y-10421190D02*
X11189286Y-10411667D01*
X11208333Y-10402143D01*
X11236905Y-10402143D01*
X11255952Y-10411667D01*
X11265476Y-10430714D01*
X11265476Y-10535476D01*
X11265476Y-10430714D02*
X11275000Y-10411667D01*
X11294048Y-10402143D01*
X11322619Y-10402143D01*
X11341667Y-10411667D01*
X11351190Y-10430714D01*
X11351190Y-10535476D01*
X11446428Y-10535476D02*
X11446428Y-10402143D01*
X11446428Y-10421190D02*
X11455952Y-10411667D01*
X11475000Y-10402143D01*
X11503571Y-10402143D01*
X11522619Y-10411667D01*
X11532143Y-10430714D01*
X11532143Y-10535476D01*
X11532143Y-10430714D02*
X11541667Y-10411667D01*
X11560714Y-10402143D01*
X11589286Y-10402143D01*
X11608333Y-10411667D01*
X11617857Y-10430714D01*
X11617857Y-10535476D01*
X12008333Y-10325952D02*
X11836905Y-10583095D01*
X12265476Y-10335476D02*
X12284524Y-10335476D01*
X12303571Y-10345000D01*
X12313095Y-10354524D01*
X12322619Y-10373571D01*
X12332143Y-10411667D01*
X12332143Y-10459286D01*
X12322619Y-10497381D01*
X12313095Y-10516429D01*
X12303571Y-10525952D01*
X12284524Y-10535476D01*
X12265476Y-10535476D01*
X12246428Y-10525952D01*
X12236905Y-10516429D01*
X12227381Y-10497381D01*
X12217857Y-10459286D01*
X12217857Y-10411667D01*
X12227381Y-10373571D01*
X12236905Y-10354524D01*
X12246428Y-10345000D01*
X12265476Y-10335476D01*
X12417857Y-10516429D02*
X12427381Y-10525952D01*
X12417857Y-10535476D01*
X12408333Y-10525952D01*
X12417857Y-10516429D01*
X12417857Y-10535476D01*
X12551190Y-10335476D02*
X12570238Y-10335476D01*
X12589286Y-10345000D01*
X12598809Y-10354524D01*
X12608333Y-10373571D01*
X12617857Y-10411667D01*
X12617857Y-10459286D01*
X12608333Y-10497381D01*
X12598809Y-10516429D01*
X12589286Y-10525952D01*
X12570238Y-10535476D01*
X12551190Y-10535476D01*
X12532143Y-10525952D01*
X12522619Y-10516429D01*
X12513095Y-10497381D01*
X12503571Y-10459286D01*
X12503571Y-10411667D01*
X12513095Y-10373571D01*
X12522619Y-10354524D01*
X12532143Y-10345000D01*
X12551190Y-10335476D01*
X12789286Y-10402143D02*
X12789286Y-10535476D01*
X12741667Y-10325952D02*
X12694048Y-10468810D01*
X12817857Y-10468810D01*
X12875000Y-10335476D02*
X12998809Y-10335476D01*
X12932143Y-10411667D01*
X12960714Y-10411667D01*
X12979762Y-10421190D01*
X12989286Y-10430714D01*
X12998809Y-10449762D01*
X12998809Y-10497381D01*
X12989286Y-10516429D01*
X12979762Y-10525952D01*
X12960714Y-10535476D01*
X12903571Y-10535476D01*
X12884524Y-10525952D01*
X12875000Y-10516429D01*
X13065476Y-10335476D02*
X13189286Y-10335476D01*
X13122619Y-10411667D01*
X13151190Y-10411667D01*
X13170238Y-10421190D01*
X13179762Y-10430714D01*
X13189286Y-10449762D01*
X13189286Y-10497381D01*
X13179762Y-10516429D01*
X13170238Y-10525952D01*
X13151190Y-10535476D01*
X13094048Y-10535476D01*
X13075000Y-10525952D01*
X13065476Y-10516429D01*
X13265476Y-10335476D02*
X13265476Y-10373571D01*
X13341667Y-10335476D02*
X13341667Y-10373571D01*
X13636905Y-10611667D02*
X13627381Y-10602143D01*
X13608333Y-10573571D01*
X13598809Y-10554524D01*
X13589286Y-10525952D01*
X13579762Y-10478333D01*
X13579762Y-10440238D01*
X13589286Y-10392619D01*
X13598809Y-10364048D01*
X13608333Y-10345000D01*
X13627381Y-10316429D01*
X13636905Y-10306905D01*
X13703571Y-10354524D02*
X13713095Y-10345000D01*
X13732143Y-10335476D01*
X13779762Y-10335476D01*
X13798809Y-10345000D01*
X13808333Y-10354524D01*
X13817857Y-10373571D01*
X13817857Y-10392619D01*
X13808333Y-10421190D01*
X13694048Y-10535476D01*
X13817857Y-10535476D01*
X14055952Y-10535476D02*
X14055952Y-10335476D01*
X14141667Y-10535476D02*
X14141667Y-10430714D01*
X14132143Y-10411667D01*
X14113095Y-10402143D01*
X14084524Y-10402143D01*
X14065476Y-10411667D01*
X14055952Y-10421190D01*
X14265476Y-10535476D02*
X14246428Y-10525952D01*
X14236905Y-10516429D01*
X14227381Y-10497381D01*
X14227381Y-10440238D01*
X14236905Y-10421190D01*
X14246428Y-10411667D01*
X14265476Y-10402143D01*
X14294048Y-10402143D01*
X14313095Y-10411667D01*
X14322619Y-10421190D01*
X14332143Y-10440238D01*
X14332143Y-10497381D01*
X14322619Y-10516429D01*
X14313095Y-10525952D01*
X14294048Y-10535476D01*
X14265476Y-10535476D01*
X14446428Y-10535476D02*
X14427381Y-10525952D01*
X14417857Y-10506905D01*
X14417857Y-10335476D01*
X14598809Y-10525952D02*
X14579762Y-10535476D01*
X14541667Y-10535476D01*
X14522619Y-10525952D01*
X14513095Y-10506905D01*
X14513095Y-10430714D01*
X14522619Y-10411667D01*
X14541667Y-10402143D01*
X14579762Y-10402143D01*
X14598809Y-10411667D01*
X14608333Y-10430714D01*
X14608333Y-10449762D01*
X14513095Y-10468810D01*
X14684524Y-10525952D02*
X14703571Y-10535476D01*
X14741667Y-10535476D01*
X14760714Y-10525952D01*
X14770238Y-10506905D01*
X14770238Y-10497381D01*
X14760714Y-10478333D01*
X14741667Y-10468810D01*
X14713095Y-10468810D01*
X14694048Y-10459286D01*
X14684524Y-10440238D01*
X14684524Y-10430714D01*
X14694048Y-10411667D01*
X14713095Y-10402143D01*
X14741667Y-10402143D01*
X14760714Y-10411667D01*
X14836905Y-10611667D02*
X14846428Y-10602143D01*
X14865476Y-10573571D01*
X14875000Y-10554524D01*
X14884524Y-10525952D01*
X14894048Y-10478333D01*
X14894048Y-10440238D01*
X14884524Y-10392619D01*
X14875000Y-10364048D01*
X14865476Y-10345000D01*
X14846428Y-10316429D01*
X14836905Y-10306905D01*
X9865000Y-10609000D02*
X10065000Y-10809000D01*
X10065000Y-10609000D02*
X9865000Y-10809000D01*
X9965000Y-10609000D02*
X9965000Y-10809000D01*
X9865000Y-10709000D02*
X10065000Y-10709000D01*
X10313095Y-10618524D02*
X10322619Y-10609000D01*
X10341667Y-10599476D01*
X10389286Y-10599476D01*
X10408333Y-10609000D01*
X10417857Y-10618524D01*
X10427381Y-10637571D01*
X10427381Y-10656619D01*
X10417857Y-10685190D01*
X10303571Y-10799476D01*
X10427381Y-10799476D01*
X10513095Y-10780429D02*
X10522619Y-10789952D01*
X10513095Y-10799476D01*
X10503571Y-10789952D01*
X10513095Y-10780429D01*
X10513095Y-10799476D01*
X10598810Y-10618524D02*
X10608333Y-10609000D01*
X10627381Y-10599476D01*
X10675000Y-10599476D01*
X10694048Y-10609000D01*
X10703571Y-10618524D01*
X10713095Y-10637571D01*
X10713095Y-10656619D01*
X10703571Y-10685190D01*
X10589286Y-10799476D01*
X10713095Y-10799476D01*
X10836905Y-10599476D02*
X10855952Y-10599476D01*
X10875000Y-10609000D01*
X10884524Y-10618524D01*
X10894048Y-10637571D01*
X10903571Y-10675667D01*
X10903571Y-10723286D01*
X10894048Y-10761381D01*
X10884524Y-10780429D01*
X10875000Y-10789952D01*
X10855952Y-10799476D01*
X10836905Y-10799476D01*
X10817857Y-10789952D01*
X10808333Y-10780429D01*
X10798810Y-10761381D01*
X10789286Y-10723286D01*
X10789286Y-10675667D01*
X10798810Y-10637571D01*
X10808333Y-10618524D01*
X10817857Y-10609000D01*
X10836905Y-10599476D01*
X11027381Y-10599476D02*
X11046429Y-10599476D01*
X11065476Y-10609000D01*
X11075000Y-10618524D01*
X11084524Y-10637571D01*
X11094048Y-10675667D01*
X11094048Y-10723286D01*
X11084524Y-10761381D01*
X11075000Y-10780429D01*
X11065476Y-10789952D01*
X11046429Y-10799476D01*
X11027381Y-10799476D01*
X11008333Y-10789952D01*
X10998810Y-10780429D01*
X10989286Y-10761381D01*
X10979762Y-10723286D01*
X10979762Y-10675667D01*
X10989286Y-10637571D01*
X10998810Y-10618524D01*
X11008333Y-10609000D01*
X11027381Y-10599476D01*
X11179762Y-10799476D02*
X11179762Y-10666143D01*
X11179762Y-10685190D02*
X11189286Y-10675667D01*
X11208333Y-10666143D01*
X11236905Y-10666143D01*
X11255952Y-10675667D01*
X11265476Y-10694714D01*
X11265476Y-10799476D01*
X11265476Y-10694714D02*
X11275000Y-10675667D01*
X11294048Y-10666143D01*
X11322619Y-10666143D01*
X11341667Y-10675667D01*
X11351190Y-10694714D01*
X11351190Y-10799476D01*
X11446428Y-10799476D02*
X11446428Y-10666143D01*
X11446428Y-10685190D02*
X11455952Y-10675667D01*
X11475000Y-10666143D01*
X11503571Y-10666143D01*
X11522619Y-10675667D01*
X11532143Y-10694714D01*
X11532143Y-10799476D01*
X11532143Y-10694714D02*
X11541667Y-10675667D01*
X11560714Y-10666143D01*
X11589286Y-10666143D01*
X11608333Y-10675667D01*
X11617857Y-10694714D01*
X11617857Y-10799476D01*
X12008333Y-10589952D02*
X11836905Y-10847095D01*
X12265476Y-10599476D02*
X12284524Y-10599476D01*
X12303571Y-10609000D01*
X12313095Y-10618524D01*
X12322619Y-10637571D01*
X12332143Y-10675667D01*
X12332143Y-10723286D01*
X12322619Y-10761381D01*
X12313095Y-10780429D01*
X12303571Y-10789952D01*
X12284524Y-10799476D01*
X12265476Y-10799476D01*
X12246428Y-10789952D01*
X12236905Y-10780429D01*
X12227381Y-10761381D01*
X12217857Y-10723286D01*
X12217857Y-10675667D01*
X12227381Y-10637571D01*
X12236905Y-10618524D01*
X12246428Y-10609000D01*
X12265476Y-10599476D01*
X12417857Y-10780429D02*
X12427381Y-10789952D01*
X12417857Y-10799476D01*
X12408333Y-10789952D01*
X12417857Y-10780429D01*
X12417857Y-10799476D01*
X12551190Y-10599476D02*
X12570238Y-10599476D01*
X12589286Y-10609000D01*
X12598809Y-10618524D01*
X12608333Y-10637571D01*
X12617857Y-10675667D01*
X12617857Y-10723286D01*
X12608333Y-10761381D01*
X12598809Y-10780429D01*
X12589286Y-10789952D01*
X12570238Y-10799476D01*
X12551190Y-10799476D01*
X12532143Y-10789952D01*
X12522619Y-10780429D01*
X12513095Y-10761381D01*
X12503571Y-10723286D01*
X12503571Y-10675667D01*
X12513095Y-10637571D01*
X12522619Y-10618524D01*
X12532143Y-10609000D01*
X12551190Y-10599476D01*
X12732143Y-10685190D02*
X12713095Y-10675667D01*
X12703571Y-10666143D01*
X12694048Y-10647095D01*
X12694048Y-10637571D01*
X12703571Y-10618524D01*
X12713095Y-10609000D01*
X12732143Y-10599476D01*
X12770238Y-10599476D01*
X12789286Y-10609000D01*
X12798809Y-10618524D01*
X12808333Y-10637571D01*
X12808333Y-10647095D01*
X12798809Y-10666143D01*
X12789286Y-10675667D01*
X12770238Y-10685190D01*
X12732143Y-10685190D01*
X12713095Y-10694714D01*
X12703571Y-10704238D01*
X12694048Y-10723286D01*
X12694048Y-10761381D01*
X12703571Y-10780429D01*
X12713095Y-10789952D01*
X12732143Y-10799476D01*
X12770238Y-10799476D01*
X12789286Y-10789952D01*
X12798809Y-10780429D01*
X12808333Y-10761381D01*
X12808333Y-10723286D01*
X12798809Y-10704238D01*
X12789286Y-10694714D01*
X12770238Y-10685190D01*
X12979762Y-10599476D02*
X12941667Y-10599476D01*
X12922619Y-10609000D01*
X12913095Y-10618524D01*
X12894048Y-10647095D01*
X12884524Y-10685190D01*
X12884524Y-10761381D01*
X12894048Y-10780429D01*
X12903571Y-10789952D01*
X12922619Y-10799476D01*
X12960714Y-10799476D01*
X12979762Y-10789952D01*
X12989286Y-10780429D01*
X12998809Y-10761381D01*
X12998809Y-10713762D01*
X12989286Y-10694714D01*
X12979762Y-10685190D01*
X12960714Y-10675667D01*
X12922619Y-10675667D01*
X12903571Y-10685190D01*
X12894048Y-10694714D01*
X12884524Y-10713762D01*
X13170238Y-10599476D02*
X13132143Y-10599476D01*
X13113095Y-10609000D01*
X13103571Y-10618524D01*
X13084524Y-10647095D01*
X13075000Y-10685190D01*
X13075000Y-10761381D01*
X13084524Y-10780429D01*
X13094048Y-10789952D01*
X13113095Y-10799476D01*
X13151190Y-10799476D01*
X13170238Y-10789952D01*
X13179762Y-10780429D01*
X13189286Y-10761381D01*
X13189286Y-10713762D01*
X13179762Y-10694714D01*
X13170238Y-10685190D01*
X13151190Y-10675667D01*
X13113095Y-10675667D01*
X13094048Y-10685190D01*
X13084524Y-10694714D01*
X13075000Y-10713762D01*
X13265476Y-10599476D02*
X13265476Y-10637571D01*
X13341667Y-10599476D02*
X13341667Y-10637571D01*
X13636905Y-10875667D02*
X13627381Y-10866143D01*
X13608333Y-10837571D01*
X13598809Y-10818524D01*
X13589286Y-10789952D01*
X13579762Y-10742333D01*
X13579762Y-10704238D01*
X13589286Y-10656619D01*
X13598809Y-10628048D01*
X13608333Y-10609000D01*
X13627381Y-10580429D01*
X13636905Y-10570905D01*
X13798809Y-10666143D02*
X13798809Y-10799476D01*
X13751190Y-10589952D02*
X13703571Y-10732810D01*
X13827381Y-10732810D01*
X14055952Y-10799476D02*
X14055952Y-10599476D01*
X14141667Y-10799476D02*
X14141667Y-10694714D01*
X14132143Y-10675667D01*
X14113095Y-10666143D01*
X14084524Y-10666143D01*
X14065476Y-10675667D01*
X14055952Y-10685190D01*
X14265476Y-10799476D02*
X14246428Y-10789952D01*
X14236905Y-10780429D01*
X14227381Y-10761381D01*
X14227381Y-10704238D01*
X14236905Y-10685190D01*
X14246428Y-10675667D01*
X14265476Y-10666143D01*
X14294048Y-10666143D01*
X14313095Y-10675667D01*
X14322619Y-10685190D01*
X14332143Y-10704238D01*
X14332143Y-10761381D01*
X14322619Y-10780429D01*
X14313095Y-10789952D01*
X14294048Y-10799476D01*
X14265476Y-10799476D01*
X14446428Y-10799476D02*
X14427381Y-10789952D01*
X14417857Y-10770905D01*
X14417857Y-10599476D01*
X14598809Y-10789952D02*
X14579762Y-10799476D01*
X14541667Y-10799476D01*
X14522619Y-10789952D01*
X14513095Y-10770905D01*
X14513095Y-10694714D01*
X14522619Y-10675667D01*
X14541667Y-10666143D01*
X14579762Y-10666143D01*
X14598809Y-10675667D01*
X14608333Y-10694714D01*
X14608333Y-10713762D01*
X14513095Y-10732810D01*
X14684524Y-10789952D02*
X14703571Y-10799476D01*
X14741667Y-10799476D01*
X14760714Y-10789952D01*
X14770238Y-10770905D01*
X14770238Y-10761381D01*
X14760714Y-10742333D01*
X14741667Y-10732810D01*
X14713095Y-10732810D01*
X14694048Y-10723286D01*
X14684524Y-10704238D01*
X14684524Y-10694714D01*
X14694048Y-10675667D01*
X14713095Y-10666143D01*
X14741667Y-10666143D01*
X14760714Y-10675667D01*
X14836905Y-10875667D02*
X14846428Y-10866143D01*
X14865476Y-10837571D01*
X14875000Y-10818524D01*
X14884524Y-10789952D01*
X14894048Y-10742333D01*
X14894048Y-10704238D01*
X14884524Y-10656619D01*
X14875000Y-10628048D01*
X14865476Y-10609000D01*
X14846428Y-10580429D01*
X14836905Y-10570905D01*
M02*
