G04 #@! TF.GenerationSoftware,KiCad,Pcbnew,(6.0.11)*
G04 #@! TF.CreationDate,2023-06-15T09:23:19+03:00*
G04 #@! TF.ProjectId,flyback_48V_48W,666c7962-6163-46b5-9f34-38565f343857,rev?*
G04 #@! TF.SameCoordinates,Original*
G04 #@! TF.FileFunction,Soldermask,Top*
G04 #@! TF.FilePolarity,Negative*
%FSLAX46Y46*%
G04 Gerber Fmt 4.6, Leading zero omitted, Abs format (unit mm)*
G04 Created by KiCad (PCBNEW (6.0.11)) date 2023-06-15 09:23:19*
%MOMM*%
%LPD*%
G01*
G04 APERTURE LIST*
G04 Aperture macros list*
%AMRoundRect*
0 Rectangle with rounded corners*
0 $1 Rounding radius*
0 $2 $3 $4 $5 $6 $7 $8 $9 X,Y pos of 4 corners*
0 Add a 4 corners polygon primitive as box body*
4,1,4,$2,$3,$4,$5,$6,$7,$8,$9,$2,$3,0*
0 Add four circle primitives for the rounded corners*
1,1,$1+$1,$2,$3*
1,1,$1+$1,$4,$5*
1,1,$1+$1,$6,$7*
1,1,$1+$1,$8,$9*
0 Add four rect primitives between the rounded corners*
20,1,$1+$1,$2,$3,$4,$5,0*
20,1,$1+$1,$4,$5,$6,$7,0*
20,1,$1+$1,$6,$7,$8,$9,0*
20,1,$1+$1,$8,$9,$2,$3,0*%
G04 Aperture macros list end*
%ADD10O,2.000000X2.000000*%
%ADD11R,2.000000X2.000000*%
%ADD12C,2.000000*%
%ADD13C,7.500000*%
%ADD14C,4.700000*%
%ADD15O,3.048000X1.524000*%
%ADD16C,4.300000*%
%ADD17RoundRect,0.250000X-0.625000X0.400000X-0.625000X-0.400000X0.625000X-0.400000X0.625000X0.400000X0*%
%ADD18RoundRect,0.249999X-1.425001X0.450001X-1.425001X-0.450001X1.425001X-0.450001X1.425001X0.450001X0*%
%ADD19C,1.200000*%
%ADD20R,1.200000X1.200000*%
%ADD21R,1.200000X0.900000*%
%ADD22RoundRect,0.250000X-0.650000X0.412500X-0.650000X-0.412500X0.650000X-0.412500X0.650000X0.412500X0*%
%ADD23C,1.000000*%
G04 APERTURE END LIST*
D10*
X152146000Y-72930000D03*
D11*
X157226000Y-72930000D03*
D12*
X141732000Y-36068000D03*
X136652000Y-36068000D03*
X134112000Y-38608000D03*
X134112000Y-43688000D03*
X154432000Y-64008000D03*
X159512000Y-64008000D03*
X162052000Y-56388000D03*
X162052000Y-61468000D03*
D13*
X116000000Y-94000000D03*
D14*
X116000000Y-94000000D03*
D15*
X105725000Y-61840000D03*
X105725000Y-56760000D03*
X105725000Y-59300000D03*
D16*
X186098500Y-94234000D03*
D17*
X120904000Y-47524000D03*
X120904000Y-44424000D03*
D14*
X186000000Y-54500000D03*
D13*
X186000000Y-54500000D03*
D18*
X116078000Y-81024000D03*
X116078000Y-87124000D03*
D17*
X118364000Y-47524000D03*
X118364000Y-44424000D03*
D16*
X186098500Y-36234000D03*
D19*
X171196000Y-64476000D03*
D20*
X171196000Y-59476000D03*
D21*
X114554000Y-52196000D03*
X114554000Y-48896000D03*
D22*
X123444000Y-47536500D03*
X123444000Y-44411500D03*
D16*
X106000000Y-94000000D03*
X106000000Y-36000000D03*
D22*
X126238000Y-35267500D03*
X126238000Y-38392500D03*
X186690000Y-63792500D03*
X186690000Y-60667500D03*
D23*
X144526000Y-77470000D03*
D22*
X179578000Y-63792500D03*
X179578000Y-60667500D03*
D13*
X186000000Y-70000000D03*
D14*
X186000000Y-70000000D03*
D23*
X103632000Y-80010000D03*
D22*
X183134000Y-63792500D03*
X183134000Y-60667500D03*
D18*
X110744000Y-81024000D03*
X110744000Y-87124000D03*
D23*
X173482000Y-46228000D03*
D14*
X116000000Y-36000000D03*
D13*
X116000000Y-36000000D03*
D22*
X122682000Y-35267500D03*
X122682000Y-38392500D03*
X129794000Y-35267500D03*
X129794000Y-38392500D03*
D23*
X152146000Y-88900000D03*
X176276000Y-82804000D03*
X159258000Y-93726000D03*
X119380000Y-54356000D03*
M02*
