G04 #@! TF.GenerationSoftware,KiCad,Pcbnew,(6.0.11)*
G04 #@! TF.CreationDate,2023-06-14T07:53:09+03:00*
G04 #@! TF.ProjectId,flyback_48V_48W,666c7962-6163-46b5-9f34-38565f343857,rev?*
G04 #@! TF.SameCoordinates,Original*
G04 #@! TF.FileFunction,Copper,L2,Bot*
G04 #@! TF.FilePolarity,Positive*
%FSLAX46Y46*%
G04 Gerber Fmt 4.6, Leading zero omitted, Abs format (unit mm)*
G04 Created by KiCad (PCBNEW (6.0.11)) date 2023-06-14 07:53:09*
%MOMM*%
%LPD*%
G01*
G04 APERTURE LIST*
G04 Aperture macros list*
%AMRoundRect*
0 Rectangle with rounded corners*
0 $1 Rounding radius*
0 $2 $3 $4 $5 $6 $7 $8 $9 X,Y pos of 4 corners*
0 Add a 4 corners polygon primitive as box body*
4,1,4,$2,$3,$4,$5,$6,$7,$8,$9,$2,$3,0*
0 Add four circle primitives for the rounded corners*
1,1,$1+$1,$2,$3*
1,1,$1+$1,$4,$5*
1,1,$1+$1,$6,$7*
1,1,$1+$1,$8,$9*
0 Add four rect primitives between the rounded corners*
20,1,$1+$1,$2,$3,$4,$5,0*
20,1,$1+$1,$4,$5,$6,$7,0*
20,1,$1+$1,$6,$7,$8,$9,0*
20,1,$1+$1,$8,$9,$2,$3,0*%
G04 Aperture macros list end*
G04 #@! TA.AperFunction,ComponentPad*
%ADD10C,3.800000*%
G04 #@! TD*
G04 #@! TA.AperFunction,ComponentPad*
%ADD11O,3.048000X1.524000*%
G04 #@! TD*
G04 #@! TA.AperFunction,ComponentPad*
%ADD12R,2.000000X2.000000*%
G04 #@! TD*
G04 #@! TA.AperFunction,ComponentPad*
%ADD13O,2.000000X2.000000*%
G04 #@! TD*
G04 #@! TA.AperFunction,ComponentPad*
%ADD14R,1.200000X1.200000*%
G04 #@! TD*
G04 #@! TA.AperFunction,ComponentPad*
%ADD15C,1.200000*%
G04 #@! TD*
G04 #@! TA.AperFunction,ComponentPad*
%ADD16C,1.524000*%
G04 #@! TD*
G04 #@! TA.AperFunction,ComponentPad*
%ADD17C,1.000000*%
G04 #@! TD*
G04 #@! TA.AperFunction,SMDPad,CuDef*
%ADD18RoundRect,0.250000X0.400000X0.625000X-0.400000X0.625000X-0.400000X-0.625000X0.400000X-0.625000X0*%
G04 #@! TD*
G04 #@! TA.AperFunction,SMDPad,CuDef*
%ADD19RoundRect,0.250000X-0.400000X-0.625000X0.400000X-0.625000X0.400000X0.625000X-0.400000X0.625000X0*%
G04 #@! TD*
G04 #@! TA.AperFunction,SMDPad,CuDef*
%ADD20RoundRect,0.250000X0.650000X-0.412500X0.650000X0.412500X-0.650000X0.412500X-0.650000X-0.412500X0*%
G04 #@! TD*
G04 #@! TA.AperFunction,SMDPad,CuDef*
%ADD21RoundRect,0.150000X-0.825000X-0.150000X0.825000X-0.150000X0.825000X0.150000X-0.825000X0.150000X0*%
G04 #@! TD*
G04 #@! TA.AperFunction,SMDPad,CuDef*
%ADD22RoundRect,0.150000X-0.662500X-0.150000X0.662500X-0.150000X0.662500X0.150000X-0.662500X0.150000X0*%
G04 #@! TD*
G04 #@! TA.AperFunction,SMDPad,CuDef*
%ADD23RoundRect,0.250000X-0.650000X0.412500X-0.650000X-0.412500X0.650000X-0.412500X0.650000X0.412500X0*%
G04 #@! TD*
G04 #@! TA.AperFunction,SMDPad,CuDef*
%ADD24RoundRect,0.250000X0.412500X0.650000X-0.412500X0.650000X-0.412500X-0.650000X0.412500X-0.650000X0*%
G04 #@! TD*
G04 #@! TA.AperFunction,SMDPad,CuDef*
%ADD25RoundRect,0.250000X-0.412500X-0.650000X0.412500X-0.650000X0.412500X0.650000X-0.412500X0.650000X0*%
G04 #@! TD*
G04 #@! TA.AperFunction,SMDPad,CuDef*
%ADD26R,0.900000X1.200000*%
G04 #@! TD*
G04 #@! TA.AperFunction,SMDPad,CuDef*
%ADD27RoundRect,0.250000X-0.625000X0.400000X-0.625000X-0.400000X0.625000X-0.400000X0.625000X0.400000X0*%
G04 #@! TD*
G04 #@! TA.AperFunction,SMDPad,CuDef*
%ADD28RoundRect,0.150000X-0.150000X0.587500X-0.150000X-0.587500X0.150000X-0.587500X0.150000X0.587500X0*%
G04 #@! TD*
G04 #@! TA.AperFunction,SMDPad,CuDef*
%ADD29RoundRect,0.250000X0.625000X-0.400000X0.625000X0.400000X-0.625000X0.400000X-0.625000X-0.400000X0*%
G04 #@! TD*
G04 #@! TA.AperFunction,SMDPad,CuDef*
%ADD30R,1.200000X0.900000*%
G04 #@! TD*
G04 #@! TA.AperFunction,ViaPad*
%ADD31C,0.800000*%
G04 #@! TD*
G04 #@! TA.AperFunction,Conductor*
%ADD32C,0.250000*%
G04 #@! TD*
G04 #@! TA.AperFunction,Conductor*
%ADD33C,0.200000*%
G04 #@! TD*
G04 #@! TA.AperFunction,Conductor*
%ADD34C,0.300000*%
G04 #@! TD*
G04 APERTURE END LIST*
D10*
X133350000Y-81280000D03*
D11*
X105725000Y-59300000D03*
X105725000Y-56760000D03*
X105725000Y-61840000D03*
D10*
X172466000Y-53848000D03*
D12*
X153189500Y-56710000D03*
D13*
X153189500Y-61790000D03*
D14*
X170180000Y-60500000D03*
D15*
X170180000Y-65500000D03*
D16*
X127950000Y-45330000D03*
X122870000Y-45330000D03*
X120330000Y-47870000D03*
X120330000Y-52950000D03*
X140650000Y-73270000D03*
X145730000Y-73270000D03*
X148270000Y-70730000D03*
X148270000Y-65650000D03*
D10*
X172466000Y-72136000D03*
D17*
X117400000Y-78200000D03*
X160750000Y-81000000D03*
D10*
X133350000Y-39878000D03*
D17*
X171750000Y-48750000D03*
D18*
X120168000Y-41402000D03*
X117068000Y-41402000D03*
D19*
X110450000Y-64400000D03*
X113550000Y-64400000D03*
D18*
X108750000Y-52500000D03*
X105650000Y-52500000D03*
D20*
X130810000Y-56934500D03*
X130810000Y-53809500D03*
D18*
X118136000Y-43942000D03*
X115036000Y-43942000D03*
D19*
X125200000Y-63100000D03*
X128300000Y-63100000D03*
D21*
X134025000Y-58905000D03*
X134025000Y-57635000D03*
X134025000Y-56365000D03*
X134025000Y-55095000D03*
X138975000Y-55095000D03*
X138975000Y-56365000D03*
X138975000Y-57635000D03*
X138975000Y-58905000D03*
D22*
X146562500Y-52385000D03*
X146562500Y-51115000D03*
X152937500Y-51115000D03*
X152937500Y-52385000D03*
D23*
X139700000Y-61683500D03*
X139700000Y-64808500D03*
D24*
X113562500Y-69900000D03*
X110437500Y-69900000D03*
X161812500Y-41750000D03*
X158687500Y-41750000D03*
D25*
X140437500Y-48500000D03*
X143562500Y-48500000D03*
D18*
X161550000Y-65750000D03*
X158450000Y-65750000D03*
D19*
X158350000Y-68750000D03*
X161450000Y-68750000D03*
D18*
X143300000Y-51750000D03*
X140200000Y-51750000D03*
D26*
X113650000Y-59400000D03*
X110350000Y-59400000D03*
X144146000Y-59000000D03*
X147446000Y-59000000D03*
D24*
X163562500Y-44750000D03*
X160437500Y-44750000D03*
D19*
X131200000Y-63000000D03*
X134300000Y-63000000D03*
D24*
X120180500Y-38862000D03*
X117055500Y-38862000D03*
X128816500Y-42418000D03*
X125691500Y-42418000D03*
D27*
X165500000Y-52700000D03*
X165500000Y-55800000D03*
D18*
X137300000Y-51750000D03*
X134200000Y-51750000D03*
D28*
X158300000Y-54562500D03*
X160200000Y-54562500D03*
X159250000Y-56437500D03*
D27*
X141250000Y-39200000D03*
X141250000Y-42300000D03*
D29*
X165500000Y-50300000D03*
X165500000Y-47200000D03*
D17*
X166000000Y-39500000D03*
D18*
X135800000Y-45250000D03*
X132700000Y-45250000D03*
D30*
X169672000Y-44322000D03*
X169672000Y-41022000D03*
D25*
X125187500Y-66350000D03*
X128312500Y-66350000D03*
D18*
X157300000Y-44750000D03*
X154200000Y-44750000D03*
D17*
X156500000Y-39000000D03*
D20*
X141986000Y-57696500D03*
X141986000Y-54571500D03*
D17*
X117602000Y-53086000D03*
D29*
X125984000Y-58192000D03*
X125984000Y-55092000D03*
D27*
X172720000Y-41122000D03*
X172720000Y-44222000D03*
D18*
X164800000Y-62650000D03*
X161700000Y-62650000D03*
D24*
X128816500Y-39624000D03*
X125691500Y-39624000D03*
D31*
X144532000Y-61214000D03*
X162500000Y-53000000D03*
X159250000Y-51000000D03*
X163500000Y-48250000D03*
X155500000Y-54250000D03*
X123500000Y-55250000D03*
D32*
X128816500Y-39624000D02*
X128816500Y-42418000D01*
X129070500Y-39878000D02*
X128816500Y-39624000D01*
X133350000Y-39878000D02*
X129070500Y-39878000D01*
X122870000Y-44104000D02*
X120168000Y-41402000D01*
X122870000Y-45330000D02*
X122870000Y-44104000D01*
X172620000Y-44322000D02*
X169672000Y-44322000D01*
X172720000Y-44222000D02*
X172620000Y-44322000D01*
X173482000Y-44984000D02*
X172720000Y-44222000D01*
X173482000Y-50292000D02*
X173482000Y-44984000D01*
X172974000Y-50800000D02*
X173482000Y-50292000D01*
X166000000Y-50800000D02*
X172974000Y-50800000D01*
X165500000Y-50300000D02*
X166000000Y-50800000D01*
D33*
X175006000Y-43408000D02*
X172720000Y-41122000D01*
X172466000Y-53848000D02*
X175006000Y-51308000D01*
X175006000Y-51308000D02*
X175006000Y-43408000D01*
D34*
X143289500Y-59000000D02*
X141986000Y-57696500D01*
X138975000Y-57635000D02*
X142235000Y-57635000D01*
X144146000Y-59000000D02*
X143289500Y-59000000D01*
X144532000Y-61214000D02*
X145232000Y-61214000D01*
X145232000Y-61214000D02*
X147446000Y-59000000D01*
D32*
X120180500Y-41897500D02*
X120180500Y-38862000D01*
X118136000Y-43942000D02*
X120180500Y-41897500D01*
D34*
X165500000Y-50300000D02*
X165500000Y-52700000D01*
X134025000Y-57635000D02*
X133115000Y-57635000D01*
X120250000Y-55500000D02*
X130500000Y-45250000D01*
X125200000Y-63100000D02*
X125187500Y-63112500D01*
X130500000Y-60250000D02*
X126000000Y-60250000D01*
X121750000Y-60250000D02*
X120250000Y-58750000D01*
X126000000Y-60250000D02*
X121750000Y-60250000D01*
X120250000Y-58750000D02*
X120250000Y-55500000D01*
X125000000Y-62900000D02*
X125200000Y-63100000D01*
X126000000Y-60250000D02*
X125650000Y-60250000D01*
X133115000Y-57635000D02*
X130500000Y-60250000D01*
X125187500Y-63112500D02*
X125187500Y-66350000D01*
X125650000Y-60250000D02*
X125000000Y-60900000D01*
X125000000Y-60900000D02*
X125000000Y-62900000D01*
X130500000Y-45250000D02*
X132700000Y-45250000D01*
X134300000Y-59180000D02*
X134025000Y-58905000D01*
X134300000Y-63000000D02*
X130950000Y-66350000D01*
X134300000Y-63000000D02*
X134300000Y-59180000D01*
X130950000Y-66350000D02*
X128312500Y-66350000D01*
X125500000Y-58300000D02*
X128987500Y-58300000D01*
X131885000Y-56365000D02*
X134025000Y-56365000D01*
X128987500Y-58300000D02*
X129000000Y-58312500D01*
X129000000Y-58312500D02*
X129937500Y-58312500D01*
X129937500Y-58312500D02*
X131885000Y-56365000D01*
X170180000Y-60500000D02*
X166950000Y-60500000D01*
X166950000Y-60500000D02*
X164800000Y-62650000D01*
X158450000Y-65750000D02*
X158350000Y-65850000D01*
X163562500Y-44750000D02*
X163562500Y-43500000D01*
X163562500Y-44750000D02*
X161000000Y-47312500D01*
X161187500Y-58950000D02*
X161187500Y-55550000D01*
X161000000Y-53762500D02*
X160200000Y-54562500D01*
X166000000Y-42312500D02*
X166000000Y-39500000D01*
X161187500Y-55550000D02*
X160200000Y-54562500D01*
X161000000Y-47312500D02*
X161000000Y-53762500D01*
X158350000Y-65850000D02*
X158350000Y-68750000D01*
X158450000Y-65750000D02*
X158450000Y-61687500D01*
X163562500Y-44750000D02*
X166000000Y-42312500D01*
X163562500Y-43500000D02*
X161812500Y-41750000D01*
X158450000Y-61687500D02*
X161187500Y-58950000D01*
X157300000Y-44750000D02*
X160437500Y-44750000D01*
X158687500Y-41187500D02*
X156500000Y-39000000D01*
X158687500Y-41750000D02*
X158687500Y-41187500D01*
X158300000Y-51950000D02*
X158300000Y-54562500D01*
X165300000Y-55800000D02*
X162500000Y-53000000D01*
X157200000Y-41750000D02*
X158687500Y-41750000D01*
X154200000Y-44750000D02*
X157200000Y-41750000D01*
X154852500Y-51115000D02*
X158300000Y-54562500D01*
X165500000Y-55800000D02*
X165300000Y-55800000D01*
X159250000Y-51000000D02*
X158300000Y-51950000D01*
X152937500Y-51115000D02*
X154852500Y-51115000D01*
X154200000Y-44750000D02*
X154200000Y-49852500D01*
X154200000Y-49852500D02*
X152937500Y-51115000D01*
X148385000Y-52385000D02*
X149000000Y-53000000D01*
D32*
X147217500Y-62532500D02*
X140970000Y-62532500D01*
D34*
X143300000Y-51750000D02*
X143935000Y-52385000D01*
X143935000Y-52385000D02*
X146562500Y-52385000D01*
X146562500Y-52385000D02*
X148385000Y-52385000D01*
X149000000Y-53000000D02*
X149000000Y-60750000D01*
X138975000Y-58905000D02*
X138975000Y-60537500D01*
D32*
X149000000Y-60750000D02*
X147217500Y-62532500D01*
D34*
X138975000Y-60537500D02*
X140970000Y-62532500D01*
X134025000Y-51925000D02*
X134025000Y-55095000D01*
X136000000Y-48500000D02*
X140437500Y-48500000D01*
X134200000Y-51750000D02*
X134025000Y-51925000D01*
X134200000Y-50300000D02*
X136000000Y-48500000D01*
X134200000Y-51750000D02*
X134200000Y-50300000D01*
D32*
X110350000Y-59400000D02*
X110350000Y-64300000D01*
X110350000Y-59400000D02*
X105825000Y-59400000D01*
X110350000Y-64300000D02*
X110450000Y-64400000D01*
X105825000Y-59400000D02*
X105725000Y-59300000D01*
D34*
X135800000Y-45250000D02*
X135800000Y-44650000D01*
X146562500Y-51115000D02*
X146562500Y-44512500D01*
X135800000Y-44650000D02*
X141250000Y-39200000D01*
X146562500Y-44512500D02*
X141250000Y-39200000D01*
X155500000Y-54250000D02*
X154802500Y-54250000D01*
X165500000Y-47200000D02*
X164550000Y-47200000D01*
X167050000Y-48750000D02*
X171750000Y-48750000D01*
X165500000Y-47200000D02*
X167050000Y-48750000D01*
X164550000Y-47200000D02*
X163500000Y-48250000D01*
X154802500Y-54250000D02*
X152937500Y-52385000D01*
X131100000Y-63100000D02*
X131200000Y-63000000D01*
X128300000Y-63100000D02*
X131100000Y-63100000D01*
X123550000Y-55200000D02*
X123500000Y-55250000D01*
D32*
X105725000Y-65725000D02*
X109900000Y-69900000D01*
X105725000Y-61840000D02*
X105725000Y-65725000D01*
D34*
X125500000Y-55200000D02*
X123550000Y-55200000D01*
X161550000Y-65750000D02*
X161550000Y-62750000D01*
X161550000Y-62750000D02*
X161650000Y-62650000D01*
X136750000Y-64750000D02*
X136750000Y-57500000D01*
X118750000Y-70000000D02*
X131500000Y-70000000D01*
X108750000Y-52500000D02*
X112000000Y-52500000D01*
X118750000Y-59250000D02*
X118750000Y-70000000D01*
X136750000Y-57500000D02*
X137885000Y-56365000D01*
X112000000Y-52500000D02*
X118750000Y-59250000D01*
X131500000Y-70000000D02*
X136750000Y-64750000D01*
X137885000Y-56365000D02*
X138975000Y-56365000D01*
X137300000Y-51750000D02*
X140200000Y-51750000D01*
X105725000Y-56760000D02*
X105725000Y-53025000D01*
X105725000Y-53025000D02*
X105200000Y-52500000D01*
D32*
X113550000Y-69887500D02*
X113562500Y-69900000D01*
X113550000Y-64400000D02*
X113550000Y-69887500D01*
G04 #@! TA.AperFunction,Conductor*
G36*
X149694352Y-37320502D02*
G01*
X149740845Y-37374158D01*
X149752229Y-37425840D01*
X149869913Y-59903379D01*
X149895782Y-64844263D01*
X149895892Y-64865354D01*
X149876247Y-64933579D01*
X149822836Y-64980352D01*
X149752616Y-64990824D01*
X149687881Y-64961669D01*
X149662462Y-64931849D01*
X149540587Y-64732968D01*
X149540580Y-64732958D01*
X149537998Y-64728745D01*
X149378271Y-64541729D01*
X149191255Y-64382002D01*
X148981554Y-64253497D01*
X148976984Y-64251604D01*
X148976980Y-64251602D01*
X148758901Y-64161271D01*
X148758895Y-64161269D01*
X148754332Y-64159379D01*
X148749532Y-64158227D01*
X148749527Y-64158225D01*
X148603263Y-64123110D01*
X148515185Y-64101964D01*
X148270000Y-64082668D01*
X148024815Y-64101964D01*
X147936737Y-64123110D01*
X147790473Y-64158225D01*
X147790468Y-64158227D01*
X147785668Y-64159379D01*
X147781105Y-64161269D01*
X147781099Y-64161271D01*
X147563020Y-64251602D01*
X147563016Y-64251604D01*
X147558446Y-64253497D01*
X147348745Y-64382002D01*
X147161729Y-64541729D01*
X147002002Y-64728745D01*
X146918288Y-64865354D01*
X146876480Y-64933579D01*
X146873497Y-64938446D01*
X146871604Y-64943016D01*
X146871602Y-64943020D01*
X146781271Y-65161099D01*
X146781269Y-65161105D01*
X146779379Y-65165668D01*
X146721964Y-65404815D01*
X146702668Y-65650000D01*
X146721964Y-65895185D01*
X146779379Y-66134332D01*
X146781269Y-66138895D01*
X146781271Y-66138901D01*
X146871602Y-66356980D01*
X146873497Y-66361554D01*
X147002002Y-66571255D01*
X147161729Y-66758271D01*
X147348745Y-66917998D01*
X147558446Y-67046503D01*
X147563016Y-67048396D01*
X147563020Y-67048398D01*
X147781099Y-67138729D01*
X147781105Y-67138731D01*
X147785668Y-67140621D01*
X147790468Y-67141773D01*
X147790473Y-67141775D01*
X147899866Y-67168038D01*
X148024815Y-67198036D01*
X148270000Y-67217332D01*
X148515185Y-67198036D01*
X148640134Y-67168038D01*
X148749527Y-67141775D01*
X148749532Y-67141773D01*
X148754332Y-67140621D01*
X148758895Y-67138731D01*
X148758901Y-67138729D01*
X148976980Y-67048398D01*
X148976984Y-67048396D01*
X148981554Y-67046503D01*
X149191255Y-66917998D01*
X149378271Y-66758271D01*
X149537998Y-66571255D01*
X149666503Y-66361554D01*
X149666637Y-66361232D01*
X149714502Y-66310546D01*
X149783416Y-66293476D01*
X149850619Y-66316374D01*
X149894774Y-66371970D01*
X149904024Y-66418701D01*
X149922791Y-70003079D01*
X149903146Y-70071304D01*
X149849735Y-70118077D01*
X149779515Y-70128549D01*
X149714780Y-70099394D01*
X149680385Y-70051958D01*
X149668401Y-70023027D01*
X149668398Y-70023022D01*
X149666503Y-70018446D01*
X149537998Y-69808745D01*
X149378271Y-69621729D01*
X149191255Y-69462002D01*
X148981554Y-69333497D01*
X148976984Y-69331604D01*
X148976980Y-69331602D01*
X148758901Y-69241271D01*
X148758895Y-69241269D01*
X148754332Y-69239379D01*
X148749532Y-69238227D01*
X148749527Y-69238225D01*
X148636198Y-69211017D01*
X148515185Y-69181964D01*
X148270000Y-69162668D01*
X148024815Y-69181964D01*
X147903802Y-69211017D01*
X147790473Y-69238225D01*
X147790468Y-69238227D01*
X147785668Y-69239379D01*
X147781105Y-69241269D01*
X147781099Y-69241271D01*
X147563020Y-69331602D01*
X147563016Y-69331604D01*
X147558446Y-69333497D01*
X147348745Y-69462002D01*
X147161729Y-69621729D01*
X147002002Y-69808745D01*
X146873497Y-70018446D01*
X146871604Y-70023016D01*
X146871602Y-70023020D01*
X146781271Y-70241099D01*
X146781269Y-70241105D01*
X146779379Y-70245668D01*
X146778227Y-70250468D01*
X146778225Y-70250473D01*
X146760402Y-70324712D01*
X146721964Y-70484815D01*
X146702668Y-70730000D01*
X146721964Y-70975185D01*
X146779379Y-71214332D01*
X146781269Y-71218895D01*
X146781271Y-71218901D01*
X146871602Y-71436980D01*
X146873497Y-71441554D01*
X147002002Y-71651255D01*
X147161729Y-71838271D01*
X147348745Y-71997998D01*
X147558446Y-72126503D01*
X147563016Y-72128396D01*
X147563020Y-72128398D01*
X147781099Y-72218729D01*
X147781105Y-72218731D01*
X147785668Y-72220621D01*
X147790468Y-72221773D01*
X147790473Y-72221775D01*
X147899866Y-72248038D01*
X148024815Y-72278036D01*
X148270000Y-72297332D01*
X148515185Y-72278036D01*
X148640134Y-72248038D01*
X148749527Y-72221775D01*
X148749532Y-72221773D01*
X148754332Y-72220621D01*
X148758895Y-72218731D01*
X148758901Y-72218729D01*
X148976980Y-72128398D01*
X148976984Y-72128396D01*
X148981554Y-72126503D01*
X149191255Y-71997998D01*
X149378271Y-71838271D01*
X149537998Y-71651255D01*
X149666503Y-71441554D01*
X149668398Y-71436980D01*
X149668400Y-71436976D01*
X149687893Y-71389914D01*
X149732441Y-71334632D01*
X149799804Y-71312211D01*
X149868595Y-71329769D01*
X149916974Y-71381730D01*
X149930300Y-71437471D01*
X149998025Y-84372840D01*
X149978380Y-84441065D01*
X149924969Y-84487838D01*
X149872027Y-84499500D01*
X101126500Y-84499500D01*
X101058379Y-84479498D01*
X101011886Y-84425842D01*
X101000500Y-84373500D01*
X101000500Y-78188753D01*
X116594514Y-78188753D01*
X116595201Y-78195760D01*
X116595201Y-78195763D01*
X116596005Y-78203963D01*
X116612039Y-78367486D01*
X116614262Y-78374168D01*
X116614262Y-78374169D01*
X116622967Y-78400336D01*
X116668726Y-78537896D01*
X116761759Y-78691512D01*
X116886514Y-78820699D01*
X117036789Y-78919036D01*
X117205116Y-78981636D01*
X117212097Y-78982567D01*
X117212099Y-78982568D01*
X117376149Y-79004457D01*
X117376153Y-79004457D01*
X117383130Y-79005388D01*
X117390142Y-79004750D01*
X117390146Y-79004750D01*
X117554960Y-78989751D01*
X117554961Y-78989751D01*
X117561981Y-78989112D01*
X117732782Y-78933615D01*
X117763714Y-78915176D01*
X117880992Y-78845265D01*
X117880994Y-78845264D01*
X117887044Y-78841657D01*
X118017099Y-78717807D01*
X118034570Y-78691512D01*
X118112582Y-78574093D01*
X118116483Y-78568222D01*
X118131168Y-78529564D01*
X118177757Y-78406919D01*
X118177758Y-78406914D01*
X118180257Y-78400336D01*
X118205251Y-78222493D01*
X118205565Y-78200000D01*
X118185546Y-78021528D01*
X118179427Y-78003955D01*
X118128803Y-77858584D01*
X118126485Y-77851927D01*
X118031316Y-77699625D01*
X117967771Y-77635635D01*
X117909733Y-77577190D01*
X117909729Y-77577187D01*
X117904770Y-77572193D01*
X117893761Y-77565206D01*
X117846860Y-77535442D01*
X117753136Y-77475963D01*
X117723352Y-77465357D01*
X117590586Y-77418081D01*
X117590581Y-77418080D01*
X117583951Y-77415719D01*
X117576965Y-77414886D01*
X117576961Y-77414885D01*
X117449177Y-77399648D01*
X117405624Y-77394455D01*
X117398621Y-77395191D01*
X117398620Y-77395191D01*
X117234025Y-77412490D01*
X117234021Y-77412491D01*
X117227017Y-77413227D01*
X117220346Y-77415498D01*
X117063677Y-77468832D01*
X117063674Y-77468833D01*
X117057007Y-77471103D01*
X117051009Y-77474793D01*
X117051007Y-77474794D01*
X116980526Y-77518154D01*
X116904045Y-77565206D01*
X116899014Y-77570132D01*
X116899011Y-77570135D01*
X116891807Y-77577190D01*
X116775732Y-77690859D01*
X116771913Y-77696784D01*
X116771912Y-77696786D01*
X116682265Y-77835891D01*
X116678446Y-77841817D01*
X116617022Y-78010578D01*
X116594514Y-78188753D01*
X101000500Y-78188753D01*
X101000500Y-73255093D01*
X139582463Y-73255093D01*
X139599899Y-73462730D01*
X139657333Y-73663025D01*
X139660151Y-73668507D01*
X139660152Y-73668511D01*
X139749756Y-73842862D01*
X139749759Y-73842866D01*
X139752577Y-73848350D01*
X139756408Y-73853183D01*
X139878174Y-74006816D01*
X139878179Y-74006821D01*
X139882003Y-74011646D01*
X140040683Y-74146693D01*
X140046061Y-74149699D01*
X140046063Y-74149700D01*
X140131627Y-74197519D01*
X140222571Y-74248346D01*
X140420740Y-74312735D01*
X140627641Y-74337407D01*
X140633776Y-74336935D01*
X140633778Y-74336935D01*
X140829252Y-74321894D01*
X140829256Y-74321893D01*
X140835394Y-74321421D01*
X141036085Y-74265387D01*
X141041589Y-74262607D01*
X141041591Y-74262606D01*
X141216570Y-74174218D01*
X141216572Y-74174217D01*
X141222071Y-74171439D01*
X141386266Y-74043156D01*
X141522417Y-73885423D01*
X141625339Y-73704249D01*
X141691109Y-73506534D01*
X141717225Y-73299810D01*
X141717641Y-73270000D01*
X141716179Y-73255093D01*
X144662463Y-73255093D01*
X144679899Y-73462730D01*
X144737333Y-73663025D01*
X144740151Y-73668507D01*
X144740152Y-73668511D01*
X144829756Y-73842862D01*
X144829759Y-73842866D01*
X144832577Y-73848350D01*
X144836408Y-73853183D01*
X144958174Y-74006816D01*
X144958179Y-74006821D01*
X144962003Y-74011646D01*
X145120683Y-74146693D01*
X145126061Y-74149699D01*
X145126063Y-74149700D01*
X145211627Y-74197519D01*
X145302571Y-74248346D01*
X145500740Y-74312735D01*
X145707641Y-74337407D01*
X145713776Y-74336935D01*
X145713778Y-74336935D01*
X145909252Y-74321894D01*
X145909256Y-74321893D01*
X145915394Y-74321421D01*
X146116085Y-74265387D01*
X146121589Y-74262607D01*
X146121591Y-74262606D01*
X146296570Y-74174218D01*
X146296572Y-74174217D01*
X146302071Y-74171439D01*
X146466266Y-74043156D01*
X146602417Y-73885423D01*
X146705339Y-73704249D01*
X146771109Y-73506534D01*
X146797225Y-73299810D01*
X146797641Y-73270000D01*
X146777308Y-73062627D01*
X146717083Y-72863154D01*
X146619261Y-72679176D01*
X146613590Y-72672222D01*
X146577427Y-72627882D01*
X146487567Y-72517704D01*
X146327017Y-72384885D01*
X146143728Y-72285781D01*
X145944679Y-72224165D01*
X145938554Y-72223521D01*
X145938553Y-72223521D01*
X145743582Y-72203029D01*
X145743580Y-72203029D01*
X145737453Y-72202385D01*
X145606739Y-72214281D01*
X145536085Y-72220711D01*
X145536084Y-72220711D01*
X145529944Y-72221270D01*
X145524030Y-72223011D01*
X145524028Y-72223011D01*
X145513917Y-72225987D01*
X145330055Y-72280101D01*
X145145399Y-72376636D01*
X144983011Y-72507200D01*
X144849075Y-72666818D01*
X144748693Y-72849411D01*
X144685690Y-73048025D01*
X144662463Y-73255093D01*
X141716179Y-73255093D01*
X141697308Y-73062627D01*
X141637083Y-72863154D01*
X141539261Y-72679176D01*
X141533590Y-72672222D01*
X141497427Y-72627882D01*
X141407567Y-72517704D01*
X141247017Y-72384885D01*
X141063728Y-72285781D01*
X140864679Y-72224165D01*
X140858554Y-72223521D01*
X140858553Y-72223521D01*
X140663582Y-72203029D01*
X140663580Y-72203029D01*
X140657453Y-72202385D01*
X140526739Y-72214281D01*
X140456085Y-72220711D01*
X140456084Y-72220711D01*
X140449944Y-72221270D01*
X140444030Y-72223011D01*
X140444028Y-72223011D01*
X140433917Y-72225987D01*
X140250055Y-72280101D01*
X140065399Y-72376636D01*
X139903011Y-72507200D01*
X139769075Y-72666818D01*
X139668693Y-72849411D01*
X139605690Y-73048025D01*
X139582463Y-73255093D01*
X101000500Y-73255093D01*
X101000500Y-61832547D01*
X103895385Y-61832547D01*
X103914270Y-62040056D01*
X103916011Y-62045970D01*
X103916011Y-62045972D01*
X103933973Y-62107000D01*
X103973101Y-62239945D01*
X104069636Y-62424601D01*
X104200200Y-62586989D01*
X104359818Y-62720925D01*
X104542411Y-62821307D01*
X104741025Y-62884310D01*
X104747142Y-62884996D01*
X104747146Y-62884997D01*
X104823377Y-62893548D01*
X104903188Y-62902500D01*
X105173500Y-62902500D01*
X105241621Y-62922502D01*
X105288114Y-62976158D01*
X105299500Y-63028500D01*
X105299500Y-65792393D01*
X105306914Y-65815210D01*
X105311528Y-65834429D01*
X105315281Y-65858126D01*
X105319784Y-65866963D01*
X105319784Y-65866964D01*
X105326172Y-65879502D01*
X105333736Y-65897763D01*
X105338085Y-65911147D01*
X105338087Y-65911150D01*
X105341151Y-65920581D01*
X105346980Y-65928604D01*
X105355253Y-65939991D01*
X105365577Y-65956837D01*
X105376472Y-65978220D01*
X109437595Y-70039343D01*
X109471621Y-70101655D01*
X109474500Y-70128438D01*
X109474500Y-70592772D01*
X109485364Y-70682547D01*
X109540887Y-70822783D01*
X109632078Y-70942922D01*
X109752217Y-71034113D01*
X109815832Y-71059300D01*
X109884923Y-71086655D01*
X109884925Y-71086656D01*
X109892453Y-71089636D01*
X109982228Y-71100500D01*
X110892772Y-71100500D01*
X110982547Y-71089636D01*
X110990075Y-71086656D01*
X110990077Y-71086655D01*
X111059168Y-71059300D01*
X111122783Y-71034113D01*
X111242922Y-70942922D01*
X111334113Y-70822783D01*
X111389636Y-70682547D01*
X111400500Y-70592772D01*
X112599500Y-70592772D01*
X112610364Y-70682547D01*
X112665887Y-70822783D01*
X112757078Y-70942922D01*
X112877217Y-71034113D01*
X112940832Y-71059300D01*
X113009923Y-71086655D01*
X113009925Y-71086656D01*
X113017453Y-71089636D01*
X113107228Y-71100500D01*
X114017772Y-71100500D01*
X114107547Y-71089636D01*
X114115075Y-71086656D01*
X114115077Y-71086655D01*
X114184168Y-71059300D01*
X114247783Y-71034113D01*
X114367922Y-70942922D01*
X114459113Y-70822783D01*
X114514636Y-70682547D01*
X114525500Y-70592772D01*
X114525500Y-69207228D01*
X114514636Y-69117453D01*
X114459113Y-68977217D01*
X114367922Y-68857078D01*
X114247783Y-68765887D01*
X114184168Y-68740700D01*
X114115077Y-68713345D01*
X114115075Y-68713344D01*
X114107547Y-68710364D01*
X114099507Y-68709391D01*
X114086360Y-68707800D01*
X114021136Y-68679758D01*
X113981427Y-68620904D01*
X113975500Y-68582713D01*
X113975500Y-65688754D01*
X113995502Y-65620633D01*
X114049158Y-65574140D01*
X114070486Y-65566631D01*
X114074514Y-65565608D01*
X114082547Y-65564636D01*
X114090077Y-65561655D01*
X114136319Y-65543346D01*
X114222783Y-65509113D01*
X114342922Y-65417922D01*
X114434113Y-65297783D01*
X114467790Y-65212725D01*
X114486655Y-65165077D01*
X114486656Y-65165075D01*
X114489636Y-65157547D01*
X114500500Y-65067772D01*
X114500500Y-63732228D01*
X114489636Y-63642453D01*
X114434113Y-63502217D01*
X114342922Y-63382078D01*
X114222783Y-63290887D01*
X114155116Y-63264096D01*
X114090077Y-63238345D01*
X114090075Y-63238344D01*
X114082547Y-63235364D01*
X113992772Y-63224500D01*
X113107228Y-63224500D01*
X113017453Y-63235364D01*
X113009925Y-63238344D01*
X113009923Y-63238345D01*
X112944884Y-63264096D01*
X112877217Y-63290887D01*
X112757078Y-63382078D01*
X112665887Y-63502217D01*
X112610364Y-63642453D01*
X112599500Y-63732228D01*
X112599500Y-65067772D01*
X112610364Y-65157547D01*
X112613344Y-65165075D01*
X112613345Y-65165077D01*
X112632210Y-65212725D01*
X112665887Y-65297783D01*
X112757078Y-65417922D01*
X112877217Y-65509113D01*
X112963681Y-65543346D01*
X113009924Y-65561655D01*
X113017453Y-65564636D01*
X113025486Y-65565608D01*
X113029514Y-65566631D01*
X113090615Y-65602785D01*
X113122471Y-65666233D01*
X113124500Y-65688754D01*
X113124500Y-68586246D01*
X113104498Y-68654367D01*
X113050842Y-68700860D01*
X113029514Y-68708369D01*
X113025486Y-68709392D01*
X113017453Y-68710364D01*
X113009932Y-68713342D01*
X113009931Y-68713342D01*
X112963681Y-68731654D01*
X112877217Y-68765887D01*
X112757078Y-68857078D01*
X112665887Y-68977217D01*
X112610364Y-69117453D01*
X112599500Y-69207228D01*
X112599500Y-70592772D01*
X111400500Y-70592772D01*
X111400500Y-69207228D01*
X111389636Y-69117453D01*
X111334113Y-68977217D01*
X111242922Y-68857078D01*
X111122783Y-68765887D01*
X111059168Y-68740700D01*
X110990077Y-68713345D01*
X110990075Y-68713344D01*
X110982547Y-68710364D01*
X110892772Y-68699500D01*
X109982228Y-68699500D01*
X109892453Y-68710364D01*
X109884925Y-68713344D01*
X109884923Y-68713345D01*
X109815832Y-68740700D01*
X109752217Y-68765887D01*
X109632078Y-68857078D01*
X109631881Y-68857338D01*
X109573066Y-68889457D01*
X109502250Y-68884396D01*
X109457181Y-68855433D01*
X106187405Y-65585657D01*
X106153379Y-65523345D01*
X106150500Y-65496562D01*
X106150500Y-63028500D01*
X106170502Y-62960379D01*
X106224158Y-62913886D01*
X106276500Y-62902500D01*
X106539432Y-62902500D01*
X106694373Y-62887308D01*
X106893846Y-62827083D01*
X107077824Y-62729261D01*
X107239296Y-62597567D01*
X107372115Y-62437017D01*
X107471219Y-62253728D01*
X107532835Y-62054679D01*
X107548301Y-61907527D01*
X107553971Y-61853582D01*
X107553971Y-61853580D01*
X107554615Y-61847453D01*
X107538928Y-61675083D01*
X107536289Y-61646085D01*
X107536289Y-61646084D01*
X107535730Y-61639944D01*
X107518847Y-61582579D01*
X107478641Y-61445974D01*
X107476899Y-61440055D01*
X107442960Y-61375135D01*
X107383218Y-61260858D01*
X107383217Y-61260857D01*
X107380364Y-61255399D01*
X107249800Y-61093011D01*
X107090182Y-60959075D01*
X107076442Y-60951521D01*
X106960219Y-60887627D01*
X106907589Y-60858693D01*
X106708975Y-60795690D01*
X106702858Y-60795004D01*
X106702854Y-60795003D01*
X106614476Y-60785090D01*
X106546812Y-60777500D01*
X104910568Y-60777500D01*
X104755627Y-60792692D01*
X104556154Y-60852917D01*
X104372176Y-60950739D01*
X104367402Y-60954633D01*
X104367400Y-60954634D01*
X104361955Y-60959075D01*
X104210704Y-61082433D01*
X104077885Y-61242983D01*
X103978781Y-61426272D01*
X103917165Y-61625321D01*
X103916521Y-61631446D01*
X103916521Y-61631447D01*
X103898264Y-61805159D01*
X103895385Y-61832547D01*
X101000500Y-61832547D01*
X101000500Y-59292547D01*
X103895385Y-59292547D01*
X103904895Y-59397040D01*
X103910808Y-59462010D01*
X103914270Y-59500056D01*
X103916011Y-59505970D01*
X103916011Y-59505972D01*
X103921759Y-59525502D01*
X103973101Y-59699945D01*
X103975958Y-59705410D01*
X104048423Y-59844023D01*
X104069636Y-59884601D01*
X104200200Y-60046989D01*
X104204924Y-60050953D01*
X104238929Y-60079487D01*
X104359818Y-60180925D01*
X104542411Y-60281307D01*
X104741025Y-60344310D01*
X104747142Y-60344996D01*
X104747146Y-60344997D01*
X104823377Y-60353548D01*
X104903188Y-60362500D01*
X106539432Y-60362500D01*
X106694373Y-60347308D01*
X106893846Y-60287083D01*
X107077824Y-60189261D01*
X107088021Y-60180945D01*
X107129118Y-60147427D01*
X107239296Y-60057567D01*
X107372115Y-59897017D01*
X107375047Y-59891595D01*
X107375063Y-59891566D01*
X107375075Y-59891554D01*
X107378492Y-59886488D01*
X107379455Y-59887138D01*
X107425061Y-59841159D01*
X107485896Y-59825500D01*
X109473500Y-59825500D01*
X109541621Y-59845502D01*
X109588114Y-59899158D01*
X109599500Y-59951500D01*
X109599500Y-60044646D01*
X109599941Y-60048350D01*
X109599941Y-60048353D01*
X109600474Y-60052827D01*
X109602618Y-60070846D01*
X109648061Y-60173153D01*
X109656294Y-60181372D01*
X109656295Y-60181373D01*
X109660295Y-60185366D01*
X109727287Y-60252241D01*
X109737924Y-60256944D01*
X109737926Y-60256945D01*
X109782225Y-60276529D01*
X109829673Y-60297506D01*
X109833970Y-60298007D01*
X109892102Y-60333788D01*
X109922845Y-60397783D01*
X109924500Y-60418137D01*
X109924500Y-63146944D01*
X109904498Y-63215065D01*
X109844884Y-63264096D01*
X109777217Y-63290887D01*
X109657078Y-63382078D01*
X109565887Y-63502217D01*
X109510364Y-63642453D01*
X109499500Y-63732228D01*
X109499500Y-65067772D01*
X109510364Y-65157547D01*
X109513344Y-65165075D01*
X109513345Y-65165077D01*
X109532210Y-65212725D01*
X109565887Y-65297783D01*
X109657078Y-65417922D01*
X109777217Y-65509113D01*
X109813163Y-65523345D01*
X109909923Y-65561655D01*
X109909925Y-65561656D01*
X109917453Y-65564636D01*
X110007228Y-65575500D01*
X110892772Y-65575500D01*
X110982547Y-65564636D01*
X110990075Y-65561656D01*
X110990077Y-65561655D01*
X111086837Y-65523345D01*
X111122783Y-65509113D01*
X111242922Y-65417922D01*
X111334113Y-65297783D01*
X111367790Y-65212725D01*
X111386655Y-65165077D01*
X111386656Y-65165075D01*
X111389636Y-65157547D01*
X111400500Y-65067772D01*
X111400500Y-63732228D01*
X111389636Y-63642453D01*
X111334113Y-63502217D01*
X111242922Y-63382078D01*
X111122783Y-63290887D01*
X111055116Y-63264096D01*
X110990077Y-63238345D01*
X110990075Y-63238344D01*
X110982547Y-63235364D01*
X110955634Y-63232107D01*
X110896542Y-63224956D01*
X110896538Y-63224956D01*
X110893238Y-63224556D01*
X110893237Y-63224556D01*
X110892772Y-63224500D01*
X110892785Y-63224393D01*
X110827114Y-63200725D01*
X110783940Y-63144365D01*
X110775500Y-63099026D01*
X110775500Y-60418166D01*
X110795502Y-60350045D01*
X110849158Y-60303552D01*
X110863861Y-60298213D01*
X110870846Y-60297382D01*
X110894033Y-60287083D01*
X110962518Y-60256663D01*
X110973153Y-60251939D01*
X111052241Y-60172713D01*
X111097506Y-60070327D01*
X111100500Y-60044646D01*
X111100500Y-58755354D01*
X111099786Y-58749350D01*
X111098816Y-58741206D01*
X111097382Y-58729154D01*
X111088164Y-58708400D01*
X111056663Y-58637482D01*
X111051939Y-58626847D01*
X110972713Y-58547759D01*
X110962076Y-58543056D01*
X110962074Y-58543055D01*
X110880768Y-58507110D01*
X110870327Y-58502494D01*
X110844646Y-58499500D01*
X109855354Y-58499500D01*
X109851650Y-58499941D01*
X109851647Y-58499941D01*
X109844254Y-58500821D01*
X109829154Y-58502618D01*
X109820514Y-58506456D01*
X109820513Y-58506456D01*
X109739517Y-58542433D01*
X109726847Y-58548061D01*
X109718628Y-58556294D01*
X109718627Y-58556295D01*
X109690135Y-58584837D01*
X109647759Y-58627287D01*
X109643056Y-58637924D01*
X109643055Y-58637926D01*
X109626657Y-58675018D01*
X109602494Y-58729673D01*
X109599500Y-58755354D01*
X109599500Y-58848500D01*
X109579498Y-58916621D01*
X109525842Y-58963114D01*
X109473500Y-58974500D01*
X107591316Y-58974500D01*
X107523195Y-58954498D01*
X107477737Y-58899617D01*
X107476899Y-58900055D01*
X107474844Y-58896123D01*
X107474842Y-58896121D01*
X107411074Y-58774142D01*
X107383218Y-58720858D01*
X107383217Y-58720857D01*
X107380364Y-58715399D01*
X107249800Y-58553011D01*
X107090182Y-58419075D01*
X106907589Y-58318693D01*
X106708975Y-58255690D01*
X106702858Y-58255004D01*
X106702854Y-58255003D01*
X106626623Y-58246452D01*
X106546812Y-58237500D01*
X104910568Y-58237500D01*
X104755627Y-58252692D01*
X104556154Y-58312917D01*
X104372176Y-58410739D01*
X104210704Y-58542433D01*
X104077885Y-58702983D01*
X103978781Y-58886272D01*
X103917165Y-59085321D01*
X103916521Y-59091446D01*
X103916521Y-59091447D01*
X103897817Y-59269411D01*
X103895385Y-59292547D01*
X101000500Y-59292547D01*
X101000500Y-56752547D01*
X103895385Y-56752547D01*
X103914270Y-56960056D01*
X103916011Y-56965970D01*
X103916011Y-56965972D01*
X103931678Y-57019202D01*
X103973101Y-57159945D01*
X103975958Y-57165410D01*
X104050443Y-57307887D01*
X104069636Y-57344601D01*
X104200200Y-57506989D01*
X104359818Y-57640925D01*
X104542411Y-57741307D01*
X104741025Y-57804310D01*
X104747142Y-57804996D01*
X104747146Y-57804997D01*
X104823377Y-57813548D01*
X104903188Y-57822500D01*
X106539432Y-57822500D01*
X106694373Y-57807308D01*
X106893846Y-57747083D01*
X107077824Y-57649261D01*
X107113968Y-57619783D01*
X107197664Y-57551521D01*
X107239296Y-57517567D01*
X107372115Y-57357017D01*
X107471219Y-57173728D01*
X107532835Y-56974679D01*
X107538831Y-56917634D01*
X107553971Y-56773582D01*
X107553971Y-56773580D01*
X107554615Y-56767453D01*
X107535730Y-56559944D01*
X107476899Y-56360055D01*
X107380364Y-56175399D01*
X107249800Y-56013011D01*
X107213277Y-55982364D01*
X107153653Y-55932334D01*
X107090182Y-55879075D01*
X106907589Y-55778693D01*
X106708975Y-55715690D01*
X106702858Y-55715004D01*
X106702854Y-55715003D01*
X106626623Y-55706452D01*
X106546812Y-55697500D01*
X106301500Y-55697500D01*
X106233379Y-55677498D01*
X106186886Y-55623842D01*
X106175500Y-55571500D01*
X106175500Y-53753056D01*
X106195502Y-53684935D01*
X106255116Y-53635904D01*
X106282040Y-53625244D01*
X106322783Y-53609113D01*
X106442922Y-53517922D01*
X106534113Y-53397783D01*
X106559300Y-53334168D01*
X106586655Y-53265077D01*
X106586656Y-53265075D01*
X106589636Y-53257547D01*
X106600500Y-53167772D01*
X107799500Y-53167772D01*
X107810364Y-53257547D01*
X107813344Y-53265075D01*
X107813345Y-53265077D01*
X107840700Y-53334168D01*
X107865887Y-53397783D01*
X107957078Y-53517922D01*
X108077217Y-53609113D01*
X108117960Y-53625244D01*
X108209923Y-53661655D01*
X108209925Y-53661656D01*
X108217453Y-53664636D01*
X108307228Y-53675500D01*
X109192772Y-53675500D01*
X109282547Y-53664636D01*
X109290075Y-53661656D01*
X109290077Y-53661655D01*
X109382040Y-53625244D01*
X109422783Y-53609113D01*
X109542922Y-53517922D01*
X109634113Y-53397783D01*
X109659300Y-53334168D01*
X109686655Y-53265077D01*
X109686656Y-53265075D01*
X109689636Y-53257547D01*
X109700500Y-53167772D01*
X109700500Y-53076500D01*
X109720502Y-53008379D01*
X109774158Y-52961886D01*
X109826500Y-52950500D01*
X111761207Y-52950500D01*
X111829328Y-52970502D01*
X111850302Y-52987405D01*
X118262595Y-59399698D01*
X118296621Y-59462010D01*
X118299500Y-59488793D01*
X118299500Y-69933945D01*
X118298161Y-69945647D01*
X118298681Y-69945688D01*
X118297942Y-69955079D01*
X118295815Y-69964255D01*
X118296480Y-69973650D01*
X118296480Y-69973653D01*
X118299185Y-70011849D01*
X118299500Y-70020748D01*
X118299500Y-70033850D01*
X118300200Y-70038505D01*
X118301114Y-70044586D01*
X118302199Y-70054418D01*
X118305383Y-70099384D01*
X118308783Y-70108171D01*
X118310645Y-70116502D01*
X118313151Y-70124649D01*
X118314551Y-70133962D01*
X118318627Y-70142450D01*
X118334066Y-70174602D01*
X118337994Y-70183679D01*
X118354261Y-70225726D01*
X118360091Y-70233121D01*
X118364318Y-70240532D01*
X118369115Y-70247591D01*
X118373191Y-70256079D01*
X118379582Y-70262993D01*
X118403800Y-70289193D01*
X118410221Y-70296712D01*
X118432295Y-70324712D01*
X118432298Y-70324715D01*
X118438128Y-70332110D01*
X118445874Y-70337463D01*
X118452098Y-70343308D01*
X118458752Y-70348639D01*
X118465146Y-70355556D01*
X118493295Y-70371906D01*
X118504138Y-70378204D01*
X118512491Y-70383505D01*
X118539577Y-70402225D01*
X118549569Y-70409131D01*
X118558548Y-70411971D01*
X118566219Y-70415729D01*
X118574146Y-70418868D01*
X118582287Y-70423596D01*
X118591454Y-70425721D01*
X118591457Y-70425722D01*
X118626207Y-70433776D01*
X118635749Y-70436386D01*
X118678730Y-70449980D01*
X118685337Y-70450500D01*
X118687807Y-70450500D01*
X118688599Y-70450531D01*
X118695675Y-70451482D01*
X118695688Y-70451319D01*
X118705079Y-70452058D01*
X118714255Y-70454185D01*
X118723650Y-70453520D01*
X118723653Y-70453520D01*
X118761849Y-70450815D01*
X118770748Y-70450500D01*
X131465780Y-70450500D01*
X131480589Y-70451373D01*
X131514310Y-70455364D01*
X131523574Y-70453672D01*
X131523575Y-70453672D01*
X131572001Y-70444828D01*
X131575904Y-70444178D01*
X131624645Y-70436850D01*
X131624646Y-70436850D01*
X131633962Y-70435449D01*
X131640475Y-70432321D01*
X131647573Y-70431025D01*
X131699647Y-70403975D01*
X131703137Y-70402232D01*
X131756079Y-70376809D01*
X131761365Y-70371923D01*
X131761413Y-70371890D01*
X131767788Y-70368579D01*
X131772828Y-70364275D01*
X131810055Y-70327048D01*
X131813621Y-70323618D01*
X131848641Y-70291246D01*
X131855556Y-70284854D01*
X131859249Y-70278495D01*
X131864766Y-70272337D01*
X137044350Y-65092753D01*
X137055439Y-65082899D01*
X137074709Y-65067707D01*
X137074711Y-65067705D01*
X137082110Y-65061872D01*
X137097628Y-65039420D01*
X137115455Y-65013625D01*
X137117757Y-65010403D01*
X137147040Y-64970758D01*
X137147041Y-64970757D01*
X137152634Y-64963184D01*
X137155027Y-64956368D01*
X137159131Y-64950431D01*
X137162922Y-64938446D01*
X137176818Y-64894505D01*
X137178071Y-64890750D01*
X137194396Y-64844263D01*
X137194396Y-64844261D01*
X137197519Y-64835369D01*
X137197801Y-64828181D01*
X137197812Y-64828122D01*
X137199980Y-64821270D01*
X137200500Y-64814663D01*
X137200500Y-64761984D01*
X137200597Y-64757037D01*
X137202468Y-64709418D01*
X137202838Y-64700006D01*
X137200954Y-64692900D01*
X137200500Y-64684656D01*
X137200500Y-57738793D01*
X137220502Y-57670672D01*
X137237405Y-57649698D01*
X137484405Y-57402698D01*
X137546717Y-57368672D01*
X137617532Y-57373737D01*
X137674368Y-57416284D01*
X137699179Y-57482804D01*
X137699500Y-57491793D01*
X137699500Y-57838834D01*
X137702481Y-57870369D01*
X137747366Y-57998184D01*
X137752958Y-58005754D01*
X137752959Y-58005757D01*
X137811859Y-58085500D01*
X137827850Y-58107150D01*
X137835421Y-58112742D01*
X137835424Y-58112745D01*
X137911112Y-58168649D01*
X137954023Y-58225210D01*
X137959543Y-58295992D01*
X137925919Y-58358521D01*
X137911112Y-58371351D01*
X137835424Y-58427255D01*
X137835421Y-58427258D01*
X137827850Y-58432850D01*
X137822258Y-58440421D01*
X137752959Y-58534243D01*
X137752958Y-58534246D01*
X137747366Y-58541816D01*
X137702481Y-58669631D01*
X137699500Y-58701166D01*
X137699500Y-59108834D01*
X137702481Y-59140369D01*
X137747366Y-59268184D01*
X137752958Y-59275754D01*
X137752959Y-59275757D01*
X137769896Y-59298687D01*
X137827850Y-59377150D01*
X137835421Y-59382742D01*
X137929243Y-59452041D01*
X137929246Y-59452042D01*
X137936816Y-59457634D01*
X138064631Y-59502519D01*
X138072277Y-59503242D01*
X138072278Y-59503242D01*
X138078248Y-59503806D01*
X138096166Y-59505500D01*
X138398500Y-59505500D01*
X138466621Y-59525502D01*
X138513114Y-59579158D01*
X138524500Y-59631500D01*
X138524500Y-60503280D01*
X138523627Y-60518089D01*
X138519636Y-60551810D01*
X138521328Y-60561074D01*
X138521328Y-60561075D01*
X138530172Y-60609501D01*
X138530822Y-60613404D01*
X138537505Y-60657851D01*
X138539551Y-60671462D01*
X138542679Y-60677975D01*
X138543975Y-60685073D01*
X138571025Y-60737147D01*
X138572768Y-60740637D01*
X138598191Y-60793579D01*
X138603076Y-60798864D01*
X138603110Y-60798914D01*
X138606421Y-60805288D01*
X138607111Y-60806096D01*
X138627841Y-60871413D01*
X138609324Y-60939952D01*
X138602234Y-60950330D01*
X138571082Y-60991372D01*
X138571080Y-60991375D01*
X138565887Y-60998217D01*
X138510364Y-61138453D01*
X138499500Y-61228228D01*
X138499500Y-62138772D01*
X138510364Y-62228547D01*
X138513344Y-62236075D01*
X138513345Y-62236077D01*
X138517040Y-62245410D01*
X138565887Y-62368783D01*
X138657078Y-62488922D01*
X138777217Y-62580113D01*
X138794584Y-62586989D01*
X138909923Y-62632655D01*
X138909925Y-62632656D01*
X138917453Y-62635636D01*
X139007228Y-62646500D01*
X140392772Y-62646500D01*
X140392772Y-62647938D01*
X140456217Y-62662486D01*
X140483692Y-62683295D01*
X140675384Y-62874987D01*
X140679167Y-62877781D01*
X140679168Y-62877782D01*
X140749243Y-62929541D01*
X140749246Y-62929542D01*
X140756816Y-62935134D01*
X140884631Y-62980019D01*
X140894038Y-62980389D01*
X140894040Y-62980389D01*
X140948486Y-62982528D01*
X141019994Y-62985338D01*
X141107228Y-62962208D01*
X141139522Y-62958000D01*
X147284893Y-62958000D01*
X147307710Y-62950586D01*
X147326929Y-62945972D01*
X147350626Y-62942219D01*
X147359464Y-62937716D01*
X147372002Y-62931328D01*
X147390263Y-62923764D01*
X147403647Y-62919415D01*
X147403650Y-62919413D01*
X147413081Y-62916349D01*
X147432491Y-62902247D01*
X147449337Y-62891923D01*
X147470720Y-62881028D01*
X149174750Y-61176998D01*
X149209194Y-61154565D01*
X149208760Y-61153805D01*
X149216945Y-61149136D01*
X149225726Y-61145739D01*
X149332110Y-61061872D01*
X149343048Y-61046047D01*
X149403774Y-60958182D01*
X149409131Y-60950431D01*
X149434726Y-60869503D01*
X149447814Y-60828119D01*
X149447814Y-60828118D01*
X149449980Y-60821270D01*
X149450500Y-60814663D01*
X149450500Y-53034219D01*
X149451373Y-53019410D01*
X149451706Y-53016593D01*
X149455364Y-52985689D01*
X149453672Y-52976426D01*
X149453672Y-52976419D01*
X149444825Y-52927982D01*
X149444174Y-52924075D01*
X149441687Y-52907528D01*
X149439045Y-52889955D01*
X149436850Y-52875356D01*
X149436850Y-52875355D01*
X149435449Y-52866038D01*
X149432321Y-52859525D01*
X149431025Y-52852427D01*
X149403972Y-52800347D01*
X149402223Y-52796845D01*
X149380887Y-52752413D01*
X149380886Y-52752412D01*
X149376809Y-52743921D01*
X149371923Y-52738636D01*
X149371892Y-52738589D01*
X149368579Y-52732211D01*
X149364275Y-52727172D01*
X149327048Y-52689945D01*
X149323618Y-52686379D01*
X149291246Y-52651359D01*
X149284854Y-52644444D01*
X149278495Y-52640751D01*
X149272337Y-52635234D01*
X148727753Y-52090650D01*
X148717899Y-52079561D01*
X148702707Y-52060291D01*
X148702705Y-52060289D01*
X148696872Y-52052890D01*
X148689125Y-52047535D01*
X148689123Y-52047534D01*
X148648625Y-52019545D01*
X148645403Y-52017243D01*
X148605758Y-51987960D01*
X148605757Y-51987959D01*
X148598184Y-51982366D01*
X148591368Y-51979973D01*
X148585431Y-51975869D01*
X148576451Y-51973029D01*
X148576449Y-51973028D01*
X148553534Y-51965781D01*
X148529481Y-51958174D01*
X148525750Y-51956929D01*
X148479263Y-51940604D01*
X148479261Y-51940604D01*
X148470369Y-51937481D01*
X148463181Y-51937199D01*
X148463122Y-51937188D01*
X148456270Y-51935020D01*
X148449663Y-51934500D01*
X148396984Y-51934500D01*
X148392037Y-51934403D01*
X148335006Y-51932162D01*
X148327900Y-51934046D01*
X148319653Y-51934500D01*
X147617950Y-51934500D01*
X147549829Y-51914498D01*
X147543091Y-51909851D01*
X147463888Y-51851351D01*
X147420977Y-51794790D01*
X147415457Y-51724009D01*
X147449081Y-51661479D01*
X147463888Y-51648649D01*
X147539576Y-51592745D01*
X147539579Y-51592742D01*
X147547150Y-51587150D01*
X147559665Y-51570206D01*
X147622041Y-51485757D01*
X147622042Y-51485754D01*
X147627634Y-51478184D01*
X147672519Y-51350369D01*
X147675500Y-51318834D01*
X147675500Y-50911166D01*
X147672519Y-50879631D01*
X147627634Y-50751816D01*
X147622042Y-50744246D01*
X147622041Y-50744243D01*
X147552742Y-50650421D01*
X147547150Y-50642850D01*
X147530206Y-50630335D01*
X147445757Y-50567959D01*
X147445754Y-50567958D01*
X147438184Y-50562366D01*
X147310369Y-50517481D01*
X147302723Y-50516758D01*
X147302722Y-50516758D01*
X147296752Y-50516194D01*
X147278834Y-50514500D01*
X147139000Y-50514500D01*
X147070879Y-50494498D01*
X147024386Y-50440842D01*
X147013000Y-50388500D01*
X147013000Y-44546720D01*
X147013873Y-44531911D01*
X147016757Y-44507543D01*
X147017864Y-44498190D01*
X147016172Y-44488926D01*
X147016172Y-44488922D01*
X147007327Y-44440489D01*
X147006678Y-44436588D01*
X146999351Y-44387855D01*
X146999349Y-44387847D01*
X146997949Y-44378538D01*
X146994823Y-44372028D01*
X146993526Y-44364927D01*
X146980630Y-44340101D01*
X146966482Y-44312863D01*
X146964714Y-44309325D01*
X146943386Y-44264911D01*
X146939309Y-44256421D01*
X146934426Y-44251140D01*
X146934391Y-44251088D01*
X146931080Y-44244712D01*
X146926776Y-44239672D01*
X146889536Y-44202432D01*
X146886106Y-44198866D01*
X146853745Y-44163857D01*
X146853742Y-44163855D01*
X146847354Y-44156944D01*
X146840998Y-44153253D01*
X146834844Y-44147740D01*
X142458536Y-39771433D01*
X142424510Y-39709121D01*
X142422544Y-39667201D01*
X142425044Y-39646539D01*
X142425500Y-39642772D01*
X142425500Y-38757228D01*
X142414636Y-38667453D01*
X142359113Y-38527217D01*
X142267922Y-38407078D01*
X142147783Y-38315887D01*
X142084168Y-38290700D01*
X142015077Y-38263345D01*
X142015075Y-38263344D01*
X142007547Y-38260364D01*
X141917772Y-38249500D01*
X140582228Y-38249500D01*
X140492453Y-38260364D01*
X140484925Y-38263344D01*
X140484923Y-38263345D01*
X140415832Y-38290700D01*
X140352217Y-38315887D01*
X140232078Y-38407078D01*
X140140887Y-38527217D01*
X140085364Y-38667453D01*
X140074500Y-38757228D01*
X140074500Y-39642772D01*
X140074956Y-39646539D01*
X140077456Y-39667201D01*
X140065783Y-39737232D01*
X140041464Y-39771433D01*
X135775302Y-44037595D01*
X135712990Y-44071621D01*
X135686207Y-44074500D01*
X135357228Y-44074500D01*
X135267453Y-44085364D01*
X135259925Y-44088344D01*
X135259923Y-44088345D01*
X135190832Y-44115700D01*
X135127217Y-44140887D01*
X135007078Y-44232078D01*
X134915887Y-44352217D01*
X134899012Y-44394839D01*
X134871020Y-44465540D01*
X134860364Y-44492453D01*
X134849500Y-44582228D01*
X134849500Y-45917772D01*
X134860364Y-46007547D01*
X134915887Y-46147783D01*
X135007078Y-46267922D01*
X135127217Y-46359113D01*
X135163464Y-46373464D01*
X135259923Y-46411655D01*
X135259925Y-46411656D01*
X135267453Y-46414636D01*
X135357228Y-46425500D01*
X136242772Y-46425500D01*
X136332547Y-46414636D01*
X136340075Y-46411656D01*
X136340077Y-46411655D01*
X136436536Y-46373464D01*
X136472783Y-46359113D01*
X136592922Y-46267922D01*
X136684113Y-46147783D01*
X136739636Y-46007547D01*
X136750500Y-45917772D01*
X136750500Y-44582228D01*
X136739636Y-44492453D01*
X136728981Y-44465540D01*
X136722503Y-44394839D01*
X136757039Y-44330064D01*
X140899698Y-40187405D01*
X140962010Y-40153379D01*
X140988793Y-40150500D01*
X141511207Y-40150500D01*
X141579328Y-40170502D01*
X141600302Y-40187405D01*
X146075095Y-44662198D01*
X146109121Y-44724510D01*
X146112000Y-44751293D01*
X146112000Y-50388500D01*
X146091998Y-50456621D01*
X146038342Y-50503114D01*
X145986000Y-50514500D01*
X145846166Y-50514500D01*
X145828248Y-50516194D01*
X145822278Y-50516758D01*
X145822277Y-50516758D01*
X145814631Y-50517481D01*
X145686816Y-50562366D01*
X145679246Y-50567958D01*
X145679243Y-50567959D01*
X145594794Y-50630335D01*
X145577850Y-50642850D01*
X145572258Y-50650421D01*
X145502959Y-50744243D01*
X145502958Y-50744246D01*
X145497366Y-50751816D01*
X145452481Y-50879631D01*
X145449500Y-50911166D01*
X145449500Y-51318834D01*
X145452481Y-51350369D01*
X145497366Y-51478184D01*
X145502958Y-51485754D01*
X145502959Y-51485757D01*
X145565335Y-51570206D01*
X145577850Y-51587150D01*
X145585421Y-51592742D01*
X145585424Y-51592745D01*
X145661112Y-51648649D01*
X145704023Y-51705210D01*
X145709543Y-51775992D01*
X145675919Y-51838521D01*
X145661112Y-51851351D01*
X145581909Y-51909851D01*
X145515231Y-51934234D01*
X145507050Y-51934500D01*
X144376500Y-51934500D01*
X144308379Y-51914498D01*
X144261886Y-51860842D01*
X144250500Y-51808500D01*
X144250500Y-51082228D01*
X144239636Y-50992453D01*
X144184113Y-50852217D01*
X144092922Y-50732078D01*
X143972783Y-50640887D01*
X143909168Y-50615700D01*
X143840077Y-50588345D01*
X143840075Y-50588344D01*
X143832547Y-50585364D01*
X143742772Y-50574500D01*
X142857228Y-50574500D01*
X142767453Y-50585364D01*
X142759925Y-50588344D01*
X142759923Y-50588345D01*
X142690832Y-50615700D01*
X142627217Y-50640887D01*
X142507078Y-50732078D01*
X142415887Y-50852217D01*
X142360364Y-50992453D01*
X142349500Y-51082228D01*
X142349500Y-52417772D01*
X142360364Y-52507547D01*
X142363344Y-52515075D01*
X142363345Y-52515077D01*
X142371346Y-52535284D01*
X142415887Y-52647783D01*
X142507078Y-52767922D01*
X142627217Y-52859113D01*
X142674501Y-52877834D01*
X142759923Y-52911655D01*
X142759925Y-52911656D01*
X142767453Y-52914636D01*
X142857228Y-52925500D01*
X143742772Y-52925500D01*
X143832547Y-52914636D01*
X143840075Y-52911656D01*
X143840077Y-52911655D01*
X143894884Y-52889955D01*
X143972783Y-52859113D01*
X143979624Y-52853921D01*
X143983517Y-52851727D01*
X144045370Y-52835500D01*
X145507050Y-52835500D01*
X145575171Y-52855502D01*
X145581909Y-52860149D01*
X145679239Y-52932039D01*
X145679246Y-52932043D01*
X145686816Y-52937634D01*
X145814631Y-52982519D01*
X145822277Y-52983242D01*
X145822278Y-52983242D01*
X145828248Y-52983806D01*
X145846166Y-52985500D01*
X147278834Y-52985500D01*
X147296752Y-52983806D01*
X147302722Y-52983242D01*
X147302723Y-52983242D01*
X147310369Y-52982519D01*
X147438184Y-52937634D01*
X147445754Y-52932043D01*
X147445761Y-52932039D01*
X147543091Y-52860149D01*
X147609769Y-52835766D01*
X147617950Y-52835500D01*
X148146207Y-52835500D01*
X148214328Y-52855502D01*
X148235302Y-52872405D01*
X148512595Y-53149698D01*
X148546621Y-53212010D01*
X148549500Y-53238793D01*
X148549500Y-60546562D01*
X148529498Y-60614683D01*
X148512595Y-60635657D01*
X147078157Y-62070095D01*
X147015845Y-62104121D01*
X146989062Y-62107000D01*
X144846518Y-62107000D01*
X144778397Y-62086998D01*
X144731904Y-62033342D01*
X144721800Y-61963068D01*
X144751294Y-61898488D01*
X144789904Y-61868435D01*
X144915714Y-61805159D01*
X144922498Y-61801747D01*
X145047846Y-61694689D01*
X145112636Y-61665658D01*
X145129677Y-61664500D01*
X145197780Y-61664500D01*
X145212589Y-61665373D01*
X145246310Y-61669364D01*
X145255574Y-61667672D01*
X145255575Y-61667672D01*
X145304001Y-61658828D01*
X145307904Y-61658178D01*
X145356645Y-61650850D01*
X145356646Y-61650850D01*
X145365962Y-61649449D01*
X145372475Y-61646321D01*
X145379573Y-61645025D01*
X145431647Y-61617975D01*
X145435137Y-61616232D01*
X145488079Y-61590809D01*
X145493365Y-61585923D01*
X145493413Y-61585890D01*
X145499788Y-61582579D01*
X145504828Y-61578275D01*
X145542055Y-61541048D01*
X145545621Y-61537618D01*
X145580641Y-61505246D01*
X145587556Y-61498854D01*
X145591249Y-61492495D01*
X145596766Y-61486337D01*
X147145698Y-59937405D01*
X147208010Y-59903379D01*
X147234793Y-59900500D01*
X147940646Y-59900500D01*
X147944350Y-59900059D01*
X147944353Y-59900059D01*
X147951923Y-59899158D01*
X147966846Y-59897382D01*
X147979875Y-59891595D01*
X148058518Y-59856663D01*
X148069153Y-59851939D01*
X148079915Y-59841159D01*
X148123547Y-59797450D01*
X148148241Y-59772713D01*
X148193506Y-59670327D01*
X148196500Y-59644646D01*
X148196500Y-58355354D01*
X148193382Y-58329154D01*
X148188736Y-58318693D01*
X148152663Y-58237482D01*
X148147939Y-58226847D01*
X148068713Y-58147759D01*
X148058076Y-58143056D01*
X148058074Y-58143055D01*
X147983642Y-58110149D01*
X147966327Y-58102494D01*
X147940646Y-58099500D01*
X146951354Y-58099500D01*
X146947650Y-58099941D01*
X146947647Y-58099941D01*
X146940254Y-58100821D01*
X146925154Y-58102618D01*
X146916514Y-58106456D01*
X146916513Y-58106456D01*
X146834117Y-58143055D01*
X146822847Y-58148061D01*
X146743759Y-58227287D01*
X146739057Y-58237923D01*
X146739055Y-58237926D01*
X146731202Y-58255690D01*
X146698494Y-58329673D01*
X146695500Y-58355354D01*
X146695500Y-59061207D01*
X146675498Y-59129328D01*
X146658595Y-59150302D01*
X145145543Y-60663354D01*
X145083231Y-60697380D01*
X145012416Y-60692315D01*
X144972629Y-60668335D01*
X144940392Y-60639612D01*
X144940388Y-60639610D01*
X144934721Y-60634560D01*
X144927781Y-60630885D01*
X144819621Y-60573618D01*
X144784881Y-60555224D01*
X144620441Y-60513919D01*
X144612843Y-60513879D01*
X144612841Y-60513879D01*
X144535668Y-60513475D01*
X144450895Y-60513031D01*
X144443508Y-60514805D01*
X144443504Y-60514805D01*
X144320445Y-60544350D01*
X144286032Y-60552612D01*
X144279288Y-60556093D01*
X144279285Y-60556094D01*
X144164276Y-60615455D01*
X144135369Y-60630375D01*
X144129647Y-60635367D01*
X144129645Y-60635368D01*
X144063086Y-60693431D01*
X144007604Y-60741831D01*
X143977201Y-60785090D01*
X143917875Y-60869503D01*
X143910113Y-60880547D01*
X143848524Y-61038513D01*
X143847532Y-61046046D01*
X143847532Y-61046047D01*
X143830293Y-61176998D01*
X143826394Y-61206611D01*
X143844999Y-61375135D01*
X143903266Y-61534356D01*
X143997830Y-61675083D01*
X144003442Y-61680190D01*
X144003445Y-61680193D01*
X144117612Y-61784077D01*
X144117616Y-61784080D01*
X144123233Y-61789191D01*
X144129906Y-61792814D01*
X144129910Y-61792817D01*
X144272235Y-61870092D01*
X144270661Y-61872990D01*
X144314920Y-61907527D01*
X144338394Y-61974530D01*
X144321916Y-62043588D01*
X144270718Y-62092775D01*
X144212560Y-62107000D01*
X141233793Y-62107000D01*
X141165672Y-62086998D01*
X141144698Y-62070095D01*
X140937405Y-61862802D01*
X140903379Y-61800490D01*
X140900500Y-61773707D01*
X140900500Y-61228228D01*
X140889636Y-61138453D01*
X140834113Y-60998217D01*
X140742922Y-60878078D01*
X140622783Y-60786887D01*
X140524679Y-60748045D01*
X140490077Y-60734345D01*
X140490075Y-60734344D01*
X140482547Y-60731364D01*
X140392772Y-60720500D01*
X139847293Y-60720500D01*
X139779172Y-60700498D01*
X139758198Y-60683595D01*
X139462405Y-60387802D01*
X139428379Y-60325490D01*
X139425500Y-60298707D01*
X139425500Y-59631500D01*
X139445502Y-59563379D01*
X139499158Y-59516886D01*
X139551500Y-59505500D01*
X139853834Y-59505500D01*
X139871752Y-59503806D01*
X139877722Y-59503242D01*
X139877723Y-59503242D01*
X139885369Y-59502519D01*
X140013184Y-59457634D01*
X140020754Y-59452042D01*
X140020757Y-59452041D01*
X140114579Y-59382742D01*
X140122150Y-59377150D01*
X140180104Y-59298687D01*
X140197041Y-59275757D01*
X140197042Y-59275754D01*
X140202634Y-59268184D01*
X140247519Y-59140369D01*
X140250500Y-59108834D01*
X140250500Y-58701166D01*
X140247519Y-58669631D01*
X140202634Y-58541816D01*
X140197042Y-58534246D01*
X140197041Y-58534243D01*
X140127742Y-58440421D01*
X140122150Y-58432850D01*
X140114579Y-58427258D01*
X140114576Y-58427255D01*
X140038888Y-58371351D01*
X139995977Y-58314790D01*
X139990457Y-58244008D01*
X140024081Y-58181479D01*
X140038888Y-58168649D01*
X140118091Y-58110149D01*
X140184769Y-58085766D01*
X140192950Y-58085500D01*
X140665809Y-58085500D01*
X140733930Y-58105502D01*
X140780423Y-58159158D01*
X140790896Y-58196362D01*
X140796364Y-58241547D01*
X140799344Y-58249075D01*
X140799345Y-58249077D01*
X140821289Y-58304500D01*
X140851887Y-58381783D01*
X140943078Y-58501922D01*
X141063217Y-58593113D01*
X141090073Y-58603746D01*
X141195923Y-58645655D01*
X141195925Y-58645656D01*
X141203453Y-58648636D01*
X141293228Y-58659500D01*
X142259707Y-58659500D01*
X142327828Y-58679502D01*
X142348802Y-58696405D01*
X142946747Y-59294350D01*
X142956601Y-59305439D01*
X142971793Y-59324709D01*
X142977628Y-59332110D01*
X142985375Y-59337465D01*
X142985377Y-59337466D01*
X143025875Y-59365455D01*
X143029087Y-59367750D01*
X143076316Y-59402634D01*
X143083132Y-59405027D01*
X143089069Y-59409131D01*
X143098049Y-59411971D01*
X143098051Y-59411972D01*
X143118217Y-59418350D01*
X143145019Y-59426826D01*
X143148750Y-59428071D01*
X143195237Y-59444396D01*
X143195239Y-59444396D01*
X143204131Y-59447519D01*
X143211319Y-59447801D01*
X143211378Y-59447812D01*
X143218230Y-59449980D01*
X143224837Y-59450500D01*
X143269500Y-59450500D01*
X143337621Y-59470502D01*
X143384114Y-59524158D01*
X143395500Y-59576500D01*
X143395500Y-59644646D01*
X143398618Y-59670846D01*
X143444061Y-59773153D01*
X143523287Y-59852241D01*
X143533924Y-59856944D01*
X143533926Y-59856945D01*
X143584135Y-59879142D01*
X143625673Y-59897506D01*
X143651354Y-59900500D01*
X144640646Y-59900500D01*
X144644350Y-59900059D01*
X144644353Y-59900059D01*
X144651923Y-59899158D01*
X144666846Y-59897382D01*
X144679875Y-59891595D01*
X144758518Y-59856663D01*
X144769153Y-59851939D01*
X144779915Y-59841159D01*
X144823547Y-59797450D01*
X144848241Y-59772713D01*
X144893506Y-59670327D01*
X144896500Y-59644646D01*
X144896500Y-58355354D01*
X144893382Y-58329154D01*
X144888736Y-58318693D01*
X144852663Y-58237482D01*
X144847939Y-58226847D01*
X144768713Y-58147759D01*
X144758076Y-58143056D01*
X144758074Y-58143055D01*
X144683642Y-58110149D01*
X144666327Y-58102494D01*
X144640646Y-58099500D01*
X143651354Y-58099500D01*
X143647650Y-58099941D01*
X143647647Y-58099941D01*
X143640254Y-58100821D01*
X143625154Y-58102618D01*
X143616514Y-58106456D01*
X143616513Y-58106456D01*
X143534117Y-58143055D01*
X143522847Y-58148061D01*
X143443759Y-58227287D01*
X143429231Y-58260149D01*
X143383395Y-58314362D01*
X143315522Y-58335190D01*
X143247164Y-58316016D01*
X143224897Y-58298294D01*
X143218186Y-58291583D01*
X143184160Y-58229271D01*
X143182194Y-58187353D01*
X143186500Y-58151772D01*
X143186500Y-57241228D01*
X143175636Y-57151453D01*
X143120113Y-57011217D01*
X143028922Y-56891078D01*
X142908783Y-56799887D01*
X142804723Y-56758687D01*
X142776077Y-56747345D01*
X142776075Y-56747344D01*
X142768547Y-56744364D01*
X142678772Y-56733500D01*
X141293228Y-56733500D01*
X141203453Y-56744364D01*
X141195925Y-56747344D01*
X141195923Y-56747345D01*
X141167277Y-56758687D01*
X141063217Y-56799887D01*
X140943078Y-56891078D01*
X140851887Y-57011217D01*
X140816201Y-57101351D01*
X140814802Y-57104884D01*
X140771127Y-57160858D01*
X140697650Y-57184500D01*
X140192950Y-57184500D01*
X140124829Y-57164498D01*
X140118091Y-57159851D01*
X140038888Y-57101351D01*
X139995977Y-57044790D01*
X139990457Y-56974009D01*
X140024081Y-56911479D01*
X140038888Y-56898649D01*
X140114576Y-56842745D01*
X140114579Y-56842742D01*
X140122150Y-56837150D01*
X140152009Y-56796725D01*
X140197041Y-56735757D01*
X140197042Y-56735754D01*
X140202634Y-56728184D01*
X140247519Y-56600369D01*
X140250500Y-56568834D01*
X140250500Y-56161166D01*
X140247519Y-56129631D01*
X140202634Y-56001816D01*
X140197042Y-55994246D01*
X140197041Y-55994243D01*
X140127742Y-55900421D01*
X140122150Y-55892850D01*
X140092214Y-55870739D01*
X140020757Y-55817959D01*
X140020754Y-55817958D01*
X140013184Y-55812366D01*
X139885369Y-55767481D01*
X139877723Y-55766758D01*
X139877722Y-55766758D01*
X139871752Y-55766194D01*
X139853834Y-55764500D01*
X138096166Y-55764500D01*
X138078248Y-55766194D01*
X138072278Y-55766758D01*
X138072277Y-55766758D01*
X138064631Y-55767481D01*
X137936816Y-55812366D01*
X137929246Y-55817958D01*
X137929243Y-55817959D01*
X137857786Y-55870739D01*
X137827850Y-55892850D01*
X137826559Y-55894597D01*
X137767601Y-55926792D01*
X137760576Y-55928082D01*
X137760353Y-55928151D01*
X137751038Y-55929551D01*
X137744525Y-55932679D01*
X137737427Y-55933975D01*
X137685347Y-55961028D01*
X137681845Y-55962777D01*
X137640189Y-55982780D01*
X137628921Y-55988191D01*
X137623636Y-55993077D01*
X137623589Y-55993108D01*
X137617211Y-55996421D01*
X137612172Y-56000725D01*
X137574945Y-56037952D01*
X137571380Y-56041381D01*
X137529444Y-56080146D01*
X137525751Y-56086505D01*
X137520234Y-56092663D01*
X136455650Y-57157247D01*
X136444561Y-57167101D01*
X136425291Y-57182293D01*
X136425289Y-57182295D01*
X136417890Y-57188128D01*
X136412535Y-57195875D01*
X136412534Y-57195877D01*
X136384545Y-57236375D01*
X136382250Y-57239587D01*
X136347366Y-57286816D01*
X136344973Y-57293632D01*
X136340869Y-57299569D01*
X136338029Y-57308549D01*
X136338028Y-57308551D01*
X136336596Y-57313079D01*
X136324177Y-57352350D01*
X136323182Y-57355495D01*
X136321929Y-57359250D01*
X136306672Y-57402698D01*
X136302481Y-57414631D01*
X136302199Y-57421819D01*
X136302188Y-57421878D01*
X136300020Y-57428730D01*
X136299500Y-57435337D01*
X136299500Y-57488016D01*
X136299403Y-57492962D01*
X136297162Y-57549994D01*
X136299046Y-57557100D01*
X136299500Y-57565347D01*
X136299500Y-64511207D01*
X136279498Y-64579328D01*
X136262595Y-64600302D01*
X131350302Y-69512595D01*
X131287990Y-69546621D01*
X131261207Y-69549500D01*
X119326500Y-69549500D01*
X119258379Y-69529498D01*
X119211886Y-69475842D01*
X119200500Y-69423500D01*
X119200500Y-59284220D01*
X119201373Y-59269411D01*
X119204257Y-59245043D01*
X119205364Y-59235690D01*
X119203672Y-59226426D01*
X119203672Y-59226422D01*
X119194827Y-59177989D01*
X119194178Y-59174088D01*
X119186851Y-59125355D01*
X119186849Y-59125347D01*
X119185449Y-59116038D01*
X119182323Y-59109528D01*
X119181026Y-59102427D01*
X119172140Y-59085321D01*
X119153982Y-59050363D01*
X119152214Y-59046825D01*
X119130886Y-59002411D01*
X119126809Y-58993921D01*
X119121926Y-58988640D01*
X119121891Y-58988588D01*
X119118580Y-58982212D01*
X119114276Y-58977172D01*
X119077036Y-58939932D01*
X119073606Y-58936366D01*
X119041245Y-58901357D01*
X119041242Y-58901355D01*
X119034854Y-58894444D01*
X119028498Y-58890753D01*
X119022344Y-58885240D01*
X113211856Y-53074753D01*
X116796514Y-53074753D01*
X116797201Y-53081760D01*
X116797201Y-53081763D01*
X116798005Y-53089963D01*
X116814039Y-53253486D01*
X116816262Y-53260168D01*
X116816262Y-53260169D01*
X116859383Y-53389796D01*
X116870726Y-53423896D01*
X116874373Y-53429918D01*
X116956438Y-53565423D01*
X116963759Y-53577512D01*
X117088514Y-53706699D01*
X117238789Y-53805036D01*
X117407116Y-53867636D01*
X117414097Y-53868567D01*
X117414099Y-53868568D01*
X117578149Y-53890457D01*
X117578153Y-53890457D01*
X117585130Y-53891388D01*
X117592142Y-53890750D01*
X117592146Y-53890750D01*
X117756960Y-53875751D01*
X117756961Y-53875751D01*
X117763981Y-53875112D01*
X117934782Y-53819615D01*
X117975551Y-53795312D01*
X118082992Y-53731265D01*
X118082994Y-53731264D01*
X118089044Y-53727657D01*
X118219099Y-53603807D01*
X118236570Y-53577512D01*
X118314582Y-53460093D01*
X118318483Y-53454222D01*
X118360723Y-53343025D01*
X118379757Y-53292919D01*
X118379758Y-53292914D01*
X118382257Y-53286336D01*
X118392703Y-53212010D01*
X118406700Y-53112416D01*
X118406700Y-53112411D01*
X118407251Y-53108493D01*
X118407565Y-53086000D01*
X118390638Y-52935093D01*
X119262463Y-52935093D01*
X119279899Y-53142730D01*
X119337333Y-53343025D01*
X119340151Y-53348507D01*
X119340152Y-53348511D01*
X119429756Y-53522862D01*
X119429759Y-53522866D01*
X119432577Y-53528350D01*
X119436408Y-53533183D01*
X119558174Y-53686816D01*
X119558179Y-53686821D01*
X119562003Y-53691646D01*
X119566696Y-53695640D01*
X119566697Y-53695641D01*
X119700806Y-53809776D01*
X119720683Y-53826693D01*
X119726061Y-53829699D01*
X119726063Y-53829700D01*
X119789550Y-53865181D01*
X119902571Y-53928346D01*
X120100740Y-53992735D01*
X120307641Y-54017407D01*
X120313776Y-54016935D01*
X120313778Y-54016935D01*
X120509252Y-54001894D01*
X120509256Y-54001893D01*
X120515394Y-54001421D01*
X120716085Y-53945387D01*
X120721589Y-53942607D01*
X120721591Y-53942606D01*
X120896570Y-53854218D01*
X120896572Y-53854217D01*
X120902071Y-53851439D01*
X120921893Y-53835952D01*
X120987885Y-53809776D01*
X121057556Y-53823434D01*
X121108783Y-53872590D01*
X121125302Y-53941638D01*
X121101868Y-54008656D01*
X121088559Y-54024338D01*
X119955650Y-55157247D01*
X119944561Y-55167101D01*
X119925291Y-55182293D01*
X119925289Y-55182295D01*
X119917890Y-55188128D01*
X119912535Y-55195875D01*
X119912534Y-55195877D01*
X119884545Y-55236375D01*
X119882250Y-55239587D01*
X119847366Y-55286816D01*
X119844973Y-55293632D01*
X119840869Y-55299569D01*
X119838029Y-55308549D01*
X119838028Y-55308551D01*
X119823182Y-55355495D01*
X119821929Y-55359250D01*
X119806360Y-55403586D01*
X119802481Y-55414631D01*
X119802199Y-55421819D01*
X119802188Y-55421878D01*
X119800020Y-55428730D01*
X119799500Y-55435337D01*
X119799500Y-55488016D01*
X119799403Y-55492962D01*
X119797162Y-55549994D01*
X119799046Y-55557100D01*
X119799500Y-55565347D01*
X119799500Y-58715780D01*
X119798627Y-58730589D01*
X119794636Y-58764310D01*
X119796328Y-58773574D01*
X119796328Y-58773575D01*
X119805172Y-58822001D01*
X119805822Y-58825904D01*
X119811668Y-58864783D01*
X119814551Y-58883962D01*
X119817679Y-58890475D01*
X119818975Y-58897573D01*
X119846025Y-58949647D01*
X119847768Y-58953137D01*
X119873191Y-59006079D01*
X119878077Y-59011365D01*
X119878110Y-59011413D01*
X119881421Y-59017788D01*
X119885725Y-59022828D01*
X119922952Y-59060055D01*
X119926381Y-59063620D01*
X119965146Y-59105556D01*
X119971505Y-59109249D01*
X119977663Y-59114766D01*
X121407247Y-60544350D01*
X121417101Y-60555439D01*
X121431433Y-60573618D01*
X121438128Y-60582110D01*
X121445875Y-60587465D01*
X121445877Y-60587466D01*
X121462207Y-60598752D01*
X121484668Y-60614275D01*
X121486375Y-60615455D01*
X121489587Y-60617750D01*
X121536816Y-60652634D01*
X121543632Y-60655027D01*
X121549569Y-60659131D01*
X121558549Y-60661971D01*
X121558551Y-60661972D01*
X121588903Y-60671571D01*
X121602769Y-60675956D01*
X121605491Y-60676817D01*
X121609245Y-60678069D01*
X121655740Y-60694397D01*
X121655742Y-60694397D01*
X121664631Y-60697519D01*
X121671819Y-60697801D01*
X121671878Y-60697812D01*
X121678730Y-60699980D01*
X121685337Y-60700500D01*
X121738016Y-60700500D01*
X121742962Y-60700597D01*
X121799994Y-60702838D01*
X121807100Y-60700954D01*
X121815344Y-60700500D01*
X124423847Y-60700500D01*
X124491968Y-60720502D01*
X124538461Y-60774158D01*
X124549750Y-60831444D01*
X124549694Y-60832874D01*
X124549500Y-60835337D01*
X124549500Y-60888016D01*
X124549403Y-60892962D01*
X124547162Y-60949994D01*
X124549046Y-60957100D01*
X124549500Y-60965347D01*
X124549500Y-61911426D01*
X124529498Y-61979547D01*
X124499680Y-62011788D01*
X124407078Y-62082078D01*
X124315887Y-62202217D01*
X124260364Y-62342453D01*
X124249500Y-62432228D01*
X124249500Y-63767772D01*
X124260364Y-63857547D01*
X124263344Y-63865075D01*
X124263345Y-63865077D01*
X124290700Y-63934168D01*
X124315887Y-63997783D01*
X124407078Y-64117922D01*
X124527217Y-64209113D01*
X124657383Y-64260649D01*
X124713357Y-64304323D01*
X124737000Y-64377801D01*
X124737000Y-65039420D01*
X124716998Y-65107541D01*
X124663342Y-65154034D01*
X124646890Y-65159827D01*
X124642453Y-65160364D01*
X124502217Y-65215887D01*
X124382078Y-65307078D01*
X124290887Y-65427217D01*
X124235364Y-65567453D01*
X124224500Y-65657228D01*
X124224500Y-67042772D01*
X124235364Y-67132547D01*
X124238344Y-67140075D01*
X124238345Y-67140077D01*
X124260835Y-67196881D01*
X124290887Y-67272783D01*
X124382078Y-67392922D01*
X124502217Y-67484113D01*
X124565832Y-67509300D01*
X124634923Y-67536655D01*
X124634925Y-67536656D01*
X124642453Y-67539636D01*
X124732228Y-67550500D01*
X125642772Y-67550500D01*
X125732547Y-67539636D01*
X125740075Y-67536656D01*
X125740077Y-67536655D01*
X125809168Y-67509300D01*
X125872783Y-67484113D01*
X125992922Y-67392922D01*
X126084113Y-67272783D01*
X126114165Y-67196881D01*
X126136655Y-67140077D01*
X126136656Y-67140075D01*
X126139636Y-67132547D01*
X126150500Y-67042772D01*
X126150500Y-65657228D01*
X126139636Y-65567453D01*
X126084113Y-65427217D01*
X125992922Y-65307078D01*
X125872783Y-65215887D01*
X125732547Y-65160364D01*
X125730590Y-65160127D01*
X125671882Y-65125387D01*
X125640028Y-65061937D01*
X125638000Y-65039420D01*
X125638000Y-64385580D01*
X125658002Y-64317459D01*
X125711658Y-64270966D01*
X125728110Y-64265173D01*
X125732547Y-64264636D01*
X125872783Y-64209113D01*
X125992922Y-64117922D01*
X126084113Y-63997783D01*
X126109300Y-63934168D01*
X126136655Y-63865077D01*
X126136656Y-63865075D01*
X126139636Y-63857547D01*
X126150500Y-63767772D01*
X127349500Y-63767772D01*
X127360364Y-63857547D01*
X127363344Y-63865075D01*
X127363345Y-63865077D01*
X127390700Y-63934168D01*
X127415887Y-63997783D01*
X127507078Y-64117922D01*
X127627217Y-64209113D01*
X127690832Y-64234300D01*
X127759923Y-64261655D01*
X127759925Y-64261656D01*
X127767453Y-64264636D01*
X127857228Y-64275500D01*
X128742772Y-64275500D01*
X128832547Y-64264636D01*
X128840075Y-64261656D01*
X128840077Y-64261655D01*
X128909168Y-64234300D01*
X128972783Y-64209113D01*
X129092922Y-64117922D01*
X129184113Y-63997783D01*
X129209300Y-63934168D01*
X129236655Y-63865077D01*
X129236656Y-63865075D01*
X129239636Y-63857547D01*
X129250500Y-63767772D01*
X129250500Y-63676500D01*
X129270502Y-63608379D01*
X129324158Y-63561886D01*
X129376500Y-63550500D01*
X130124026Y-63550500D01*
X130192147Y-63570502D01*
X130238640Y-63624158D01*
X130249500Y-63667714D01*
X130249500Y-63667772D01*
X130260364Y-63757547D01*
X130315887Y-63897783D01*
X130407078Y-64017922D01*
X130527217Y-64109113D01*
X130562570Y-64123110D01*
X130659923Y-64161655D01*
X130659925Y-64161656D01*
X130667453Y-64164636D01*
X130757228Y-64175500D01*
X131642772Y-64175500D01*
X131732547Y-64164636D01*
X131740075Y-64161656D01*
X131740077Y-64161655D01*
X131837430Y-64123110D01*
X131872783Y-64109113D01*
X131992922Y-64017922D01*
X132084113Y-63897783D01*
X132139636Y-63757547D01*
X132150500Y-63667772D01*
X132150500Y-62332228D01*
X132139636Y-62242453D01*
X132134131Y-62228547D01*
X132087275Y-62110204D01*
X132084113Y-62102217D01*
X131992922Y-61982078D01*
X131872783Y-61890887D01*
X131778561Y-61853582D01*
X131740077Y-61838345D01*
X131740075Y-61838344D01*
X131732547Y-61835364D01*
X131642772Y-61824500D01*
X130757228Y-61824500D01*
X130667453Y-61835364D01*
X130659925Y-61838344D01*
X130659923Y-61838345D01*
X130621439Y-61853582D01*
X130527217Y-61890887D01*
X130407078Y-61982078D01*
X130315887Y-62102217D01*
X130312725Y-62110204D01*
X130265870Y-62228547D01*
X130260364Y-62242453D01*
X130249500Y-62332228D01*
X130249500Y-62523500D01*
X130229498Y-62591621D01*
X130175842Y-62638114D01*
X130123500Y-62649500D01*
X129376500Y-62649500D01*
X129308379Y-62629498D01*
X129261886Y-62575842D01*
X129250500Y-62523500D01*
X129250500Y-62432228D01*
X129239636Y-62342453D01*
X129184113Y-62202217D01*
X129092922Y-62082078D01*
X128972783Y-61990887D01*
X128902520Y-61963068D01*
X128840077Y-61938345D01*
X128840075Y-61938344D01*
X128832547Y-61935364D01*
X128742772Y-61924500D01*
X127857228Y-61924500D01*
X127767453Y-61935364D01*
X127759925Y-61938344D01*
X127759923Y-61938345D01*
X127697480Y-61963068D01*
X127627217Y-61990887D01*
X127507078Y-62082078D01*
X127415887Y-62202217D01*
X127360364Y-62342453D01*
X127349500Y-62432228D01*
X127349500Y-63767772D01*
X126150500Y-63767772D01*
X126150500Y-62432228D01*
X126139636Y-62342453D01*
X126084113Y-62202217D01*
X125992922Y-62082078D01*
X125872783Y-61990887D01*
X125802520Y-61963068D01*
X125740077Y-61938345D01*
X125740075Y-61938344D01*
X125732547Y-61935364D01*
X125642772Y-61924500D01*
X125576500Y-61924500D01*
X125508379Y-61904498D01*
X125461886Y-61850842D01*
X125450500Y-61798500D01*
X125450500Y-61138793D01*
X125470502Y-61070672D01*
X125487405Y-61049698D01*
X125799698Y-60737405D01*
X125862010Y-60703379D01*
X125888793Y-60700500D01*
X130465780Y-60700500D01*
X130480589Y-60701373D01*
X130514310Y-60705364D01*
X130523574Y-60703672D01*
X130523575Y-60703672D01*
X130572001Y-60694828D01*
X130575904Y-60694178D01*
X130624645Y-60686850D01*
X130624646Y-60686850D01*
X130633962Y-60685449D01*
X130640475Y-60682321D01*
X130647573Y-60681025D01*
X130699647Y-60653975D01*
X130703137Y-60652232D01*
X130756079Y-60626809D01*
X130761365Y-60621923D01*
X130761413Y-60621890D01*
X130767788Y-60618579D01*
X130772828Y-60614275D01*
X130810055Y-60577048D01*
X130813621Y-60573618D01*
X130829677Y-60558776D01*
X130855556Y-60534854D01*
X130859249Y-60528495D01*
X130864766Y-60522337D01*
X132534405Y-58852698D01*
X132596717Y-58818672D01*
X132667532Y-58823737D01*
X132724368Y-58866284D01*
X132749179Y-58932804D01*
X132749500Y-58941793D01*
X132749500Y-59108834D01*
X132752481Y-59140369D01*
X132797366Y-59268184D01*
X132802958Y-59275754D01*
X132802959Y-59275757D01*
X132819896Y-59298687D01*
X132877850Y-59377150D01*
X132885421Y-59382742D01*
X132979243Y-59452041D01*
X132979246Y-59452042D01*
X132986816Y-59457634D01*
X133114631Y-59502519D01*
X133122277Y-59503242D01*
X133122278Y-59503242D01*
X133128248Y-59503806D01*
X133146166Y-59505500D01*
X133723500Y-59505500D01*
X133791621Y-59525502D01*
X133838114Y-59579158D01*
X133849500Y-59631500D01*
X133849500Y-61717595D01*
X133829498Y-61785716D01*
X133775842Y-61832209D01*
X133767383Y-61835187D01*
X133767453Y-61835364D01*
X133627217Y-61890887D01*
X133507078Y-61982078D01*
X133415887Y-62102217D01*
X133412725Y-62110204D01*
X133365870Y-62228547D01*
X133360364Y-62242453D01*
X133349500Y-62332228D01*
X133349500Y-63261207D01*
X133329498Y-63329328D01*
X133312595Y-63350302D01*
X130800302Y-65862595D01*
X130737990Y-65896621D01*
X130711207Y-65899500D01*
X129401500Y-65899500D01*
X129333379Y-65879498D01*
X129286886Y-65825842D01*
X129275500Y-65773500D01*
X129275500Y-65657228D01*
X129264636Y-65567453D01*
X129209113Y-65427217D01*
X129117922Y-65307078D01*
X128997783Y-65215887D01*
X128883080Y-65170473D01*
X128865077Y-65163345D01*
X128865075Y-65163344D01*
X128857547Y-65160364D01*
X128767772Y-65149500D01*
X127857228Y-65149500D01*
X127767453Y-65160364D01*
X127759925Y-65163344D01*
X127759923Y-65163345D01*
X127741920Y-65170473D01*
X127627217Y-65215887D01*
X127507078Y-65307078D01*
X127415887Y-65427217D01*
X127360364Y-65567453D01*
X127349500Y-65657228D01*
X127349500Y-67042772D01*
X127360364Y-67132547D01*
X127363344Y-67140075D01*
X127363345Y-67140077D01*
X127385835Y-67196881D01*
X127415887Y-67272783D01*
X127507078Y-67392922D01*
X127627217Y-67484113D01*
X127690832Y-67509300D01*
X127759923Y-67536655D01*
X127759925Y-67536656D01*
X127767453Y-67539636D01*
X127857228Y-67550500D01*
X128767772Y-67550500D01*
X128857547Y-67539636D01*
X128865075Y-67536656D01*
X128865077Y-67536655D01*
X128934168Y-67509300D01*
X128997783Y-67484113D01*
X129117922Y-67392922D01*
X129209113Y-67272783D01*
X129239165Y-67196881D01*
X129261655Y-67140077D01*
X129261656Y-67140075D01*
X129264636Y-67132547D01*
X129275500Y-67042772D01*
X129275500Y-66926500D01*
X129295502Y-66858379D01*
X129349158Y-66811886D01*
X129401500Y-66800500D01*
X130915780Y-66800500D01*
X130930589Y-66801373D01*
X130964310Y-66805364D01*
X130973574Y-66803672D01*
X130973575Y-66803672D01*
X131022001Y-66794828D01*
X131025904Y-66794178D01*
X131074645Y-66786850D01*
X131074646Y-66786850D01*
X131083962Y-66785449D01*
X131090475Y-66782321D01*
X131097573Y-66781025D01*
X131149647Y-66753975D01*
X131153137Y-66752232D01*
X131206079Y-66726809D01*
X131211365Y-66721923D01*
X131211413Y-66721890D01*
X131217788Y-66718579D01*
X131222828Y-66714275D01*
X131260055Y-66677048D01*
X131263621Y-66673618D01*
X131298641Y-66641246D01*
X131305556Y-66634854D01*
X131309249Y-66628495D01*
X131314766Y-66622337D01*
X133728567Y-64208536D01*
X133790879Y-64174510D01*
X133832799Y-64172544D01*
X133847623Y-64174338D01*
X133857228Y-64175500D01*
X134742772Y-64175500D01*
X134832547Y-64164636D01*
X134840075Y-64161656D01*
X134840077Y-64161655D01*
X134937430Y-64123110D01*
X134972783Y-64109113D01*
X135092922Y-64017922D01*
X135184113Y-63897783D01*
X135239636Y-63757547D01*
X135250500Y-63667772D01*
X135250500Y-62332228D01*
X135239636Y-62242453D01*
X135234131Y-62228547D01*
X135187275Y-62110204D01*
X135184113Y-62102217D01*
X135092922Y-61982078D01*
X134972783Y-61890887D01*
X134832547Y-61835364D01*
X134833606Y-61832688D01*
X134784388Y-61803568D01*
X134752530Y-61740121D01*
X134750500Y-61717595D01*
X134750500Y-59631500D01*
X134770502Y-59563379D01*
X134824158Y-59516886D01*
X134876500Y-59505500D01*
X134903834Y-59505500D01*
X134921752Y-59503806D01*
X134927722Y-59503242D01*
X134927723Y-59503242D01*
X134935369Y-59502519D01*
X135063184Y-59457634D01*
X135070754Y-59452042D01*
X135070757Y-59452041D01*
X135164579Y-59382742D01*
X135172150Y-59377150D01*
X135230104Y-59298687D01*
X135247041Y-59275757D01*
X135247042Y-59275754D01*
X135252634Y-59268184D01*
X135297519Y-59140369D01*
X135300500Y-59108834D01*
X135300500Y-58701166D01*
X135297519Y-58669631D01*
X135252634Y-58541816D01*
X135247042Y-58534246D01*
X135247041Y-58534243D01*
X135177742Y-58440421D01*
X135172150Y-58432850D01*
X135164579Y-58427258D01*
X135164576Y-58427255D01*
X135088888Y-58371351D01*
X135045977Y-58314790D01*
X135040457Y-58244008D01*
X135074081Y-58181479D01*
X135088888Y-58168649D01*
X135164576Y-58112745D01*
X135164579Y-58112742D01*
X135172150Y-58107150D01*
X135188141Y-58085500D01*
X135247041Y-58005757D01*
X135247042Y-58005754D01*
X135252634Y-57998184D01*
X135297519Y-57870369D01*
X135300500Y-57838834D01*
X135300500Y-57431166D01*
X135297519Y-57399631D01*
X135252634Y-57271816D01*
X135247042Y-57264246D01*
X135247041Y-57264243D01*
X135177742Y-57170421D01*
X135172150Y-57162850D01*
X135164579Y-57157258D01*
X135164576Y-57157255D01*
X135088888Y-57101351D01*
X135045977Y-57044790D01*
X135040457Y-56974008D01*
X135074081Y-56911479D01*
X135088888Y-56898649D01*
X135164576Y-56842745D01*
X135164579Y-56842742D01*
X135172150Y-56837150D01*
X135202009Y-56796725D01*
X135247041Y-56735757D01*
X135247042Y-56735754D01*
X135252634Y-56728184D01*
X135297519Y-56600369D01*
X135300500Y-56568834D01*
X135300500Y-56161166D01*
X135297519Y-56129631D01*
X135252634Y-56001816D01*
X135247042Y-55994246D01*
X135247041Y-55994243D01*
X135177742Y-55900421D01*
X135172150Y-55892850D01*
X135164579Y-55887258D01*
X135164576Y-55887255D01*
X135088888Y-55831351D01*
X135045977Y-55774790D01*
X135040457Y-55704008D01*
X135074081Y-55641479D01*
X135088888Y-55628649D01*
X135164576Y-55572745D01*
X135164579Y-55572742D01*
X135172150Y-55567150D01*
X135226946Y-55492963D01*
X135247041Y-55465757D01*
X135247042Y-55465754D01*
X135252634Y-55458184D01*
X135297519Y-55330369D01*
X135300500Y-55298834D01*
X135300500Y-54891166D01*
X135297519Y-54859631D01*
X135252634Y-54731816D01*
X135247042Y-54724246D01*
X135247041Y-54724243D01*
X135177742Y-54630421D01*
X135172150Y-54622850D01*
X135125796Y-54588612D01*
X135070757Y-54547959D01*
X135070754Y-54547958D01*
X135063184Y-54542366D01*
X134935369Y-54497481D01*
X134927723Y-54496758D01*
X134927722Y-54496758D01*
X134921752Y-54496194D01*
X134903834Y-54494500D01*
X134601500Y-54494500D01*
X134533379Y-54474498D01*
X134486886Y-54420842D01*
X134475500Y-54368500D01*
X134475500Y-53051500D01*
X134495502Y-52983379D01*
X134549158Y-52936886D01*
X134601500Y-52925500D01*
X134642772Y-52925500D01*
X134732547Y-52914636D01*
X134740075Y-52911656D01*
X134740077Y-52911655D01*
X134825499Y-52877834D01*
X134872783Y-52859113D01*
X134992922Y-52767922D01*
X135084113Y-52647783D01*
X135128654Y-52535284D01*
X135136655Y-52515077D01*
X135136656Y-52515075D01*
X135139636Y-52507547D01*
X135150500Y-52417772D01*
X136349500Y-52417772D01*
X136360364Y-52507547D01*
X136363344Y-52515075D01*
X136363345Y-52515077D01*
X136371346Y-52535284D01*
X136415887Y-52647783D01*
X136507078Y-52767922D01*
X136627217Y-52859113D01*
X136674501Y-52877834D01*
X136759923Y-52911655D01*
X136759925Y-52911656D01*
X136767453Y-52914636D01*
X136857228Y-52925500D01*
X137742772Y-52925500D01*
X137832547Y-52914636D01*
X137840075Y-52911656D01*
X137840077Y-52911655D01*
X137925499Y-52877834D01*
X137972783Y-52859113D01*
X138092922Y-52767922D01*
X138184113Y-52647783D01*
X138228654Y-52535284D01*
X138236655Y-52515077D01*
X138236656Y-52515075D01*
X138239636Y-52507547D01*
X138250500Y-52417772D01*
X138250500Y-52326500D01*
X138270502Y-52258379D01*
X138324158Y-52211886D01*
X138376500Y-52200500D01*
X139123500Y-52200500D01*
X139191621Y-52220502D01*
X139238114Y-52274158D01*
X139249500Y-52326500D01*
X139249500Y-52417772D01*
X139260364Y-52507547D01*
X139263344Y-52515075D01*
X139263345Y-52515077D01*
X139271346Y-52535284D01*
X139315887Y-52647783D01*
X139407078Y-52767922D01*
X139527217Y-52859113D01*
X139574501Y-52877834D01*
X139659923Y-52911655D01*
X139659925Y-52911656D01*
X139667453Y-52914636D01*
X139757228Y-52925500D01*
X140642772Y-52925500D01*
X140732547Y-52914636D01*
X140740075Y-52911656D01*
X140740077Y-52911655D01*
X140825499Y-52877834D01*
X140872783Y-52859113D01*
X140992922Y-52767922D01*
X141084113Y-52647783D01*
X141128654Y-52535284D01*
X141136655Y-52515077D01*
X141136656Y-52515075D01*
X141139636Y-52507547D01*
X141150500Y-52417772D01*
X141150500Y-51082228D01*
X141139636Y-50992453D01*
X141084113Y-50852217D01*
X140992922Y-50732078D01*
X140872783Y-50640887D01*
X140809168Y-50615700D01*
X140740077Y-50588345D01*
X140740075Y-50588344D01*
X140732547Y-50585364D01*
X140642772Y-50574500D01*
X139757228Y-50574500D01*
X139667453Y-50585364D01*
X139659925Y-50588344D01*
X139659923Y-50588345D01*
X139590832Y-50615700D01*
X139527217Y-50640887D01*
X139407078Y-50732078D01*
X139315887Y-50852217D01*
X139260364Y-50992453D01*
X139249500Y-51082228D01*
X139249500Y-51173500D01*
X139229498Y-51241621D01*
X139175842Y-51288114D01*
X139123500Y-51299500D01*
X138376500Y-51299500D01*
X138308379Y-51279498D01*
X138261886Y-51225842D01*
X138250500Y-51173500D01*
X138250500Y-51082228D01*
X138239636Y-50992453D01*
X138184113Y-50852217D01*
X138092922Y-50732078D01*
X137972783Y-50640887D01*
X137909168Y-50615700D01*
X137840077Y-50588345D01*
X137840075Y-50588344D01*
X137832547Y-50585364D01*
X137742772Y-50574500D01*
X136857228Y-50574500D01*
X136767453Y-50585364D01*
X136759925Y-50588344D01*
X136759923Y-50588345D01*
X136690832Y-50615700D01*
X136627217Y-50640887D01*
X136507078Y-50732078D01*
X136415887Y-50852217D01*
X136360364Y-50992453D01*
X136349500Y-51082228D01*
X136349500Y-52417772D01*
X135150500Y-52417772D01*
X135150500Y-51082228D01*
X135139636Y-50992453D01*
X135084113Y-50852217D01*
X134992922Y-50732078D01*
X134872783Y-50640887D01*
X134781367Y-50604693D01*
X134725394Y-50561020D01*
X134701918Y-50494017D01*
X134718392Y-50424959D01*
X134738656Y-50398447D01*
X136149698Y-48987405D01*
X136212010Y-48953379D01*
X136238793Y-48950500D01*
X139348500Y-48950500D01*
X139416621Y-48970502D01*
X139463114Y-49024158D01*
X139474500Y-49076500D01*
X139474500Y-49192772D01*
X139485364Y-49282547D01*
X139540887Y-49422783D01*
X139632078Y-49542922D01*
X139752217Y-49634113D01*
X139815832Y-49659300D01*
X139884923Y-49686655D01*
X139884925Y-49686656D01*
X139892453Y-49689636D01*
X139982228Y-49700500D01*
X140892772Y-49700500D01*
X140982547Y-49689636D01*
X140990075Y-49686656D01*
X140990077Y-49686655D01*
X141059168Y-49659300D01*
X141122783Y-49634113D01*
X141242922Y-49542922D01*
X141334113Y-49422783D01*
X141389636Y-49282547D01*
X141400500Y-49192772D01*
X141400500Y-47807228D01*
X141389636Y-47717453D01*
X141334113Y-47577217D01*
X141242922Y-47457078D01*
X141122783Y-47365887D01*
X141059168Y-47340700D01*
X140990077Y-47313345D01*
X140990075Y-47313344D01*
X140982547Y-47310364D01*
X140892772Y-47299500D01*
X139982228Y-47299500D01*
X139892453Y-47310364D01*
X139884925Y-47313344D01*
X139884923Y-47313345D01*
X139815832Y-47340700D01*
X139752217Y-47365887D01*
X139632078Y-47457078D01*
X139540887Y-47577217D01*
X139485364Y-47717453D01*
X139474500Y-47807228D01*
X139474500Y-47923500D01*
X139454498Y-47991621D01*
X139400842Y-48038114D01*
X139348500Y-48049500D01*
X136034219Y-48049500D01*
X136019410Y-48048627D01*
X136016593Y-48048294D01*
X135985689Y-48044636D01*
X135976426Y-48046328D01*
X135976419Y-48046328D01*
X135927982Y-48055175D01*
X135924083Y-48055825D01*
X135901353Y-48059242D01*
X135875356Y-48063150D01*
X135875355Y-48063150D01*
X135866038Y-48064551D01*
X135859525Y-48067679D01*
X135852427Y-48068975D01*
X135800347Y-48096028D01*
X135796845Y-48097777D01*
X135752413Y-48119113D01*
X135743921Y-48123191D01*
X135738636Y-48128077D01*
X135738589Y-48128108D01*
X135732211Y-48131421D01*
X135727172Y-48135725D01*
X135689945Y-48172952D01*
X135686380Y-48176381D01*
X135644444Y-48215146D01*
X135640751Y-48221505D01*
X135635234Y-48227663D01*
X133905650Y-49957247D01*
X133894561Y-49967101D01*
X133875291Y-49982293D01*
X133875289Y-49982295D01*
X133867890Y-49988128D01*
X133862535Y-49995875D01*
X133862534Y-49995877D01*
X133834545Y-50036375D01*
X133832250Y-50039587D01*
X133797366Y-50086816D01*
X133794973Y-50093632D01*
X133790869Y-50099569D01*
X133788029Y-50108549D01*
X133788028Y-50108551D01*
X133773182Y-50155495D01*
X133771929Y-50159250D01*
X133752481Y-50214631D01*
X133752199Y-50221819D01*
X133752188Y-50221878D01*
X133750020Y-50228730D01*
X133749500Y-50235337D01*
X133749500Y-50288016D01*
X133749403Y-50292962D01*
X133747162Y-50349994D01*
X133749046Y-50357100D01*
X133749500Y-50365347D01*
X133749500Y-50467595D01*
X133729498Y-50535716D01*
X133675842Y-50582209D01*
X133667383Y-50585187D01*
X133667453Y-50585364D01*
X133527217Y-50640887D01*
X133407078Y-50732078D01*
X133315887Y-50852217D01*
X133260364Y-50992453D01*
X133249500Y-51082228D01*
X133249500Y-52417772D01*
X133260364Y-52507547D01*
X133263344Y-52515075D01*
X133263345Y-52515077D01*
X133271346Y-52535284D01*
X133315887Y-52647783D01*
X133407078Y-52767922D01*
X133517487Y-52851727D01*
X133524680Y-52857187D01*
X133566847Y-52914305D01*
X133574500Y-52957550D01*
X133574500Y-54368500D01*
X133554498Y-54436621D01*
X133500842Y-54483114D01*
X133448500Y-54494500D01*
X133146166Y-54494500D01*
X133128248Y-54496194D01*
X133122278Y-54496758D01*
X133122277Y-54496758D01*
X133114631Y-54497481D01*
X132986816Y-54542366D01*
X132979246Y-54547958D01*
X132979243Y-54547959D01*
X132924204Y-54588612D01*
X132877850Y-54622850D01*
X132872258Y-54630421D01*
X132802959Y-54724243D01*
X132802958Y-54724246D01*
X132797366Y-54731816D01*
X132752481Y-54859631D01*
X132749500Y-54891166D01*
X132749500Y-55298834D01*
X132752481Y-55330369D01*
X132797366Y-55458184D01*
X132802958Y-55465754D01*
X132802959Y-55465757D01*
X132823054Y-55492963D01*
X132877850Y-55567150D01*
X132885421Y-55572742D01*
X132885424Y-55572745D01*
X132961112Y-55628649D01*
X133004023Y-55685210D01*
X133009543Y-55755992D01*
X132975919Y-55818521D01*
X132961112Y-55831351D01*
X132881909Y-55889851D01*
X132815231Y-55914234D01*
X132807050Y-55914500D01*
X131919220Y-55914500D01*
X131904411Y-55913627D01*
X131880043Y-55910743D01*
X131870690Y-55909636D01*
X131861426Y-55911328D01*
X131861425Y-55911328D01*
X131812999Y-55920172D01*
X131809096Y-55920822D01*
X131760355Y-55928150D01*
X131760354Y-55928150D01*
X131751038Y-55929551D01*
X131744525Y-55932679D01*
X131737427Y-55933975D01*
X131685353Y-55961025D01*
X131681863Y-55962768D01*
X131664048Y-55971323D01*
X131593983Y-55982780D01*
X131593248Y-55982642D01*
X131592547Y-55982364D01*
X131590385Y-55982102D01*
X131590383Y-55982102D01*
X131567021Y-55979275D01*
X131502772Y-55971500D01*
X130117228Y-55971500D01*
X130027453Y-55982364D01*
X130019925Y-55985344D01*
X130019923Y-55985345D01*
X129976764Y-56002433D01*
X129887217Y-56037887D01*
X129767078Y-56129078D01*
X129675887Y-56249217D01*
X129672725Y-56257204D01*
X129635130Y-56352159D01*
X129620364Y-56389453D01*
X129609500Y-56479228D01*
X129609500Y-57389772D01*
X129620364Y-57479547D01*
X129623344Y-57487075D01*
X129623345Y-57487077D01*
X129644530Y-57540585D01*
X129675887Y-57619783D01*
X129681079Y-57626623D01*
X129681082Y-57626628D01*
X129706276Y-57659820D01*
X129731530Y-57726173D01*
X129716902Y-57795647D01*
X129667035Y-57846182D01*
X129605914Y-57862000D01*
X129121455Y-57862000D01*
X129091113Y-57856827D01*
X129091010Y-57857368D01*
X129081762Y-57855604D01*
X129072869Y-57852481D01*
X129065682Y-57852199D01*
X129065620Y-57852187D01*
X129058770Y-57850020D01*
X129052163Y-57849500D01*
X128999484Y-57849500D01*
X128994537Y-57849403D01*
X128937506Y-57847162D01*
X128930400Y-57849046D01*
X128922153Y-57849500D01*
X127283305Y-57849500D01*
X127215184Y-57829498D01*
X127168691Y-57775842D01*
X127158218Y-57738637D01*
X127157547Y-57733087D01*
X127148636Y-57659453D01*
X127141301Y-57640925D01*
X127096275Y-57527204D01*
X127093113Y-57519217D01*
X127001922Y-57399078D01*
X126881783Y-57307887D01*
X126809434Y-57279242D01*
X126749077Y-57255345D01*
X126749075Y-57255344D01*
X126741547Y-57252364D01*
X126651772Y-57241500D01*
X125316228Y-57241500D01*
X125226453Y-57252364D01*
X125218925Y-57255344D01*
X125218923Y-57255345D01*
X125158566Y-57279242D01*
X125086217Y-57307887D01*
X124966078Y-57399078D01*
X124874887Y-57519217D01*
X124871725Y-57527204D01*
X124826700Y-57640925D01*
X124819364Y-57659453D01*
X124808500Y-57749228D01*
X124808500Y-58634772D01*
X124819364Y-58724547D01*
X124822344Y-58732075D01*
X124822345Y-58732077D01*
X124834627Y-58763097D01*
X124874887Y-58864783D01*
X124966078Y-58984922D01*
X125086217Y-59076113D01*
X125109474Y-59085321D01*
X125218923Y-59128655D01*
X125218925Y-59128656D01*
X125226453Y-59131636D01*
X125316228Y-59142500D01*
X126651772Y-59142500D01*
X126741547Y-59131636D01*
X126749075Y-59128656D01*
X126749077Y-59128655D01*
X126858526Y-59085321D01*
X126881783Y-59076113D01*
X127001922Y-58984922D01*
X127093113Y-58864783D01*
X127096272Y-58856804D01*
X127096276Y-58856797D01*
X127106840Y-58830115D01*
X127150514Y-58774142D01*
X127223991Y-58750500D01*
X128866039Y-58750500D01*
X128896395Y-58755675D01*
X128896498Y-58755136D01*
X128905751Y-58756902D01*
X128914631Y-58760020D01*
X128921816Y-58760303D01*
X128921889Y-58760317D01*
X128928730Y-58762480D01*
X128935337Y-58763000D01*
X128988006Y-58763000D01*
X128992952Y-58763097D01*
X129049994Y-58765338D01*
X129057100Y-58763454D01*
X129065347Y-58763000D01*
X129903280Y-58763000D01*
X129918089Y-58763873D01*
X129951810Y-58767864D01*
X129961074Y-58766172D01*
X129961075Y-58766172D01*
X130009501Y-58757328D01*
X130013404Y-58756678D01*
X130062145Y-58749350D01*
X130062146Y-58749350D01*
X130071462Y-58747949D01*
X130077975Y-58744821D01*
X130085073Y-58743525D01*
X130137147Y-58716475D01*
X130140637Y-58714732D01*
X130193579Y-58689309D01*
X130198865Y-58684423D01*
X130198913Y-58684390D01*
X130205288Y-58681079D01*
X130210328Y-58676775D01*
X130247555Y-58639548D01*
X130251121Y-58636118D01*
X130286141Y-58603746D01*
X130293056Y-58597354D01*
X130296749Y-58590995D01*
X130302266Y-58584837D01*
X130952698Y-57934405D01*
X131015010Y-57900379D01*
X131041793Y-57897500D01*
X131502772Y-57897500D01*
X131592547Y-57886636D01*
X131600075Y-57883656D01*
X131600077Y-57883655D01*
X131686587Y-57849403D01*
X131732783Y-57831113D01*
X131852922Y-57739922D01*
X131944113Y-57619783D01*
X131975470Y-57540585D01*
X131996655Y-57487077D01*
X131996656Y-57487075D01*
X131999636Y-57479547D01*
X132010500Y-57389772D01*
X132010500Y-56941500D01*
X132030502Y-56873379D01*
X132084158Y-56826886D01*
X132136500Y-56815500D01*
X132807050Y-56815500D01*
X132875171Y-56835502D01*
X132881909Y-56840149D01*
X132961112Y-56898649D01*
X133004023Y-56955210D01*
X133009543Y-57025991D01*
X132975919Y-57088521D01*
X132961112Y-57101351D01*
X132885424Y-57157255D01*
X132885421Y-57157258D01*
X132877850Y-57162850D01*
X132797366Y-57271816D01*
X132783703Y-57310723D01*
X132764337Y-57345623D01*
X132759444Y-57350146D01*
X132755751Y-57356504D01*
X132750234Y-57362663D01*
X130350302Y-59762595D01*
X130287990Y-59796621D01*
X130261207Y-59799500D01*
X125684220Y-59799500D01*
X125669411Y-59798627D01*
X125645043Y-59795743D01*
X125635690Y-59794636D01*
X125626425Y-59796328D01*
X125620282Y-59797450D01*
X125597645Y-59799500D01*
X121988793Y-59799500D01*
X121920672Y-59779498D01*
X121899698Y-59762595D01*
X120737405Y-58600302D01*
X120703379Y-58537990D01*
X120700500Y-58511207D01*
X120700500Y-55738793D01*
X120720502Y-55670672D01*
X120737405Y-55649698D01*
X121144492Y-55242611D01*
X122794394Y-55242611D01*
X122812999Y-55411135D01*
X122842944Y-55492963D01*
X122863815Y-55549994D01*
X122871266Y-55570356D01*
X122965830Y-55711083D01*
X122971442Y-55716190D01*
X122971445Y-55716193D01*
X123085612Y-55820077D01*
X123085616Y-55820080D01*
X123091233Y-55825191D01*
X123097906Y-55828814D01*
X123097910Y-55828817D01*
X123233558Y-55902467D01*
X123233560Y-55902468D01*
X123240235Y-55906092D01*
X123247584Y-55908020D01*
X123396883Y-55947188D01*
X123396885Y-55947188D01*
X123404233Y-55949116D01*
X123490609Y-55950473D01*
X123566161Y-55951660D01*
X123566164Y-55951660D01*
X123573760Y-55951779D01*
X123581165Y-55950083D01*
X123581166Y-55950083D01*
X123653314Y-55933559D01*
X123739029Y-55913928D01*
X123890498Y-55837747D01*
X124019423Y-55727634D01*
X124037143Y-55702974D01*
X124093138Y-55659326D01*
X124139466Y-55650500D01*
X124744009Y-55650500D01*
X124812130Y-55670502D01*
X124861160Y-55730115D01*
X124871724Y-55756797D01*
X124871728Y-55756804D01*
X124874887Y-55764783D01*
X124966078Y-55884922D01*
X125086217Y-55976113D01*
X125142872Y-55998544D01*
X125218923Y-56028655D01*
X125218925Y-56028656D01*
X125226453Y-56031636D01*
X125316228Y-56042500D01*
X126651772Y-56042500D01*
X126741547Y-56031636D01*
X126749075Y-56028656D01*
X126749077Y-56028655D01*
X126825128Y-55998544D01*
X126881783Y-55976113D01*
X127001922Y-55884922D01*
X127093113Y-55764783D01*
X127121724Y-55692519D01*
X127145655Y-55632077D01*
X127145656Y-55632075D01*
X127148636Y-55624547D01*
X127159500Y-55534772D01*
X127159500Y-54649228D01*
X127148636Y-54559453D01*
X127144862Y-54549919D01*
X127115000Y-54474498D01*
X127093113Y-54419217D01*
X127001922Y-54299078D01*
X126881783Y-54207887D01*
X126818168Y-54182700D01*
X126749077Y-54155345D01*
X126749075Y-54155344D01*
X126741547Y-54152364D01*
X126651772Y-54141500D01*
X125316228Y-54141500D01*
X125226453Y-54152364D01*
X125218925Y-54155344D01*
X125218923Y-54155345D01*
X125149832Y-54182700D01*
X125086217Y-54207887D01*
X124966078Y-54299078D01*
X124874887Y-54419217D01*
X124853000Y-54474498D01*
X124823139Y-54549919D01*
X124819364Y-54559453D01*
X124815090Y-54594776D01*
X124809782Y-54638637D01*
X124781742Y-54703861D01*
X124722889Y-54743572D01*
X124684695Y-54749500D01*
X124039309Y-54749500D01*
X123971188Y-54729498D01*
X123955499Y-54717583D01*
X123902721Y-54670560D01*
X123752881Y-54591224D01*
X123588441Y-54549919D01*
X123580843Y-54549879D01*
X123580841Y-54549879D01*
X123503668Y-54549475D01*
X123418895Y-54549031D01*
X123411508Y-54550805D01*
X123411504Y-54550805D01*
X123268162Y-54585220D01*
X123254032Y-54588612D01*
X123247288Y-54592093D01*
X123247285Y-54592094D01*
X123110117Y-54662892D01*
X123103369Y-54666375D01*
X123097647Y-54671367D01*
X123097645Y-54671368D01*
X123060398Y-54703861D01*
X122975604Y-54777831D01*
X122971237Y-54784045D01*
X122893869Y-54894129D01*
X122878113Y-54916547D01*
X122816524Y-55074513D01*
X122815532Y-55082046D01*
X122815532Y-55082047D01*
X122800547Y-55195877D01*
X122794394Y-55242611D01*
X121144492Y-55242611D01*
X130649698Y-45737405D01*
X130712010Y-45703379D01*
X130738793Y-45700500D01*
X131623500Y-45700500D01*
X131691621Y-45720502D01*
X131738114Y-45774158D01*
X131749500Y-45826500D01*
X131749500Y-45917772D01*
X131760364Y-46007547D01*
X131815887Y-46147783D01*
X131907078Y-46267922D01*
X132027217Y-46359113D01*
X132063464Y-46373464D01*
X132159923Y-46411655D01*
X132159925Y-46411656D01*
X132167453Y-46414636D01*
X132257228Y-46425500D01*
X133142772Y-46425500D01*
X133232547Y-46414636D01*
X133240075Y-46411656D01*
X133240077Y-46411655D01*
X133336536Y-46373464D01*
X133372783Y-46359113D01*
X133492922Y-46267922D01*
X133584113Y-46147783D01*
X133639636Y-46007547D01*
X133650500Y-45917772D01*
X133650500Y-44582228D01*
X133639636Y-44492453D01*
X133628981Y-44465540D01*
X133600988Y-44394839D01*
X133584113Y-44352217D01*
X133492922Y-44232078D01*
X133372783Y-44140887D01*
X133309168Y-44115700D01*
X133240077Y-44088345D01*
X133240075Y-44088344D01*
X133232547Y-44085364D01*
X133142772Y-44074500D01*
X132257228Y-44074500D01*
X132167453Y-44085364D01*
X132159925Y-44088344D01*
X132159923Y-44088345D01*
X132090832Y-44115700D01*
X132027217Y-44140887D01*
X131907078Y-44232078D01*
X131815887Y-44352217D01*
X131799012Y-44394839D01*
X131771020Y-44465540D01*
X131760364Y-44492453D01*
X131749500Y-44582228D01*
X131749500Y-44673500D01*
X131729498Y-44741621D01*
X131675842Y-44788114D01*
X131623500Y-44799500D01*
X130534220Y-44799500D01*
X130519411Y-44798627D01*
X130495043Y-44795743D01*
X130485690Y-44794636D01*
X130476426Y-44796328D01*
X130476425Y-44796328D01*
X130427999Y-44805172D01*
X130424096Y-44805822D01*
X130375355Y-44813150D01*
X130375354Y-44813150D01*
X130366038Y-44814551D01*
X130359525Y-44817679D01*
X130352427Y-44818975D01*
X130300353Y-44846025D01*
X130296863Y-44847768D01*
X130243921Y-44873191D01*
X130238635Y-44878077D01*
X130238587Y-44878110D01*
X130232212Y-44881421D01*
X130227172Y-44885725D01*
X130189945Y-44922952D01*
X130186380Y-44926381D01*
X130144444Y-44965146D01*
X130140751Y-44971505D01*
X130135234Y-44977663D01*
X129027547Y-46085350D01*
X128965235Y-46119376D01*
X128894420Y-46114311D01*
X128837584Y-46071764D01*
X128812773Y-46005244D01*
X128828896Y-45934018D01*
X128922294Y-45769610D01*
X128922296Y-45769606D01*
X128925339Y-45764249D01*
X128991109Y-45566534D01*
X129017225Y-45359810D01*
X129017641Y-45330000D01*
X128997308Y-45122627D01*
X128937083Y-44923154D01*
X128839261Y-44739176D01*
X128833590Y-44732222D01*
X128776479Y-44662198D01*
X128707567Y-44577704D01*
X128547017Y-44444885D01*
X128363728Y-44345781D01*
X128164679Y-44284165D01*
X128158554Y-44283521D01*
X128158553Y-44283521D01*
X127963582Y-44263029D01*
X127963580Y-44263029D01*
X127957453Y-44262385D01*
X127826739Y-44274281D01*
X127756085Y-44280711D01*
X127756084Y-44280711D01*
X127749944Y-44281270D01*
X127744030Y-44283011D01*
X127744028Y-44283011D01*
X127642601Y-44312863D01*
X127550055Y-44340101D01*
X127544590Y-44342958D01*
X127485170Y-44374022D01*
X127365399Y-44436636D01*
X127203011Y-44567200D01*
X127069075Y-44726818D01*
X126968693Y-44909411D01*
X126905690Y-45108025D01*
X126882463Y-45315093D01*
X126899899Y-45522730D01*
X126957333Y-45723025D01*
X126960151Y-45728507D01*
X126960152Y-45728511D01*
X127049756Y-45902862D01*
X127049759Y-45902866D01*
X127052577Y-45908350D01*
X127056408Y-45913183D01*
X127178174Y-46066816D01*
X127178179Y-46066821D01*
X127182003Y-46071646D01*
X127186696Y-46075640D01*
X127186697Y-46075641D01*
X127320806Y-46189776D01*
X127340683Y-46206693D01*
X127346061Y-46209699D01*
X127346063Y-46209700D01*
X127422807Y-46252590D01*
X127522571Y-46308346D01*
X127720740Y-46372735D01*
X127927641Y-46397407D01*
X127933776Y-46396935D01*
X127933778Y-46396935D01*
X128129252Y-46381894D01*
X128129256Y-46381893D01*
X128135394Y-46381421D01*
X128336085Y-46325387D01*
X128341589Y-46322607D01*
X128341591Y-46322606D01*
X128516570Y-46234218D01*
X128516572Y-46234217D01*
X128522071Y-46231439D01*
X128541893Y-46215952D01*
X128607885Y-46189776D01*
X128677556Y-46203434D01*
X128728783Y-46252590D01*
X128745302Y-46321638D01*
X128721868Y-46388656D01*
X128708559Y-46404338D01*
X121407547Y-53705350D01*
X121345235Y-53739376D01*
X121274420Y-53734311D01*
X121217584Y-53691764D01*
X121192773Y-53625244D01*
X121208896Y-53554018D01*
X121302294Y-53389610D01*
X121302296Y-53389606D01*
X121305339Y-53384249D01*
X121346614Y-53260169D01*
X121369164Y-53192382D01*
X121369165Y-53192379D01*
X121371109Y-53186534D01*
X121385231Y-53074753D01*
X121396783Y-52983312D01*
X121396784Y-52983305D01*
X121397225Y-52979810D01*
X121397641Y-52950000D01*
X121377308Y-52742627D01*
X121317083Y-52543154D01*
X121219261Y-52359176D01*
X121213590Y-52352222D01*
X121169766Y-52298490D01*
X121087567Y-52197704D01*
X120927017Y-52064885D01*
X120743728Y-51965781D01*
X120544679Y-51904165D01*
X120538554Y-51903521D01*
X120538553Y-51903521D01*
X120343582Y-51883029D01*
X120343580Y-51883029D01*
X120337453Y-51882385D01*
X120206739Y-51894281D01*
X120136085Y-51900711D01*
X120136084Y-51900711D01*
X120129944Y-51901270D01*
X120124030Y-51903011D01*
X120124028Y-51903011D01*
X120004688Y-51938135D01*
X119930055Y-51960101D01*
X119924590Y-51962958D01*
X119759235Y-52049403D01*
X119745399Y-52056636D01*
X119583011Y-52187200D01*
X119579047Y-52191924D01*
X119562297Y-52211886D01*
X119449075Y-52346818D01*
X119446105Y-52352221D01*
X119446104Y-52352222D01*
X119440749Y-52361963D01*
X119348693Y-52529411D01*
X119285690Y-52728025D01*
X119285004Y-52734142D01*
X119285003Y-52734146D01*
X119263699Y-52924075D01*
X119262463Y-52935093D01*
X118390638Y-52935093D01*
X118387546Y-52907528D01*
X118381427Y-52889955D01*
X118336550Y-52761087D01*
X118328485Y-52737927D01*
X118298503Y-52689945D01*
X118237049Y-52591599D01*
X118233316Y-52585625D01*
X118147796Y-52499506D01*
X118111733Y-52463190D01*
X118111729Y-52463187D01*
X118106770Y-52458193D01*
X118095761Y-52451206D01*
X118037106Y-52413983D01*
X117955136Y-52361963D01*
X117912604Y-52346818D01*
X117792586Y-52304081D01*
X117792581Y-52304080D01*
X117785951Y-52301719D01*
X117778965Y-52300886D01*
X117778961Y-52300885D01*
X117651177Y-52285648D01*
X117607624Y-52280455D01*
X117600621Y-52281191D01*
X117600620Y-52281191D01*
X117436025Y-52298490D01*
X117436021Y-52298491D01*
X117429017Y-52299227D01*
X117422346Y-52301498D01*
X117265677Y-52354832D01*
X117265674Y-52354833D01*
X117259007Y-52357103D01*
X117253009Y-52360793D01*
X117253007Y-52360794D01*
X117182526Y-52404155D01*
X117106045Y-52451206D01*
X117101014Y-52456132D01*
X117101011Y-52456135D01*
X117048511Y-52507547D01*
X116977732Y-52576859D01*
X116973913Y-52582784D01*
X116973912Y-52582786D01*
X116929720Y-52651359D01*
X116880446Y-52727817D01*
X116878037Y-52734437D01*
X116878035Y-52734440D01*
X116855322Y-52796845D01*
X116819022Y-52896578D01*
X116796514Y-53074753D01*
X113211856Y-53074753D01*
X112342753Y-52205650D01*
X112332899Y-52194561D01*
X112317707Y-52175291D01*
X112317705Y-52175289D01*
X112311872Y-52167890D01*
X112304125Y-52162535D01*
X112304123Y-52162534D01*
X112263625Y-52134545D01*
X112260403Y-52132243D01*
X112220758Y-52102960D01*
X112220757Y-52102959D01*
X112213184Y-52097366D01*
X112206368Y-52094973D01*
X112200431Y-52090869D01*
X112191451Y-52088029D01*
X112191449Y-52088028D01*
X112164676Y-52079561D01*
X112144481Y-52073174D01*
X112140750Y-52071929D01*
X112094263Y-52055604D01*
X112094261Y-52055604D01*
X112085369Y-52052481D01*
X112078181Y-52052199D01*
X112078122Y-52052188D01*
X112071270Y-52050020D01*
X112064663Y-52049500D01*
X112011984Y-52049500D01*
X112007037Y-52049403D01*
X111950006Y-52047162D01*
X111942900Y-52049046D01*
X111934653Y-52049500D01*
X109826500Y-52049500D01*
X109758379Y-52029498D01*
X109711886Y-51975842D01*
X109700500Y-51923500D01*
X109700500Y-51832228D01*
X109689636Y-51742453D01*
X109677785Y-51712519D01*
X109637275Y-51610204D01*
X109634113Y-51602217D01*
X109542922Y-51482078D01*
X109422783Y-51390887D01*
X109320446Y-51350369D01*
X109290077Y-51338345D01*
X109290075Y-51338344D01*
X109282547Y-51335364D01*
X109192772Y-51324500D01*
X108307228Y-51324500D01*
X108217453Y-51335364D01*
X108209925Y-51338344D01*
X108209923Y-51338345D01*
X108179554Y-51350369D01*
X108077217Y-51390887D01*
X107957078Y-51482078D01*
X107865887Y-51602217D01*
X107862725Y-51610204D01*
X107822216Y-51712519D01*
X107810364Y-51742453D01*
X107799500Y-51832228D01*
X107799500Y-53167772D01*
X106600500Y-53167772D01*
X106600500Y-51832228D01*
X106589636Y-51742453D01*
X106577785Y-51712519D01*
X106537275Y-51610204D01*
X106534113Y-51602217D01*
X106442922Y-51482078D01*
X106322783Y-51390887D01*
X106220446Y-51350369D01*
X106190077Y-51338345D01*
X106190075Y-51338344D01*
X106182547Y-51335364D01*
X106092772Y-51324500D01*
X105207228Y-51324500D01*
X105117453Y-51335364D01*
X105109925Y-51338344D01*
X105109923Y-51338345D01*
X105079554Y-51350369D01*
X104977217Y-51390887D01*
X104857078Y-51482078D01*
X104765887Y-51602217D01*
X104762725Y-51610204D01*
X104722216Y-51712519D01*
X104710364Y-51742453D01*
X104699500Y-51832228D01*
X104699500Y-53167772D01*
X104710364Y-53257547D01*
X104713344Y-53265075D01*
X104713345Y-53265077D01*
X104740700Y-53334168D01*
X104765887Y-53397783D01*
X104857078Y-53517922D01*
X104977217Y-53609113D01*
X105017960Y-53625244D01*
X105109923Y-53661655D01*
X105109925Y-53661656D01*
X105117453Y-53664636D01*
X105163638Y-53670225D01*
X105228862Y-53698266D01*
X105268572Y-53757118D01*
X105274500Y-53795312D01*
X105274500Y-55571500D01*
X105254498Y-55639621D01*
X105200842Y-55686114D01*
X105148500Y-55697500D01*
X104910568Y-55697500D01*
X104755627Y-55712692D01*
X104556154Y-55772917D01*
X104372176Y-55870739D01*
X104367402Y-55874633D01*
X104367400Y-55874634D01*
X104361955Y-55879075D01*
X104210704Y-56002433D01*
X104077885Y-56162983D01*
X103978781Y-56346272D01*
X103917165Y-56545321D01*
X103916521Y-56551446D01*
X103916521Y-56551447D01*
X103897946Y-56728184D01*
X103895385Y-56752547D01*
X101000500Y-56752547D01*
X101000500Y-47855093D01*
X119262463Y-47855093D01*
X119262979Y-47861237D01*
X119279265Y-48055175D01*
X119279899Y-48062730D01*
X119337333Y-48263025D01*
X119340151Y-48268507D01*
X119340152Y-48268511D01*
X119429756Y-48442862D01*
X119429759Y-48442866D01*
X119432577Y-48448350D01*
X119436408Y-48453183D01*
X119558174Y-48606816D01*
X119558179Y-48606821D01*
X119562003Y-48611646D01*
X119720683Y-48746693D01*
X119726061Y-48749699D01*
X119726063Y-48749700D01*
X119811627Y-48797520D01*
X119902571Y-48848346D01*
X120100740Y-48912735D01*
X120307641Y-48937407D01*
X120313776Y-48936935D01*
X120313778Y-48936935D01*
X120509252Y-48921894D01*
X120509256Y-48921893D01*
X120515394Y-48921421D01*
X120716085Y-48865387D01*
X120721589Y-48862607D01*
X120721591Y-48862606D01*
X120896570Y-48774218D01*
X120896572Y-48774217D01*
X120902071Y-48771439D01*
X121066266Y-48643156D01*
X121202417Y-48485423D01*
X121305339Y-48304249D01*
X121361423Y-48135651D01*
X121369164Y-48112382D01*
X121369165Y-48112379D01*
X121371109Y-48106534D01*
X121377515Y-48055826D01*
X121396783Y-47903312D01*
X121396784Y-47903305D01*
X121397225Y-47899810D01*
X121397641Y-47870000D01*
X121377308Y-47662627D01*
X121317083Y-47463154D01*
X121219261Y-47279176D01*
X121213590Y-47272222D01*
X121177427Y-47227882D01*
X121087567Y-47117704D01*
X120927017Y-46984885D01*
X120743728Y-46885781D01*
X120544679Y-46824165D01*
X120538554Y-46823521D01*
X120538553Y-46823521D01*
X120343582Y-46803029D01*
X120343580Y-46803029D01*
X120337453Y-46802385D01*
X120206739Y-46814281D01*
X120136085Y-46820711D01*
X120136084Y-46820711D01*
X120129944Y-46821270D01*
X120124030Y-46823011D01*
X120124028Y-46823011D01*
X120113917Y-46825987D01*
X119930055Y-46880101D01*
X119745399Y-46976636D01*
X119583011Y-47107200D01*
X119449075Y-47266818D01*
X119348693Y-47449411D01*
X119285690Y-47648025D01*
X119262463Y-47855093D01*
X101000500Y-47855093D01*
X101000500Y-44609772D01*
X117185500Y-44609772D01*
X117196364Y-44699547D01*
X117199344Y-44707075D01*
X117199345Y-44707077D01*
X117226700Y-44776168D01*
X117251887Y-44839783D01*
X117343078Y-44959922D01*
X117463217Y-45051113D01*
X117526832Y-45076300D01*
X117595923Y-45103655D01*
X117595925Y-45103656D01*
X117603453Y-45106636D01*
X117693228Y-45117500D01*
X118578772Y-45117500D01*
X118668547Y-45106636D01*
X118676075Y-45103656D01*
X118676077Y-45103655D01*
X118745168Y-45076300D01*
X118808783Y-45051113D01*
X118928922Y-44959922D01*
X119020113Y-44839783D01*
X119045300Y-44776168D01*
X119072655Y-44707077D01*
X119072656Y-44707075D01*
X119075636Y-44699547D01*
X119086500Y-44609772D01*
X119086500Y-43645438D01*
X119106502Y-43577317D01*
X119123405Y-43556343D01*
X120065343Y-42614405D01*
X120127655Y-42580379D01*
X120154438Y-42577500D01*
X120610772Y-42577500D01*
X120666740Y-42570727D01*
X120736770Y-42582400D01*
X120770972Y-42606719D01*
X122371290Y-44207037D01*
X122405316Y-44269349D01*
X122400251Y-44340164D01*
X122357704Y-44397000D01*
X122340569Y-44407794D01*
X122285399Y-44436636D01*
X122123011Y-44567200D01*
X121989075Y-44726818D01*
X121888693Y-44909411D01*
X121825690Y-45108025D01*
X121802463Y-45315093D01*
X121819899Y-45522730D01*
X121877333Y-45723025D01*
X121880151Y-45728507D01*
X121880152Y-45728511D01*
X121969756Y-45902862D01*
X121969759Y-45902866D01*
X121972577Y-45908350D01*
X121976408Y-45913183D01*
X122098174Y-46066816D01*
X122098179Y-46066821D01*
X122102003Y-46071646D01*
X122106696Y-46075640D01*
X122106697Y-46075641D01*
X122240806Y-46189776D01*
X122260683Y-46206693D01*
X122266061Y-46209699D01*
X122266063Y-46209700D01*
X122342807Y-46252590D01*
X122442571Y-46308346D01*
X122640740Y-46372735D01*
X122847641Y-46397407D01*
X122853776Y-46396935D01*
X122853778Y-46396935D01*
X123049252Y-46381894D01*
X123049256Y-46381893D01*
X123055394Y-46381421D01*
X123256085Y-46325387D01*
X123261589Y-46322607D01*
X123261591Y-46322606D01*
X123436570Y-46234218D01*
X123436572Y-46234217D01*
X123442071Y-46231439D01*
X123606266Y-46103156D01*
X123742417Y-45945423D01*
X123766595Y-45902862D01*
X123842294Y-45769610D01*
X123842296Y-45769606D01*
X123845339Y-45764249D01*
X123911109Y-45566534D01*
X123937225Y-45359810D01*
X123937641Y-45330000D01*
X123917308Y-45122627D01*
X123857083Y-44923154D01*
X123759261Y-44739176D01*
X123753590Y-44732222D01*
X123696479Y-44662198D01*
X123627567Y-44577704D01*
X123467017Y-44444885D01*
X123461597Y-44441955D01*
X123461592Y-44441951D01*
X123361571Y-44387869D01*
X123311162Y-44337875D01*
X123295500Y-44277034D01*
X123295500Y-44036607D01*
X123288086Y-44013790D01*
X123283472Y-43994570D01*
X123281270Y-43980668D01*
X123279719Y-43970874D01*
X123268828Y-43949498D01*
X123261264Y-43931237D01*
X123256914Y-43917851D01*
X123256913Y-43917850D01*
X123253849Y-43908419D01*
X123239749Y-43889012D01*
X123229421Y-43872159D01*
X123218528Y-43850780D01*
X123123220Y-43755472D01*
X123123218Y-43755471D01*
X122478519Y-43110772D01*
X127853500Y-43110772D01*
X127864364Y-43200547D01*
X127867344Y-43208075D01*
X127867345Y-43208077D01*
X127893536Y-43274228D01*
X127919887Y-43340783D01*
X128011078Y-43460922D01*
X128131217Y-43552113D01*
X128141901Y-43556343D01*
X128263923Y-43604655D01*
X128263925Y-43604656D01*
X128271453Y-43607636D01*
X128361228Y-43618500D01*
X129271772Y-43618500D01*
X129361547Y-43607636D01*
X129369075Y-43604656D01*
X129369077Y-43604655D01*
X129491099Y-43556343D01*
X129501783Y-43552113D01*
X129621922Y-43460922D01*
X129713113Y-43340783D01*
X129739464Y-43274228D01*
X129765655Y-43208077D01*
X129765656Y-43208075D01*
X129768636Y-43200547D01*
X129779500Y-43110772D01*
X129779500Y-41725228D01*
X129768636Y-41635453D01*
X129713113Y-41495217D01*
X129621922Y-41375078D01*
X129501783Y-41283887D01*
X129438168Y-41258700D01*
X129369077Y-41231345D01*
X129369075Y-41231344D01*
X129361547Y-41228364D01*
X129352861Y-41227313D01*
X129352373Y-41227103D01*
X129345670Y-41225401D01*
X129345940Y-41224337D01*
X129287637Y-41199271D01*
X129247928Y-41140418D01*
X129242000Y-41102226D01*
X129242000Y-40939774D01*
X129262002Y-40871653D01*
X129315658Y-40825160D01*
X129345697Y-40816704D01*
X129345670Y-40816599D01*
X129349746Y-40815564D01*
X129352860Y-40814687D01*
X129361547Y-40813636D01*
X129369075Y-40810656D01*
X129369077Y-40810655D01*
X129438168Y-40783300D01*
X129501783Y-40758113D01*
X129621922Y-40666922D01*
X129713113Y-40546783D01*
X129768636Y-40406547D01*
X129769609Y-40398506D01*
X129769614Y-40398487D01*
X129805768Y-40337385D01*
X129869216Y-40305529D01*
X129891738Y-40303500D01*
X131087621Y-40303500D01*
X131155742Y-40323502D01*
X131202235Y-40377158D01*
X131211199Y-40404917D01*
X131219919Y-40448753D01*
X131221244Y-40452656D01*
X131291658Y-40660087D01*
X131312641Y-40721902D01*
X131314462Y-40725595D01*
X131314463Y-40725597D01*
X131363237Y-40824500D01*
X131440222Y-40980611D01*
X131442516Y-40984044D01*
X131567000Y-41170347D01*
X131600480Y-41220454D01*
X131603194Y-41223548D01*
X131603198Y-41223554D01*
X131731532Y-41369890D01*
X131790673Y-41437327D01*
X131793762Y-41440036D01*
X132004446Y-41624802D01*
X132004452Y-41624806D01*
X132007546Y-41627520D01*
X132010972Y-41629809D01*
X132010977Y-41629813D01*
X132153776Y-41725228D01*
X132247389Y-41787778D01*
X132251088Y-41789602D01*
X132251093Y-41789605D01*
X132502403Y-41913537D01*
X132506098Y-41915359D01*
X132509996Y-41916682D01*
X132509998Y-41916683D01*
X132775337Y-42006754D01*
X132775341Y-42006755D01*
X132779247Y-42008081D01*
X132783291Y-42008885D01*
X132783297Y-42008887D01*
X133058118Y-42063552D01*
X133058121Y-42063552D01*
X133062161Y-42064356D01*
X133066272Y-42064625D01*
X133066276Y-42064626D01*
X133345881Y-42082952D01*
X133350000Y-42083222D01*
X133354119Y-42082952D01*
X133633724Y-42064626D01*
X133633728Y-42064625D01*
X133637839Y-42064356D01*
X133641879Y-42063552D01*
X133641882Y-42063552D01*
X133916703Y-42008887D01*
X133916709Y-42008885D01*
X133920753Y-42008081D01*
X133924659Y-42006755D01*
X133924663Y-42006754D01*
X134190002Y-41916683D01*
X134190004Y-41916682D01*
X134193902Y-41915359D01*
X134197597Y-41913537D01*
X134448907Y-41789605D01*
X134448912Y-41789602D01*
X134452611Y-41787778D01*
X134546224Y-41725228D01*
X134689023Y-41629813D01*
X134689028Y-41629809D01*
X134692454Y-41627520D01*
X134695548Y-41624806D01*
X134695554Y-41624802D01*
X134906238Y-41440036D01*
X134909327Y-41437327D01*
X134968468Y-41369890D01*
X135096802Y-41223554D01*
X135096806Y-41223548D01*
X135099520Y-41220454D01*
X135133001Y-41170347D01*
X135257484Y-40984044D01*
X135259778Y-40980611D01*
X135336764Y-40824500D01*
X135385537Y-40725597D01*
X135385538Y-40725595D01*
X135387359Y-40721902D01*
X135406022Y-40666922D01*
X135478754Y-40452663D01*
X135478756Y-40452656D01*
X135480081Y-40448753D01*
X135486979Y-40414077D01*
X135535552Y-40169882D01*
X135535552Y-40169879D01*
X135536356Y-40165839D01*
X135537362Y-40150500D01*
X135554952Y-39882119D01*
X135555222Y-39878000D01*
X135544153Y-39709121D01*
X135536626Y-39594276D01*
X135536625Y-39594272D01*
X135536356Y-39590161D01*
X135504995Y-39432498D01*
X135480887Y-39311297D01*
X135480885Y-39311290D01*
X135480081Y-39307247D01*
X135387359Y-39034098D01*
X135334773Y-38927463D01*
X135261605Y-38779093D01*
X135261602Y-38779088D01*
X135259778Y-38775389D01*
X135193030Y-38675494D01*
X135101813Y-38538977D01*
X135101809Y-38538972D01*
X135099520Y-38535546D01*
X135096806Y-38532452D01*
X135096802Y-38532446D01*
X134912036Y-38321762D01*
X134909327Y-38318673D01*
X134846238Y-38263345D01*
X134695554Y-38131198D01*
X134695548Y-38131194D01*
X134692454Y-38128480D01*
X134689028Y-38126191D01*
X134689023Y-38126187D01*
X134456044Y-37970516D01*
X134452611Y-37968222D01*
X134448912Y-37966398D01*
X134448907Y-37966395D01*
X134197597Y-37842463D01*
X134197595Y-37842462D01*
X134193902Y-37840641D01*
X134130380Y-37819078D01*
X133924663Y-37749246D01*
X133924659Y-37749245D01*
X133920753Y-37747919D01*
X133916709Y-37747115D01*
X133916703Y-37747113D01*
X133641882Y-37692448D01*
X133641879Y-37692448D01*
X133637839Y-37691644D01*
X133633728Y-37691375D01*
X133633724Y-37691374D01*
X133354119Y-37673048D01*
X133350000Y-37672778D01*
X133345881Y-37673048D01*
X133066276Y-37691374D01*
X133066272Y-37691375D01*
X133062161Y-37691644D01*
X133058121Y-37692448D01*
X133058118Y-37692448D01*
X132783297Y-37747113D01*
X132783291Y-37747115D01*
X132779247Y-37747919D01*
X132775341Y-37749245D01*
X132775337Y-37749246D01*
X132569620Y-37819078D01*
X132506098Y-37840641D01*
X132502405Y-37842462D01*
X132502403Y-37842463D01*
X132251093Y-37966395D01*
X132251088Y-37966398D01*
X132247389Y-37968222D01*
X132243956Y-37970516D01*
X132010977Y-38126187D01*
X132010972Y-38126191D01*
X132007546Y-38128480D01*
X132004452Y-38131194D01*
X132004446Y-38131198D01*
X131853762Y-38263345D01*
X131790673Y-38318673D01*
X131787964Y-38321762D01*
X131603198Y-38532446D01*
X131603194Y-38532452D01*
X131600480Y-38535546D01*
X131598191Y-38538972D01*
X131598187Y-38538977D01*
X131506970Y-38675494D01*
X131440222Y-38775389D01*
X131438398Y-38779088D01*
X131438395Y-38779093D01*
X131365227Y-38927463D01*
X131312641Y-39034098D01*
X131219919Y-39307247D01*
X131216090Y-39326500D01*
X131211200Y-39351081D01*
X131178293Y-39413990D01*
X131116598Y-39449123D01*
X131087621Y-39452500D01*
X129905500Y-39452500D01*
X129837379Y-39432498D01*
X129790886Y-39378842D01*
X129779500Y-39326500D01*
X129779500Y-38931228D01*
X129768636Y-38841453D01*
X129713113Y-38701217D01*
X129621922Y-38581078D01*
X129501783Y-38489887D01*
X129438168Y-38464700D01*
X129369077Y-38437345D01*
X129369075Y-38437344D01*
X129361547Y-38434364D01*
X129271772Y-38423500D01*
X128361228Y-38423500D01*
X128271453Y-38434364D01*
X128263925Y-38437344D01*
X128263923Y-38437345D01*
X128194832Y-38464700D01*
X128131217Y-38489887D01*
X128011078Y-38581078D01*
X127919887Y-38701217D01*
X127864364Y-38841453D01*
X127853500Y-38931228D01*
X127853500Y-40316772D01*
X127864364Y-40406547D01*
X127867344Y-40414075D01*
X127919887Y-40546783D01*
X128011078Y-40666922D01*
X128131217Y-40758113D01*
X128194832Y-40783300D01*
X128263923Y-40810655D01*
X128263925Y-40810656D01*
X128271453Y-40813636D01*
X128280139Y-40814687D01*
X128280627Y-40814897D01*
X128287330Y-40816599D01*
X128287060Y-40817663D01*
X128345363Y-40842729D01*
X128385072Y-40901582D01*
X128391000Y-40939774D01*
X128391000Y-41102226D01*
X128370998Y-41170347D01*
X128317342Y-41216840D01*
X128287303Y-41225296D01*
X128287330Y-41225401D01*
X128283254Y-41226436D01*
X128280140Y-41227313D01*
X128271453Y-41228364D01*
X128263925Y-41231344D01*
X128263923Y-41231345D01*
X128194832Y-41258700D01*
X128131217Y-41283887D01*
X128011078Y-41375078D01*
X127919887Y-41495217D01*
X127864364Y-41635453D01*
X127853500Y-41725228D01*
X127853500Y-43110772D01*
X122478519Y-43110772D01*
X122141020Y-42773273D01*
X121155405Y-41787657D01*
X121121379Y-41725345D01*
X121118500Y-41698562D01*
X121118500Y-40734228D01*
X121107636Y-40644453D01*
X121052113Y-40504217D01*
X120960922Y-40384078D01*
X120840783Y-40292887D01*
X120774390Y-40266600D01*
X120718418Y-40222927D01*
X120694941Y-40155924D01*
X120711417Y-40086865D01*
X120762612Y-40037676D01*
X120774392Y-40032297D01*
X120786892Y-40027348D01*
X120865783Y-39996113D01*
X120985922Y-39904922D01*
X121077113Y-39784783D01*
X121132636Y-39644547D01*
X121143500Y-39554772D01*
X121143500Y-38169228D01*
X121132636Y-38079453D01*
X121077113Y-37939217D01*
X120985922Y-37819078D01*
X120865783Y-37727887D01*
X120773561Y-37691374D01*
X120733077Y-37675345D01*
X120733075Y-37675344D01*
X120725547Y-37672364D01*
X120635772Y-37661500D01*
X119725228Y-37661500D01*
X119635453Y-37672364D01*
X119627925Y-37675344D01*
X119627923Y-37675345D01*
X119587439Y-37691374D01*
X119495217Y-37727887D01*
X119375078Y-37819078D01*
X119283887Y-37939217D01*
X119228364Y-38079453D01*
X119217500Y-38169228D01*
X119217500Y-39554772D01*
X119228364Y-39644547D01*
X119283887Y-39784783D01*
X119375078Y-39904922D01*
X119495217Y-39996113D01*
X119563303Y-40023070D01*
X119574108Y-40027348D01*
X119630082Y-40071022D01*
X119653559Y-40138025D01*
X119637083Y-40207084D01*
X119585888Y-40256272D01*
X119574107Y-40261652D01*
X119495217Y-40292887D01*
X119375078Y-40384078D01*
X119283887Y-40504217D01*
X119228364Y-40644453D01*
X119217500Y-40734228D01*
X119217500Y-42069772D01*
X119228364Y-42159547D01*
X119229382Y-42162118D01*
X119226852Y-42230648D01*
X119196443Y-42279809D01*
X118738971Y-42737281D01*
X118676659Y-42771307D01*
X118634740Y-42773273D01*
X118578772Y-42766500D01*
X117693228Y-42766500D01*
X117603453Y-42777364D01*
X117595925Y-42780344D01*
X117595923Y-42780345D01*
X117526832Y-42807700D01*
X117463217Y-42832887D01*
X117343078Y-42924078D01*
X117251887Y-43044217D01*
X117248725Y-43052204D01*
X117224046Y-43114537D01*
X117196364Y-43184453D01*
X117185500Y-43274228D01*
X117185500Y-44609772D01*
X101000500Y-44609772D01*
X101000500Y-37426500D01*
X101020502Y-37358379D01*
X101074158Y-37311886D01*
X101126500Y-37300500D01*
X149626231Y-37300500D01*
X149694352Y-37320502D01*
G37*
G04 #@! TD.AperFunction*
G04 #@! TA.AperFunction,Conductor*
G36*
X176211621Y-37320502D02*
G01*
X176258114Y-37374158D01*
X176269500Y-37426500D01*
X176269500Y-84373500D01*
X176249498Y-84441621D01*
X176195842Y-84488114D01*
X176143500Y-84499500D01*
X151876000Y-84499500D01*
X151807879Y-84479498D01*
X151761386Y-84425842D01*
X151750000Y-84373500D01*
X151750000Y-81000000D01*
X159444532Y-81000000D01*
X159464365Y-81226692D01*
X159523261Y-81446496D01*
X159619432Y-81652734D01*
X159749953Y-81839139D01*
X159910861Y-82000047D01*
X160097266Y-82130568D01*
X160102244Y-82132889D01*
X160102247Y-82132891D01*
X160298522Y-82224416D01*
X160303504Y-82226739D01*
X160308812Y-82228161D01*
X160308814Y-82228162D01*
X160517993Y-82284211D01*
X160517995Y-82284211D01*
X160523308Y-82285635D01*
X160750000Y-82305468D01*
X160976692Y-82285635D01*
X160982005Y-82284211D01*
X160982007Y-82284211D01*
X161191186Y-82228162D01*
X161191188Y-82228161D01*
X161196496Y-82226739D01*
X161201478Y-82224416D01*
X161397753Y-82132891D01*
X161397756Y-82132889D01*
X161402734Y-82130568D01*
X161589139Y-82000047D01*
X161750047Y-81839139D01*
X161880568Y-81652734D01*
X161976739Y-81446496D01*
X162035635Y-81226692D01*
X162055468Y-81000000D01*
X162035635Y-80773308D01*
X161976739Y-80553504D01*
X161880568Y-80347266D01*
X161750047Y-80160861D01*
X161589139Y-79999953D01*
X161402734Y-79869432D01*
X161397756Y-79867111D01*
X161397753Y-79867109D01*
X161201478Y-79775584D01*
X161201476Y-79775583D01*
X161196496Y-79773261D01*
X161191188Y-79771839D01*
X161191186Y-79771838D01*
X160982007Y-79715789D01*
X160982005Y-79715789D01*
X160976692Y-79714365D01*
X160750000Y-79694532D01*
X160523308Y-79714365D01*
X160517995Y-79715789D01*
X160517993Y-79715789D01*
X160308814Y-79771838D01*
X160308812Y-79771839D01*
X160303504Y-79773261D01*
X160298524Y-79775583D01*
X160298522Y-79775584D01*
X160102247Y-79867109D01*
X160102244Y-79867111D01*
X160097266Y-79869432D01*
X159910861Y-79999953D01*
X159749953Y-80160861D01*
X159619432Y-80347266D01*
X159523261Y-80553504D01*
X159464365Y-80773308D01*
X159444532Y-81000000D01*
X151750000Y-81000000D01*
X151750000Y-69417772D01*
X157399500Y-69417772D01*
X157410364Y-69507547D01*
X157465887Y-69647783D01*
X157557078Y-69767922D01*
X157677217Y-69859113D01*
X157740832Y-69884300D01*
X157809923Y-69911655D01*
X157809925Y-69911656D01*
X157817453Y-69914636D01*
X157907228Y-69925500D01*
X158792772Y-69925500D01*
X158882547Y-69914636D01*
X158890075Y-69911656D01*
X158890077Y-69911655D01*
X158959168Y-69884300D01*
X159022783Y-69859113D01*
X159142922Y-69767922D01*
X159234113Y-69647783D01*
X159289636Y-69507547D01*
X159300500Y-69417772D01*
X159300500Y-68082228D01*
X159289636Y-67992453D01*
X159234113Y-67852217D01*
X159142922Y-67732078D01*
X159022783Y-67640887D01*
X158882547Y-67585364D01*
X158883606Y-67582688D01*
X158834388Y-67553568D01*
X158802530Y-67490121D01*
X158800500Y-67467595D01*
X158800500Y-67048337D01*
X158820502Y-66980216D01*
X158874158Y-66933723D01*
X158911362Y-66923250D01*
X158982547Y-66914636D01*
X158990075Y-66911656D01*
X158990077Y-66911655D01*
X159080116Y-66876006D01*
X159122783Y-66859113D01*
X159242922Y-66767922D01*
X159334113Y-66647783D01*
X159389636Y-66507547D01*
X159400500Y-66417772D01*
X160599500Y-66417772D01*
X160610364Y-66507547D01*
X160665887Y-66647783D01*
X160757078Y-66767922D01*
X160877217Y-66859113D01*
X160919884Y-66876006D01*
X161009923Y-66911655D01*
X161009925Y-66911656D01*
X161017453Y-66914636D01*
X161107228Y-66925500D01*
X161992772Y-66925500D01*
X162082547Y-66914636D01*
X162090075Y-66911656D01*
X162090077Y-66911655D01*
X162180116Y-66876006D01*
X162222783Y-66859113D01*
X162342922Y-66767922D01*
X162434113Y-66647783D01*
X162489636Y-66507547D01*
X162500500Y-66417772D01*
X162500500Y-65082228D01*
X162489636Y-64992453D01*
X162434113Y-64852217D01*
X162342922Y-64732078D01*
X162222783Y-64640887D01*
X162082547Y-64585364D01*
X162083606Y-64582688D01*
X162034388Y-64553568D01*
X162002530Y-64490121D01*
X162000500Y-64467595D01*
X162000500Y-63951500D01*
X162020502Y-63883379D01*
X162074158Y-63836886D01*
X162126500Y-63825500D01*
X162142772Y-63825500D01*
X162232547Y-63814636D01*
X162240075Y-63811656D01*
X162240077Y-63811655D01*
X162309168Y-63784300D01*
X162372783Y-63759113D01*
X162492922Y-63667922D01*
X162584113Y-63547783D01*
X162639636Y-63407547D01*
X162650500Y-63317772D01*
X163849500Y-63317772D01*
X163860364Y-63407547D01*
X163915887Y-63547783D01*
X164007078Y-63667922D01*
X164127217Y-63759113D01*
X164190832Y-63784300D01*
X164259923Y-63811655D01*
X164259925Y-63811656D01*
X164267453Y-63814636D01*
X164357228Y-63825500D01*
X165242772Y-63825500D01*
X165332547Y-63814636D01*
X165340075Y-63811656D01*
X165340077Y-63811655D01*
X165409168Y-63784300D01*
X165472783Y-63759113D01*
X165592922Y-63667922D01*
X165684113Y-63547783D01*
X165739636Y-63407547D01*
X165750500Y-63317772D01*
X165750500Y-62388793D01*
X165770502Y-62320672D01*
X165787405Y-62299698D01*
X167099698Y-60987405D01*
X167162010Y-60953379D01*
X167188793Y-60950500D01*
X169153500Y-60950500D01*
X169221621Y-60970502D01*
X169268114Y-61024158D01*
X169279500Y-61076500D01*
X169279500Y-61144646D01*
X169282618Y-61170846D01*
X169328061Y-61273153D01*
X169407287Y-61352241D01*
X169417924Y-61356944D01*
X169417926Y-61356945D01*
X169477462Y-61383265D01*
X169509673Y-61397506D01*
X169535354Y-61400500D01*
X170824646Y-61400500D01*
X170828350Y-61400059D01*
X170828353Y-61400059D01*
X170835746Y-61399179D01*
X170850846Y-61397382D01*
X170899822Y-61375628D01*
X170942518Y-61356663D01*
X170953153Y-61351939D01*
X171032241Y-61272713D01*
X171077506Y-61170327D01*
X171080500Y-61144646D01*
X171080500Y-59855354D01*
X171077382Y-59829154D01*
X171031939Y-59726847D01*
X170952713Y-59647759D01*
X170942076Y-59643056D01*
X170942074Y-59643055D01*
X170882538Y-59616735D01*
X170850327Y-59602494D01*
X170824646Y-59599500D01*
X169535354Y-59599500D01*
X169531650Y-59599941D01*
X169531647Y-59599941D01*
X169524254Y-59600821D01*
X169509154Y-59602618D01*
X169406847Y-59648061D01*
X169327759Y-59727287D01*
X169282494Y-59829673D01*
X169279500Y-59855354D01*
X169279500Y-59923500D01*
X169259498Y-59991621D01*
X169205842Y-60038114D01*
X169153500Y-60049500D01*
X166984219Y-60049500D01*
X166969410Y-60048627D01*
X166966593Y-60048294D01*
X166935689Y-60044636D01*
X166926426Y-60046328D01*
X166926419Y-60046328D01*
X166877982Y-60055175D01*
X166874083Y-60055825D01*
X166851353Y-60059242D01*
X166825356Y-60063150D01*
X166825355Y-60063150D01*
X166816038Y-60064551D01*
X166809525Y-60067679D01*
X166802427Y-60068975D01*
X166750347Y-60096028D01*
X166746845Y-60097777D01*
X166709054Y-60115924D01*
X166693921Y-60123191D01*
X166688636Y-60128077D01*
X166688589Y-60128108D01*
X166682211Y-60131421D01*
X166677172Y-60135725D01*
X166639945Y-60172952D01*
X166636380Y-60176381D01*
X166594444Y-60215146D01*
X166590751Y-60221505D01*
X166585234Y-60227663D01*
X165371433Y-61441464D01*
X165309121Y-61475490D01*
X165267201Y-61477456D01*
X165252377Y-61475662D01*
X165242772Y-61474500D01*
X164357228Y-61474500D01*
X164267453Y-61485364D01*
X164259925Y-61488344D01*
X164259923Y-61488345D01*
X164190832Y-61515700D01*
X164127217Y-61540887D01*
X164007078Y-61632078D01*
X163915887Y-61752217D01*
X163912725Y-61760204D01*
X163863515Y-61884495D01*
X163860364Y-61892453D01*
X163849500Y-61982228D01*
X163849500Y-63317772D01*
X162650500Y-63317772D01*
X162650500Y-61982228D01*
X162639636Y-61892453D01*
X162636486Y-61884495D01*
X162587275Y-61760204D01*
X162584113Y-61752217D01*
X162492922Y-61632078D01*
X162372783Y-61540887D01*
X162309168Y-61515700D01*
X162240077Y-61488345D01*
X162240075Y-61488344D01*
X162232547Y-61485364D01*
X162142772Y-61474500D01*
X161257228Y-61474500D01*
X161167453Y-61485364D01*
X161159925Y-61488344D01*
X161159923Y-61488345D01*
X161090832Y-61515700D01*
X161027217Y-61540887D01*
X160907078Y-61632078D01*
X160815887Y-61752217D01*
X160812725Y-61760204D01*
X160763515Y-61884495D01*
X160760364Y-61892453D01*
X160749500Y-61982228D01*
X160749500Y-63317772D01*
X160760364Y-63407547D01*
X160815887Y-63547783D01*
X160907078Y-63667922D01*
X161027217Y-63759113D01*
X161035200Y-63762274D01*
X161035353Y-63762360D01*
X161084882Y-63813226D01*
X161099500Y-63872133D01*
X161099500Y-64467595D01*
X161079498Y-64535716D01*
X161025842Y-64582209D01*
X161017383Y-64585187D01*
X161017453Y-64585364D01*
X160877217Y-64640887D01*
X160757078Y-64732078D01*
X160665887Y-64852217D01*
X160610364Y-64992453D01*
X160599500Y-65082228D01*
X160599500Y-66417772D01*
X159400500Y-66417772D01*
X159400500Y-65082228D01*
X159389636Y-64992453D01*
X159334113Y-64852217D01*
X159242922Y-64732078D01*
X159122783Y-64640887D01*
X158982547Y-64585364D01*
X158983606Y-64582688D01*
X158934388Y-64553568D01*
X158902530Y-64490121D01*
X158900500Y-64467595D01*
X158900500Y-61926293D01*
X158920502Y-61858172D01*
X158937405Y-61837198D01*
X161481850Y-59292753D01*
X161492939Y-59282899D01*
X161512211Y-59267706D01*
X161512215Y-59267702D01*
X161519610Y-59261872D01*
X161524964Y-59254125D01*
X161524968Y-59254121D01*
X161552977Y-59213596D01*
X161555258Y-59210402D01*
X161590135Y-59163183D01*
X161592529Y-59156366D01*
X161596631Y-59150431D01*
X161614312Y-59094525D01*
X161615560Y-59090785D01*
X161631900Y-59044255D01*
X161631901Y-59044252D01*
X161635020Y-59035369D01*
X161635303Y-59028184D01*
X161635317Y-59028111D01*
X161637480Y-59021270D01*
X161638000Y-59014663D01*
X161638000Y-58962009D01*
X161638097Y-58957062D01*
X161639969Y-58909418D01*
X161640339Y-58900006D01*
X161638454Y-58892897D01*
X161638000Y-58884648D01*
X161638000Y-55584220D01*
X161638873Y-55569411D01*
X161641757Y-55545043D01*
X161642864Y-55535690D01*
X161635598Y-55495903D01*
X161632328Y-55477999D01*
X161631678Y-55474096D01*
X161624350Y-55425355D01*
X161624350Y-55425354D01*
X161622949Y-55416038D01*
X161619821Y-55409525D01*
X161618525Y-55402427D01*
X161591475Y-55350353D01*
X161589725Y-55346850D01*
X161568385Y-55302410D01*
X161564309Y-55293921D01*
X161559423Y-55288635D01*
X161559390Y-55288587D01*
X161556079Y-55282212D01*
X161551775Y-55277172D01*
X161514548Y-55239945D01*
X161511118Y-55236379D01*
X161478746Y-55201359D01*
X161472354Y-55194444D01*
X161465995Y-55190751D01*
X161459837Y-55185234D01*
X160926198Y-54651595D01*
X160892172Y-54589283D01*
X160897237Y-54518468D01*
X160926198Y-54473405D01*
X161294350Y-54105253D01*
X161305439Y-54095399D01*
X161324710Y-54080206D01*
X161324711Y-54080205D01*
X161332110Y-54074372D01*
X161337465Y-54066624D01*
X161337467Y-54066622D01*
X161365474Y-54026100D01*
X161367774Y-54022881D01*
X161397038Y-53983260D01*
X161397039Y-53983259D01*
X161402634Y-53975683D01*
X161405027Y-53968869D01*
X161409131Y-53962931D01*
X161426817Y-53907009D01*
X161428070Y-53903253D01*
X161444398Y-53856758D01*
X161447520Y-53847869D01*
X161447803Y-53840683D01*
X161447817Y-53840612D01*
X161449980Y-53833770D01*
X161450500Y-53827163D01*
X161450500Y-53774494D01*
X161450597Y-53769548D01*
X161451847Y-53737721D01*
X161452838Y-53712506D01*
X161450954Y-53705400D01*
X161450500Y-53697153D01*
X161450500Y-52992611D01*
X161794394Y-52992611D01*
X161812999Y-53161135D01*
X161871266Y-53320356D01*
X161965830Y-53461083D01*
X161971442Y-53466190D01*
X161971445Y-53466193D01*
X162085612Y-53570077D01*
X162085616Y-53570080D01*
X162091233Y-53575191D01*
X162097906Y-53578814D01*
X162097910Y-53578817D01*
X162233558Y-53652467D01*
X162233560Y-53652468D01*
X162240235Y-53656092D01*
X162247584Y-53658020D01*
X162396883Y-53697188D01*
X162396885Y-53697188D01*
X162404233Y-53699116D01*
X162513503Y-53700832D01*
X162581300Y-53721901D01*
X162600618Y-53737721D01*
X164287595Y-55424698D01*
X164321621Y-55487010D01*
X164324500Y-55513793D01*
X164324500Y-56242772D01*
X164335364Y-56332547D01*
X164390887Y-56472783D01*
X164482078Y-56592922D01*
X164602217Y-56684113D01*
X164665832Y-56709300D01*
X164734923Y-56736655D01*
X164734925Y-56736656D01*
X164742453Y-56739636D01*
X164832228Y-56750500D01*
X166167772Y-56750500D01*
X166257547Y-56739636D01*
X166265075Y-56736656D01*
X166265077Y-56736655D01*
X166334168Y-56709300D01*
X166397783Y-56684113D01*
X166517922Y-56592922D01*
X166609113Y-56472783D01*
X166664636Y-56332547D01*
X166675500Y-56242772D01*
X166675500Y-55357228D01*
X166664636Y-55267453D01*
X166654803Y-55242616D01*
X166612275Y-55135204D01*
X166609113Y-55127217D01*
X166517922Y-55007078D01*
X166397783Y-54915887D01*
X166334168Y-54890700D01*
X166265077Y-54863345D01*
X166265075Y-54863344D01*
X166257547Y-54860364D01*
X166167772Y-54849500D01*
X165038793Y-54849500D01*
X164970672Y-54829498D01*
X164949698Y-54812595D01*
X163985103Y-53848000D01*
X170260778Y-53848000D01*
X170261048Y-53852119D01*
X170277295Y-54099994D01*
X170279644Y-54135839D01*
X170280448Y-54139879D01*
X170280448Y-54139882D01*
X170305292Y-54264778D01*
X170335919Y-54418753D01*
X170337245Y-54422659D01*
X170337246Y-54422663D01*
X170416333Y-54655645D01*
X170428641Y-54691902D01*
X170430462Y-54695595D01*
X170430463Y-54695597D01*
X170538968Y-54915623D01*
X170556222Y-54950611D01*
X170716480Y-55190454D01*
X170719194Y-55193548D01*
X170719198Y-55193554D01*
X170874602Y-55370757D01*
X170906673Y-55407327D01*
X170909762Y-55410036D01*
X171120446Y-55594802D01*
X171120452Y-55594806D01*
X171123546Y-55597520D01*
X171126972Y-55599809D01*
X171126977Y-55599813D01*
X171230652Y-55669086D01*
X171363389Y-55757778D01*
X171367088Y-55759602D01*
X171367093Y-55759605D01*
X171426281Y-55788793D01*
X171622098Y-55885359D01*
X171625996Y-55886682D01*
X171625998Y-55886683D01*
X171891337Y-55976754D01*
X171891341Y-55976755D01*
X171895247Y-55978081D01*
X171899291Y-55978885D01*
X171899297Y-55978887D01*
X172174118Y-56033552D01*
X172174121Y-56033552D01*
X172178161Y-56034356D01*
X172182272Y-56034625D01*
X172182276Y-56034626D01*
X172461881Y-56052952D01*
X172466000Y-56053222D01*
X172470119Y-56052952D01*
X172749724Y-56034626D01*
X172749728Y-56034625D01*
X172753839Y-56034356D01*
X172757879Y-56033552D01*
X172757882Y-56033552D01*
X173032703Y-55978887D01*
X173032709Y-55978885D01*
X173036753Y-55978081D01*
X173040659Y-55976755D01*
X173040663Y-55976754D01*
X173306002Y-55886683D01*
X173306004Y-55886682D01*
X173309902Y-55885359D01*
X173505719Y-55788793D01*
X173564907Y-55759605D01*
X173564912Y-55759602D01*
X173568611Y-55757778D01*
X173701348Y-55669086D01*
X173805023Y-55599813D01*
X173805028Y-55599809D01*
X173808454Y-55597520D01*
X173811548Y-55594806D01*
X173811554Y-55594802D01*
X174022238Y-55410036D01*
X174025327Y-55407327D01*
X174057398Y-55370757D01*
X174212802Y-55193554D01*
X174212806Y-55193548D01*
X174215520Y-55190454D01*
X174375778Y-54950611D01*
X174393033Y-54915623D01*
X174501537Y-54695597D01*
X174501538Y-54695595D01*
X174503359Y-54691902D01*
X174515667Y-54655645D01*
X174594754Y-54422663D01*
X174594755Y-54422659D01*
X174596081Y-54418753D01*
X174626709Y-54264778D01*
X174651552Y-54139882D01*
X174651552Y-54139879D01*
X174652356Y-54135839D01*
X174654706Y-54099994D01*
X174670952Y-53852119D01*
X174671222Y-53848000D01*
X174661576Y-53700832D01*
X174652626Y-53564276D01*
X174652625Y-53564272D01*
X174652356Y-53560161D01*
X174645712Y-53526758D01*
X174596887Y-53281297D01*
X174596885Y-53281291D01*
X174596081Y-53277247D01*
X174583464Y-53240077D01*
X174504683Y-53007998D01*
X174504682Y-53007996D01*
X174503359Y-53004098D01*
X174501537Y-53000403D01*
X174377605Y-52749093D01*
X174377602Y-52749088D01*
X174375778Y-52745389D01*
X174336786Y-52687033D01*
X174315571Y-52619280D01*
X174334354Y-52550813D01*
X174352456Y-52527936D01*
X175334050Y-51546342D01*
X175338552Y-51537507D01*
X175344038Y-51526741D01*
X175354368Y-51509884D01*
X175361465Y-51500115D01*
X175367296Y-51492090D01*
X175374094Y-51471168D01*
X175381658Y-51452907D01*
X175387145Y-51442139D01*
X175387146Y-51442135D01*
X175391646Y-51433304D01*
X175393197Y-51423515D01*
X175393199Y-51423507D01*
X175395089Y-51411573D01*
X175399703Y-51392353D01*
X175403435Y-51380867D01*
X175403436Y-51380860D01*
X175406499Y-51371433D01*
X175406499Y-51339525D01*
X175406500Y-51339519D01*
X175406500Y-43376481D01*
X175406499Y-43376475D01*
X175406499Y-43344567D01*
X175403436Y-43335140D01*
X175403435Y-43335133D01*
X175399703Y-43323647D01*
X175395089Y-43304427D01*
X175393199Y-43292493D01*
X175393197Y-43292485D01*
X175391646Y-43282696D01*
X175387146Y-43273865D01*
X175387145Y-43273861D01*
X175381658Y-43263093D01*
X175374094Y-43244832D01*
X175367296Y-43223910D01*
X175354368Y-43206116D01*
X175344038Y-43189259D01*
X175338552Y-43178493D01*
X175338551Y-43178492D01*
X175334050Y-43169658D01*
X174603375Y-42438983D01*
X173920903Y-41756510D01*
X173886877Y-41694198D01*
X173884911Y-41652278D01*
X173895044Y-41568538D01*
X173895044Y-41568537D01*
X173895500Y-41564772D01*
X173895500Y-40679228D01*
X173884636Y-40589453D01*
X173829113Y-40449217D01*
X173737922Y-40329078D01*
X173617783Y-40237887D01*
X173554168Y-40212700D01*
X173485077Y-40185345D01*
X173485075Y-40185344D01*
X173477547Y-40182364D01*
X173387772Y-40171500D01*
X172052228Y-40171500D01*
X171962453Y-40182364D01*
X171954925Y-40185344D01*
X171954923Y-40185345D01*
X171885832Y-40212700D01*
X171822217Y-40237887D01*
X171702078Y-40329078D01*
X171610887Y-40449217D01*
X171555364Y-40589453D01*
X171544500Y-40679228D01*
X171544500Y-41564772D01*
X171555364Y-41654547D01*
X171610887Y-41794783D01*
X171702078Y-41914922D01*
X171822217Y-42006113D01*
X171866655Y-42023707D01*
X171954923Y-42058655D01*
X171954925Y-42058656D01*
X171962453Y-42061636D01*
X172052228Y-42072500D01*
X173051917Y-42072500D01*
X173120038Y-42092502D01*
X173141012Y-42109405D01*
X174568595Y-43536987D01*
X174602620Y-43599299D01*
X174605500Y-43626082D01*
X174605500Y-51089918D01*
X174585498Y-51158039D01*
X174568595Y-51179013D01*
X173786064Y-51961544D01*
X173723752Y-51995570D01*
X173652937Y-51990505D01*
X173626967Y-51977214D01*
X173572044Y-51940516D01*
X173568611Y-51938222D01*
X173564912Y-51936398D01*
X173564907Y-51936395D01*
X173313597Y-51812463D01*
X173313595Y-51812462D01*
X173309902Y-51810641D01*
X173306002Y-51809317D01*
X173040663Y-51719246D01*
X173040659Y-51719245D01*
X173036753Y-51717919D01*
X173032709Y-51717115D01*
X173032703Y-51717113D01*
X172757882Y-51662448D01*
X172757879Y-51662448D01*
X172753839Y-51661644D01*
X172749728Y-51661375D01*
X172749724Y-51661374D01*
X172470119Y-51643048D01*
X172466000Y-51642778D01*
X172461881Y-51643048D01*
X172182276Y-51661374D01*
X172182272Y-51661375D01*
X172178161Y-51661644D01*
X172174121Y-51662448D01*
X172174118Y-51662448D01*
X171899297Y-51717113D01*
X171899291Y-51717115D01*
X171895247Y-51717919D01*
X171891341Y-51719245D01*
X171891337Y-51719246D01*
X171625998Y-51809317D01*
X171622098Y-51810641D01*
X171618405Y-51812462D01*
X171618403Y-51812463D01*
X171367093Y-51936395D01*
X171367088Y-51936398D01*
X171363389Y-51938222D01*
X171359956Y-51940516D01*
X171126977Y-52096187D01*
X171126972Y-52096191D01*
X171123546Y-52098480D01*
X171120452Y-52101194D01*
X171120446Y-52101198D01*
X170909762Y-52285964D01*
X170906673Y-52288673D01*
X170903964Y-52291762D01*
X170719198Y-52502446D01*
X170719194Y-52502452D01*
X170716480Y-52505546D01*
X170714191Y-52508972D01*
X170714187Y-52508977D01*
X170608721Y-52666819D01*
X170556222Y-52745389D01*
X170554398Y-52749088D01*
X170554395Y-52749093D01*
X170430463Y-53000403D01*
X170428641Y-53004098D01*
X170427318Y-53007996D01*
X170427317Y-53007998D01*
X170348537Y-53240077D01*
X170335919Y-53277247D01*
X170335115Y-53281291D01*
X170335113Y-53281297D01*
X170286288Y-53526758D01*
X170279644Y-53560161D01*
X170279375Y-53564272D01*
X170279374Y-53564276D01*
X170270424Y-53700832D01*
X170260778Y-53848000D01*
X163985103Y-53848000D01*
X163279875Y-53142772D01*
X164324500Y-53142772D01*
X164335364Y-53232547D01*
X164338344Y-53240075D01*
X164338345Y-53240077D01*
X164360259Y-53295425D01*
X164390887Y-53372783D01*
X164482078Y-53492922D01*
X164602217Y-53584113D01*
X164622375Y-53592094D01*
X164734923Y-53636655D01*
X164734925Y-53636656D01*
X164742453Y-53639636D01*
X164832228Y-53650500D01*
X166167772Y-53650500D01*
X166257547Y-53639636D01*
X166265075Y-53636656D01*
X166265077Y-53636655D01*
X166377625Y-53592094D01*
X166397783Y-53584113D01*
X166517922Y-53492922D01*
X166609113Y-53372783D01*
X166639741Y-53295425D01*
X166661655Y-53240077D01*
X166661656Y-53240075D01*
X166664636Y-53232547D01*
X166675500Y-53142772D01*
X166675500Y-52257228D01*
X166664636Y-52167453D01*
X166660608Y-52157278D01*
X166612275Y-52035204D01*
X166609113Y-52027217D01*
X166517922Y-51907078D01*
X166397783Y-51815887D01*
X166318508Y-51784500D01*
X166265077Y-51763345D01*
X166265075Y-51763344D01*
X166257547Y-51760364D01*
X166167772Y-51749500D01*
X166076500Y-51749500D01*
X166008379Y-51729498D01*
X165961886Y-51675842D01*
X165950500Y-51623500D01*
X165950500Y-51376500D01*
X165970502Y-51308379D01*
X166024158Y-51261886D01*
X166076500Y-51250500D01*
X166167772Y-51250500D01*
X166257547Y-51239636D01*
X166265077Y-51236655D01*
X166266155Y-51236228D01*
X166270904Y-51234348D01*
X166317286Y-51225500D01*
X173041393Y-51225500D01*
X173064210Y-51218086D01*
X173083429Y-51213472D01*
X173107126Y-51209719D01*
X173115964Y-51205216D01*
X173128502Y-51198828D01*
X173146763Y-51191264D01*
X173160147Y-51186915D01*
X173160150Y-51186913D01*
X173169581Y-51183849D01*
X173188991Y-51169747D01*
X173205837Y-51159423D01*
X173227220Y-51148528D01*
X173830528Y-50545220D01*
X173841423Y-50523837D01*
X173851747Y-50506991D01*
X173860020Y-50495604D01*
X173865849Y-50487581D01*
X173868913Y-50478150D01*
X173868915Y-50478147D01*
X173873264Y-50464763D01*
X173880828Y-50446502D01*
X173887216Y-50433964D01*
X173887216Y-50433963D01*
X173891719Y-50425126D01*
X173895472Y-50401429D01*
X173900086Y-50382210D01*
X173907500Y-50359393D01*
X173907500Y-44916607D01*
X173904437Y-44907180D01*
X173904436Y-44907173D01*
X173900087Y-44893788D01*
X173895473Y-44874569D01*
X173893272Y-44860672D01*
X173893270Y-44860665D01*
X173891719Y-44850874D01*
X173887217Y-44842038D01*
X173884153Y-44832609D01*
X173887912Y-44831388D01*
X173878376Y-44780648D01*
X173881626Y-44762192D01*
X173881656Y-44762074D01*
X173884636Y-44754547D01*
X173885608Y-44746515D01*
X173885609Y-44746511D01*
X173895044Y-44668537D01*
X173895500Y-44664772D01*
X173895500Y-43779228D01*
X173884636Y-43689453D01*
X173865408Y-43640887D01*
X173844605Y-43588345D01*
X173829113Y-43549217D01*
X173737922Y-43429078D01*
X173617783Y-43337887D01*
X173514072Y-43296825D01*
X173485077Y-43285345D01*
X173485075Y-43285344D01*
X173477547Y-43282364D01*
X173387772Y-43271500D01*
X172052228Y-43271500D01*
X171962453Y-43282364D01*
X171954925Y-43285344D01*
X171954923Y-43285345D01*
X171925928Y-43296825D01*
X171822217Y-43337887D01*
X171702078Y-43429078D01*
X171610887Y-43549217D01*
X171595395Y-43588345D01*
X171574593Y-43640887D01*
X171555364Y-43689453D01*
X171544500Y-43779228D01*
X171544393Y-43779215D01*
X171520725Y-43844886D01*
X171464365Y-43888060D01*
X171419026Y-43896500D01*
X170690166Y-43896500D01*
X170622045Y-43876498D01*
X170575552Y-43822842D01*
X170570213Y-43808139D01*
X170569382Y-43801154D01*
X170523939Y-43698847D01*
X170506986Y-43681923D01*
X170452945Y-43627977D01*
X170444713Y-43619759D01*
X170434076Y-43615056D01*
X170434074Y-43615055D01*
X170364713Y-43584391D01*
X170342327Y-43574494D01*
X170316646Y-43571500D01*
X169027354Y-43571500D01*
X169023650Y-43571941D01*
X169023647Y-43571941D01*
X169016254Y-43572821D01*
X169001154Y-43574618D01*
X168992514Y-43578456D01*
X168992513Y-43578456D01*
X168910117Y-43615055D01*
X168898847Y-43620061D01*
X168890628Y-43628294D01*
X168890627Y-43628295D01*
X168881214Y-43637725D01*
X168819759Y-43699287D01*
X168815056Y-43709924D01*
X168815055Y-43709926D01*
X168805262Y-43732078D01*
X168774494Y-43801673D01*
X168771500Y-43827354D01*
X168771500Y-44816646D01*
X168771941Y-44820350D01*
X168771941Y-44820353D01*
X168772746Y-44827116D01*
X168774618Y-44842846D01*
X168778456Y-44851486D01*
X168778456Y-44851487D01*
X168800726Y-44901623D01*
X168820061Y-44945153D01*
X168899287Y-45024241D01*
X168909924Y-45028944D01*
X168909926Y-45028945D01*
X168969462Y-45055265D01*
X169001673Y-45069506D01*
X169027354Y-45072500D01*
X170316646Y-45072500D01*
X170320350Y-45072059D01*
X170320353Y-45072059D01*
X170327746Y-45071179D01*
X170342846Y-45069382D01*
X170445153Y-45023939D01*
X170454155Y-45014922D01*
X170516023Y-44952945D01*
X170524241Y-44944713D01*
X170532284Y-44926522D01*
X170555252Y-44874569D01*
X170569506Y-44842327D01*
X170570007Y-44838030D01*
X170605788Y-44779898D01*
X170669783Y-44749155D01*
X170690137Y-44747500D01*
X171466944Y-44747500D01*
X171535065Y-44767502D01*
X171584096Y-44827116D01*
X171610887Y-44894783D01*
X171702078Y-45014922D01*
X171822217Y-45106113D01*
X171839112Y-45112802D01*
X171954923Y-45158655D01*
X171954925Y-45158656D01*
X171962453Y-45161636D01*
X172052228Y-45172500D01*
X172930500Y-45172500D01*
X172998621Y-45192502D01*
X173045114Y-45246158D01*
X173056500Y-45298500D01*
X173056500Y-50063562D01*
X173036498Y-50131683D01*
X173019595Y-50152657D01*
X172834657Y-50337595D01*
X172772345Y-50371621D01*
X172745562Y-50374500D01*
X166801500Y-50374500D01*
X166733379Y-50354498D01*
X166686886Y-50300842D01*
X166675500Y-50248500D01*
X166675500Y-49857228D01*
X166664636Y-49767453D01*
X166609113Y-49627217D01*
X166517922Y-49507078D01*
X166397783Y-49415887D01*
X166293395Y-49374557D01*
X166265077Y-49363345D01*
X166265075Y-49363344D01*
X166257547Y-49360364D01*
X166167772Y-49349500D01*
X164832228Y-49349500D01*
X164742453Y-49360364D01*
X164734925Y-49363344D01*
X164734923Y-49363345D01*
X164706605Y-49374557D01*
X164602217Y-49415887D01*
X164482078Y-49507078D01*
X164390887Y-49627217D01*
X164335364Y-49767453D01*
X164324500Y-49857228D01*
X164324500Y-50742772D01*
X164335364Y-50832547D01*
X164390887Y-50972783D01*
X164482078Y-51092922D01*
X164602217Y-51184113D01*
X164665832Y-51209300D01*
X164734923Y-51236655D01*
X164734925Y-51236656D01*
X164742453Y-51239636D01*
X164832228Y-51250500D01*
X164923500Y-51250500D01*
X164991621Y-51270502D01*
X165038114Y-51324158D01*
X165049500Y-51376500D01*
X165049500Y-51623500D01*
X165029498Y-51691621D01*
X164975842Y-51738114D01*
X164923500Y-51749500D01*
X164832228Y-51749500D01*
X164742453Y-51760364D01*
X164734925Y-51763344D01*
X164734923Y-51763345D01*
X164681492Y-51784500D01*
X164602217Y-51815887D01*
X164482078Y-51907078D01*
X164390887Y-52027217D01*
X164387725Y-52035204D01*
X164339393Y-52157278D01*
X164335364Y-52167453D01*
X164324500Y-52257228D01*
X164324500Y-53142772D01*
X163279875Y-53142772D01*
X163242382Y-53105279D01*
X163208356Y-53042967D01*
X163206328Y-53014787D01*
X163205490Y-53014778D01*
X163205602Y-53004135D01*
X163205602Y-53004129D01*
X163205645Y-53000000D01*
X163203840Y-52985080D01*
X163197421Y-52932041D01*
X163185276Y-52831680D01*
X163125345Y-52673077D01*
X163029312Y-52533349D01*
X162998107Y-52505546D01*
X162908392Y-52425612D01*
X162908388Y-52425610D01*
X162902721Y-52420560D01*
X162752881Y-52341224D01*
X162588441Y-52299919D01*
X162580843Y-52299879D01*
X162580841Y-52299879D01*
X162503668Y-52299475D01*
X162418895Y-52299031D01*
X162411508Y-52300805D01*
X162411504Y-52300805D01*
X162268162Y-52335220D01*
X162254032Y-52338612D01*
X162247288Y-52342093D01*
X162247285Y-52342094D01*
X162242089Y-52344776D01*
X162103369Y-52416375D01*
X161975604Y-52527831D01*
X161878113Y-52666547D01*
X161816524Y-52824513D01*
X161815532Y-52832046D01*
X161815532Y-52832047D01*
X161795723Y-52982519D01*
X161794394Y-52992611D01*
X161450500Y-52992611D01*
X161450500Y-48242611D01*
X162794394Y-48242611D01*
X162812999Y-48411135D01*
X162871266Y-48570356D01*
X162875502Y-48576659D01*
X162875502Y-48576660D01*
X162888574Y-48596113D01*
X162965830Y-48711083D01*
X162971442Y-48716190D01*
X162971445Y-48716193D01*
X163085612Y-48820077D01*
X163085616Y-48820080D01*
X163091233Y-48825191D01*
X163097906Y-48828814D01*
X163097910Y-48828817D01*
X163233558Y-48902467D01*
X163233560Y-48902468D01*
X163240235Y-48906092D01*
X163247584Y-48908020D01*
X163396883Y-48947188D01*
X163396885Y-48947188D01*
X163404233Y-48949116D01*
X163490609Y-48950473D01*
X163566161Y-48951660D01*
X163566164Y-48951660D01*
X163573760Y-48951779D01*
X163581165Y-48950083D01*
X163581166Y-48950083D01*
X163641586Y-48936245D01*
X163739029Y-48913928D01*
X163890498Y-48837747D01*
X164019423Y-48727634D01*
X164118361Y-48589947D01*
X164123702Y-48576660D01*
X164178766Y-48439687D01*
X164178767Y-48439685D01*
X164181601Y-48432634D01*
X164188877Y-48381511D01*
X164204909Y-48268862D01*
X164204909Y-48268859D01*
X164205490Y-48264778D01*
X164205562Y-48257932D01*
X164205602Y-48254135D01*
X164205602Y-48254129D01*
X164205645Y-48250000D01*
X164205148Y-48245894D01*
X164204922Y-48241789D01*
X164207000Y-48241675D01*
X164217195Y-48179887D01*
X164241604Y-48145499D01*
X164354386Y-48032717D01*
X164416698Y-47998691D01*
X164487513Y-48003756D01*
X164519661Y-48021450D01*
X164595372Y-48078918D01*
X164595375Y-48078920D01*
X164602217Y-48084113D01*
X164665832Y-48109300D01*
X164734923Y-48136655D01*
X164734925Y-48136656D01*
X164742453Y-48139636D01*
X164832228Y-48150500D01*
X165761207Y-48150500D01*
X165829328Y-48170502D01*
X165850302Y-48187405D01*
X166707247Y-49044350D01*
X166717101Y-49055439D01*
X166732293Y-49074709D01*
X166738128Y-49082110D01*
X166745875Y-49087465D01*
X166745877Y-49087466D01*
X166786375Y-49115455D01*
X166789587Y-49117750D01*
X166836816Y-49152634D01*
X166843632Y-49155027D01*
X166849569Y-49159131D01*
X166858549Y-49161971D01*
X166858551Y-49161972D01*
X166878717Y-49168350D01*
X166905519Y-49176826D01*
X166909250Y-49178071D01*
X166955737Y-49194396D01*
X166955739Y-49194396D01*
X166964631Y-49197519D01*
X166971819Y-49197801D01*
X166971878Y-49197812D01*
X166978730Y-49199980D01*
X166985337Y-49200500D01*
X167038016Y-49200500D01*
X167042962Y-49200597D01*
X167099994Y-49202838D01*
X167107100Y-49200954D01*
X167115347Y-49200500D01*
X171019167Y-49200500D01*
X171087288Y-49220502D01*
X171110981Y-49242263D01*
X171111759Y-49241512D01*
X171236514Y-49370699D01*
X171386789Y-49469036D01*
X171555116Y-49531636D01*
X171562097Y-49532567D01*
X171562099Y-49532568D01*
X171726149Y-49554457D01*
X171726153Y-49554457D01*
X171733130Y-49555388D01*
X171740142Y-49554750D01*
X171740146Y-49554750D01*
X171904960Y-49539751D01*
X171904961Y-49539751D01*
X171911981Y-49539112D01*
X172082782Y-49483615D01*
X172201702Y-49412725D01*
X172230992Y-49395265D01*
X172230994Y-49395264D01*
X172237044Y-49391657D01*
X172367099Y-49267807D01*
X172384071Y-49242263D01*
X172427552Y-49176818D01*
X172466483Y-49118222D01*
X172492547Y-49049609D01*
X172527757Y-48956919D01*
X172527758Y-48956914D01*
X172530257Y-48950336D01*
X172536475Y-48906092D01*
X172554700Y-48776416D01*
X172554700Y-48776411D01*
X172555251Y-48772493D01*
X172555565Y-48750000D01*
X172535546Y-48571528D01*
X172476485Y-48401927D01*
X172381316Y-48249625D01*
X172302743Y-48170502D01*
X172259733Y-48127190D01*
X172259729Y-48127187D01*
X172254770Y-48122193D01*
X172243761Y-48115206D01*
X172168484Y-48067434D01*
X172103136Y-48025963D01*
X172073352Y-48015357D01*
X171940586Y-47968081D01*
X171940581Y-47968080D01*
X171933951Y-47965719D01*
X171926965Y-47964886D01*
X171926961Y-47964885D01*
X171799177Y-47949648D01*
X171755624Y-47944455D01*
X171748621Y-47945191D01*
X171748620Y-47945191D01*
X171584025Y-47962490D01*
X171584021Y-47962491D01*
X171577017Y-47963227D01*
X171570346Y-47965498D01*
X171413677Y-48018832D01*
X171413674Y-48018833D01*
X171407007Y-48021103D01*
X171401009Y-48024793D01*
X171401007Y-48024794D01*
X171331697Y-48067434D01*
X171254045Y-48115206D01*
X171249014Y-48120132D01*
X171249011Y-48120135D01*
X171131633Y-48235080D01*
X171125732Y-48240859D01*
X171121916Y-48246780D01*
X171117463Y-48252240D01*
X171115178Y-48250376D01*
X171071447Y-48288177D01*
X171019243Y-48299500D01*
X167288793Y-48299500D01*
X167220672Y-48279498D01*
X167199698Y-48262595D01*
X166708536Y-47771433D01*
X166674510Y-47709121D01*
X166672544Y-47667201D01*
X166675044Y-47646539D01*
X166675500Y-47642772D01*
X166675500Y-46757228D01*
X166664636Y-46667453D01*
X166609113Y-46527217D01*
X166517922Y-46407078D01*
X166397783Y-46315887D01*
X166334168Y-46290700D01*
X166265077Y-46263345D01*
X166265075Y-46263344D01*
X166257547Y-46260364D01*
X166167772Y-46249500D01*
X164832228Y-46249500D01*
X164742453Y-46260364D01*
X164734925Y-46263344D01*
X164734923Y-46263345D01*
X164665832Y-46290700D01*
X164602217Y-46315887D01*
X164482078Y-46407078D01*
X164390887Y-46527217D01*
X164335364Y-46667453D01*
X164334391Y-46675494D01*
X164325263Y-46750922D01*
X164297222Y-46816147D01*
X164282012Y-46831591D01*
X164277172Y-46835725D01*
X164239945Y-46872952D01*
X164236380Y-46876381D01*
X164194444Y-46915146D01*
X164190751Y-46921505D01*
X164185234Y-46927663D01*
X163600289Y-47512608D01*
X163537977Y-47546634D01*
X163510536Y-47549511D01*
X163418895Y-47549031D01*
X163411508Y-47550805D01*
X163411504Y-47550805D01*
X163268162Y-47585220D01*
X163254032Y-47588612D01*
X163247288Y-47592093D01*
X163247285Y-47592094D01*
X163110117Y-47662892D01*
X163103369Y-47666375D01*
X162975604Y-47777831D01*
X162878113Y-47916547D01*
X162816524Y-48074513D01*
X162815532Y-48082046D01*
X162815532Y-48082047D01*
X162801471Y-48188857D01*
X162794394Y-48242611D01*
X161450500Y-48242611D01*
X161450500Y-47551293D01*
X161470502Y-47483172D01*
X161487405Y-47462198D01*
X162967417Y-45982186D01*
X163029729Y-45948160D01*
X163071647Y-45946194D01*
X163098394Y-45949431D01*
X163103467Y-45950045D01*
X163103469Y-45950045D01*
X163107228Y-45950500D01*
X164017772Y-45950500D01*
X164107547Y-45939636D01*
X164115075Y-45936656D01*
X164115077Y-45936655D01*
X164184168Y-45909300D01*
X164247783Y-45884113D01*
X164367922Y-45792922D01*
X164459113Y-45672783D01*
X164514636Y-45532547D01*
X164525500Y-45442772D01*
X164525500Y-44476293D01*
X164545502Y-44408172D01*
X164562405Y-44387198D01*
X166294350Y-42655253D01*
X166305439Y-42645399D01*
X166324711Y-42630206D01*
X166324715Y-42630202D01*
X166332110Y-42624372D01*
X166337464Y-42616625D01*
X166337468Y-42616621D01*
X166365477Y-42576096D01*
X166367758Y-42572902D01*
X166402635Y-42525683D01*
X166405029Y-42518866D01*
X166409131Y-42512931D01*
X166426812Y-42457025D01*
X166428060Y-42453285D01*
X166444400Y-42406755D01*
X166444401Y-42406752D01*
X166447520Y-42397869D01*
X166447803Y-42390684D01*
X166447817Y-42390611D01*
X166449980Y-42383770D01*
X166450500Y-42377163D01*
X166450500Y-42324509D01*
X166450597Y-42319562D01*
X166452469Y-42271918D01*
X166452839Y-42262506D01*
X166450954Y-42255397D01*
X166450500Y-42247148D01*
X166450500Y-40230461D01*
X166470502Y-40162340D01*
X166489608Y-40139215D01*
X166504883Y-40124669D01*
X166617099Y-40017807D01*
X166634570Y-39991512D01*
X166712582Y-39874093D01*
X166716483Y-39868222D01*
X166738965Y-39809039D01*
X166777757Y-39706919D01*
X166777758Y-39706914D01*
X166780257Y-39700336D01*
X166791449Y-39620699D01*
X166804700Y-39526416D01*
X166804700Y-39526411D01*
X166805251Y-39522493D01*
X166805565Y-39500000D01*
X166785546Y-39321528D01*
X166779427Y-39303955D01*
X166728803Y-39158584D01*
X166726485Y-39151927D01*
X166631316Y-38999625D01*
X166567771Y-38935635D01*
X166509733Y-38877190D01*
X166509729Y-38877187D01*
X166504770Y-38872193D01*
X166493761Y-38865206D01*
X166397244Y-38803955D01*
X166353136Y-38775963D01*
X166323352Y-38765357D01*
X166190586Y-38718081D01*
X166190581Y-38718080D01*
X166183951Y-38715719D01*
X166176965Y-38714886D01*
X166176961Y-38714885D01*
X166049177Y-38699648D01*
X166005624Y-38694455D01*
X165998621Y-38695191D01*
X165998620Y-38695191D01*
X165834025Y-38712490D01*
X165834021Y-38712491D01*
X165827017Y-38713227D01*
X165820346Y-38715498D01*
X165663677Y-38768832D01*
X165663674Y-38768833D01*
X165657007Y-38771103D01*
X165651009Y-38774793D01*
X165651007Y-38774794D01*
X165603607Y-38803955D01*
X165504045Y-38865206D01*
X165499014Y-38870132D01*
X165499011Y-38870135D01*
X165491807Y-38877190D01*
X165375732Y-38990859D01*
X165371913Y-38996784D01*
X165371912Y-38996786D01*
X165284573Y-39132310D01*
X165278446Y-39141817D01*
X165276037Y-39148437D01*
X165276035Y-39148440D01*
X165247734Y-39226198D01*
X165217022Y-39310578D01*
X165194514Y-39488753D01*
X165195201Y-39495760D01*
X165195201Y-39495763D01*
X165196005Y-39503963D01*
X165212039Y-39667486D01*
X165214262Y-39674168D01*
X165214262Y-39674169D01*
X165259127Y-39809039D01*
X165268726Y-39837896D01*
X165361759Y-39991512D01*
X165486514Y-40120699D01*
X165492500Y-40124616D01*
X165492545Y-40124669D01*
X165497835Y-40129045D01*
X165497066Y-40129975D01*
X165538544Y-40178655D01*
X165549500Y-40230044D01*
X165549500Y-42073706D01*
X165529498Y-42141827D01*
X165512595Y-42162801D01*
X164215219Y-43460177D01*
X164152907Y-43494203D01*
X164082092Y-43489138D01*
X164025256Y-43446591D01*
X164001525Y-43389816D01*
X163999351Y-43375355D01*
X163999349Y-43375347D01*
X163997949Y-43366038D01*
X163994823Y-43359528D01*
X163993526Y-43352427D01*
X163984331Y-43334725D01*
X163966482Y-43300363D01*
X163964714Y-43296825D01*
X163943386Y-43252411D01*
X163939309Y-43243921D01*
X163934422Y-43238635D01*
X163934395Y-43238595D01*
X163931080Y-43232212D01*
X163926775Y-43227172D01*
X163889548Y-43189945D01*
X163886118Y-43186379D01*
X163870661Y-43169658D01*
X163847354Y-43144444D01*
X163840995Y-43140751D01*
X163834837Y-43135234D01*
X162812405Y-42112802D01*
X162778379Y-42050490D01*
X162775500Y-42023707D01*
X162775500Y-41057228D01*
X162764636Y-40967453D01*
X162709113Y-40827217D01*
X162617922Y-40707078D01*
X162497783Y-40615887D01*
X162411999Y-40581923D01*
X162365077Y-40563345D01*
X162365075Y-40563344D01*
X162357547Y-40560364D01*
X162267772Y-40549500D01*
X161357228Y-40549500D01*
X161267453Y-40560364D01*
X161259925Y-40563344D01*
X161259923Y-40563345D01*
X161213001Y-40581923D01*
X161127217Y-40615887D01*
X161007078Y-40707078D01*
X160915887Y-40827217D01*
X160860364Y-40967453D01*
X160849500Y-41057228D01*
X160849500Y-42442772D01*
X160860364Y-42532547D01*
X160863344Y-42540075D01*
X160863345Y-42540077D01*
X160877606Y-42576096D01*
X160915887Y-42672783D01*
X161007078Y-42792922D01*
X161127217Y-42884113D01*
X161190832Y-42909300D01*
X161259923Y-42936655D01*
X161259925Y-42936656D01*
X161267453Y-42939636D01*
X161357228Y-42950500D01*
X162267772Y-42950500D01*
X162271531Y-42950045D01*
X162271533Y-42950045D01*
X162276606Y-42949431D01*
X162303351Y-42946194D01*
X162373380Y-42957866D01*
X162407583Y-42982186D01*
X162868355Y-43442958D01*
X162902381Y-43505270D01*
X162897316Y-43576085D01*
X162855440Y-43632415D01*
X162763918Y-43701885D01*
X162763913Y-43701890D01*
X162757078Y-43707078D01*
X162665887Y-43827217D01*
X162610364Y-43967453D01*
X162599500Y-44057228D01*
X162599500Y-45023707D01*
X162579498Y-45091828D01*
X162562595Y-45112802D01*
X160705650Y-46969747D01*
X160694561Y-46979601D01*
X160675291Y-46994793D01*
X160675289Y-46994795D01*
X160667890Y-47000628D01*
X160662535Y-47008375D01*
X160662534Y-47008377D01*
X160634545Y-47048875D01*
X160632250Y-47052087D01*
X160597366Y-47099316D01*
X160594973Y-47106132D01*
X160590869Y-47112069D01*
X160588029Y-47121049D01*
X160588028Y-47121051D01*
X160573182Y-47167995D01*
X160571929Y-47171750D01*
X160552481Y-47227131D01*
X160552199Y-47234319D01*
X160552188Y-47234378D01*
X160550020Y-47241230D01*
X160549500Y-47247837D01*
X160549500Y-47300516D01*
X160549403Y-47305462D01*
X160547162Y-47362494D01*
X160549046Y-47369600D01*
X160549500Y-47377847D01*
X160549500Y-53399797D01*
X160529498Y-53467918D01*
X160475842Y-53514411D01*
X160411644Y-53525238D01*
X160406786Y-53524779D01*
X160406785Y-53524779D01*
X160403834Y-53524500D01*
X159996166Y-53524500D01*
X159978248Y-53526194D01*
X159972278Y-53526758D01*
X159972277Y-53526758D01*
X159964631Y-53527481D01*
X159836816Y-53572366D01*
X159829246Y-53577958D01*
X159829243Y-53577959D01*
X159806475Y-53594776D01*
X159727850Y-53652850D01*
X159722258Y-53660421D01*
X159652959Y-53754243D01*
X159652958Y-53754246D01*
X159647366Y-53761816D01*
X159602481Y-53889631D01*
X159599500Y-53921166D01*
X159599500Y-55203834D01*
X159602481Y-55235369D01*
X159647366Y-55363184D01*
X159652958Y-55370754D01*
X159652959Y-55370757D01*
X159689557Y-55420306D01*
X159727850Y-55472150D01*
X159735421Y-55477742D01*
X159829243Y-55547041D01*
X159829246Y-55547042D01*
X159836816Y-55552634D01*
X159964631Y-55597519D01*
X159972277Y-55598242D01*
X159972278Y-55598242D01*
X159978248Y-55598806D01*
X159996166Y-55600500D01*
X160403834Y-55600500D01*
X160421752Y-55598806D01*
X160427722Y-55598242D01*
X160427723Y-55598242D01*
X160435369Y-55597519D01*
X160480880Y-55581537D01*
X160551779Y-55577839D01*
X160611722Y-55611325D01*
X160700095Y-55699698D01*
X160734121Y-55762010D01*
X160737000Y-55788793D01*
X160737000Y-58711206D01*
X160716998Y-58779327D01*
X160700095Y-58800301D01*
X158155650Y-61344747D01*
X158144561Y-61354601D01*
X158125291Y-61369793D01*
X158125289Y-61369795D01*
X158117890Y-61375628D01*
X158112535Y-61383375D01*
X158112534Y-61383377D01*
X158084545Y-61423875D01*
X158082250Y-61427087D01*
X158047366Y-61474316D01*
X158044973Y-61481132D01*
X158040869Y-61487069D01*
X158023849Y-61540887D01*
X158023182Y-61542995D01*
X158021929Y-61546750D01*
X158002481Y-61602131D01*
X158002199Y-61609319D01*
X158002188Y-61609378D01*
X158000020Y-61616230D01*
X157999500Y-61622837D01*
X157999500Y-61675516D01*
X157999403Y-61680462D01*
X157997162Y-61737494D01*
X157999046Y-61744600D01*
X157999500Y-61752847D01*
X157999500Y-64467595D01*
X157979498Y-64535716D01*
X157925842Y-64582209D01*
X157917383Y-64585187D01*
X157917453Y-64585364D01*
X157777217Y-64640887D01*
X157657078Y-64732078D01*
X157565887Y-64852217D01*
X157510364Y-64992453D01*
X157499500Y-65082228D01*
X157499500Y-66417772D01*
X157510364Y-66507547D01*
X157565887Y-66647783D01*
X157657078Y-66767922D01*
X157777217Y-66859113D01*
X157817663Y-66875127D01*
X157819884Y-66876006D01*
X157875858Y-66919681D01*
X157899500Y-66993158D01*
X157899500Y-67467595D01*
X157879498Y-67535716D01*
X157825842Y-67582209D01*
X157817383Y-67585187D01*
X157817453Y-67585364D01*
X157677217Y-67640887D01*
X157557078Y-67732078D01*
X157465887Y-67852217D01*
X157410364Y-67992453D01*
X157399500Y-68082228D01*
X157399500Y-69417772D01*
X151750000Y-69417772D01*
X151750000Y-63200704D01*
X151770002Y-63132583D01*
X151823658Y-63086090D01*
X151893932Y-63075986D01*
X151958512Y-63105480D01*
X151964705Y-63111220D01*
X152013567Y-63159657D01*
X152013575Y-63159664D01*
X152016890Y-63162950D01*
X152232705Y-63321192D01*
X152236840Y-63323368D01*
X152236844Y-63323370D01*
X152366418Y-63391542D01*
X152469539Y-63445797D01*
X152473958Y-63447340D01*
X152717773Y-63532484D01*
X152717779Y-63532486D01*
X152722190Y-63534026D01*
X152985106Y-63583943D01*
X153112116Y-63588933D01*
X153247845Y-63594266D01*
X153247850Y-63594266D01*
X153252513Y-63594449D01*
X153348443Y-63583943D01*
X153513882Y-63565825D01*
X153513887Y-63565824D01*
X153518535Y-63565315D01*
X153634067Y-63534898D01*
X153772809Y-63498370D01*
X153777329Y-63497180D01*
X153902001Y-63443617D01*
X154018907Y-63393391D01*
X154018910Y-63393389D01*
X154023210Y-63391542D01*
X154027190Y-63389079D01*
X154027194Y-63389077D01*
X154246802Y-63253179D01*
X154246806Y-63253176D01*
X154250775Y-63250720D01*
X154309856Y-63200704D01*
X154451460Y-63080828D01*
X154451461Y-63080827D01*
X154455026Y-63077809D01*
X154545585Y-62974547D01*
X154628394Y-62880122D01*
X154628398Y-62880117D01*
X154631476Y-62876607D01*
X154776247Y-62651534D01*
X154886161Y-62407534D01*
X154958802Y-62149969D01*
X154992575Y-61884495D01*
X154995049Y-61790000D01*
X154992241Y-61752217D01*
X154975564Y-61527788D01*
X154975563Y-61527784D01*
X154975217Y-61523123D01*
X154967348Y-61488345D01*
X154917186Y-61266666D01*
X154916155Y-61262109D01*
X154880463Y-61170327D01*
X154820855Y-61017044D01*
X154820854Y-61017042D01*
X154819162Y-61012691D01*
X154686368Y-60780350D01*
X154520690Y-60570189D01*
X154325769Y-60386825D01*
X154105885Y-60234286D01*
X154092455Y-60227663D01*
X153870059Y-60117989D01*
X153870056Y-60117988D01*
X153865871Y-60115924D01*
X153610997Y-60034338D01*
X153465634Y-60010665D01*
X153351476Y-59992073D01*
X153351475Y-59992073D01*
X153346864Y-59991322D01*
X153213069Y-59989571D01*
X153083951Y-59987880D01*
X153083948Y-59987880D01*
X153079274Y-59987819D01*
X152814105Y-60023907D01*
X152809618Y-60025215D01*
X152809617Y-60025215D01*
X152778317Y-60034338D01*
X152557183Y-60098792D01*
X152552930Y-60100752D01*
X152552929Y-60100753D01*
X152513103Y-60119113D01*
X152314152Y-60210831D01*
X152288479Y-60227663D01*
X152094264Y-60354996D01*
X152094259Y-60355000D01*
X152090351Y-60357562D01*
X151987165Y-60449659D01*
X151959901Y-60473993D01*
X151895760Y-60504431D01*
X151825345Y-60495359D01*
X151771013Y-60449659D01*
X151750000Y-60379990D01*
X151750000Y-57999735D01*
X151770002Y-57931614D01*
X151823658Y-57885121D01*
X151893932Y-57875017D01*
X151958512Y-57904511D01*
X151965015Y-57910560D01*
X152016787Y-57962241D01*
X152027424Y-57966944D01*
X152027426Y-57966945D01*
X152086962Y-57993265D01*
X152119173Y-58007506D01*
X152144854Y-58010500D01*
X154234146Y-58010500D01*
X154237850Y-58010059D01*
X154237853Y-58010059D01*
X154245246Y-58009179D01*
X154260346Y-58007382D01*
X154362653Y-57961939D01*
X154441741Y-57882713D01*
X154487006Y-57780327D01*
X154490000Y-57754646D01*
X154490000Y-55665354D01*
X154486882Y-55639154D01*
X154469408Y-55599813D01*
X154446163Y-55547482D01*
X154441439Y-55536847D01*
X154362213Y-55457759D01*
X154351576Y-55453056D01*
X154351574Y-55453055D01*
X154288918Y-55425355D01*
X154259827Y-55412494D01*
X154234146Y-55409500D01*
X152144854Y-55409500D01*
X152141150Y-55409941D01*
X152141147Y-55409941D01*
X152133754Y-55410821D01*
X152118654Y-55412618D01*
X152110014Y-55416456D01*
X152110013Y-55416456D01*
X152080863Y-55429404D01*
X152016347Y-55458061D01*
X152008128Y-55466294D01*
X152008127Y-55466295D01*
X151965173Y-55509324D01*
X151902890Y-55543403D01*
X151832070Y-55538400D01*
X151775197Y-55495903D01*
X151750329Y-55429404D01*
X151750000Y-55420306D01*
X151750000Y-52956511D01*
X151770002Y-52888390D01*
X151823658Y-52841897D01*
X151893932Y-52831793D01*
X151951993Y-52858310D01*
X151952850Y-52857150D01*
X151954421Y-52858310D01*
X151958745Y-52861504D01*
X151958746Y-52861505D01*
X152054243Y-52932041D01*
X152054246Y-52932042D01*
X152061816Y-52937634D01*
X152189631Y-52982519D01*
X152197277Y-52983242D01*
X152197278Y-52983242D01*
X152203248Y-52983806D01*
X152221166Y-52985500D01*
X152848707Y-52985500D01*
X152916828Y-53005502D01*
X152937802Y-53022405D01*
X154459747Y-54544350D01*
X154469601Y-54555439D01*
X154484793Y-54574709D01*
X154490628Y-54582110D01*
X154498375Y-54587465D01*
X154498377Y-54587466D01*
X154538875Y-54615455D01*
X154542087Y-54617750D01*
X154589316Y-54652634D01*
X154596132Y-54655027D01*
X154602069Y-54659131D01*
X154611049Y-54661971D01*
X154611051Y-54661972D01*
X154631217Y-54668350D01*
X154658019Y-54676826D01*
X154661750Y-54678071D01*
X154708237Y-54694396D01*
X154708239Y-54694396D01*
X154717131Y-54697519D01*
X154724319Y-54697801D01*
X154724378Y-54697812D01*
X154731230Y-54699980D01*
X154737837Y-54700500D01*
X154790516Y-54700500D01*
X154795462Y-54700597D01*
X154852494Y-54702838D01*
X154859600Y-54700954D01*
X154867844Y-54700500D01*
X154905454Y-54700500D01*
X154973575Y-54720502D01*
X154990254Y-54733307D01*
X155085612Y-54820077D01*
X155085616Y-54820080D01*
X155091233Y-54825191D01*
X155097906Y-54828814D01*
X155097910Y-54828817D01*
X155233558Y-54902467D01*
X155233560Y-54902468D01*
X155240235Y-54906092D01*
X155247584Y-54908020D01*
X155396883Y-54947188D01*
X155396885Y-54947188D01*
X155404233Y-54949116D01*
X155490609Y-54950473D01*
X155566161Y-54951660D01*
X155566164Y-54951660D01*
X155573760Y-54951779D01*
X155581165Y-54950083D01*
X155581166Y-54950083D01*
X155641586Y-54936245D01*
X155739029Y-54913928D01*
X155890498Y-54837747D01*
X156019423Y-54727634D01*
X156118361Y-54589947D01*
X156121194Y-54582900D01*
X156178766Y-54439687D01*
X156178767Y-54439685D01*
X156181601Y-54432634D01*
X156205490Y-54264778D01*
X156205645Y-54250000D01*
X156185276Y-54081680D01*
X156125345Y-53923077D01*
X156029312Y-53783349D01*
X156023119Y-53777831D01*
X155908392Y-53675612D01*
X155908388Y-53675610D01*
X155902721Y-53670560D01*
X155752881Y-53591224D01*
X155588441Y-53549919D01*
X155580843Y-53549879D01*
X155580841Y-53549879D01*
X155503668Y-53549475D01*
X155418895Y-53549031D01*
X155411508Y-53550805D01*
X155411504Y-53550805D01*
X155309933Y-53575191D01*
X155254032Y-53588612D01*
X155247288Y-53592093D01*
X155247285Y-53592094D01*
X155110117Y-53662892D01*
X155103369Y-53666375D01*
X155097647Y-53671367D01*
X155097645Y-53671368D01*
X155059935Y-53704264D01*
X154995452Y-53733971D01*
X154925145Y-53724101D01*
X154888012Y-53698409D01*
X154041833Y-52852230D01*
X154007807Y-52789918D01*
X154012045Y-52721387D01*
X154044974Y-52627616D01*
X154047519Y-52620369D01*
X154050500Y-52588834D01*
X154050500Y-52181166D01*
X154047519Y-52149631D01*
X154002634Y-52021816D01*
X153997042Y-52014246D01*
X153997041Y-52014243D01*
X153927742Y-51920421D01*
X153922150Y-51912850D01*
X153914579Y-51907258D01*
X153914576Y-51907255D01*
X153838888Y-51851351D01*
X153795977Y-51794790D01*
X153790457Y-51724008D01*
X153824081Y-51661479D01*
X153838888Y-51648649D01*
X153918091Y-51590149D01*
X153984769Y-51565766D01*
X153992950Y-51565500D01*
X154613707Y-51565500D01*
X154681828Y-51585502D01*
X154702802Y-51602405D01*
X157662595Y-54562198D01*
X157696621Y-54624510D01*
X157699500Y-54651293D01*
X157699500Y-55203834D01*
X157702481Y-55235369D01*
X157747366Y-55363184D01*
X157752958Y-55370754D01*
X157752959Y-55370757D01*
X157789557Y-55420306D01*
X157827850Y-55472150D01*
X157835421Y-55477742D01*
X157929243Y-55547041D01*
X157929246Y-55547042D01*
X157936816Y-55552634D01*
X158064631Y-55597519D01*
X158072277Y-55598242D01*
X158072278Y-55598242D01*
X158078248Y-55598806D01*
X158096166Y-55600500D01*
X158503834Y-55600500D01*
X158521752Y-55598806D01*
X158527722Y-55598242D01*
X158527723Y-55598242D01*
X158535369Y-55597519D01*
X158663184Y-55552634D01*
X158670754Y-55547042D01*
X158670757Y-55547041D01*
X158764579Y-55477742D01*
X158772150Y-55472150D01*
X158810443Y-55420306D01*
X158847041Y-55370757D01*
X158847042Y-55370754D01*
X158852634Y-55363184D01*
X158897519Y-55235369D01*
X158900500Y-55203834D01*
X158900500Y-53921166D01*
X158897519Y-53889631D01*
X158852634Y-53761816D01*
X158847043Y-53754246D01*
X158847039Y-53754239D01*
X158775149Y-53656909D01*
X158750766Y-53590231D01*
X158750500Y-53582050D01*
X158750500Y-52188793D01*
X158770502Y-52120672D01*
X158787405Y-52099698D01*
X159149738Y-51737365D01*
X159212050Y-51703339D01*
X159240812Y-51700476D01*
X159316161Y-51701660D01*
X159316164Y-51701660D01*
X159323760Y-51701779D01*
X159331165Y-51700083D01*
X159331166Y-51700083D01*
X159391586Y-51686245D01*
X159489029Y-51663928D01*
X159640498Y-51587747D01*
X159769423Y-51477634D01*
X159868361Y-51339947D01*
X159874708Y-51324158D01*
X159928766Y-51189687D01*
X159928767Y-51189685D01*
X159931601Y-51182634D01*
X159944796Y-51089918D01*
X159954909Y-51018862D01*
X159954909Y-51018859D01*
X159955490Y-51014778D01*
X159955645Y-51000000D01*
X159953840Y-50985080D01*
X159944895Y-50911166D01*
X159935276Y-50831680D01*
X159875345Y-50673077D01*
X159869450Y-50664500D01*
X159783614Y-50539608D01*
X159783613Y-50539607D01*
X159779312Y-50533349D01*
X159773119Y-50527831D01*
X159658392Y-50425612D01*
X159658388Y-50425610D01*
X159652721Y-50420560D01*
X159502881Y-50341224D01*
X159338441Y-50299919D01*
X159330843Y-50299879D01*
X159330841Y-50299879D01*
X159253668Y-50299475D01*
X159168895Y-50299031D01*
X159161508Y-50300805D01*
X159161504Y-50300805D01*
X159018162Y-50335220D01*
X159004032Y-50338612D01*
X158997288Y-50342093D01*
X158997285Y-50342094D01*
X158945497Y-50368824D01*
X158853369Y-50416375D01*
X158847647Y-50421367D01*
X158847645Y-50421368D01*
X158783191Y-50477595D01*
X158725604Y-50527831D01*
X158628113Y-50666547D01*
X158566524Y-50824513D01*
X158565532Y-50832046D01*
X158565532Y-50832047D01*
X158546104Y-50979623D01*
X158544394Y-50992611D01*
X158545301Y-51000825D01*
X158545216Y-51001306D01*
X158545148Y-51007755D01*
X158544073Y-51007744D01*
X158532891Y-51070729D01*
X158509156Y-51103741D01*
X158005650Y-51607247D01*
X157994561Y-51617101D01*
X157975291Y-51632293D01*
X157975289Y-51632295D01*
X157967890Y-51638128D01*
X157962535Y-51645875D01*
X157962534Y-51645877D01*
X157934545Y-51686375D01*
X157932243Y-51689597D01*
X157910344Y-51719246D01*
X157897366Y-51736816D01*
X157894973Y-51743632D01*
X157890869Y-51749569D01*
X157888029Y-51758549D01*
X157888028Y-51758551D01*
X157873182Y-51805495D01*
X157871929Y-51809250D01*
X157857145Y-51851351D01*
X157852481Y-51864631D01*
X157852199Y-51871819D01*
X157852188Y-51871878D01*
X157850020Y-51878730D01*
X157849500Y-51885337D01*
X157849500Y-51938016D01*
X157849403Y-51942962D01*
X157847162Y-51999994D01*
X157849046Y-52007100D01*
X157849500Y-52015347D01*
X157849500Y-53170707D01*
X157829498Y-53238828D01*
X157775842Y-53285321D01*
X157705568Y-53295425D01*
X157640988Y-53265931D01*
X157634405Y-53259802D01*
X155195253Y-50820650D01*
X155185399Y-50809561D01*
X155170207Y-50790291D01*
X155170205Y-50790289D01*
X155164372Y-50782890D01*
X155156625Y-50777535D01*
X155156623Y-50777534D01*
X155116125Y-50749545D01*
X155112903Y-50747243D01*
X155073258Y-50717960D01*
X155073257Y-50717959D01*
X155065684Y-50712366D01*
X155058868Y-50709973D01*
X155052931Y-50705869D01*
X155043951Y-50703029D01*
X155043949Y-50703028D01*
X155023783Y-50696650D01*
X154996981Y-50688174D01*
X154993250Y-50686929D01*
X154946763Y-50670604D01*
X154946761Y-50670604D01*
X154937869Y-50667481D01*
X154930681Y-50667199D01*
X154930622Y-50667188D01*
X154923770Y-50665020D01*
X154917163Y-50664500D01*
X154864484Y-50664500D01*
X154859537Y-50664403D01*
X154802506Y-50662162D01*
X154795400Y-50664046D01*
X154787153Y-50664500D01*
X154329293Y-50664500D01*
X154261172Y-50644498D01*
X154214679Y-50590842D01*
X154204575Y-50520568D01*
X154234069Y-50455988D01*
X154240198Y-50449405D01*
X154494350Y-50195253D01*
X154505439Y-50185399D01*
X154524711Y-50170206D01*
X154524715Y-50170202D01*
X154532110Y-50164372D01*
X154537464Y-50156625D01*
X154537468Y-50156621D01*
X154565477Y-50116096D01*
X154567758Y-50112902D01*
X154602635Y-50065683D01*
X154605029Y-50058866D01*
X154609131Y-50052931D01*
X154626812Y-49997025D01*
X154628060Y-49993285D01*
X154644400Y-49946755D01*
X154644401Y-49946752D01*
X154647520Y-49937869D01*
X154647803Y-49930684D01*
X154647817Y-49930611D01*
X154649980Y-49923770D01*
X154650500Y-49917163D01*
X154650500Y-49864509D01*
X154650597Y-49859562D01*
X154652469Y-49811918D01*
X154652839Y-49802506D01*
X154650954Y-49795397D01*
X154650500Y-49787148D01*
X154650500Y-46032405D01*
X154670502Y-45964284D01*
X154724158Y-45917791D01*
X154732617Y-45914813D01*
X154732547Y-45914636D01*
X154801653Y-45887275D01*
X154872783Y-45859113D01*
X154992922Y-45767922D01*
X155084113Y-45647783D01*
X155139636Y-45507547D01*
X155150500Y-45417772D01*
X156349500Y-45417772D01*
X156360364Y-45507547D01*
X156415887Y-45647783D01*
X156507078Y-45767922D01*
X156627217Y-45859113D01*
X156677247Y-45878921D01*
X156759923Y-45911655D01*
X156759925Y-45911656D01*
X156767453Y-45914636D01*
X156857228Y-45925500D01*
X157742772Y-45925500D01*
X157832547Y-45914636D01*
X157840075Y-45911656D01*
X157840077Y-45911655D01*
X157922753Y-45878921D01*
X157972783Y-45859113D01*
X158092922Y-45767922D01*
X158184113Y-45647783D01*
X158239636Y-45507547D01*
X158250500Y-45417772D01*
X158250500Y-45326500D01*
X158270502Y-45258379D01*
X158324158Y-45211886D01*
X158376500Y-45200500D01*
X159348500Y-45200500D01*
X159416621Y-45220502D01*
X159463114Y-45274158D01*
X159474500Y-45326500D01*
X159474500Y-45442772D01*
X159485364Y-45532547D01*
X159540887Y-45672783D01*
X159632078Y-45792922D01*
X159752217Y-45884113D01*
X159815832Y-45909300D01*
X159884923Y-45936655D01*
X159884925Y-45936656D01*
X159892453Y-45939636D01*
X159982228Y-45950500D01*
X160892772Y-45950500D01*
X160982547Y-45939636D01*
X160990075Y-45936656D01*
X160990077Y-45936655D01*
X161059168Y-45909300D01*
X161122783Y-45884113D01*
X161242922Y-45792922D01*
X161334113Y-45672783D01*
X161389636Y-45532547D01*
X161400500Y-45442772D01*
X161400500Y-44057228D01*
X161389636Y-43967453D01*
X161334113Y-43827217D01*
X161242922Y-43707078D01*
X161122783Y-43615887D01*
X161043233Y-43584391D01*
X160990077Y-43563345D01*
X160990075Y-43563344D01*
X160982547Y-43560364D01*
X160892772Y-43549500D01*
X159982228Y-43549500D01*
X159892453Y-43560364D01*
X159884925Y-43563344D01*
X159884923Y-43563345D01*
X159831767Y-43584391D01*
X159752217Y-43615887D01*
X159632078Y-43707078D01*
X159540887Y-43827217D01*
X159485364Y-43967453D01*
X159474500Y-44057228D01*
X159474500Y-44173500D01*
X159454498Y-44241621D01*
X159400842Y-44288114D01*
X159348500Y-44299500D01*
X158376500Y-44299500D01*
X158308379Y-44279498D01*
X158261886Y-44225842D01*
X158250500Y-44173500D01*
X158250500Y-44082228D01*
X158239636Y-43992453D01*
X158184113Y-43852217D01*
X158092922Y-43732078D01*
X157972783Y-43640887D01*
X157907538Y-43615055D01*
X157840077Y-43588345D01*
X157840075Y-43588344D01*
X157832547Y-43585364D01*
X157742772Y-43574500D01*
X156857228Y-43574500D01*
X156767453Y-43585364D01*
X156759925Y-43588344D01*
X156759923Y-43588345D01*
X156692462Y-43615055D01*
X156627217Y-43640887D01*
X156507078Y-43732078D01*
X156415887Y-43852217D01*
X156360364Y-43992453D01*
X156349500Y-44082228D01*
X156349500Y-45417772D01*
X155150500Y-45417772D01*
X155150500Y-44488793D01*
X155170502Y-44420672D01*
X155187405Y-44399698D01*
X157349698Y-42237405D01*
X157412010Y-42203379D01*
X157438793Y-42200500D01*
X157598500Y-42200500D01*
X157666621Y-42220502D01*
X157713114Y-42274158D01*
X157724500Y-42326500D01*
X157724500Y-42442772D01*
X157735364Y-42532547D01*
X157738344Y-42540075D01*
X157738345Y-42540077D01*
X157752606Y-42576096D01*
X157790887Y-42672783D01*
X157882078Y-42792922D01*
X158002217Y-42884113D01*
X158065832Y-42909300D01*
X158134923Y-42936655D01*
X158134925Y-42936656D01*
X158142453Y-42939636D01*
X158232228Y-42950500D01*
X159142772Y-42950500D01*
X159232547Y-42939636D01*
X159240075Y-42936656D01*
X159240077Y-42936655D01*
X159309168Y-42909300D01*
X159372783Y-42884113D01*
X159492922Y-42792922D01*
X159584113Y-42672783D01*
X159622394Y-42576096D01*
X159636655Y-42540077D01*
X159636656Y-42540075D01*
X159639636Y-42532547D01*
X159650500Y-42442772D01*
X159650500Y-41057228D01*
X159639636Y-40967453D01*
X159584113Y-40827217D01*
X159492922Y-40707078D01*
X159372783Y-40615887D01*
X159286999Y-40581923D01*
X159240077Y-40563345D01*
X159240075Y-40563344D01*
X159232547Y-40560364D01*
X159142772Y-40549500D01*
X158738793Y-40549500D01*
X158670672Y-40529498D01*
X158649698Y-40512595D01*
X157331725Y-39194622D01*
X157297699Y-39132310D01*
X157296046Y-39087991D01*
X157304700Y-39026417D01*
X157304701Y-39026409D01*
X157305251Y-39022493D01*
X157305565Y-39000000D01*
X157285546Y-38821528D01*
X157279427Y-38803955D01*
X157228803Y-38658584D01*
X157226485Y-38651927D01*
X157131316Y-38499625D01*
X157067771Y-38435635D01*
X157009733Y-38377190D01*
X157009729Y-38377187D01*
X157004770Y-38372193D01*
X156993761Y-38365206D01*
X156946860Y-38335442D01*
X156853136Y-38275963D01*
X156823352Y-38265357D01*
X156690586Y-38218081D01*
X156690581Y-38218080D01*
X156683951Y-38215719D01*
X156676965Y-38214886D01*
X156676961Y-38214885D01*
X156549177Y-38199648D01*
X156505624Y-38194455D01*
X156498621Y-38195191D01*
X156498620Y-38195191D01*
X156334025Y-38212490D01*
X156334021Y-38212491D01*
X156327017Y-38213227D01*
X156320346Y-38215498D01*
X156163677Y-38268832D01*
X156163674Y-38268833D01*
X156157007Y-38271103D01*
X156151009Y-38274793D01*
X156151007Y-38274794D01*
X156080526Y-38318154D01*
X156004045Y-38365206D01*
X155999014Y-38370132D01*
X155999011Y-38370135D01*
X155991807Y-38377190D01*
X155875732Y-38490859D01*
X155871913Y-38496784D01*
X155871912Y-38496786D01*
X155782265Y-38635891D01*
X155778446Y-38641817D01*
X155717022Y-38810578D01*
X155694514Y-38988753D01*
X155695201Y-38995760D01*
X155695201Y-38995763D01*
X155697434Y-39018532D01*
X155712039Y-39167486D01*
X155714262Y-39174168D01*
X155714262Y-39174169D01*
X155759639Y-39310578D01*
X155768726Y-39337896D01*
X155772373Y-39343918D01*
X155855857Y-39481766D01*
X155861759Y-39491512D01*
X155866648Y-39496575D01*
X155866649Y-39496576D01*
X155943713Y-39576378D01*
X155986514Y-39620699D01*
X156136789Y-39719036D01*
X156305116Y-39781636D01*
X156312097Y-39782567D01*
X156312099Y-39782568D01*
X156476149Y-39804457D01*
X156476153Y-39804457D01*
X156483130Y-39805388D01*
X156490142Y-39804750D01*
X156490146Y-39804750D01*
X156594062Y-39795293D01*
X156663715Y-39809039D01*
X156694576Y-39831679D01*
X157704789Y-40841892D01*
X157738815Y-40904204D01*
X157737830Y-40961223D01*
X157735364Y-40967453D01*
X157724500Y-41057228D01*
X157724500Y-41173500D01*
X157704498Y-41241621D01*
X157650842Y-41288114D01*
X157598500Y-41299500D01*
X157234220Y-41299500D01*
X157219411Y-41298627D01*
X157195043Y-41295743D01*
X157185690Y-41294636D01*
X157176426Y-41296328D01*
X157176422Y-41296328D01*
X157127989Y-41305173D01*
X157124088Y-41305822D01*
X157075355Y-41313149D01*
X157075347Y-41313151D01*
X157066038Y-41314551D01*
X157059528Y-41317677D01*
X157052427Y-41318974D01*
X157044072Y-41323314D01*
X157000363Y-41346018D01*
X156996825Y-41347786D01*
X156952411Y-41369114D01*
X156943921Y-41373191D01*
X156938635Y-41378078D01*
X156938595Y-41378105D01*
X156932212Y-41381420D01*
X156927172Y-41385725D01*
X156889945Y-41422952D01*
X156886380Y-41426381D01*
X156844444Y-41465146D01*
X156840751Y-41471505D01*
X156835234Y-41477663D01*
X154771433Y-43541464D01*
X154709121Y-43575490D01*
X154667201Y-43577456D01*
X154652377Y-43575662D01*
X154642772Y-43574500D01*
X153757228Y-43574500D01*
X153667453Y-43585364D01*
X153659925Y-43588344D01*
X153659923Y-43588345D01*
X153592462Y-43615055D01*
X153527217Y-43640887D01*
X153407078Y-43732078D01*
X153315887Y-43852217D01*
X153260364Y-43992453D01*
X153249500Y-44082228D01*
X153249500Y-45417772D01*
X153260364Y-45507547D01*
X153315887Y-45647783D01*
X153407078Y-45767922D01*
X153527217Y-45859113D01*
X153598347Y-45887275D01*
X153667453Y-45914636D01*
X153666394Y-45917312D01*
X153715612Y-45946432D01*
X153747470Y-46009879D01*
X153749500Y-46032405D01*
X153749500Y-49613705D01*
X153729498Y-49681826D01*
X153712596Y-49702800D01*
X152937802Y-50477595D01*
X152875489Y-50511620D01*
X152848706Y-50514500D01*
X152221166Y-50514500D01*
X152203248Y-50516194D01*
X152197278Y-50516758D01*
X152197277Y-50516758D01*
X152189631Y-50517481D01*
X152061816Y-50562366D01*
X152054246Y-50567958D01*
X152054243Y-50567959D01*
X151952850Y-50642850D01*
X151950966Y-50640299D01*
X151902783Y-50666610D01*
X151831968Y-50661545D01*
X151775132Y-50618998D01*
X151750321Y-50552478D01*
X151750000Y-50543489D01*
X151750000Y-37426500D01*
X151770002Y-37358379D01*
X151823658Y-37311886D01*
X151876000Y-37300500D01*
X176143500Y-37300500D01*
X176211621Y-37320502D01*
G37*
G04 #@! TD.AperFunction*
M02*
