G04 #@! TF.GenerationSoftware,KiCad,Pcbnew,(6.0.11)*
G04 #@! TF.CreationDate,2023-06-15T16:04:14+03:00*
G04 #@! TF.ProjectId,flyback_48V_48W,666c7962-6163-46b5-9f34-38565f343857,rev?*
G04 #@! TF.SameCoordinates,Original*
G04 #@! TF.FileFunction,Legend,Top*
G04 #@! TF.FilePolarity,Positive*
%FSLAX46Y46*%
G04 Gerber Fmt 4.6, Leading zero omitted, Abs format (unit mm)*
G04 Created by KiCad (PCBNEW (6.0.11)) date 2023-06-15 16:04:14*
%MOMM*%
%LPD*%
G01*
G04 APERTURE LIST*
G04 Aperture macros list*
%AMRoundRect*
0 Rectangle with rounded corners*
0 $1 Rounding radius*
0 $2 $3 $4 $5 $6 $7 $8 $9 X,Y pos of 4 corners*
0 Add a 4 corners polygon primitive as box body*
4,1,4,$2,$3,$4,$5,$6,$7,$8,$9,$2,$3,0*
0 Add four circle primitives for the rounded corners*
1,1,$1+$1,$2,$3*
1,1,$1+$1,$4,$5*
1,1,$1+$1,$6,$7*
1,1,$1+$1,$8,$9*
0 Add four rect primitives between the rounded corners*
20,1,$1+$1,$2,$3,$4,$5,0*
20,1,$1+$1,$4,$5,$6,$7,0*
20,1,$1+$1,$6,$7,$8,$9,0*
20,1,$1+$1,$8,$9,$2,$3,0*%
G04 Aperture macros list end*
%ADD10C,0.150000*%
%ADD11C,0.120000*%
%ADD12C,0.127000*%
%ADD13C,0.200000*%
%ADD14R,2.000000X2.000000*%
%ADD15O,2.000000X2.000000*%
%ADD16C,7.500000*%
%ADD17C,4.700000*%
%ADD18O,3.048000X1.524000*%
%ADD19C,4.300000*%
%ADD20RoundRect,0.250000X-0.625000X0.400000X-0.625000X-0.400000X0.625000X-0.400000X0.625000X0.400000X0*%
%ADD21RoundRect,0.249999X-1.425001X0.450001X-1.425001X-0.450001X1.425001X-0.450001X1.425001X0.450001X0*%
%ADD22R,1.200000X1.200000*%
%ADD23C,1.200000*%
%ADD24R,1.200000X0.900000*%
%ADD25RoundRect,0.250000X-0.650000X0.412500X-0.650000X-0.412500X0.650000X-0.412500X0.650000X0.412500X0*%
%ADD26C,2.000000*%
%ADD27C,1.000000*%
G04 APERTURE END LIST*
D10*
X151661904Y-77692880D02*
X151661904Y-76692880D01*
X151900000Y-76692880D01*
X152042857Y-76740500D01*
X152138095Y-76835738D01*
X152185714Y-76930976D01*
X152233333Y-77121452D01*
X152233333Y-77264309D01*
X152185714Y-77454785D01*
X152138095Y-77550023D01*
X152042857Y-77645261D01*
X151900000Y-77692880D01*
X151661904Y-77692880D01*
X153185714Y-77692880D02*
X152614285Y-77692880D01*
X152900000Y-77692880D02*
X152900000Y-76692880D01*
X152804761Y-76835738D01*
X152709523Y-76930976D01*
X152614285Y-76978595D01*
X101457333Y-88098380D02*
X101790666Y-89098380D01*
X102124000Y-88098380D01*
X102457333Y-89098380D02*
X102457333Y-88098380D01*
X102933523Y-88717428D02*
X103695428Y-88717428D01*
X104695428Y-89098380D02*
X104124000Y-89098380D01*
X104409714Y-89098380D02*
X104409714Y-88098380D01*
X104314476Y-88241238D01*
X104219238Y-88336476D01*
X104124000Y-88384095D01*
X101930803Y-61051925D02*
X102568224Y-61051925D01*
X102643215Y-61014430D01*
X102680710Y-60976934D01*
X102718205Y-60901944D01*
X102718205Y-60751962D01*
X102680710Y-60676972D01*
X102643215Y-60639476D01*
X102568224Y-60601981D01*
X101930803Y-60601981D01*
X102718205Y-59814579D02*
X102718205Y-60264523D01*
X102718205Y-60039551D02*
X101930803Y-60039551D01*
X102043289Y-60114542D01*
X102118280Y-60189532D01*
X102155775Y-60264523D01*
X185666666Y-101152380D02*
X185333333Y-100676190D01*
X185095238Y-101152380D02*
X185095238Y-100152380D01*
X185476190Y-100152380D01*
X185571428Y-100200000D01*
X185619047Y-100247619D01*
X185666666Y-100342857D01*
X185666666Y-100485714D01*
X185619047Y-100580952D01*
X185571428Y-100628571D01*
X185476190Y-100676190D01*
X185095238Y-100676190D01*
X186095238Y-100628571D02*
X186428571Y-100628571D01*
X186571428Y-101152380D02*
X186095238Y-101152380D01*
X186095238Y-100152380D01*
X186571428Y-100152380D01*
X187333333Y-100628571D02*
X187000000Y-100628571D01*
X187000000Y-101152380D02*
X187000000Y-100152380D01*
X187476190Y-100152380D01*
X188000000Y-100152380D02*
X188000000Y-100390476D01*
X187761904Y-100295238D02*
X188000000Y-100390476D01*
X188238095Y-100295238D01*
X187857142Y-100580952D02*
X188000000Y-100390476D01*
X188142857Y-100580952D01*
X188761904Y-100152380D02*
X188761904Y-100390476D01*
X188523809Y-100295238D02*
X188761904Y-100390476D01*
X189000000Y-100295238D01*
X188619047Y-100580952D02*
X188761904Y-100390476D01*
X188904761Y-100580952D01*
X121150190Y-49982380D02*
X120816857Y-49506190D01*
X120578761Y-49982380D02*
X120578761Y-48982380D01*
X120959714Y-48982380D01*
X121054952Y-49030000D01*
X121102571Y-49077619D01*
X121150190Y-49172857D01*
X121150190Y-49315714D01*
X121102571Y-49410952D01*
X121054952Y-49458571D01*
X120959714Y-49506190D01*
X120578761Y-49506190D01*
X121531142Y-49934761D02*
X121626380Y-49982380D01*
X121816857Y-49982380D01*
X121912095Y-49934761D01*
X121959714Y-49839523D01*
X121959714Y-49791904D01*
X121912095Y-49696666D01*
X121816857Y-49649047D01*
X121674000Y-49649047D01*
X121578761Y-49601428D01*
X121531142Y-49506190D01*
X121531142Y-49458571D01*
X121578761Y-49363333D01*
X121674000Y-49315714D01*
X121816857Y-49315714D01*
X121912095Y-49363333D01*
X122388285Y-49315714D02*
X122388285Y-49982380D01*
X122388285Y-49410952D02*
X122435904Y-49363333D01*
X122531142Y-49315714D01*
X122674000Y-49315714D01*
X122769238Y-49363333D01*
X122816857Y-49458571D01*
X122816857Y-49982380D01*
X123245428Y-49077619D02*
X123293047Y-49030000D01*
X123388285Y-48982380D01*
X123626380Y-48982380D01*
X123721619Y-49030000D01*
X123769238Y-49077619D01*
X123816857Y-49172857D01*
X123816857Y-49268095D01*
X123769238Y-49410952D01*
X123197809Y-49982380D01*
X123816857Y-49982380D01*
X184047619Y-49202380D02*
X184380952Y-50202380D01*
X184714285Y-49202380D01*
X185238095Y-49202380D02*
X185428571Y-49202380D01*
X185523809Y-49250000D01*
X185619047Y-49345238D01*
X185666666Y-49535714D01*
X185666666Y-49869047D01*
X185619047Y-50059523D01*
X185523809Y-50154761D01*
X185428571Y-50202380D01*
X185238095Y-50202380D01*
X185142857Y-50154761D01*
X185047619Y-50059523D01*
X185000000Y-49869047D01*
X185000000Y-49535714D01*
X185047619Y-49345238D01*
X185142857Y-49250000D01*
X185238095Y-49202380D01*
X186095238Y-49821428D02*
X186857142Y-49821428D01*
X186476190Y-50202380D02*
X186476190Y-49440476D01*
X187857142Y-50202380D02*
X187285714Y-50202380D01*
X187571428Y-50202380D02*
X187571428Y-49202380D01*
X187476190Y-49345238D01*
X187380952Y-49440476D01*
X187285714Y-49488095D01*
X116530380Y-84645428D02*
X116054190Y-84978761D01*
X116530380Y-85216857D02*
X115530380Y-85216857D01*
X115530380Y-84835904D01*
X115578000Y-84740666D01*
X115625619Y-84693047D01*
X115720857Y-84645428D01*
X115863714Y-84645428D01*
X115958952Y-84693047D01*
X116006571Y-84740666D01*
X116054190Y-84835904D01*
X116054190Y-85216857D01*
X116482761Y-84264476D02*
X116530380Y-84169238D01*
X116530380Y-83978761D01*
X116482761Y-83883523D01*
X116387523Y-83835904D01*
X116339904Y-83835904D01*
X116244666Y-83883523D01*
X116197047Y-83978761D01*
X116197047Y-84121619D01*
X116149428Y-84216857D01*
X116054190Y-84264476D01*
X116006571Y-84264476D01*
X115911333Y-84216857D01*
X115863714Y-84121619D01*
X115863714Y-83978761D01*
X115911333Y-83883523D01*
X116530380Y-82883523D02*
X116530380Y-83454952D01*
X116530380Y-83169238D02*
X115530380Y-83169238D01*
X115673238Y-83264476D01*
X115768476Y-83359714D01*
X115816095Y-83454952D01*
X117242190Y-50326380D02*
X116908857Y-49850190D01*
X116670761Y-50326380D02*
X116670761Y-49326380D01*
X117051714Y-49326380D01*
X117146952Y-49374000D01*
X117194571Y-49421619D01*
X117242190Y-49516857D01*
X117242190Y-49659714D01*
X117194571Y-49754952D01*
X117146952Y-49802571D01*
X117051714Y-49850190D01*
X116670761Y-49850190D01*
X117623142Y-50278761D02*
X117718380Y-50326380D01*
X117908857Y-50326380D01*
X118004095Y-50278761D01*
X118051714Y-50183523D01*
X118051714Y-50135904D01*
X118004095Y-50040666D01*
X117908857Y-49993047D01*
X117766000Y-49993047D01*
X117670761Y-49945428D01*
X117623142Y-49850190D01*
X117623142Y-49802571D01*
X117670761Y-49707333D01*
X117766000Y-49659714D01*
X117908857Y-49659714D01*
X118004095Y-49707333D01*
X118480285Y-49659714D02*
X118480285Y-50326380D01*
X118480285Y-49754952D02*
X118527904Y-49707333D01*
X118623142Y-49659714D01*
X118766000Y-49659714D01*
X118861238Y-49707333D01*
X118908857Y-49802571D01*
X118908857Y-50326380D01*
X119908857Y-50326380D02*
X119337428Y-50326380D01*
X119623142Y-50326380D02*
X119623142Y-49326380D01*
X119527904Y-49469238D01*
X119432666Y-49564476D01*
X119337428Y-49612095D01*
X185666666Y-20152380D02*
X185333333Y-19676190D01*
X185095238Y-20152380D02*
X185095238Y-19152380D01*
X185476190Y-19152380D01*
X185571428Y-19200000D01*
X185619047Y-19247619D01*
X185666666Y-19342857D01*
X185666666Y-19485714D01*
X185619047Y-19580952D01*
X185571428Y-19628571D01*
X185476190Y-19676190D01*
X185095238Y-19676190D01*
X186095238Y-19628571D02*
X186428571Y-19628571D01*
X186571428Y-20152380D02*
X186095238Y-20152380D01*
X186095238Y-19152380D01*
X186571428Y-19152380D01*
X187333333Y-19628571D02*
X187000000Y-19628571D01*
X187000000Y-20152380D02*
X187000000Y-19152380D01*
X187476190Y-19152380D01*
X188000000Y-19152380D02*
X188000000Y-19390476D01*
X187761904Y-19295238D02*
X188000000Y-19390476D01*
X188238095Y-19295238D01*
X187857142Y-19580952D02*
X188000000Y-19390476D01*
X188142857Y-19580952D01*
X188761904Y-19152380D02*
X188761904Y-19390476D01*
X188523809Y-19295238D02*
X188761904Y-19390476D01*
X189000000Y-19295238D01*
X188619047Y-19580952D02*
X188761904Y-19390476D01*
X188904761Y-19580952D01*
X173839142Y-64095142D02*
X173886761Y-64142761D01*
X173934380Y-64285619D01*
X173934380Y-64380857D01*
X173886761Y-64523714D01*
X173791523Y-64618952D01*
X173696285Y-64666571D01*
X173505809Y-64714190D01*
X173362952Y-64714190D01*
X173172476Y-64666571D01*
X173077238Y-64618952D01*
X172982000Y-64523714D01*
X172934380Y-64380857D01*
X172934380Y-64285619D01*
X172982000Y-64142761D01*
X173029619Y-64095142D01*
X173934380Y-63523714D02*
X173886761Y-63618952D01*
X173839142Y-63666571D01*
X173743904Y-63714190D01*
X173458190Y-63714190D01*
X173362952Y-63666571D01*
X173315333Y-63618952D01*
X173267714Y-63523714D01*
X173267714Y-63380857D01*
X173315333Y-63285619D01*
X173362952Y-63238000D01*
X173458190Y-63190380D01*
X173743904Y-63190380D01*
X173839142Y-63238000D01*
X173886761Y-63285619D01*
X173934380Y-63380857D01*
X173934380Y-63523714D01*
X173267714Y-62333238D02*
X173934380Y-62333238D01*
X173267714Y-62761809D02*
X173791523Y-62761809D01*
X173886761Y-62714190D01*
X173934380Y-62618952D01*
X173934380Y-62476095D01*
X173886761Y-62380857D01*
X173839142Y-62333238D01*
X173267714Y-61999904D02*
X173267714Y-61618952D01*
X172934380Y-61857047D02*
X173791523Y-61857047D01*
X173886761Y-61809428D01*
X173934380Y-61714190D01*
X173934380Y-61618952D01*
X173934380Y-60761809D02*
X173934380Y-61333238D01*
X173934380Y-61047523D02*
X172934380Y-61047523D01*
X173077238Y-61142761D01*
X173172476Y-61238000D01*
X173220095Y-61333238D01*
X112212380Y-52903238D02*
X111212380Y-52903238D01*
X111212380Y-52665142D01*
X111260000Y-52522285D01*
X111355238Y-52427047D01*
X111450476Y-52379428D01*
X111640952Y-52331809D01*
X111783809Y-52331809D01*
X111974285Y-52379428D01*
X112069523Y-52427047D01*
X112164761Y-52522285D01*
X112212380Y-52665142D01*
X112212380Y-52903238D01*
X112164761Y-51950857D02*
X112212380Y-51855619D01*
X112212380Y-51665142D01*
X112164761Y-51569904D01*
X112069523Y-51522285D01*
X112021904Y-51522285D01*
X111926666Y-51569904D01*
X111879047Y-51665142D01*
X111879047Y-51808000D01*
X111831428Y-51903238D01*
X111736190Y-51950857D01*
X111688571Y-51950857D01*
X111593333Y-51903238D01*
X111545714Y-51808000D01*
X111545714Y-51665142D01*
X111593333Y-51569904D01*
X111545714Y-51093714D02*
X112212380Y-51093714D01*
X111640952Y-51093714D02*
X111593333Y-51046095D01*
X111545714Y-50950857D01*
X111545714Y-50808000D01*
X111593333Y-50712761D01*
X111688571Y-50665142D01*
X112212380Y-50665142D01*
X112212380Y-49665142D02*
X112212380Y-50236571D01*
X112212380Y-49950857D02*
X111212380Y-49950857D01*
X111355238Y-50046095D01*
X111450476Y-50141333D01*
X111498095Y-50236571D01*
X126087142Y-47759809D02*
X126134761Y-47807428D01*
X126182380Y-47950285D01*
X126182380Y-48045523D01*
X126134761Y-48188380D01*
X126039523Y-48283619D01*
X125944285Y-48331238D01*
X125753809Y-48378857D01*
X125610952Y-48378857D01*
X125420476Y-48331238D01*
X125325238Y-48283619D01*
X125230000Y-48188380D01*
X125182380Y-48045523D01*
X125182380Y-47950285D01*
X125230000Y-47807428D01*
X125277619Y-47759809D01*
X126134761Y-47378857D02*
X126182380Y-47283619D01*
X126182380Y-47093142D01*
X126134761Y-46997904D01*
X126039523Y-46950285D01*
X125991904Y-46950285D01*
X125896666Y-46997904D01*
X125849047Y-47093142D01*
X125849047Y-47236000D01*
X125801428Y-47331238D01*
X125706190Y-47378857D01*
X125658571Y-47378857D01*
X125563333Y-47331238D01*
X125515714Y-47236000D01*
X125515714Y-47093142D01*
X125563333Y-46997904D01*
X125515714Y-46521714D02*
X126182380Y-46521714D01*
X125610952Y-46521714D02*
X125563333Y-46474095D01*
X125515714Y-46378857D01*
X125515714Y-46236000D01*
X125563333Y-46140761D01*
X125658571Y-46093142D01*
X126182380Y-46093142D01*
X126182380Y-45093142D02*
X126182380Y-45664571D01*
X126182380Y-45378857D02*
X125182380Y-45378857D01*
X125325238Y-45474095D01*
X125420476Y-45569333D01*
X125468095Y-45664571D01*
X104666666Y-106452380D02*
X104333333Y-105976190D01*
X104095238Y-106452380D02*
X104095238Y-105452380D01*
X104476190Y-105452380D01*
X104571428Y-105500000D01*
X104619047Y-105547619D01*
X104666666Y-105642857D01*
X104666666Y-105785714D01*
X104619047Y-105880952D01*
X104571428Y-105928571D01*
X104476190Y-105976190D01*
X104095238Y-105976190D01*
X105095238Y-105928571D02*
X105428571Y-105928571D01*
X105571428Y-106452380D02*
X105095238Y-106452380D01*
X105095238Y-105452380D01*
X105571428Y-105452380D01*
X106333333Y-105928571D02*
X106000000Y-105928571D01*
X106000000Y-106452380D02*
X106000000Y-105452380D01*
X106476190Y-105452380D01*
X107000000Y-105452380D02*
X107000000Y-105690476D01*
X106761904Y-105595238D02*
X107000000Y-105690476D01*
X107238095Y-105595238D01*
X106857142Y-105880952D02*
X107000000Y-105690476D01*
X107142857Y-105880952D01*
X107761904Y-105452380D02*
X107761904Y-105690476D01*
X107523809Y-105595238D02*
X107761904Y-105690476D01*
X108000000Y-105595238D01*
X107619047Y-105880952D02*
X107761904Y-105690476D01*
X107904761Y-105880952D01*
X104666666Y-20152380D02*
X104333333Y-19676190D01*
X104095238Y-20152380D02*
X104095238Y-19152380D01*
X104476190Y-19152380D01*
X104571428Y-19200000D01*
X104619047Y-19247619D01*
X104666666Y-19342857D01*
X104666666Y-19485714D01*
X104619047Y-19580952D01*
X104571428Y-19628571D01*
X104476190Y-19676190D01*
X104095238Y-19676190D01*
X105095238Y-19628571D02*
X105428571Y-19628571D01*
X105571428Y-20152380D02*
X105095238Y-20152380D01*
X105095238Y-19152380D01*
X105571428Y-19152380D01*
X106333333Y-19628571D02*
X106000000Y-19628571D01*
X106000000Y-20152380D02*
X106000000Y-19152380D01*
X106476190Y-19152380D01*
X107000000Y-19152380D02*
X107000000Y-19390476D01*
X106761904Y-19295238D02*
X107000000Y-19390476D01*
X107238095Y-19295238D01*
X106857142Y-19580952D02*
X107000000Y-19390476D01*
X107142857Y-19580952D01*
X107761904Y-19152380D02*
X107761904Y-19390476D01*
X107523809Y-19295238D02*
X107761904Y-19390476D01*
X108000000Y-19295238D01*
X107619047Y-19580952D02*
X107761904Y-19390476D01*
X107904761Y-19580952D01*
X148148095Y-60802380D02*
X148719523Y-60802380D01*
X148433809Y-61802380D02*
X148433809Y-60802380D01*
X149576666Y-61802380D02*
X149005238Y-61802380D01*
X149290952Y-61802380D02*
X149290952Y-60802380D01*
X149195714Y-60945238D01*
X149100476Y-61040476D01*
X149005238Y-61088095D01*
X126595142Y-42728642D02*
X126642761Y-42776261D01*
X126690380Y-42919119D01*
X126690380Y-43014357D01*
X126642761Y-43157214D01*
X126547523Y-43252452D01*
X126452285Y-43300071D01*
X126261809Y-43347690D01*
X126118952Y-43347690D01*
X125928476Y-43300071D01*
X125833238Y-43252452D01*
X125738000Y-43157214D01*
X125690380Y-43014357D01*
X125690380Y-42919119D01*
X125738000Y-42776261D01*
X125785619Y-42728642D01*
X126690380Y-42300071D02*
X126023714Y-42300071D01*
X125690380Y-42300071D02*
X125738000Y-42347690D01*
X125785619Y-42300071D01*
X125738000Y-42252452D01*
X125690380Y-42300071D01*
X125785619Y-42300071D01*
X126023714Y-41823880D02*
X126690380Y-41823880D01*
X126118952Y-41823880D02*
X126071333Y-41776261D01*
X126023714Y-41681023D01*
X126023714Y-41538166D01*
X126071333Y-41442928D01*
X126166571Y-41395309D01*
X126690380Y-41395309D01*
X125785619Y-40966738D02*
X125738000Y-40919119D01*
X125690380Y-40823880D01*
X125690380Y-40585785D01*
X125738000Y-40490547D01*
X125785619Y-40442928D01*
X125880857Y-40395309D01*
X125976095Y-40395309D01*
X126118952Y-40442928D01*
X126690380Y-41014357D01*
X126690380Y-40395309D01*
X188897142Y-62682380D02*
X188944761Y-62730000D01*
X188992380Y-62872857D01*
X188992380Y-62968095D01*
X188944761Y-63110952D01*
X188849523Y-63206190D01*
X188754285Y-63253809D01*
X188563809Y-63301428D01*
X188420952Y-63301428D01*
X188230476Y-63253809D01*
X188135238Y-63206190D01*
X188040000Y-63110952D01*
X187992380Y-62968095D01*
X187992380Y-62872857D01*
X188040000Y-62730000D01*
X188087619Y-62682380D01*
X188325714Y-62396666D02*
X188325714Y-62015714D01*
X188992380Y-62253809D02*
X188135238Y-62253809D01*
X188040000Y-62206190D01*
X187992380Y-62110952D01*
X187992380Y-62015714D01*
X188087619Y-61730000D02*
X188040000Y-61682380D01*
X187992380Y-61587142D01*
X187992380Y-61349047D01*
X188040000Y-61253809D01*
X188087619Y-61206190D01*
X188182857Y-61158571D01*
X188278095Y-61158571D01*
X188420952Y-61206190D01*
X188992380Y-61777619D01*
X188992380Y-61158571D01*
X179935142Y-66746380D02*
X179982761Y-66794000D01*
X180030380Y-66936857D01*
X180030380Y-67032095D01*
X179982761Y-67174952D01*
X179887523Y-67270190D01*
X179792285Y-67317809D01*
X179601809Y-67365428D01*
X179458952Y-67365428D01*
X179268476Y-67317809D01*
X179173238Y-67270190D01*
X179078000Y-67174952D01*
X179030380Y-67032095D01*
X179030380Y-66936857D01*
X179078000Y-66794000D01*
X179125619Y-66746380D01*
X179363714Y-66460666D02*
X179363714Y-66079714D01*
X180030380Y-66317809D02*
X179173238Y-66317809D01*
X179078000Y-66270190D01*
X179030380Y-66174952D01*
X179030380Y-66079714D01*
X179030380Y-65841619D02*
X179030380Y-65222571D01*
X179411333Y-65555904D01*
X179411333Y-65413047D01*
X179458952Y-65317809D01*
X179506571Y-65270190D01*
X179601809Y-65222571D01*
X179839904Y-65222571D01*
X179935142Y-65270190D01*
X179982761Y-65317809D01*
X180030380Y-65413047D01*
X180030380Y-65698761D01*
X179982761Y-65794000D01*
X179935142Y-65841619D01*
X184047619Y-64702380D02*
X184380952Y-65702380D01*
X184714285Y-64702380D01*
X185238095Y-64702380D02*
X185428571Y-64702380D01*
X185523809Y-64750000D01*
X185619047Y-64845238D01*
X185666666Y-65035714D01*
X185666666Y-65369047D01*
X185619047Y-65559523D01*
X185523809Y-65654761D01*
X185428571Y-65702380D01*
X185238095Y-65702380D01*
X185142857Y-65654761D01*
X185047619Y-65559523D01*
X185000000Y-65369047D01*
X185000000Y-65035714D01*
X185047619Y-64845238D01*
X185142857Y-64750000D01*
X185238095Y-64702380D01*
X186095238Y-65321428D02*
X186857142Y-65321428D01*
X187857142Y-65702380D02*
X187285714Y-65702380D01*
X187571428Y-65702380D02*
X187571428Y-64702380D01*
X187476190Y-64845238D01*
X187380952Y-64940476D01*
X187285714Y-64988095D01*
X100915333Y-77312380D02*
X101486761Y-77312380D01*
X101201047Y-78312380D02*
X101201047Y-77312380D01*
X101772476Y-78264761D02*
X101867714Y-78312380D01*
X102058190Y-78312380D01*
X102153428Y-78264761D01*
X102201047Y-78169523D01*
X102201047Y-78121904D01*
X102153428Y-78026666D01*
X102058190Y-77979047D01*
X101915333Y-77979047D01*
X101820095Y-77931428D01*
X101772476Y-77836190D01*
X101772476Y-77788571D01*
X101820095Y-77693333D01*
X101915333Y-77645714D01*
X102058190Y-77645714D01*
X102153428Y-77693333D01*
X103153428Y-78312380D02*
X102582000Y-78312380D01*
X102867714Y-78312380D02*
X102867714Y-77312380D01*
X102772476Y-77455238D01*
X102677238Y-77550476D01*
X102582000Y-77598095D01*
X183237142Y-66746380D02*
X183284761Y-66794000D01*
X183332380Y-66936857D01*
X183332380Y-67032095D01*
X183284761Y-67174952D01*
X183189523Y-67270190D01*
X183094285Y-67317809D01*
X182903809Y-67365428D01*
X182760952Y-67365428D01*
X182570476Y-67317809D01*
X182475238Y-67270190D01*
X182380000Y-67174952D01*
X182332380Y-67032095D01*
X182332380Y-66936857D01*
X182380000Y-66794000D01*
X182427619Y-66746380D01*
X182665714Y-66460666D02*
X182665714Y-66079714D01*
X183332380Y-66317809D02*
X182475238Y-66317809D01*
X182380000Y-66270190D01*
X182332380Y-66174952D01*
X182332380Y-66079714D01*
X183332380Y-65222571D02*
X183332380Y-65794000D01*
X183332380Y-65508285D02*
X182332380Y-65508285D01*
X182475238Y-65603523D01*
X182570476Y-65698761D01*
X182618095Y-65794000D01*
X111196380Y-84645428D02*
X110720190Y-84978761D01*
X111196380Y-85216857D02*
X110196380Y-85216857D01*
X110196380Y-84835904D01*
X110244000Y-84740666D01*
X110291619Y-84693047D01*
X110386857Y-84645428D01*
X110529714Y-84645428D01*
X110624952Y-84693047D01*
X110672571Y-84740666D01*
X110720190Y-84835904D01*
X110720190Y-85216857D01*
X111148761Y-84264476D02*
X111196380Y-84169238D01*
X111196380Y-83978761D01*
X111148761Y-83883523D01*
X111053523Y-83835904D01*
X111005904Y-83835904D01*
X110910666Y-83883523D01*
X110863047Y-83978761D01*
X110863047Y-84121619D01*
X110815428Y-84216857D01*
X110720190Y-84264476D01*
X110672571Y-84264476D01*
X110577333Y-84216857D01*
X110529714Y-84121619D01*
X110529714Y-83978761D01*
X110577333Y-83883523D01*
X110291619Y-83454952D02*
X110244000Y-83407333D01*
X110196380Y-83312095D01*
X110196380Y-83074000D01*
X110244000Y-82978761D01*
X110291619Y-82931142D01*
X110386857Y-82883523D01*
X110482095Y-82883523D01*
X110624952Y-82931142D01*
X111196380Y-83502571D01*
X111196380Y-82883523D01*
X178252857Y-33768380D02*
X178824285Y-33768380D01*
X178538571Y-34768380D02*
X178538571Y-33768380D01*
X179014761Y-34101714D02*
X179395714Y-34101714D01*
X179157619Y-33768380D02*
X179157619Y-34625523D01*
X179205238Y-34720761D01*
X179300476Y-34768380D01*
X179395714Y-34768380D01*
X179729047Y-34768380D02*
X179729047Y-34101714D01*
X179729047Y-34292190D02*
X179776666Y-34196952D01*
X179824285Y-34149333D01*
X179919523Y-34101714D01*
X180014761Y-34101714D01*
X180871904Y-34768380D02*
X180300476Y-34768380D01*
X180586190Y-34768380D02*
X180586190Y-33768380D01*
X180490952Y-33911238D01*
X180395714Y-34006476D01*
X180300476Y-34054095D01*
X121880380Y-56641809D02*
X121880380Y-56070380D01*
X122880380Y-56356095D02*
X121880380Y-56356095D01*
X122880380Y-55308476D02*
X121880380Y-55308476D01*
X122832761Y-55308476D02*
X122880380Y-55403714D01*
X122880380Y-55594190D01*
X122832761Y-55689428D01*
X122785142Y-55737047D01*
X122689904Y-55784666D01*
X122404190Y-55784666D01*
X122308952Y-55737047D01*
X122261333Y-55689428D01*
X122213714Y-55594190D01*
X122213714Y-55403714D01*
X122261333Y-55308476D01*
X122880380Y-54832285D02*
X122213714Y-54832285D01*
X122404190Y-54832285D02*
X122308952Y-54784666D01*
X122261333Y-54737047D01*
X122213714Y-54641809D01*
X122213714Y-54546571D01*
X122880380Y-53689428D02*
X122880380Y-54260857D01*
X122880380Y-53975142D02*
X121880380Y-53975142D01*
X122023238Y-54070380D01*
X122118476Y-54165619D01*
X122166095Y-54260857D01*
X114333333Y-30702380D02*
X114666666Y-31702380D01*
X115000000Y-30702380D01*
X115333333Y-31702380D02*
X115333333Y-30702380D01*
X115809523Y-31321428D02*
X116571428Y-31321428D01*
X116190476Y-31702380D02*
X116190476Y-30940476D01*
X117571428Y-31702380D02*
X117000000Y-31702380D01*
X117285714Y-31702380D02*
X117285714Y-30702380D01*
X117190476Y-30845238D01*
X117095238Y-30940476D01*
X117000000Y-30988095D01*
X122332857Y-40997142D02*
X122285238Y-41044761D01*
X122142380Y-41092380D01*
X122047142Y-41092380D01*
X121904285Y-41044761D01*
X121809047Y-40949523D01*
X121761428Y-40854285D01*
X121713809Y-40663809D01*
X121713809Y-40520952D01*
X121761428Y-40330476D01*
X121809047Y-40235238D01*
X121904285Y-40140000D01*
X122047142Y-40092380D01*
X122142380Y-40092380D01*
X122285238Y-40140000D01*
X122332857Y-40187619D01*
X122761428Y-41092380D02*
X122761428Y-40425714D01*
X122761428Y-40092380D02*
X122713809Y-40140000D01*
X122761428Y-40187619D01*
X122809047Y-40140000D01*
X122761428Y-40092380D01*
X122761428Y-40187619D01*
X123237619Y-40425714D02*
X123237619Y-41092380D01*
X123237619Y-40520952D02*
X123285238Y-40473333D01*
X123380476Y-40425714D01*
X123523333Y-40425714D01*
X123618571Y-40473333D01*
X123666190Y-40568571D01*
X123666190Y-41092380D01*
X124666190Y-41092380D02*
X124094761Y-41092380D01*
X124380476Y-41092380D02*
X124380476Y-40092380D01*
X124285238Y-40235238D01*
X124190000Y-40330476D01*
X124094761Y-40378095D01*
X128627142Y-42513142D02*
X128674761Y-42560761D01*
X128722380Y-42703619D01*
X128722380Y-42798857D01*
X128674761Y-42941714D01*
X128579523Y-43036952D01*
X128484285Y-43084571D01*
X128293809Y-43132190D01*
X128150952Y-43132190D01*
X127960476Y-43084571D01*
X127865238Y-43036952D01*
X127770000Y-42941714D01*
X127722380Y-42798857D01*
X127722380Y-42703619D01*
X127770000Y-42560761D01*
X127817619Y-42513142D01*
X128722380Y-42084571D02*
X128055714Y-42084571D01*
X127722380Y-42084571D02*
X127770000Y-42132190D01*
X127817619Y-42084571D01*
X127770000Y-42036952D01*
X127722380Y-42084571D01*
X127817619Y-42084571D01*
X128055714Y-41608380D02*
X128722380Y-41608380D01*
X128150952Y-41608380D02*
X128103333Y-41560761D01*
X128055714Y-41465523D01*
X128055714Y-41322666D01*
X128103333Y-41227428D01*
X128198571Y-41179809D01*
X128722380Y-41179809D01*
X127722380Y-40798857D02*
X127722380Y-40179809D01*
X128103333Y-40513142D01*
X128103333Y-40370285D01*
X128150952Y-40275047D01*
X128198571Y-40227428D01*
X128293809Y-40179809D01*
X128531904Y-40179809D01*
X128627142Y-40227428D01*
X128674761Y-40275047D01*
X128722380Y-40370285D01*
X128722380Y-40656000D01*
X128674761Y-40751238D01*
X128627142Y-40798857D01*
D11*
X159806000Y-74690000D02*
X149566000Y-74690000D01*
X159806000Y-76200000D02*
X149566000Y-76200000D01*
X156536000Y-76200000D02*
X156536000Y-74690000D01*
X149566000Y-76200000D02*
X149566000Y-71559000D01*
X159806000Y-71559000D02*
X149566000Y-71559000D01*
X152835000Y-76200000D02*
X152835000Y-74690000D01*
X159806000Y-76200000D02*
X159806000Y-71559000D01*
X172146000Y-83593000D02*
X137226000Y-83593000D01*
X137226000Y-83593000D02*
X137226000Y-76454000D01*
X137226000Y-76454000D02*
X172146000Y-76454000D01*
X172146000Y-76454000D02*
X172146000Y-83593000D01*
X137226000Y-76454000D02*
X149606000Y-76454000D01*
X149606000Y-76454000D02*
X149606000Y-70888000D01*
X149606000Y-70888000D02*
X137226000Y-70888000D01*
X137226000Y-70888000D02*
X137226000Y-76454000D01*
X172146000Y-76454000D02*
X159806000Y-76454000D01*
X159806000Y-76454000D02*
X159806000Y-70888000D01*
X159806000Y-70888000D02*
X172146000Y-70888000D01*
X172146000Y-70888000D02*
X172146000Y-76454000D01*
D12*
X107757000Y-54220000D02*
X108265000Y-54220000D01*
X108265000Y-64380000D02*
X107757000Y-64380000D01*
X103185000Y-54220000D02*
X107757000Y-54220000D01*
X108265000Y-54220000D02*
X108265000Y-64380000D01*
X107757000Y-64380000D02*
X103185000Y-64380000D01*
X107757000Y-54220000D02*
X107757000Y-64380000D01*
X103185000Y-64380000D02*
X103185000Y-54220000D01*
D11*
X108265000Y-41840000D02*
X115725000Y-41840000D01*
X115725000Y-41840000D02*
X115725000Y-76760000D01*
X115725000Y-76760000D02*
X108265000Y-76760000D01*
X108265000Y-76760000D02*
X108265000Y-41840000D01*
X108265000Y-64380000D02*
X102675000Y-64380000D01*
X102675000Y-64380000D02*
X102675000Y-76760000D01*
X102675000Y-76760000D02*
X108265000Y-76760000D01*
X108265000Y-76760000D02*
X108265000Y-64380000D01*
X108265000Y-41840000D02*
X102675000Y-41840000D01*
X102675000Y-41840000D02*
X102675000Y-54220000D01*
X102675000Y-54220000D02*
X108265000Y-54220000D01*
X108265000Y-54220000D02*
X108265000Y-41840000D01*
X119994000Y-45246936D02*
X119994000Y-46701064D01*
X121814000Y-45246936D02*
X121814000Y-46701064D01*
X114368000Y-81896936D02*
X114368000Y-86251064D01*
X117788000Y-81896936D02*
X117788000Y-86251064D01*
X117454000Y-45246936D02*
X117454000Y-46701064D01*
X119274000Y-45246936D02*
X119274000Y-46701064D01*
D13*
X171296000Y-56226000D02*
G75*
G03*
X171296000Y-56226000I-100000J0D01*
G01*
D12*
X176196000Y-61976000D02*
G75*
G03*
X176196000Y-61976000I-5000000J0D01*
G01*
D11*
X115554000Y-48296000D02*
X115554000Y-52196000D01*
X113554000Y-48296000D02*
X113554000Y-52196000D01*
X115554000Y-48296000D02*
X113554000Y-48296000D01*
X122534000Y-45262748D02*
X122534000Y-46685252D01*
X124354000Y-45262748D02*
X124354000Y-46685252D01*
X133096000Y-35052000D02*
X163068000Y-35052000D01*
X133096000Y-65024000D02*
X133096000Y-35052000D01*
X163068000Y-65024000D02*
X163068000Y-35052000D01*
X133096000Y-65024000D02*
X163068000Y-65024000D01*
X162702000Y-56388000D02*
G75*
G03*
X162702000Y-56388000I-650000J0D01*
G01*
X134762000Y-64008000D02*
G75*
G03*
X134762000Y-64008000I-650000J0D01*
G01*
X162702000Y-36068000D02*
G75*
G03*
X162702000Y-36068000I-650000J0D01*
G01*
X134762000Y-38608000D02*
G75*
G03*
X134762000Y-38608000I-650000J0D01*
G01*
X157622000Y-56388000D02*
G75*
G03*
X157622000Y-56388000I-650000J0D01*
G01*
X134762000Y-43688000D02*
G75*
G03*
X134762000Y-43688000I-650000J0D01*
G01*
X162702000Y-61468000D02*
G75*
G03*
X162702000Y-61468000I-650000J0D01*
G01*
X137302000Y-36068000D02*
G75*
G03*
X137302000Y-36068000I-650000J0D01*
G01*
X139842000Y-43688000D02*
G75*
G03*
X139842000Y-43688000I-650000J0D01*
G01*
X142382000Y-41148000D02*
G75*
G03*
X142382000Y-41148000I-650000J0D01*
G01*
X160162000Y-64008000D02*
G75*
G03*
X160162000Y-64008000I-650000J0D01*
G01*
X155082000Y-58928000D02*
G75*
G03*
X155082000Y-58928000I-650000J0D01*
G01*
X142382000Y-36068000D02*
G75*
G03*
X142382000Y-36068000I-650000J0D01*
G01*
X155082000Y-64008000D02*
G75*
G03*
X155082000Y-64008000I-650000J0D01*
G01*
X127148000Y-36118748D02*
X127148000Y-37541252D01*
X125328000Y-36118748D02*
X125328000Y-37541252D01*
X187600000Y-61518748D02*
X187600000Y-62941252D01*
X185780000Y-61518748D02*
X185780000Y-62941252D01*
X180488000Y-61518748D02*
X180488000Y-62941252D01*
X178668000Y-61518748D02*
X178668000Y-62941252D01*
X104332000Y-80010000D02*
G75*
G03*
X104332000Y-80010000I-700000J0D01*
G01*
X182224000Y-61518748D02*
X182224000Y-62941252D01*
X184044000Y-61518748D02*
X184044000Y-62941252D01*
X109034000Y-81896936D02*
X109034000Y-86251064D01*
X112454000Y-81896936D02*
X112454000Y-86251064D01*
X180278000Y-37084000D02*
G75*
G03*
X180278000Y-37084000I-700000J0D01*
G01*
X120080000Y-54356000D02*
G75*
G03*
X120080000Y-54356000I-700000J0D01*
G01*
X123592000Y-36118748D02*
X123592000Y-37541252D01*
X121772000Y-36118748D02*
X121772000Y-37541252D01*
X128884000Y-36118748D02*
X128884000Y-37541252D01*
X130704000Y-36118748D02*
X130704000Y-37541252D01*
%LPC*%
D14*
X157226000Y-72930000D03*
D15*
X152146000Y-72930000D03*
D16*
X116000000Y-94000000D03*
D17*
X116000000Y-94000000D03*
D18*
X105725000Y-59300000D03*
X105725000Y-56760000D03*
X105725000Y-61840000D03*
D19*
X187000000Y-106000000D03*
D20*
X120904000Y-44424000D03*
X120904000Y-47524000D03*
D16*
X186000000Y-54500000D03*
D17*
X186000000Y-54500000D03*
D21*
X116078000Y-81024000D03*
X116078000Y-87124000D03*
D20*
X118364000Y-44424000D03*
X118364000Y-47524000D03*
D19*
X187000000Y-25000000D03*
D22*
X171196000Y-59476000D03*
D23*
X171196000Y-64476000D03*
D24*
X114554000Y-48896000D03*
X114554000Y-52196000D03*
D25*
X123444000Y-44411500D03*
X123444000Y-47536500D03*
D19*
X106000000Y-106000000D03*
X106000000Y-25000000D03*
D26*
X136652000Y-36068000D03*
X141732000Y-36068000D03*
X134112000Y-43688000D03*
X134112000Y-38608000D03*
X154432000Y-64008000D03*
X159512000Y-64008000D03*
X162052000Y-56388000D03*
X162052000Y-61468000D03*
D25*
X126238000Y-35267500D03*
X126238000Y-38392500D03*
X186690000Y-60667500D03*
X186690000Y-63792500D03*
X179578000Y-60667500D03*
X179578000Y-63792500D03*
D17*
X186000000Y-70000000D03*
D16*
X186000000Y-70000000D03*
D27*
X103632000Y-80010000D03*
D25*
X183134000Y-60667500D03*
X183134000Y-63792500D03*
D21*
X110744000Y-81024000D03*
X110744000Y-87124000D03*
D27*
X179578000Y-37084000D03*
X119380000Y-54356000D03*
D17*
X116000000Y-36000000D03*
D16*
X116000000Y-36000000D03*
D25*
X122682000Y-35267500D03*
X122682000Y-38392500D03*
X129794000Y-35267500D03*
X129794000Y-38392500D03*
D27*
X156972000Y-87630000D03*
X141732000Y-76962000D03*
X176276000Y-82804000D03*
X156210000Y-92456000D03*
M02*
