M48
; DRILL file {KiCad (6.0.11)} date Thu Jun 15 16:04:23 2023
; FORMAT={-:-/ absolute / metric / decimal}
; #@! TF.CreationDate,2023-06-15T16:04:23+03:00
; #@! TF.GenerationSoftware,Kicad,Pcbnew,(6.0.11)
; #@! TF.FileFunction,Plated,1,2,PTH
FMAT,2
METRIC
; #@! TA.AperFunction,Plated,PTH,ViaDrill
T1C0.400
; #@! TA.AperFunction,Plated,PTH,ComponentDrill
T2C0.500
; #@! TA.AperFunction,Plated,PTH,ComponentDrill
T3C0.850
; #@! TA.AperFunction,Plated,PTH,ComponentDrill
T4C1.000
; #@! TA.AperFunction,Plated,PTH,ComponentDrill
T5C1.016
; #@! TA.AperFunction,Plated,PTH,ComponentDrill
T6C1.100
; #@! TA.AperFunction,Plated,PTH,ComponentDrill
T7C4.300
%
G90
G05
T1
X121.158Y-80.518
X129.794Y-41.148
T2
X103.632Y-80.01
X119.38Y-54.356
X141.732Y-76.962
X156.21Y-92.456
X156.972Y-87.63
X176.276Y-82.804
X179.578Y-37.084
T3
X171.196Y-59.476
X171.196Y-64.476
T4
X134.112Y-38.608
X134.112Y-43.688
X136.652Y-36.068
X141.732Y-36.068
X154.432Y-64.008
X159.512Y-64.008
X162.052Y-56.388
X162.052Y-61.468
T5
X105.725Y-56.76
X105.725Y-59.3
X105.725Y-61.84
T6
X152.146Y-72.93
X157.226Y-72.93
T7
X116.0Y-36.0
X116.0Y-94.0
X186.0Y-54.5
X186.0Y-70.0
T0
M30
