%TF.GenerationSoftware,KiCad,Pcbnew,(6.0.11)*%
%TF.CreationDate,2023-06-15T16:04:24+03:00*%
%TF.ProjectId,flyback_48V_48W,666c7962-6163-46b5-9f34-38565f343857,rev?*%
%TF.SameCoordinates,Original*%
%TF.FileFunction,Drillmap*%
%TF.FilePolarity,Positive*%
%FSLAX45Y45*%
G04 Gerber Fmt 4.5, Leading zero omitted, Abs format (unit mm)*
G04 Created by KiCad (PCBNEW (6.0.11)) date 2023-06-15 16:04:24*
%MOMM*%
%LPD*%
G01*
G04 APERTURE LIST*
%ADD10C,0.100000*%
%ADD11C,0.200000*%
%ADD12C,0.040000*%
%ADD13C,0.050000*%
%ADD14C,0.085000*%
%ADD15C,0.101600*%
%ADD16C,0.110000*%
%ADD17C,0.430000*%
G04 APERTURE END LIST*
D10*
X18000000Y-10160000D02*
X18000000Y-11252200D01*
X11277600Y-10160000D02*
X18000000Y-10160000D01*
X11277600Y-11176000D02*
X11277600Y-10160000D01*
X9906000Y-11176000D02*
X11277600Y-11176000D01*
X19558000Y-11252200D02*
X18000000Y-11252200D01*
X19558000Y-1778000D02*
X19558000Y-11252200D01*
X18034000Y-1778000D02*
X19558000Y-1778000D01*
X18034000Y-2921000D02*
X18034000Y-1778000D01*
X11303000Y-2921000D02*
X18034000Y-2921000D01*
X11303000Y-1778000D02*
X11303000Y-2921000D01*
X9906000Y-1778000D02*
X11303000Y-1778000D01*
X9906000Y-11176000D02*
X9906000Y-1778000D01*
D11*
D12*
X12095800Y-8031800D02*
X12135800Y-8071800D01*
X12135800Y-8031800D02*
X12095800Y-8071800D01*
X12959400Y-4094800D02*
X12999400Y-4134800D01*
X12999400Y-4094800D02*
X12959400Y-4134800D01*
D13*
X10388200Y-8001000D02*
G75*
G03*
X10388200Y-8001000I-25000J0D01*
G01*
X11963000Y-5435600D02*
G75*
G03*
X11963000Y-5435600I-25000J0D01*
G01*
X14198200Y-7696200D02*
G75*
G03*
X14198200Y-7696200I-25000J0D01*
G01*
X15646000Y-9245600D02*
G75*
G03*
X15646000Y-9245600I-25000J0D01*
G01*
X15722200Y-8763000D02*
G75*
G03*
X15722200Y-8763000I-25000J0D01*
G01*
X17652600Y-8280400D02*
G75*
G03*
X17652600Y-8280400I-25000J0D01*
G01*
X17982800Y-3708400D02*
G75*
G03*
X17982800Y-3708400I-25000J0D01*
G01*
D14*
X17119600Y-5905100D02*
X17119600Y-5990100D01*
X17077100Y-5947600D02*
X17162100Y-5947600D01*
X17119600Y-6405100D02*
X17119600Y-6490100D01*
X17077100Y-6447600D02*
X17162100Y-6447600D01*
D10*
X13446556Y-3896156D02*
X13446556Y-3825444D01*
X13375844Y-3825444D01*
X13375844Y-3896156D01*
X13446556Y-3896156D01*
X13446556Y-4404156D02*
X13446556Y-4333444D01*
X13375844Y-4333444D01*
X13375844Y-4404156D01*
X13446556Y-4404156D01*
X13700556Y-3642156D02*
X13700556Y-3571444D01*
X13629844Y-3571444D01*
X13629844Y-3642156D01*
X13700556Y-3642156D01*
X14208556Y-3642156D02*
X14208556Y-3571444D01*
X14137844Y-3571444D01*
X14137844Y-3642156D01*
X14208556Y-3642156D01*
X15478556Y-6436156D02*
X15478556Y-6365444D01*
X15407844Y-6365444D01*
X15407844Y-6436156D01*
X15478556Y-6436156D01*
X15986556Y-6436156D02*
X15986556Y-6365444D01*
X15915844Y-6365444D01*
X15915844Y-6436156D01*
X15986556Y-6436156D01*
X16240556Y-5674156D02*
X16240556Y-5603444D01*
X16169844Y-5603444D01*
X16169844Y-5674156D01*
X16240556Y-5674156D01*
X16240556Y-6182156D02*
X16240556Y-6111444D01*
X16169844Y-6111444D01*
X16169844Y-6182156D01*
X16240556Y-6182156D01*
D15*
X10572500Y-5726800D02*
X10623300Y-5676000D01*
X10572500Y-5625200D01*
X10521700Y-5676000D01*
X10572500Y-5726800D01*
X10572500Y-5980800D02*
X10623300Y-5930000D01*
X10572500Y-5879200D01*
X10521700Y-5930000D01*
X10572500Y-5980800D01*
X10572500Y-6234800D02*
X10623300Y-6184000D01*
X10572500Y-6133200D01*
X10521700Y-6184000D01*
X10572500Y-6234800D01*
D16*
X15159600Y-7238000D02*
X15269600Y-7348000D01*
X15269600Y-7238000D02*
X15159600Y-7348000D01*
X15269600Y-7293000D02*
G75*
G03*
X15269600Y-7293000I-55000J0D01*
G01*
X15667600Y-7238000D02*
X15777600Y-7348000D01*
X15777600Y-7238000D02*
X15667600Y-7348000D01*
X15777600Y-7293000D02*
G75*
G03*
X15777600Y-7293000I-55000J0D01*
G01*
D17*
X11385000Y-3385000D02*
X11815000Y-3815000D01*
X11815000Y-3385000D02*
X11385000Y-3815000D01*
X11600000Y-3385000D02*
X11600000Y-3815000D01*
X11385000Y-3600000D02*
X11815000Y-3600000D01*
X11385000Y-9185000D02*
X11815000Y-9615000D01*
X11815000Y-9185000D02*
X11385000Y-9615000D01*
X11600000Y-9185000D02*
X11600000Y-9615000D01*
X11385000Y-9400000D02*
X11815000Y-9400000D01*
X18385000Y-5235000D02*
X18815000Y-5665000D01*
X18815000Y-5235000D02*
X18385000Y-5665000D01*
X18600000Y-5235000D02*
X18600000Y-5665000D01*
X18385000Y-5450000D02*
X18815000Y-5450000D01*
X18385000Y-6785000D02*
X18815000Y-7215000D01*
X18815000Y-6785000D02*
X18385000Y-7215000D01*
X18600000Y-6785000D02*
X18600000Y-7215000D01*
X18385000Y-7000000D02*
X18815000Y-7000000D01*
D11*
X10158619Y-11567676D02*
X10158619Y-11367676D01*
X10206238Y-11367676D01*
X10234810Y-11377200D01*
X10253857Y-11396248D01*
X10263381Y-11415295D01*
X10272905Y-11453390D01*
X10272905Y-11481962D01*
X10263381Y-11520057D01*
X10253857Y-11539105D01*
X10234810Y-11558152D01*
X10206238Y-11567676D01*
X10158619Y-11567676D01*
X10358619Y-11567676D02*
X10358619Y-11434343D01*
X10358619Y-11472438D02*
X10368143Y-11453390D01*
X10377667Y-11443867D01*
X10396714Y-11434343D01*
X10415762Y-11434343D01*
X10482429Y-11567676D02*
X10482429Y-11434343D01*
X10482429Y-11367676D02*
X10472905Y-11377200D01*
X10482429Y-11386724D01*
X10491952Y-11377200D01*
X10482429Y-11367676D01*
X10482429Y-11386724D01*
X10606238Y-11567676D02*
X10587190Y-11558152D01*
X10577667Y-11539105D01*
X10577667Y-11367676D01*
X10711000Y-11567676D02*
X10691952Y-11558152D01*
X10682429Y-11539105D01*
X10682429Y-11367676D01*
X10939571Y-11567676D02*
X10939571Y-11367676D01*
X11006238Y-11510533D01*
X11072905Y-11367676D01*
X11072905Y-11567676D01*
X11253857Y-11567676D02*
X11253857Y-11462914D01*
X11244333Y-11443867D01*
X11225286Y-11434343D01*
X11187190Y-11434343D01*
X11168143Y-11443867D01*
X11253857Y-11558152D02*
X11234809Y-11567676D01*
X11187190Y-11567676D01*
X11168143Y-11558152D01*
X11158619Y-11539105D01*
X11158619Y-11520057D01*
X11168143Y-11501009D01*
X11187190Y-11491486D01*
X11234809Y-11491486D01*
X11253857Y-11481962D01*
X11349095Y-11434343D02*
X11349095Y-11634343D01*
X11349095Y-11443867D02*
X11368143Y-11434343D01*
X11406238Y-11434343D01*
X11425286Y-11443867D01*
X11434809Y-11453390D01*
X11444333Y-11472438D01*
X11444333Y-11529581D01*
X11434809Y-11548628D01*
X11425286Y-11558152D01*
X11406238Y-11567676D01*
X11368143Y-11567676D01*
X11349095Y-11558152D01*
X11530048Y-11548628D02*
X11539571Y-11558152D01*
X11530048Y-11567676D01*
X11520524Y-11558152D01*
X11530048Y-11548628D01*
X11530048Y-11567676D01*
X11530048Y-11443867D02*
X11539571Y-11453390D01*
X11530048Y-11462914D01*
X11520524Y-11453390D01*
X11530048Y-11443867D01*
X11530048Y-11462914D01*
D12*
X9861000Y-11877200D02*
X9901000Y-11917200D01*
X9901000Y-11877200D02*
X9861000Y-11917200D01*
D11*
X10196714Y-11787676D02*
X10215762Y-11787676D01*
X10234810Y-11797200D01*
X10244333Y-11806724D01*
X10253857Y-11825771D01*
X10263381Y-11863867D01*
X10263381Y-11911486D01*
X10253857Y-11949581D01*
X10244333Y-11968628D01*
X10234810Y-11978152D01*
X10215762Y-11987676D01*
X10196714Y-11987676D01*
X10177667Y-11978152D01*
X10168143Y-11968628D01*
X10158619Y-11949581D01*
X10149095Y-11911486D01*
X10149095Y-11863867D01*
X10158619Y-11825771D01*
X10168143Y-11806724D01*
X10177667Y-11797200D01*
X10196714Y-11787676D01*
X10349095Y-11968628D02*
X10358619Y-11978152D01*
X10349095Y-11987676D01*
X10339571Y-11978152D01*
X10349095Y-11968628D01*
X10349095Y-11987676D01*
X10530048Y-11854343D02*
X10530048Y-11987676D01*
X10482429Y-11778152D02*
X10434810Y-11921009D01*
X10558619Y-11921009D01*
X10672905Y-11787676D02*
X10691952Y-11787676D01*
X10711000Y-11797200D01*
X10720524Y-11806724D01*
X10730048Y-11825771D01*
X10739571Y-11863867D01*
X10739571Y-11911486D01*
X10730048Y-11949581D01*
X10720524Y-11968628D01*
X10711000Y-11978152D01*
X10691952Y-11987676D01*
X10672905Y-11987676D01*
X10653857Y-11978152D01*
X10644333Y-11968628D01*
X10634810Y-11949581D01*
X10625286Y-11911486D01*
X10625286Y-11863867D01*
X10634810Y-11825771D01*
X10644333Y-11806724D01*
X10653857Y-11797200D01*
X10672905Y-11787676D01*
X10863381Y-11787676D02*
X10882429Y-11787676D01*
X10901476Y-11797200D01*
X10911000Y-11806724D01*
X10920524Y-11825771D01*
X10930048Y-11863867D01*
X10930048Y-11911486D01*
X10920524Y-11949581D01*
X10911000Y-11968628D01*
X10901476Y-11978152D01*
X10882429Y-11987676D01*
X10863381Y-11987676D01*
X10844333Y-11978152D01*
X10834810Y-11968628D01*
X10825286Y-11949581D01*
X10815762Y-11911486D01*
X10815762Y-11863867D01*
X10825286Y-11825771D01*
X10834810Y-11806724D01*
X10844333Y-11797200D01*
X10863381Y-11787676D01*
X11015762Y-11987676D02*
X11015762Y-11854343D01*
X11015762Y-11873390D02*
X11025286Y-11863867D01*
X11044333Y-11854343D01*
X11072905Y-11854343D01*
X11091952Y-11863867D01*
X11101476Y-11882914D01*
X11101476Y-11987676D01*
X11101476Y-11882914D02*
X11111000Y-11863867D01*
X11130048Y-11854343D01*
X11158619Y-11854343D01*
X11177667Y-11863867D01*
X11187190Y-11882914D01*
X11187190Y-11987676D01*
X11282428Y-11987676D02*
X11282428Y-11854343D01*
X11282428Y-11873390D02*
X11291952Y-11863867D01*
X11311000Y-11854343D01*
X11339571Y-11854343D01*
X11358619Y-11863867D01*
X11368143Y-11882914D01*
X11368143Y-11987676D01*
X11368143Y-11882914D02*
X11377667Y-11863867D01*
X11396714Y-11854343D01*
X11425286Y-11854343D01*
X11444333Y-11863867D01*
X11453857Y-11882914D01*
X11453857Y-11987676D01*
X11844333Y-11778152D02*
X11672905Y-12035295D01*
X12101476Y-11787676D02*
X12120524Y-11787676D01*
X12139571Y-11797200D01*
X12149095Y-11806724D01*
X12158619Y-11825771D01*
X12168143Y-11863867D01*
X12168143Y-11911486D01*
X12158619Y-11949581D01*
X12149095Y-11968628D01*
X12139571Y-11978152D01*
X12120524Y-11987676D01*
X12101476Y-11987676D01*
X12082428Y-11978152D01*
X12072905Y-11968628D01*
X12063381Y-11949581D01*
X12053857Y-11911486D01*
X12053857Y-11863867D01*
X12063381Y-11825771D01*
X12072905Y-11806724D01*
X12082428Y-11797200D01*
X12101476Y-11787676D01*
X12253857Y-11968628D02*
X12263381Y-11978152D01*
X12253857Y-11987676D01*
X12244333Y-11978152D01*
X12253857Y-11968628D01*
X12253857Y-11987676D01*
X12387190Y-11787676D02*
X12406238Y-11787676D01*
X12425286Y-11797200D01*
X12434809Y-11806724D01*
X12444333Y-11825771D01*
X12453857Y-11863867D01*
X12453857Y-11911486D01*
X12444333Y-11949581D01*
X12434809Y-11968628D01*
X12425286Y-11978152D01*
X12406238Y-11987676D01*
X12387190Y-11987676D01*
X12368143Y-11978152D01*
X12358619Y-11968628D01*
X12349095Y-11949581D01*
X12339571Y-11911486D01*
X12339571Y-11863867D01*
X12349095Y-11825771D01*
X12358619Y-11806724D01*
X12368143Y-11797200D01*
X12387190Y-11787676D01*
X12644333Y-11987676D02*
X12530048Y-11987676D01*
X12587190Y-11987676D02*
X12587190Y-11787676D01*
X12568143Y-11816248D01*
X12549095Y-11835295D01*
X12530048Y-11844819D01*
X12825286Y-11787676D02*
X12730048Y-11787676D01*
X12720524Y-11882914D01*
X12730048Y-11873390D01*
X12749095Y-11863867D01*
X12796714Y-11863867D01*
X12815762Y-11873390D01*
X12825286Y-11882914D01*
X12834809Y-11901962D01*
X12834809Y-11949581D01*
X12825286Y-11968628D01*
X12815762Y-11978152D01*
X12796714Y-11987676D01*
X12749095Y-11987676D01*
X12730048Y-11978152D01*
X12720524Y-11968628D01*
X12901476Y-11787676D02*
X13034809Y-11787676D01*
X12949095Y-11987676D01*
X13101476Y-11787676D02*
X13101476Y-11825771D01*
X13177667Y-11787676D02*
X13177667Y-11825771D01*
X13472905Y-12063867D02*
X13463381Y-12054343D01*
X13444333Y-12025771D01*
X13434809Y-12006724D01*
X13425286Y-11978152D01*
X13415762Y-11930533D01*
X13415762Y-11892438D01*
X13425286Y-11844819D01*
X13434809Y-11816248D01*
X13444333Y-11797200D01*
X13463381Y-11768628D01*
X13472905Y-11759105D01*
X13539571Y-11806724D02*
X13549095Y-11797200D01*
X13568143Y-11787676D01*
X13615762Y-11787676D01*
X13634809Y-11797200D01*
X13644333Y-11806724D01*
X13653857Y-11825771D01*
X13653857Y-11844819D01*
X13644333Y-11873390D01*
X13530048Y-11987676D01*
X13653857Y-11987676D01*
X13891952Y-11987676D02*
X13891952Y-11787676D01*
X13977667Y-11987676D02*
X13977667Y-11882914D01*
X13968143Y-11863867D01*
X13949095Y-11854343D01*
X13920524Y-11854343D01*
X13901476Y-11863867D01*
X13891952Y-11873390D01*
X14101476Y-11987676D02*
X14082428Y-11978152D01*
X14072905Y-11968628D01*
X14063381Y-11949581D01*
X14063381Y-11892438D01*
X14072905Y-11873390D01*
X14082428Y-11863867D01*
X14101476Y-11854343D01*
X14130048Y-11854343D01*
X14149095Y-11863867D01*
X14158619Y-11873390D01*
X14168143Y-11892438D01*
X14168143Y-11949581D01*
X14158619Y-11968628D01*
X14149095Y-11978152D01*
X14130048Y-11987676D01*
X14101476Y-11987676D01*
X14282428Y-11987676D02*
X14263381Y-11978152D01*
X14253857Y-11959105D01*
X14253857Y-11787676D01*
X14434809Y-11978152D02*
X14415762Y-11987676D01*
X14377667Y-11987676D01*
X14358619Y-11978152D01*
X14349095Y-11959105D01*
X14349095Y-11882914D01*
X14358619Y-11863867D01*
X14377667Y-11854343D01*
X14415762Y-11854343D01*
X14434809Y-11863867D01*
X14444333Y-11882914D01*
X14444333Y-11901962D01*
X14349095Y-11921009D01*
X14520524Y-11978152D02*
X14539571Y-11987676D01*
X14577667Y-11987676D01*
X14596714Y-11978152D01*
X14606238Y-11959105D01*
X14606238Y-11949581D01*
X14596714Y-11930533D01*
X14577667Y-11921009D01*
X14549095Y-11921009D01*
X14530048Y-11911486D01*
X14520524Y-11892438D01*
X14520524Y-11882914D01*
X14530048Y-11863867D01*
X14549095Y-11854343D01*
X14577667Y-11854343D01*
X14596714Y-11863867D01*
X14672905Y-12063867D02*
X14682428Y-12054343D01*
X14701476Y-12025771D01*
X14711000Y-12006724D01*
X14720524Y-11978152D01*
X14730048Y-11930533D01*
X14730048Y-11892438D01*
X14720524Y-11844819D01*
X14711000Y-11816248D01*
X14701476Y-11797200D01*
X14682428Y-11768628D01*
X14672905Y-11759105D01*
D13*
X9901000Y-12161200D02*
G75*
G03*
X9901000Y-12161200I-25000J0D01*
G01*
D11*
X10196714Y-12051676D02*
X10215762Y-12051676D01*
X10234810Y-12061200D01*
X10244333Y-12070724D01*
X10253857Y-12089771D01*
X10263381Y-12127867D01*
X10263381Y-12175486D01*
X10253857Y-12213581D01*
X10244333Y-12232628D01*
X10234810Y-12242152D01*
X10215762Y-12251676D01*
X10196714Y-12251676D01*
X10177667Y-12242152D01*
X10168143Y-12232628D01*
X10158619Y-12213581D01*
X10149095Y-12175486D01*
X10149095Y-12127867D01*
X10158619Y-12089771D01*
X10168143Y-12070724D01*
X10177667Y-12061200D01*
X10196714Y-12051676D01*
X10349095Y-12232628D02*
X10358619Y-12242152D01*
X10349095Y-12251676D01*
X10339571Y-12242152D01*
X10349095Y-12232628D01*
X10349095Y-12251676D01*
X10539571Y-12051676D02*
X10444333Y-12051676D01*
X10434810Y-12146914D01*
X10444333Y-12137390D01*
X10463381Y-12127867D01*
X10511000Y-12127867D01*
X10530048Y-12137390D01*
X10539571Y-12146914D01*
X10549095Y-12165962D01*
X10549095Y-12213581D01*
X10539571Y-12232628D01*
X10530048Y-12242152D01*
X10511000Y-12251676D01*
X10463381Y-12251676D01*
X10444333Y-12242152D01*
X10434810Y-12232628D01*
X10672905Y-12051676D02*
X10691952Y-12051676D01*
X10711000Y-12061200D01*
X10720524Y-12070724D01*
X10730048Y-12089771D01*
X10739571Y-12127867D01*
X10739571Y-12175486D01*
X10730048Y-12213581D01*
X10720524Y-12232628D01*
X10711000Y-12242152D01*
X10691952Y-12251676D01*
X10672905Y-12251676D01*
X10653857Y-12242152D01*
X10644333Y-12232628D01*
X10634810Y-12213581D01*
X10625286Y-12175486D01*
X10625286Y-12127867D01*
X10634810Y-12089771D01*
X10644333Y-12070724D01*
X10653857Y-12061200D01*
X10672905Y-12051676D01*
X10863381Y-12051676D02*
X10882429Y-12051676D01*
X10901476Y-12061200D01*
X10911000Y-12070724D01*
X10920524Y-12089771D01*
X10930048Y-12127867D01*
X10930048Y-12175486D01*
X10920524Y-12213581D01*
X10911000Y-12232628D01*
X10901476Y-12242152D01*
X10882429Y-12251676D01*
X10863381Y-12251676D01*
X10844333Y-12242152D01*
X10834810Y-12232628D01*
X10825286Y-12213581D01*
X10815762Y-12175486D01*
X10815762Y-12127867D01*
X10825286Y-12089771D01*
X10834810Y-12070724D01*
X10844333Y-12061200D01*
X10863381Y-12051676D01*
X11015762Y-12251676D02*
X11015762Y-12118343D01*
X11015762Y-12137390D02*
X11025286Y-12127867D01*
X11044333Y-12118343D01*
X11072905Y-12118343D01*
X11091952Y-12127867D01*
X11101476Y-12146914D01*
X11101476Y-12251676D01*
X11101476Y-12146914D02*
X11111000Y-12127867D01*
X11130048Y-12118343D01*
X11158619Y-12118343D01*
X11177667Y-12127867D01*
X11187190Y-12146914D01*
X11187190Y-12251676D01*
X11282428Y-12251676D02*
X11282428Y-12118343D01*
X11282428Y-12137390D02*
X11291952Y-12127867D01*
X11311000Y-12118343D01*
X11339571Y-12118343D01*
X11358619Y-12127867D01*
X11368143Y-12146914D01*
X11368143Y-12251676D01*
X11368143Y-12146914D02*
X11377667Y-12127867D01*
X11396714Y-12118343D01*
X11425286Y-12118343D01*
X11444333Y-12127867D01*
X11453857Y-12146914D01*
X11453857Y-12251676D01*
X11844333Y-12042152D02*
X11672905Y-12299295D01*
X12101476Y-12051676D02*
X12120524Y-12051676D01*
X12139571Y-12061200D01*
X12149095Y-12070724D01*
X12158619Y-12089771D01*
X12168143Y-12127867D01*
X12168143Y-12175486D01*
X12158619Y-12213581D01*
X12149095Y-12232628D01*
X12139571Y-12242152D01*
X12120524Y-12251676D01*
X12101476Y-12251676D01*
X12082428Y-12242152D01*
X12072905Y-12232628D01*
X12063381Y-12213581D01*
X12053857Y-12175486D01*
X12053857Y-12127867D01*
X12063381Y-12089771D01*
X12072905Y-12070724D01*
X12082428Y-12061200D01*
X12101476Y-12051676D01*
X12253857Y-12232628D02*
X12263381Y-12242152D01*
X12253857Y-12251676D01*
X12244333Y-12242152D01*
X12253857Y-12232628D01*
X12253857Y-12251676D01*
X12387190Y-12051676D02*
X12406238Y-12051676D01*
X12425286Y-12061200D01*
X12434809Y-12070724D01*
X12444333Y-12089771D01*
X12453857Y-12127867D01*
X12453857Y-12175486D01*
X12444333Y-12213581D01*
X12434809Y-12232628D01*
X12425286Y-12242152D01*
X12406238Y-12251676D01*
X12387190Y-12251676D01*
X12368143Y-12242152D01*
X12358619Y-12232628D01*
X12349095Y-12213581D01*
X12339571Y-12175486D01*
X12339571Y-12127867D01*
X12349095Y-12089771D01*
X12358619Y-12070724D01*
X12368143Y-12061200D01*
X12387190Y-12051676D01*
X12644333Y-12251676D02*
X12530048Y-12251676D01*
X12587190Y-12251676D02*
X12587190Y-12051676D01*
X12568143Y-12080248D01*
X12549095Y-12099295D01*
X12530048Y-12108819D01*
X12739571Y-12251676D02*
X12777667Y-12251676D01*
X12796714Y-12242152D01*
X12806238Y-12232628D01*
X12825286Y-12204057D01*
X12834809Y-12165962D01*
X12834809Y-12089771D01*
X12825286Y-12070724D01*
X12815762Y-12061200D01*
X12796714Y-12051676D01*
X12758619Y-12051676D01*
X12739571Y-12061200D01*
X12730048Y-12070724D01*
X12720524Y-12089771D01*
X12720524Y-12137390D01*
X12730048Y-12156438D01*
X12739571Y-12165962D01*
X12758619Y-12175486D01*
X12796714Y-12175486D01*
X12815762Y-12165962D01*
X12825286Y-12156438D01*
X12834809Y-12137390D01*
X12901476Y-12051676D02*
X13034809Y-12051676D01*
X12949095Y-12251676D01*
X13101476Y-12051676D02*
X13101476Y-12089771D01*
X13177667Y-12051676D02*
X13177667Y-12089771D01*
X13472905Y-12327867D02*
X13463381Y-12318343D01*
X13444333Y-12289771D01*
X13434809Y-12270724D01*
X13425286Y-12242152D01*
X13415762Y-12194533D01*
X13415762Y-12156438D01*
X13425286Y-12108819D01*
X13434809Y-12080248D01*
X13444333Y-12061200D01*
X13463381Y-12032628D01*
X13472905Y-12023105D01*
X13530048Y-12051676D02*
X13663381Y-12051676D01*
X13577667Y-12251676D01*
X13891952Y-12251676D02*
X13891952Y-12051676D01*
X13977667Y-12251676D02*
X13977667Y-12146914D01*
X13968143Y-12127867D01*
X13949095Y-12118343D01*
X13920524Y-12118343D01*
X13901476Y-12127867D01*
X13891952Y-12137390D01*
X14101476Y-12251676D02*
X14082428Y-12242152D01*
X14072905Y-12232628D01*
X14063381Y-12213581D01*
X14063381Y-12156438D01*
X14072905Y-12137390D01*
X14082428Y-12127867D01*
X14101476Y-12118343D01*
X14130048Y-12118343D01*
X14149095Y-12127867D01*
X14158619Y-12137390D01*
X14168143Y-12156438D01*
X14168143Y-12213581D01*
X14158619Y-12232628D01*
X14149095Y-12242152D01*
X14130048Y-12251676D01*
X14101476Y-12251676D01*
X14282428Y-12251676D02*
X14263381Y-12242152D01*
X14253857Y-12223105D01*
X14253857Y-12051676D01*
X14434809Y-12242152D02*
X14415762Y-12251676D01*
X14377667Y-12251676D01*
X14358619Y-12242152D01*
X14349095Y-12223105D01*
X14349095Y-12146914D01*
X14358619Y-12127867D01*
X14377667Y-12118343D01*
X14415762Y-12118343D01*
X14434809Y-12127867D01*
X14444333Y-12146914D01*
X14444333Y-12165962D01*
X14349095Y-12185009D01*
X14520524Y-12242152D02*
X14539571Y-12251676D01*
X14577667Y-12251676D01*
X14596714Y-12242152D01*
X14606238Y-12223105D01*
X14606238Y-12213581D01*
X14596714Y-12194533D01*
X14577667Y-12185009D01*
X14549095Y-12185009D01*
X14530048Y-12175486D01*
X14520524Y-12156438D01*
X14520524Y-12146914D01*
X14530048Y-12127867D01*
X14549095Y-12118343D01*
X14577667Y-12118343D01*
X14596714Y-12127867D01*
X14672905Y-12327867D02*
X14682428Y-12318343D01*
X14701476Y-12289771D01*
X14711000Y-12270724D01*
X14720524Y-12242152D01*
X14730048Y-12194533D01*
X14730048Y-12156438D01*
X14720524Y-12108819D01*
X14711000Y-12080248D01*
X14701476Y-12061200D01*
X14682428Y-12032628D01*
X14672905Y-12023105D01*
D14*
X9858500Y-12382700D02*
X9858500Y-12467700D01*
X9816000Y-12425200D02*
X9901000Y-12425200D01*
D11*
X10196714Y-12315676D02*
X10215762Y-12315676D01*
X10234810Y-12325200D01*
X10244333Y-12334724D01*
X10253857Y-12353771D01*
X10263381Y-12391867D01*
X10263381Y-12439486D01*
X10253857Y-12477581D01*
X10244333Y-12496628D01*
X10234810Y-12506152D01*
X10215762Y-12515676D01*
X10196714Y-12515676D01*
X10177667Y-12506152D01*
X10168143Y-12496628D01*
X10158619Y-12477581D01*
X10149095Y-12439486D01*
X10149095Y-12391867D01*
X10158619Y-12353771D01*
X10168143Y-12334724D01*
X10177667Y-12325200D01*
X10196714Y-12315676D01*
X10349095Y-12496628D02*
X10358619Y-12506152D01*
X10349095Y-12515676D01*
X10339571Y-12506152D01*
X10349095Y-12496628D01*
X10349095Y-12515676D01*
X10472905Y-12401390D02*
X10453857Y-12391867D01*
X10444333Y-12382343D01*
X10434810Y-12363295D01*
X10434810Y-12353771D01*
X10444333Y-12334724D01*
X10453857Y-12325200D01*
X10472905Y-12315676D01*
X10511000Y-12315676D01*
X10530048Y-12325200D01*
X10539571Y-12334724D01*
X10549095Y-12353771D01*
X10549095Y-12363295D01*
X10539571Y-12382343D01*
X10530048Y-12391867D01*
X10511000Y-12401390D01*
X10472905Y-12401390D01*
X10453857Y-12410914D01*
X10444333Y-12420438D01*
X10434810Y-12439486D01*
X10434810Y-12477581D01*
X10444333Y-12496628D01*
X10453857Y-12506152D01*
X10472905Y-12515676D01*
X10511000Y-12515676D01*
X10530048Y-12506152D01*
X10539571Y-12496628D01*
X10549095Y-12477581D01*
X10549095Y-12439486D01*
X10539571Y-12420438D01*
X10530048Y-12410914D01*
X10511000Y-12401390D01*
X10730048Y-12315676D02*
X10634810Y-12315676D01*
X10625286Y-12410914D01*
X10634810Y-12401390D01*
X10653857Y-12391867D01*
X10701476Y-12391867D01*
X10720524Y-12401390D01*
X10730048Y-12410914D01*
X10739571Y-12429962D01*
X10739571Y-12477581D01*
X10730048Y-12496628D01*
X10720524Y-12506152D01*
X10701476Y-12515676D01*
X10653857Y-12515676D01*
X10634810Y-12506152D01*
X10625286Y-12496628D01*
X10863381Y-12315676D02*
X10882429Y-12315676D01*
X10901476Y-12325200D01*
X10911000Y-12334724D01*
X10920524Y-12353771D01*
X10930048Y-12391867D01*
X10930048Y-12439486D01*
X10920524Y-12477581D01*
X10911000Y-12496628D01*
X10901476Y-12506152D01*
X10882429Y-12515676D01*
X10863381Y-12515676D01*
X10844333Y-12506152D01*
X10834810Y-12496628D01*
X10825286Y-12477581D01*
X10815762Y-12439486D01*
X10815762Y-12391867D01*
X10825286Y-12353771D01*
X10834810Y-12334724D01*
X10844333Y-12325200D01*
X10863381Y-12315676D01*
X11015762Y-12515676D02*
X11015762Y-12382343D01*
X11015762Y-12401390D02*
X11025286Y-12391867D01*
X11044333Y-12382343D01*
X11072905Y-12382343D01*
X11091952Y-12391867D01*
X11101476Y-12410914D01*
X11101476Y-12515676D01*
X11101476Y-12410914D02*
X11111000Y-12391867D01*
X11130048Y-12382343D01*
X11158619Y-12382343D01*
X11177667Y-12391867D01*
X11187190Y-12410914D01*
X11187190Y-12515676D01*
X11282428Y-12515676D02*
X11282428Y-12382343D01*
X11282428Y-12401390D02*
X11291952Y-12391867D01*
X11311000Y-12382343D01*
X11339571Y-12382343D01*
X11358619Y-12391867D01*
X11368143Y-12410914D01*
X11368143Y-12515676D01*
X11368143Y-12410914D02*
X11377667Y-12391867D01*
X11396714Y-12382343D01*
X11425286Y-12382343D01*
X11444333Y-12391867D01*
X11453857Y-12410914D01*
X11453857Y-12515676D01*
X11844333Y-12306152D02*
X11672905Y-12563295D01*
X12101476Y-12315676D02*
X12120524Y-12315676D01*
X12139571Y-12325200D01*
X12149095Y-12334724D01*
X12158619Y-12353771D01*
X12168143Y-12391867D01*
X12168143Y-12439486D01*
X12158619Y-12477581D01*
X12149095Y-12496628D01*
X12139571Y-12506152D01*
X12120524Y-12515676D01*
X12101476Y-12515676D01*
X12082428Y-12506152D01*
X12072905Y-12496628D01*
X12063381Y-12477581D01*
X12053857Y-12439486D01*
X12053857Y-12391867D01*
X12063381Y-12353771D01*
X12072905Y-12334724D01*
X12082428Y-12325200D01*
X12101476Y-12315676D01*
X12253857Y-12496628D02*
X12263381Y-12506152D01*
X12253857Y-12515676D01*
X12244333Y-12506152D01*
X12253857Y-12496628D01*
X12253857Y-12515676D01*
X12387190Y-12315676D02*
X12406238Y-12315676D01*
X12425286Y-12325200D01*
X12434809Y-12334724D01*
X12444333Y-12353771D01*
X12453857Y-12391867D01*
X12453857Y-12439486D01*
X12444333Y-12477581D01*
X12434809Y-12496628D01*
X12425286Y-12506152D01*
X12406238Y-12515676D01*
X12387190Y-12515676D01*
X12368143Y-12506152D01*
X12358619Y-12496628D01*
X12349095Y-12477581D01*
X12339571Y-12439486D01*
X12339571Y-12391867D01*
X12349095Y-12353771D01*
X12358619Y-12334724D01*
X12368143Y-12325200D01*
X12387190Y-12315676D01*
X12520524Y-12315676D02*
X12644333Y-12315676D01*
X12577667Y-12391867D01*
X12606238Y-12391867D01*
X12625286Y-12401390D01*
X12634809Y-12410914D01*
X12644333Y-12429962D01*
X12644333Y-12477581D01*
X12634809Y-12496628D01*
X12625286Y-12506152D01*
X12606238Y-12515676D01*
X12549095Y-12515676D01*
X12530048Y-12506152D01*
X12520524Y-12496628D01*
X12711000Y-12315676D02*
X12834809Y-12315676D01*
X12768143Y-12391867D01*
X12796714Y-12391867D01*
X12815762Y-12401390D01*
X12825286Y-12410914D01*
X12834809Y-12429962D01*
X12834809Y-12477581D01*
X12825286Y-12496628D01*
X12815762Y-12506152D01*
X12796714Y-12515676D01*
X12739571Y-12515676D01*
X12720524Y-12506152D01*
X12711000Y-12496628D01*
X13015762Y-12315676D02*
X12920524Y-12315676D01*
X12911000Y-12410914D01*
X12920524Y-12401390D01*
X12939571Y-12391867D01*
X12987190Y-12391867D01*
X13006238Y-12401390D01*
X13015762Y-12410914D01*
X13025286Y-12429962D01*
X13025286Y-12477581D01*
X13015762Y-12496628D01*
X13006238Y-12506152D01*
X12987190Y-12515676D01*
X12939571Y-12515676D01*
X12920524Y-12506152D01*
X12911000Y-12496628D01*
X13101476Y-12315676D02*
X13101476Y-12353771D01*
X13177667Y-12315676D02*
X13177667Y-12353771D01*
X13472905Y-12591867D02*
X13463381Y-12582343D01*
X13444333Y-12553771D01*
X13434809Y-12534724D01*
X13425286Y-12506152D01*
X13415762Y-12458533D01*
X13415762Y-12420438D01*
X13425286Y-12372819D01*
X13434809Y-12344248D01*
X13444333Y-12325200D01*
X13463381Y-12296628D01*
X13472905Y-12287105D01*
X13539571Y-12334724D02*
X13549095Y-12325200D01*
X13568143Y-12315676D01*
X13615762Y-12315676D01*
X13634809Y-12325200D01*
X13644333Y-12334724D01*
X13653857Y-12353771D01*
X13653857Y-12372819D01*
X13644333Y-12401390D01*
X13530048Y-12515676D01*
X13653857Y-12515676D01*
X13891952Y-12515676D02*
X13891952Y-12315676D01*
X13977667Y-12515676D02*
X13977667Y-12410914D01*
X13968143Y-12391867D01*
X13949095Y-12382343D01*
X13920524Y-12382343D01*
X13901476Y-12391867D01*
X13891952Y-12401390D01*
X14101476Y-12515676D02*
X14082428Y-12506152D01*
X14072905Y-12496628D01*
X14063381Y-12477581D01*
X14063381Y-12420438D01*
X14072905Y-12401390D01*
X14082428Y-12391867D01*
X14101476Y-12382343D01*
X14130048Y-12382343D01*
X14149095Y-12391867D01*
X14158619Y-12401390D01*
X14168143Y-12420438D01*
X14168143Y-12477581D01*
X14158619Y-12496628D01*
X14149095Y-12506152D01*
X14130048Y-12515676D01*
X14101476Y-12515676D01*
X14282428Y-12515676D02*
X14263381Y-12506152D01*
X14253857Y-12487105D01*
X14253857Y-12315676D01*
X14434809Y-12506152D02*
X14415762Y-12515676D01*
X14377667Y-12515676D01*
X14358619Y-12506152D01*
X14349095Y-12487105D01*
X14349095Y-12410914D01*
X14358619Y-12391867D01*
X14377667Y-12382343D01*
X14415762Y-12382343D01*
X14434809Y-12391867D01*
X14444333Y-12410914D01*
X14444333Y-12429962D01*
X14349095Y-12449009D01*
X14520524Y-12506152D02*
X14539571Y-12515676D01*
X14577667Y-12515676D01*
X14596714Y-12506152D01*
X14606238Y-12487105D01*
X14606238Y-12477581D01*
X14596714Y-12458533D01*
X14577667Y-12449009D01*
X14549095Y-12449009D01*
X14530048Y-12439486D01*
X14520524Y-12420438D01*
X14520524Y-12410914D01*
X14530048Y-12391867D01*
X14549095Y-12382343D01*
X14577667Y-12382343D01*
X14596714Y-12391867D01*
X14672905Y-12591867D02*
X14682428Y-12582343D01*
X14701476Y-12553771D01*
X14711000Y-12534724D01*
X14720524Y-12506152D01*
X14730048Y-12458533D01*
X14730048Y-12420438D01*
X14720524Y-12372819D01*
X14711000Y-12344248D01*
X14701476Y-12325200D01*
X14682428Y-12296628D01*
X14672905Y-12287105D01*
D10*
X9886356Y-12724556D02*
X9886356Y-12653844D01*
X9815644Y-12653844D01*
X9815644Y-12724556D01*
X9886356Y-12724556D01*
D11*
X10263381Y-12779676D02*
X10149095Y-12779676D01*
X10206238Y-12779676D02*
X10206238Y-12579676D01*
X10187190Y-12608248D01*
X10168143Y-12627295D01*
X10149095Y-12636819D01*
X10349095Y-12760628D02*
X10358619Y-12770152D01*
X10349095Y-12779676D01*
X10339571Y-12770152D01*
X10349095Y-12760628D01*
X10349095Y-12779676D01*
X10482429Y-12579676D02*
X10501476Y-12579676D01*
X10520524Y-12589200D01*
X10530048Y-12598724D01*
X10539571Y-12617771D01*
X10549095Y-12655867D01*
X10549095Y-12703486D01*
X10539571Y-12741581D01*
X10530048Y-12760628D01*
X10520524Y-12770152D01*
X10501476Y-12779676D01*
X10482429Y-12779676D01*
X10463381Y-12770152D01*
X10453857Y-12760628D01*
X10444333Y-12741581D01*
X10434810Y-12703486D01*
X10434810Y-12655867D01*
X10444333Y-12617771D01*
X10453857Y-12598724D01*
X10463381Y-12589200D01*
X10482429Y-12579676D01*
X10672905Y-12579676D02*
X10691952Y-12579676D01*
X10711000Y-12589200D01*
X10720524Y-12598724D01*
X10730048Y-12617771D01*
X10739571Y-12655867D01*
X10739571Y-12703486D01*
X10730048Y-12741581D01*
X10720524Y-12760628D01*
X10711000Y-12770152D01*
X10691952Y-12779676D01*
X10672905Y-12779676D01*
X10653857Y-12770152D01*
X10644333Y-12760628D01*
X10634810Y-12741581D01*
X10625286Y-12703486D01*
X10625286Y-12655867D01*
X10634810Y-12617771D01*
X10644333Y-12598724D01*
X10653857Y-12589200D01*
X10672905Y-12579676D01*
X10863381Y-12579676D02*
X10882429Y-12579676D01*
X10901476Y-12589200D01*
X10911000Y-12598724D01*
X10920524Y-12617771D01*
X10930048Y-12655867D01*
X10930048Y-12703486D01*
X10920524Y-12741581D01*
X10911000Y-12760628D01*
X10901476Y-12770152D01*
X10882429Y-12779676D01*
X10863381Y-12779676D01*
X10844333Y-12770152D01*
X10834810Y-12760628D01*
X10825286Y-12741581D01*
X10815762Y-12703486D01*
X10815762Y-12655867D01*
X10825286Y-12617771D01*
X10834810Y-12598724D01*
X10844333Y-12589200D01*
X10863381Y-12579676D01*
X11015762Y-12779676D02*
X11015762Y-12646343D01*
X11015762Y-12665390D02*
X11025286Y-12655867D01*
X11044333Y-12646343D01*
X11072905Y-12646343D01*
X11091952Y-12655867D01*
X11101476Y-12674914D01*
X11101476Y-12779676D01*
X11101476Y-12674914D02*
X11111000Y-12655867D01*
X11130048Y-12646343D01*
X11158619Y-12646343D01*
X11177667Y-12655867D01*
X11187190Y-12674914D01*
X11187190Y-12779676D01*
X11282428Y-12779676D02*
X11282428Y-12646343D01*
X11282428Y-12665390D02*
X11291952Y-12655867D01*
X11311000Y-12646343D01*
X11339571Y-12646343D01*
X11358619Y-12655867D01*
X11368143Y-12674914D01*
X11368143Y-12779676D01*
X11368143Y-12674914D02*
X11377667Y-12655867D01*
X11396714Y-12646343D01*
X11425286Y-12646343D01*
X11444333Y-12655867D01*
X11453857Y-12674914D01*
X11453857Y-12779676D01*
X11844333Y-12570152D02*
X11672905Y-12827295D01*
X12101476Y-12579676D02*
X12120524Y-12579676D01*
X12139571Y-12589200D01*
X12149095Y-12598724D01*
X12158619Y-12617771D01*
X12168143Y-12655867D01*
X12168143Y-12703486D01*
X12158619Y-12741581D01*
X12149095Y-12760628D01*
X12139571Y-12770152D01*
X12120524Y-12779676D01*
X12101476Y-12779676D01*
X12082428Y-12770152D01*
X12072905Y-12760628D01*
X12063381Y-12741581D01*
X12053857Y-12703486D01*
X12053857Y-12655867D01*
X12063381Y-12617771D01*
X12072905Y-12598724D01*
X12082428Y-12589200D01*
X12101476Y-12579676D01*
X12253857Y-12760628D02*
X12263381Y-12770152D01*
X12253857Y-12779676D01*
X12244333Y-12770152D01*
X12253857Y-12760628D01*
X12253857Y-12779676D01*
X12387190Y-12579676D02*
X12406238Y-12579676D01*
X12425286Y-12589200D01*
X12434809Y-12598724D01*
X12444333Y-12617771D01*
X12453857Y-12655867D01*
X12453857Y-12703486D01*
X12444333Y-12741581D01*
X12434809Y-12760628D01*
X12425286Y-12770152D01*
X12406238Y-12779676D01*
X12387190Y-12779676D01*
X12368143Y-12770152D01*
X12358619Y-12760628D01*
X12349095Y-12741581D01*
X12339571Y-12703486D01*
X12339571Y-12655867D01*
X12349095Y-12617771D01*
X12358619Y-12598724D01*
X12368143Y-12589200D01*
X12387190Y-12579676D01*
X12520524Y-12579676D02*
X12644333Y-12579676D01*
X12577667Y-12655867D01*
X12606238Y-12655867D01*
X12625286Y-12665390D01*
X12634809Y-12674914D01*
X12644333Y-12693962D01*
X12644333Y-12741581D01*
X12634809Y-12760628D01*
X12625286Y-12770152D01*
X12606238Y-12779676D01*
X12549095Y-12779676D01*
X12530048Y-12770152D01*
X12520524Y-12760628D01*
X12739571Y-12779676D02*
X12777667Y-12779676D01*
X12796714Y-12770152D01*
X12806238Y-12760628D01*
X12825286Y-12732057D01*
X12834809Y-12693962D01*
X12834809Y-12617771D01*
X12825286Y-12598724D01*
X12815762Y-12589200D01*
X12796714Y-12579676D01*
X12758619Y-12579676D01*
X12739571Y-12589200D01*
X12730048Y-12598724D01*
X12720524Y-12617771D01*
X12720524Y-12665390D01*
X12730048Y-12684438D01*
X12739571Y-12693962D01*
X12758619Y-12703486D01*
X12796714Y-12703486D01*
X12815762Y-12693962D01*
X12825286Y-12684438D01*
X12834809Y-12665390D01*
X13006238Y-12646343D02*
X13006238Y-12779676D01*
X12958619Y-12570152D02*
X12911000Y-12713009D01*
X13034809Y-12713009D01*
X13101476Y-12579676D02*
X13101476Y-12617771D01*
X13177667Y-12579676D02*
X13177667Y-12617771D01*
X13472905Y-12855867D02*
X13463381Y-12846343D01*
X13444333Y-12817771D01*
X13434809Y-12798724D01*
X13425286Y-12770152D01*
X13415762Y-12722533D01*
X13415762Y-12684438D01*
X13425286Y-12636819D01*
X13434809Y-12608248D01*
X13444333Y-12589200D01*
X13463381Y-12560628D01*
X13472905Y-12551105D01*
X13577667Y-12665390D02*
X13558619Y-12655867D01*
X13549095Y-12646343D01*
X13539571Y-12627295D01*
X13539571Y-12617771D01*
X13549095Y-12598724D01*
X13558619Y-12589200D01*
X13577667Y-12579676D01*
X13615762Y-12579676D01*
X13634809Y-12589200D01*
X13644333Y-12598724D01*
X13653857Y-12617771D01*
X13653857Y-12627295D01*
X13644333Y-12646343D01*
X13634809Y-12655867D01*
X13615762Y-12665390D01*
X13577667Y-12665390D01*
X13558619Y-12674914D01*
X13549095Y-12684438D01*
X13539571Y-12703486D01*
X13539571Y-12741581D01*
X13549095Y-12760628D01*
X13558619Y-12770152D01*
X13577667Y-12779676D01*
X13615762Y-12779676D01*
X13634809Y-12770152D01*
X13644333Y-12760628D01*
X13653857Y-12741581D01*
X13653857Y-12703486D01*
X13644333Y-12684438D01*
X13634809Y-12674914D01*
X13615762Y-12665390D01*
X13891952Y-12779676D02*
X13891952Y-12579676D01*
X13977667Y-12779676D02*
X13977667Y-12674914D01*
X13968143Y-12655867D01*
X13949095Y-12646343D01*
X13920524Y-12646343D01*
X13901476Y-12655867D01*
X13891952Y-12665390D01*
X14101476Y-12779676D02*
X14082428Y-12770152D01*
X14072905Y-12760628D01*
X14063381Y-12741581D01*
X14063381Y-12684438D01*
X14072905Y-12665390D01*
X14082428Y-12655867D01*
X14101476Y-12646343D01*
X14130048Y-12646343D01*
X14149095Y-12655867D01*
X14158619Y-12665390D01*
X14168143Y-12684438D01*
X14168143Y-12741581D01*
X14158619Y-12760628D01*
X14149095Y-12770152D01*
X14130048Y-12779676D01*
X14101476Y-12779676D01*
X14282428Y-12779676D02*
X14263381Y-12770152D01*
X14253857Y-12751105D01*
X14253857Y-12579676D01*
X14434809Y-12770152D02*
X14415762Y-12779676D01*
X14377667Y-12779676D01*
X14358619Y-12770152D01*
X14349095Y-12751105D01*
X14349095Y-12674914D01*
X14358619Y-12655867D01*
X14377667Y-12646343D01*
X14415762Y-12646343D01*
X14434809Y-12655867D01*
X14444333Y-12674914D01*
X14444333Y-12693962D01*
X14349095Y-12713009D01*
X14520524Y-12770152D02*
X14539571Y-12779676D01*
X14577667Y-12779676D01*
X14596714Y-12770152D01*
X14606238Y-12751105D01*
X14606238Y-12741581D01*
X14596714Y-12722533D01*
X14577667Y-12713009D01*
X14549095Y-12713009D01*
X14530048Y-12703486D01*
X14520524Y-12684438D01*
X14520524Y-12674914D01*
X14530048Y-12655867D01*
X14549095Y-12646343D01*
X14577667Y-12646343D01*
X14596714Y-12655867D01*
X14672905Y-12855867D02*
X14682428Y-12846343D01*
X14701476Y-12817771D01*
X14711000Y-12798724D01*
X14720524Y-12770152D01*
X14730048Y-12722533D01*
X14730048Y-12684438D01*
X14720524Y-12636819D01*
X14711000Y-12608248D01*
X14701476Y-12589200D01*
X14682428Y-12560628D01*
X14672905Y-12551105D01*
D15*
X9850200Y-13004000D02*
X9901000Y-12953200D01*
X9850200Y-12902400D01*
X9799400Y-12953200D01*
X9850200Y-13004000D01*
D11*
X10263381Y-13043676D02*
X10149095Y-13043676D01*
X10206238Y-13043676D02*
X10206238Y-12843676D01*
X10187190Y-12872248D01*
X10168143Y-12891295D01*
X10149095Y-12900819D01*
X10349095Y-13024628D02*
X10358619Y-13034152D01*
X10349095Y-13043676D01*
X10339571Y-13034152D01*
X10349095Y-13024628D01*
X10349095Y-13043676D01*
X10482429Y-12843676D02*
X10501476Y-12843676D01*
X10520524Y-12853200D01*
X10530048Y-12862724D01*
X10539571Y-12881771D01*
X10549095Y-12919867D01*
X10549095Y-12967486D01*
X10539571Y-13005581D01*
X10530048Y-13024628D01*
X10520524Y-13034152D01*
X10501476Y-13043676D01*
X10482429Y-13043676D01*
X10463381Y-13034152D01*
X10453857Y-13024628D01*
X10444333Y-13005581D01*
X10434810Y-12967486D01*
X10434810Y-12919867D01*
X10444333Y-12881771D01*
X10453857Y-12862724D01*
X10463381Y-12853200D01*
X10482429Y-12843676D01*
X10739571Y-13043676D02*
X10625286Y-13043676D01*
X10682429Y-13043676D02*
X10682429Y-12843676D01*
X10663381Y-12872248D01*
X10644333Y-12891295D01*
X10625286Y-12900819D01*
X10911000Y-12843676D02*
X10872905Y-12843676D01*
X10853857Y-12853200D01*
X10844333Y-12862724D01*
X10825286Y-12891295D01*
X10815762Y-12929390D01*
X10815762Y-13005581D01*
X10825286Y-13024628D01*
X10834810Y-13034152D01*
X10853857Y-13043676D01*
X10891952Y-13043676D01*
X10911000Y-13034152D01*
X10920524Y-13024628D01*
X10930048Y-13005581D01*
X10930048Y-12957962D01*
X10920524Y-12938914D01*
X10911000Y-12929390D01*
X10891952Y-12919867D01*
X10853857Y-12919867D01*
X10834810Y-12929390D01*
X10825286Y-12938914D01*
X10815762Y-12957962D01*
X11015762Y-13043676D02*
X11015762Y-12910343D01*
X11015762Y-12929390D02*
X11025286Y-12919867D01*
X11044333Y-12910343D01*
X11072905Y-12910343D01*
X11091952Y-12919867D01*
X11101476Y-12938914D01*
X11101476Y-13043676D01*
X11101476Y-12938914D02*
X11111000Y-12919867D01*
X11130048Y-12910343D01*
X11158619Y-12910343D01*
X11177667Y-12919867D01*
X11187190Y-12938914D01*
X11187190Y-13043676D01*
X11282428Y-13043676D02*
X11282428Y-12910343D01*
X11282428Y-12929390D02*
X11291952Y-12919867D01*
X11311000Y-12910343D01*
X11339571Y-12910343D01*
X11358619Y-12919867D01*
X11368143Y-12938914D01*
X11368143Y-13043676D01*
X11368143Y-12938914D02*
X11377667Y-12919867D01*
X11396714Y-12910343D01*
X11425286Y-12910343D01*
X11444333Y-12919867D01*
X11453857Y-12938914D01*
X11453857Y-13043676D01*
X11844333Y-12834152D02*
X11672905Y-13091295D01*
X12101476Y-12843676D02*
X12120524Y-12843676D01*
X12139571Y-12853200D01*
X12149095Y-12862724D01*
X12158619Y-12881771D01*
X12168143Y-12919867D01*
X12168143Y-12967486D01*
X12158619Y-13005581D01*
X12149095Y-13024628D01*
X12139571Y-13034152D01*
X12120524Y-13043676D01*
X12101476Y-13043676D01*
X12082428Y-13034152D01*
X12072905Y-13024628D01*
X12063381Y-13005581D01*
X12053857Y-12967486D01*
X12053857Y-12919867D01*
X12063381Y-12881771D01*
X12072905Y-12862724D01*
X12082428Y-12853200D01*
X12101476Y-12843676D01*
X12253857Y-13024628D02*
X12263381Y-13034152D01*
X12253857Y-13043676D01*
X12244333Y-13034152D01*
X12253857Y-13024628D01*
X12253857Y-13043676D01*
X12387190Y-12843676D02*
X12406238Y-12843676D01*
X12425286Y-12853200D01*
X12434809Y-12862724D01*
X12444333Y-12881771D01*
X12453857Y-12919867D01*
X12453857Y-12967486D01*
X12444333Y-13005581D01*
X12434809Y-13024628D01*
X12425286Y-13034152D01*
X12406238Y-13043676D01*
X12387190Y-13043676D01*
X12368143Y-13034152D01*
X12358619Y-13024628D01*
X12349095Y-13005581D01*
X12339571Y-12967486D01*
X12339571Y-12919867D01*
X12349095Y-12881771D01*
X12358619Y-12862724D01*
X12368143Y-12853200D01*
X12387190Y-12843676D01*
X12625286Y-12910343D02*
X12625286Y-13043676D01*
X12577667Y-12834152D02*
X12530048Y-12977009D01*
X12653857Y-12977009D01*
X12768143Y-12843676D02*
X12787190Y-12843676D01*
X12806238Y-12853200D01*
X12815762Y-12862724D01*
X12825286Y-12881771D01*
X12834809Y-12919867D01*
X12834809Y-12967486D01*
X12825286Y-13005581D01*
X12815762Y-13024628D01*
X12806238Y-13034152D01*
X12787190Y-13043676D01*
X12768143Y-13043676D01*
X12749095Y-13034152D01*
X12739571Y-13024628D01*
X12730048Y-13005581D01*
X12720524Y-12967486D01*
X12720524Y-12919867D01*
X12730048Y-12881771D01*
X12739571Y-12862724D01*
X12749095Y-12853200D01*
X12768143Y-12843676D01*
X12958619Y-12843676D02*
X12977667Y-12843676D01*
X12996714Y-12853200D01*
X13006238Y-12862724D01*
X13015762Y-12881771D01*
X13025286Y-12919867D01*
X13025286Y-12967486D01*
X13015762Y-13005581D01*
X13006238Y-13024628D01*
X12996714Y-13034152D01*
X12977667Y-13043676D01*
X12958619Y-13043676D01*
X12939571Y-13034152D01*
X12930048Y-13024628D01*
X12920524Y-13005581D01*
X12911000Y-12967486D01*
X12911000Y-12919867D01*
X12920524Y-12881771D01*
X12930048Y-12862724D01*
X12939571Y-12853200D01*
X12958619Y-12843676D01*
X13101476Y-12843676D02*
X13101476Y-12881771D01*
X13177667Y-12843676D02*
X13177667Y-12881771D01*
X13472905Y-13119867D02*
X13463381Y-13110343D01*
X13444333Y-13081771D01*
X13434809Y-13062724D01*
X13425286Y-13034152D01*
X13415762Y-12986533D01*
X13415762Y-12948438D01*
X13425286Y-12900819D01*
X13434809Y-12872248D01*
X13444333Y-12853200D01*
X13463381Y-12824628D01*
X13472905Y-12815105D01*
X13530048Y-12843676D02*
X13653857Y-12843676D01*
X13587190Y-12919867D01*
X13615762Y-12919867D01*
X13634809Y-12929390D01*
X13644333Y-12938914D01*
X13653857Y-12957962D01*
X13653857Y-13005581D01*
X13644333Y-13024628D01*
X13634809Y-13034152D01*
X13615762Y-13043676D01*
X13558619Y-13043676D01*
X13539571Y-13034152D01*
X13530048Y-13024628D01*
X13891952Y-13043676D02*
X13891952Y-12843676D01*
X13977667Y-13043676D02*
X13977667Y-12938914D01*
X13968143Y-12919867D01*
X13949095Y-12910343D01*
X13920524Y-12910343D01*
X13901476Y-12919867D01*
X13891952Y-12929390D01*
X14101476Y-13043676D02*
X14082428Y-13034152D01*
X14072905Y-13024628D01*
X14063381Y-13005581D01*
X14063381Y-12948438D01*
X14072905Y-12929390D01*
X14082428Y-12919867D01*
X14101476Y-12910343D01*
X14130048Y-12910343D01*
X14149095Y-12919867D01*
X14158619Y-12929390D01*
X14168143Y-12948438D01*
X14168143Y-13005581D01*
X14158619Y-13024628D01*
X14149095Y-13034152D01*
X14130048Y-13043676D01*
X14101476Y-13043676D01*
X14282428Y-13043676D02*
X14263381Y-13034152D01*
X14253857Y-13015105D01*
X14253857Y-12843676D01*
X14434809Y-13034152D02*
X14415762Y-13043676D01*
X14377667Y-13043676D01*
X14358619Y-13034152D01*
X14349095Y-13015105D01*
X14349095Y-12938914D01*
X14358619Y-12919867D01*
X14377667Y-12910343D01*
X14415762Y-12910343D01*
X14434809Y-12919867D01*
X14444333Y-12938914D01*
X14444333Y-12957962D01*
X14349095Y-12977009D01*
X14520524Y-13034152D02*
X14539571Y-13043676D01*
X14577667Y-13043676D01*
X14596714Y-13034152D01*
X14606238Y-13015105D01*
X14606238Y-13005581D01*
X14596714Y-12986533D01*
X14577667Y-12977009D01*
X14549095Y-12977009D01*
X14530048Y-12967486D01*
X14520524Y-12948438D01*
X14520524Y-12938914D01*
X14530048Y-12919867D01*
X14549095Y-12910343D01*
X14577667Y-12910343D01*
X14596714Y-12919867D01*
X14672905Y-13119867D02*
X14682428Y-13110343D01*
X14701476Y-13081771D01*
X14711000Y-13062724D01*
X14720524Y-13034152D01*
X14730048Y-12986533D01*
X14730048Y-12948438D01*
X14720524Y-12900819D01*
X14711000Y-12872248D01*
X14701476Y-12853200D01*
X14682428Y-12824628D01*
X14672905Y-12815105D01*
D16*
X9791000Y-13162200D02*
X9901000Y-13272200D01*
X9901000Y-13162200D02*
X9791000Y-13272200D01*
X9901000Y-13217200D02*
G75*
G03*
X9901000Y-13217200I-55000J0D01*
G01*
D11*
X10263381Y-13307676D02*
X10149095Y-13307676D01*
X10206238Y-13307676D02*
X10206238Y-13107676D01*
X10187190Y-13136248D01*
X10168143Y-13155295D01*
X10149095Y-13164819D01*
X10349095Y-13288628D02*
X10358619Y-13298152D01*
X10349095Y-13307676D01*
X10339571Y-13298152D01*
X10349095Y-13288628D01*
X10349095Y-13307676D01*
X10549095Y-13307676D02*
X10434810Y-13307676D01*
X10491952Y-13307676D02*
X10491952Y-13107676D01*
X10472905Y-13136248D01*
X10453857Y-13155295D01*
X10434810Y-13164819D01*
X10672905Y-13107676D02*
X10691952Y-13107676D01*
X10711000Y-13117200D01*
X10720524Y-13126724D01*
X10730048Y-13145771D01*
X10739571Y-13183867D01*
X10739571Y-13231486D01*
X10730048Y-13269581D01*
X10720524Y-13288628D01*
X10711000Y-13298152D01*
X10691952Y-13307676D01*
X10672905Y-13307676D01*
X10653857Y-13298152D01*
X10644333Y-13288628D01*
X10634810Y-13269581D01*
X10625286Y-13231486D01*
X10625286Y-13183867D01*
X10634810Y-13145771D01*
X10644333Y-13126724D01*
X10653857Y-13117200D01*
X10672905Y-13107676D01*
X10863381Y-13107676D02*
X10882429Y-13107676D01*
X10901476Y-13117200D01*
X10911000Y-13126724D01*
X10920524Y-13145771D01*
X10930048Y-13183867D01*
X10930048Y-13231486D01*
X10920524Y-13269581D01*
X10911000Y-13288628D01*
X10901476Y-13298152D01*
X10882429Y-13307676D01*
X10863381Y-13307676D01*
X10844333Y-13298152D01*
X10834810Y-13288628D01*
X10825286Y-13269581D01*
X10815762Y-13231486D01*
X10815762Y-13183867D01*
X10825286Y-13145771D01*
X10834810Y-13126724D01*
X10844333Y-13117200D01*
X10863381Y-13107676D01*
X11015762Y-13307676D02*
X11015762Y-13174343D01*
X11015762Y-13193390D02*
X11025286Y-13183867D01*
X11044333Y-13174343D01*
X11072905Y-13174343D01*
X11091952Y-13183867D01*
X11101476Y-13202914D01*
X11101476Y-13307676D01*
X11101476Y-13202914D02*
X11111000Y-13183867D01*
X11130048Y-13174343D01*
X11158619Y-13174343D01*
X11177667Y-13183867D01*
X11187190Y-13202914D01*
X11187190Y-13307676D01*
X11282428Y-13307676D02*
X11282428Y-13174343D01*
X11282428Y-13193390D02*
X11291952Y-13183867D01*
X11311000Y-13174343D01*
X11339571Y-13174343D01*
X11358619Y-13183867D01*
X11368143Y-13202914D01*
X11368143Y-13307676D01*
X11368143Y-13202914D02*
X11377667Y-13183867D01*
X11396714Y-13174343D01*
X11425286Y-13174343D01*
X11444333Y-13183867D01*
X11453857Y-13202914D01*
X11453857Y-13307676D01*
X11844333Y-13098152D02*
X11672905Y-13355295D01*
X12101476Y-13107676D02*
X12120524Y-13107676D01*
X12139571Y-13117200D01*
X12149095Y-13126724D01*
X12158619Y-13145771D01*
X12168143Y-13183867D01*
X12168143Y-13231486D01*
X12158619Y-13269581D01*
X12149095Y-13288628D01*
X12139571Y-13298152D01*
X12120524Y-13307676D01*
X12101476Y-13307676D01*
X12082428Y-13298152D01*
X12072905Y-13288628D01*
X12063381Y-13269581D01*
X12053857Y-13231486D01*
X12053857Y-13183867D01*
X12063381Y-13145771D01*
X12072905Y-13126724D01*
X12082428Y-13117200D01*
X12101476Y-13107676D01*
X12253857Y-13288628D02*
X12263381Y-13298152D01*
X12253857Y-13307676D01*
X12244333Y-13298152D01*
X12253857Y-13288628D01*
X12253857Y-13307676D01*
X12387190Y-13107676D02*
X12406238Y-13107676D01*
X12425286Y-13117200D01*
X12434809Y-13126724D01*
X12444333Y-13145771D01*
X12453857Y-13183867D01*
X12453857Y-13231486D01*
X12444333Y-13269581D01*
X12434809Y-13288628D01*
X12425286Y-13298152D01*
X12406238Y-13307676D01*
X12387190Y-13307676D01*
X12368143Y-13298152D01*
X12358619Y-13288628D01*
X12349095Y-13269581D01*
X12339571Y-13231486D01*
X12339571Y-13183867D01*
X12349095Y-13145771D01*
X12358619Y-13126724D01*
X12368143Y-13117200D01*
X12387190Y-13107676D01*
X12625286Y-13174343D02*
X12625286Y-13307676D01*
X12577667Y-13098152D02*
X12530048Y-13241009D01*
X12653857Y-13241009D01*
X12711000Y-13107676D02*
X12834809Y-13107676D01*
X12768143Y-13183867D01*
X12796714Y-13183867D01*
X12815762Y-13193390D01*
X12825286Y-13202914D01*
X12834809Y-13221962D01*
X12834809Y-13269581D01*
X12825286Y-13288628D01*
X12815762Y-13298152D01*
X12796714Y-13307676D01*
X12739571Y-13307676D01*
X12720524Y-13298152D01*
X12711000Y-13288628D01*
X12901476Y-13107676D02*
X13025286Y-13107676D01*
X12958619Y-13183867D01*
X12987190Y-13183867D01*
X13006238Y-13193390D01*
X13015762Y-13202914D01*
X13025286Y-13221962D01*
X13025286Y-13269581D01*
X13015762Y-13288628D01*
X13006238Y-13298152D01*
X12987190Y-13307676D01*
X12930048Y-13307676D01*
X12911000Y-13298152D01*
X12901476Y-13288628D01*
X13101476Y-13107676D02*
X13101476Y-13145771D01*
X13177667Y-13107676D02*
X13177667Y-13145771D01*
X13472905Y-13383867D02*
X13463381Y-13374343D01*
X13444333Y-13345771D01*
X13434809Y-13326724D01*
X13425286Y-13298152D01*
X13415762Y-13250533D01*
X13415762Y-13212438D01*
X13425286Y-13164819D01*
X13434809Y-13136248D01*
X13444333Y-13117200D01*
X13463381Y-13088628D01*
X13472905Y-13079105D01*
X13539571Y-13126724D02*
X13549095Y-13117200D01*
X13568143Y-13107676D01*
X13615762Y-13107676D01*
X13634809Y-13117200D01*
X13644333Y-13126724D01*
X13653857Y-13145771D01*
X13653857Y-13164819D01*
X13644333Y-13193390D01*
X13530048Y-13307676D01*
X13653857Y-13307676D01*
X13891952Y-13307676D02*
X13891952Y-13107676D01*
X13977667Y-13307676D02*
X13977667Y-13202914D01*
X13968143Y-13183867D01*
X13949095Y-13174343D01*
X13920524Y-13174343D01*
X13901476Y-13183867D01*
X13891952Y-13193390D01*
X14101476Y-13307676D02*
X14082428Y-13298152D01*
X14072905Y-13288628D01*
X14063381Y-13269581D01*
X14063381Y-13212438D01*
X14072905Y-13193390D01*
X14082428Y-13183867D01*
X14101476Y-13174343D01*
X14130048Y-13174343D01*
X14149095Y-13183867D01*
X14158619Y-13193390D01*
X14168143Y-13212438D01*
X14168143Y-13269581D01*
X14158619Y-13288628D01*
X14149095Y-13298152D01*
X14130048Y-13307676D01*
X14101476Y-13307676D01*
X14282428Y-13307676D02*
X14263381Y-13298152D01*
X14253857Y-13279105D01*
X14253857Y-13107676D01*
X14434809Y-13298152D02*
X14415762Y-13307676D01*
X14377667Y-13307676D01*
X14358619Y-13298152D01*
X14349095Y-13279105D01*
X14349095Y-13202914D01*
X14358619Y-13183867D01*
X14377667Y-13174343D01*
X14415762Y-13174343D01*
X14434809Y-13183867D01*
X14444333Y-13202914D01*
X14444333Y-13221962D01*
X14349095Y-13241009D01*
X14520524Y-13298152D02*
X14539571Y-13307676D01*
X14577667Y-13307676D01*
X14596714Y-13298152D01*
X14606238Y-13279105D01*
X14606238Y-13269581D01*
X14596714Y-13250533D01*
X14577667Y-13241009D01*
X14549095Y-13241009D01*
X14530048Y-13231486D01*
X14520524Y-13212438D01*
X14520524Y-13202914D01*
X14530048Y-13183867D01*
X14549095Y-13174343D01*
X14577667Y-13174343D01*
X14596714Y-13183867D01*
X14672905Y-13383867D02*
X14682428Y-13374343D01*
X14701476Y-13345771D01*
X14711000Y-13326724D01*
X14720524Y-13298152D01*
X14730048Y-13250533D01*
X14730048Y-13212438D01*
X14720524Y-13164819D01*
X14711000Y-13136248D01*
X14701476Y-13117200D01*
X14682428Y-13088628D01*
X14672905Y-13079105D01*
X9701000Y-13381200D02*
X9901000Y-13581200D01*
X9901000Y-13381200D02*
X9701000Y-13581200D01*
X9801000Y-13381200D02*
X9801000Y-13581200D01*
X9701000Y-13481200D02*
X9901000Y-13481200D01*
X10244333Y-13438343D02*
X10244333Y-13571676D01*
X10196714Y-13362152D02*
X10149095Y-13505009D01*
X10272905Y-13505009D01*
X10349095Y-13552628D02*
X10358619Y-13562152D01*
X10349095Y-13571676D01*
X10339571Y-13562152D01*
X10349095Y-13552628D01*
X10349095Y-13571676D01*
X10425286Y-13371676D02*
X10549095Y-13371676D01*
X10482429Y-13447867D01*
X10511000Y-13447867D01*
X10530048Y-13457390D01*
X10539571Y-13466914D01*
X10549095Y-13485962D01*
X10549095Y-13533581D01*
X10539571Y-13552628D01*
X10530048Y-13562152D01*
X10511000Y-13571676D01*
X10453857Y-13571676D01*
X10434810Y-13562152D01*
X10425286Y-13552628D01*
X10672905Y-13371676D02*
X10691952Y-13371676D01*
X10711000Y-13381200D01*
X10720524Y-13390724D01*
X10730048Y-13409771D01*
X10739571Y-13447867D01*
X10739571Y-13495486D01*
X10730048Y-13533581D01*
X10720524Y-13552628D01*
X10711000Y-13562152D01*
X10691952Y-13571676D01*
X10672905Y-13571676D01*
X10653857Y-13562152D01*
X10644333Y-13552628D01*
X10634810Y-13533581D01*
X10625286Y-13495486D01*
X10625286Y-13447867D01*
X10634810Y-13409771D01*
X10644333Y-13390724D01*
X10653857Y-13381200D01*
X10672905Y-13371676D01*
X10863381Y-13371676D02*
X10882429Y-13371676D01*
X10901476Y-13381200D01*
X10911000Y-13390724D01*
X10920524Y-13409771D01*
X10930048Y-13447867D01*
X10930048Y-13495486D01*
X10920524Y-13533581D01*
X10911000Y-13552628D01*
X10901476Y-13562152D01*
X10882429Y-13571676D01*
X10863381Y-13571676D01*
X10844333Y-13562152D01*
X10834810Y-13552628D01*
X10825286Y-13533581D01*
X10815762Y-13495486D01*
X10815762Y-13447867D01*
X10825286Y-13409771D01*
X10834810Y-13390724D01*
X10844333Y-13381200D01*
X10863381Y-13371676D01*
X11015762Y-13571676D02*
X11015762Y-13438343D01*
X11015762Y-13457390D02*
X11025286Y-13447867D01*
X11044333Y-13438343D01*
X11072905Y-13438343D01*
X11091952Y-13447867D01*
X11101476Y-13466914D01*
X11101476Y-13571676D01*
X11101476Y-13466914D02*
X11111000Y-13447867D01*
X11130048Y-13438343D01*
X11158619Y-13438343D01*
X11177667Y-13447867D01*
X11187190Y-13466914D01*
X11187190Y-13571676D01*
X11282428Y-13571676D02*
X11282428Y-13438343D01*
X11282428Y-13457390D02*
X11291952Y-13447867D01*
X11311000Y-13438343D01*
X11339571Y-13438343D01*
X11358619Y-13447867D01*
X11368143Y-13466914D01*
X11368143Y-13571676D01*
X11368143Y-13466914D02*
X11377667Y-13447867D01*
X11396714Y-13438343D01*
X11425286Y-13438343D01*
X11444333Y-13447867D01*
X11453857Y-13466914D01*
X11453857Y-13571676D01*
X11844333Y-13362152D02*
X11672905Y-13619295D01*
X12101476Y-13371676D02*
X12120524Y-13371676D01*
X12139571Y-13381200D01*
X12149095Y-13390724D01*
X12158619Y-13409771D01*
X12168143Y-13447867D01*
X12168143Y-13495486D01*
X12158619Y-13533581D01*
X12149095Y-13552628D01*
X12139571Y-13562152D01*
X12120524Y-13571676D01*
X12101476Y-13571676D01*
X12082428Y-13562152D01*
X12072905Y-13552628D01*
X12063381Y-13533581D01*
X12053857Y-13495486D01*
X12053857Y-13447867D01*
X12063381Y-13409771D01*
X12072905Y-13390724D01*
X12082428Y-13381200D01*
X12101476Y-13371676D01*
X12253857Y-13552628D02*
X12263381Y-13562152D01*
X12253857Y-13571676D01*
X12244333Y-13562152D01*
X12253857Y-13552628D01*
X12253857Y-13571676D01*
X12453857Y-13571676D02*
X12339571Y-13571676D01*
X12396714Y-13571676D02*
X12396714Y-13371676D01*
X12377667Y-13400248D01*
X12358619Y-13419295D01*
X12339571Y-13428819D01*
X12625286Y-13371676D02*
X12587190Y-13371676D01*
X12568143Y-13381200D01*
X12558619Y-13390724D01*
X12539571Y-13419295D01*
X12530048Y-13457390D01*
X12530048Y-13533581D01*
X12539571Y-13552628D01*
X12549095Y-13562152D01*
X12568143Y-13571676D01*
X12606238Y-13571676D01*
X12625286Y-13562152D01*
X12634809Y-13552628D01*
X12644333Y-13533581D01*
X12644333Y-13485962D01*
X12634809Y-13466914D01*
X12625286Y-13457390D01*
X12606238Y-13447867D01*
X12568143Y-13447867D01*
X12549095Y-13457390D01*
X12539571Y-13466914D01*
X12530048Y-13485962D01*
X12739571Y-13571676D02*
X12777667Y-13571676D01*
X12796714Y-13562152D01*
X12806238Y-13552628D01*
X12825286Y-13524057D01*
X12834809Y-13485962D01*
X12834809Y-13409771D01*
X12825286Y-13390724D01*
X12815762Y-13381200D01*
X12796714Y-13371676D01*
X12758619Y-13371676D01*
X12739571Y-13381200D01*
X12730048Y-13390724D01*
X12720524Y-13409771D01*
X12720524Y-13457390D01*
X12730048Y-13476438D01*
X12739571Y-13485962D01*
X12758619Y-13495486D01*
X12796714Y-13495486D01*
X12815762Y-13485962D01*
X12825286Y-13476438D01*
X12834809Y-13457390D01*
X12901476Y-13371676D02*
X13025286Y-13371676D01*
X12958619Y-13447867D01*
X12987190Y-13447867D01*
X13006238Y-13457390D01*
X13015762Y-13466914D01*
X13025286Y-13485962D01*
X13025286Y-13533581D01*
X13015762Y-13552628D01*
X13006238Y-13562152D01*
X12987190Y-13571676D01*
X12930048Y-13571676D01*
X12911000Y-13562152D01*
X12901476Y-13552628D01*
X13101476Y-13371676D02*
X13101476Y-13409771D01*
X13177667Y-13371676D02*
X13177667Y-13409771D01*
X13472905Y-13647867D02*
X13463381Y-13638343D01*
X13444333Y-13609771D01*
X13434809Y-13590724D01*
X13425286Y-13562152D01*
X13415762Y-13514533D01*
X13415762Y-13476438D01*
X13425286Y-13428819D01*
X13434809Y-13400248D01*
X13444333Y-13381200D01*
X13463381Y-13352628D01*
X13472905Y-13343105D01*
X13634809Y-13438343D02*
X13634809Y-13571676D01*
X13587190Y-13362152D02*
X13539571Y-13505009D01*
X13663381Y-13505009D01*
X13891952Y-13571676D02*
X13891952Y-13371676D01*
X13977667Y-13571676D02*
X13977667Y-13466914D01*
X13968143Y-13447867D01*
X13949095Y-13438343D01*
X13920524Y-13438343D01*
X13901476Y-13447867D01*
X13891952Y-13457390D01*
X14101476Y-13571676D02*
X14082428Y-13562152D01*
X14072905Y-13552628D01*
X14063381Y-13533581D01*
X14063381Y-13476438D01*
X14072905Y-13457390D01*
X14082428Y-13447867D01*
X14101476Y-13438343D01*
X14130048Y-13438343D01*
X14149095Y-13447867D01*
X14158619Y-13457390D01*
X14168143Y-13476438D01*
X14168143Y-13533581D01*
X14158619Y-13552628D01*
X14149095Y-13562152D01*
X14130048Y-13571676D01*
X14101476Y-13571676D01*
X14282428Y-13571676D02*
X14263381Y-13562152D01*
X14253857Y-13543105D01*
X14253857Y-13371676D01*
X14434809Y-13562152D02*
X14415762Y-13571676D01*
X14377667Y-13571676D01*
X14358619Y-13562152D01*
X14349095Y-13543105D01*
X14349095Y-13466914D01*
X14358619Y-13447867D01*
X14377667Y-13438343D01*
X14415762Y-13438343D01*
X14434809Y-13447867D01*
X14444333Y-13466914D01*
X14444333Y-13485962D01*
X14349095Y-13505009D01*
X14520524Y-13562152D02*
X14539571Y-13571676D01*
X14577667Y-13571676D01*
X14596714Y-13562152D01*
X14606238Y-13543105D01*
X14606238Y-13533581D01*
X14596714Y-13514533D01*
X14577667Y-13505009D01*
X14549095Y-13505009D01*
X14530048Y-13495486D01*
X14520524Y-13476438D01*
X14520524Y-13466914D01*
X14530048Y-13447867D01*
X14549095Y-13438343D01*
X14577667Y-13438343D01*
X14596714Y-13447867D01*
X14672905Y-13647867D02*
X14682428Y-13638343D01*
X14701476Y-13609771D01*
X14711000Y-13590724D01*
X14720524Y-13562152D01*
X14730048Y-13514533D01*
X14730048Y-13476438D01*
X14720524Y-13428819D01*
X14711000Y-13400248D01*
X14701476Y-13381200D01*
X14682428Y-13352628D01*
X14672905Y-13343105D01*
M02*
