%TF.GenerationSoftware,KiCad,Pcbnew,(6.0.11)*%
%TF.CreationDate,2023-06-15T16:04:24+03:00*%
%TF.ProjectId,flyback_48V_48W,666c7962-6163-46b5-9f34-38565f343857,rev?*%
%TF.SameCoordinates,Original*%
%TF.FileFunction,Drillmap*%
%TF.FilePolarity,Positive*%
%FSLAX45Y45*%
G04 Gerber Fmt 4.5, Leading zero omitted, Abs format (unit mm)*
G04 Created by KiCad (PCBNEW (6.0.11)) date 2023-06-15 16:04:24*
%MOMM*%
%LPD*%
G01*
G04 APERTURE LIST*
%ADD10C,0.100000*%
%ADD11C,0.200000*%
%ADD12C,0.430000*%
G04 APERTURE END LIST*
D10*
X18000000Y-10160000D02*
X18000000Y-11252200D01*
X11277600Y-10160000D02*
X18000000Y-10160000D01*
X11277600Y-11176000D02*
X11277600Y-10160000D01*
X9906000Y-11176000D02*
X11277600Y-11176000D01*
X19558000Y-11252200D02*
X18000000Y-11252200D01*
X19558000Y-1778000D02*
X19558000Y-11252200D01*
X18034000Y-1778000D02*
X19558000Y-1778000D01*
X18034000Y-2921000D02*
X18034000Y-1778000D01*
X11303000Y-2921000D02*
X18034000Y-2921000D01*
X11303000Y-1778000D02*
X11303000Y-2921000D01*
X9906000Y-1778000D02*
X11303000Y-1778000D01*
X9906000Y-11176000D02*
X9906000Y-1778000D01*
D11*
D12*
X10385000Y-2285000D02*
X10815000Y-2715000D01*
X10815000Y-2285000D02*
X10385000Y-2715000D01*
X10385000Y-10385000D02*
X10815000Y-10815000D01*
X10815000Y-10385000D02*
X10385000Y-10815000D01*
X18485000Y-2285000D02*
X18915000Y-2715000D01*
X18915000Y-2285000D02*
X18485000Y-2715000D01*
X18485000Y-10385000D02*
X18915000Y-10815000D01*
X18915000Y-10385000D02*
X18485000Y-10815000D01*
D11*
X10158619Y-11567676D02*
X10158619Y-11367676D01*
X10206238Y-11367676D01*
X10234810Y-11377200D01*
X10253857Y-11396248D01*
X10263381Y-11415295D01*
X10272905Y-11453390D01*
X10272905Y-11481962D01*
X10263381Y-11520057D01*
X10253857Y-11539105D01*
X10234810Y-11558152D01*
X10206238Y-11567676D01*
X10158619Y-11567676D01*
X10358619Y-11567676D02*
X10358619Y-11434343D01*
X10358619Y-11472438D02*
X10368143Y-11453390D01*
X10377667Y-11443867D01*
X10396714Y-11434343D01*
X10415762Y-11434343D01*
X10482429Y-11567676D02*
X10482429Y-11434343D01*
X10482429Y-11367676D02*
X10472905Y-11377200D01*
X10482429Y-11386724D01*
X10491952Y-11377200D01*
X10482429Y-11367676D01*
X10482429Y-11386724D01*
X10606238Y-11567676D02*
X10587190Y-11558152D01*
X10577667Y-11539105D01*
X10577667Y-11367676D01*
X10711000Y-11567676D02*
X10691952Y-11558152D01*
X10682429Y-11539105D01*
X10682429Y-11367676D01*
X10939571Y-11567676D02*
X10939571Y-11367676D01*
X11006238Y-11510533D01*
X11072905Y-11367676D01*
X11072905Y-11567676D01*
X11253857Y-11567676D02*
X11253857Y-11462914D01*
X11244333Y-11443867D01*
X11225286Y-11434343D01*
X11187190Y-11434343D01*
X11168143Y-11443867D01*
X11253857Y-11558152D02*
X11234809Y-11567676D01*
X11187190Y-11567676D01*
X11168143Y-11558152D01*
X11158619Y-11539105D01*
X11158619Y-11520057D01*
X11168143Y-11501009D01*
X11187190Y-11491486D01*
X11234809Y-11491486D01*
X11253857Y-11481962D01*
X11349095Y-11434343D02*
X11349095Y-11634343D01*
X11349095Y-11443867D02*
X11368143Y-11434343D01*
X11406238Y-11434343D01*
X11425286Y-11443867D01*
X11434809Y-11453390D01*
X11444333Y-11472438D01*
X11444333Y-11529581D01*
X11434809Y-11548628D01*
X11425286Y-11558152D01*
X11406238Y-11567676D01*
X11368143Y-11567676D01*
X11349095Y-11558152D01*
X11530048Y-11548628D02*
X11539571Y-11558152D01*
X11530048Y-11567676D01*
X11520524Y-11558152D01*
X11530048Y-11548628D01*
X11530048Y-11567676D01*
X11530048Y-11443867D02*
X11539571Y-11453390D01*
X11530048Y-11462914D01*
X11520524Y-11453390D01*
X11530048Y-11443867D01*
X11530048Y-11462914D01*
X9701000Y-11797200D02*
X9901000Y-11997200D01*
X9901000Y-11797200D02*
X9701000Y-11997200D01*
X10244333Y-11854343D02*
X10244333Y-11987676D01*
X10196714Y-11778152D02*
X10149095Y-11921009D01*
X10272905Y-11921009D01*
X10349095Y-11968628D02*
X10358619Y-11978152D01*
X10349095Y-11987676D01*
X10339571Y-11978152D01*
X10349095Y-11968628D01*
X10349095Y-11987676D01*
X10425286Y-11787676D02*
X10549095Y-11787676D01*
X10482429Y-11863867D01*
X10511000Y-11863867D01*
X10530048Y-11873390D01*
X10539571Y-11882914D01*
X10549095Y-11901962D01*
X10549095Y-11949581D01*
X10539571Y-11968628D01*
X10530048Y-11978152D01*
X10511000Y-11987676D01*
X10453857Y-11987676D01*
X10434810Y-11978152D01*
X10425286Y-11968628D01*
X10672905Y-11787676D02*
X10691952Y-11787676D01*
X10711000Y-11797200D01*
X10720524Y-11806724D01*
X10730048Y-11825771D01*
X10739571Y-11863867D01*
X10739571Y-11911486D01*
X10730048Y-11949581D01*
X10720524Y-11968628D01*
X10711000Y-11978152D01*
X10691952Y-11987676D01*
X10672905Y-11987676D01*
X10653857Y-11978152D01*
X10644333Y-11968628D01*
X10634810Y-11949581D01*
X10625286Y-11911486D01*
X10625286Y-11863867D01*
X10634810Y-11825771D01*
X10644333Y-11806724D01*
X10653857Y-11797200D01*
X10672905Y-11787676D01*
X10863381Y-11787676D02*
X10882429Y-11787676D01*
X10901476Y-11797200D01*
X10911000Y-11806724D01*
X10920524Y-11825771D01*
X10930048Y-11863867D01*
X10930048Y-11911486D01*
X10920524Y-11949581D01*
X10911000Y-11968628D01*
X10901476Y-11978152D01*
X10882429Y-11987676D01*
X10863381Y-11987676D01*
X10844333Y-11978152D01*
X10834810Y-11968628D01*
X10825286Y-11949581D01*
X10815762Y-11911486D01*
X10815762Y-11863867D01*
X10825286Y-11825771D01*
X10834810Y-11806724D01*
X10844333Y-11797200D01*
X10863381Y-11787676D01*
X11015762Y-11987676D02*
X11015762Y-11854343D01*
X11015762Y-11873390D02*
X11025286Y-11863867D01*
X11044333Y-11854343D01*
X11072905Y-11854343D01*
X11091952Y-11863867D01*
X11101476Y-11882914D01*
X11101476Y-11987676D01*
X11101476Y-11882914D02*
X11111000Y-11863867D01*
X11130048Y-11854343D01*
X11158619Y-11854343D01*
X11177667Y-11863867D01*
X11187190Y-11882914D01*
X11187190Y-11987676D01*
X11282428Y-11987676D02*
X11282428Y-11854343D01*
X11282428Y-11873390D02*
X11291952Y-11863867D01*
X11311000Y-11854343D01*
X11339571Y-11854343D01*
X11358619Y-11863867D01*
X11368143Y-11882914D01*
X11368143Y-11987676D01*
X11368143Y-11882914D02*
X11377667Y-11863867D01*
X11396714Y-11854343D01*
X11425286Y-11854343D01*
X11444333Y-11863867D01*
X11453857Y-11882914D01*
X11453857Y-11987676D01*
X11844333Y-11778152D02*
X11672905Y-12035295D01*
X12101476Y-11787676D02*
X12120524Y-11787676D01*
X12139571Y-11797200D01*
X12149095Y-11806724D01*
X12158619Y-11825771D01*
X12168143Y-11863867D01*
X12168143Y-11911486D01*
X12158619Y-11949581D01*
X12149095Y-11968628D01*
X12139571Y-11978152D01*
X12120524Y-11987676D01*
X12101476Y-11987676D01*
X12082428Y-11978152D01*
X12072905Y-11968628D01*
X12063381Y-11949581D01*
X12053857Y-11911486D01*
X12053857Y-11863867D01*
X12063381Y-11825771D01*
X12072905Y-11806724D01*
X12082428Y-11797200D01*
X12101476Y-11787676D01*
X12253857Y-11968628D02*
X12263381Y-11978152D01*
X12253857Y-11987676D01*
X12244333Y-11978152D01*
X12253857Y-11968628D01*
X12253857Y-11987676D01*
X12453857Y-11987676D02*
X12339571Y-11987676D01*
X12396714Y-11987676D02*
X12396714Y-11787676D01*
X12377667Y-11816248D01*
X12358619Y-11835295D01*
X12339571Y-11844819D01*
X12625286Y-11787676D02*
X12587190Y-11787676D01*
X12568143Y-11797200D01*
X12558619Y-11806724D01*
X12539571Y-11835295D01*
X12530048Y-11873390D01*
X12530048Y-11949581D01*
X12539571Y-11968628D01*
X12549095Y-11978152D01*
X12568143Y-11987676D01*
X12606238Y-11987676D01*
X12625286Y-11978152D01*
X12634809Y-11968628D01*
X12644333Y-11949581D01*
X12644333Y-11901962D01*
X12634809Y-11882914D01*
X12625286Y-11873390D01*
X12606238Y-11863867D01*
X12568143Y-11863867D01*
X12549095Y-11873390D01*
X12539571Y-11882914D01*
X12530048Y-11901962D01*
X12739571Y-11987676D02*
X12777667Y-11987676D01*
X12796714Y-11978152D01*
X12806238Y-11968628D01*
X12825286Y-11940057D01*
X12834809Y-11901962D01*
X12834809Y-11825771D01*
X12825286Y-11806724D01*
X12815762Y-11797200D01*
X12796714Y-11787676D01*
X12758619Y-11787676D01*
X12739571Y-11797200D01*
X12730048Y-11806724D01*
X12720524Y-11825771D01*
X12720524Y-11873390D01*
X12730048Y-11892438D01*
X12739571Y-11901962D01*
X12758619Y-11911486D01*
X12796714Y-11911486D01*
X12815762Y-11901962D01*
X12825286Y-11892438D01*
X12834809Y-11873390D01*
X12901476Y-11787676D02*
X13025286Y-11787676D01*
X12958619Y-11863867D01*
X12987190Y-11863867D01*
X13006238Y-11873390D01*
X13015762Y-11882914D01*
X13025286Y-11901962D01*
X13025286Y-11949581D01*
X13015762Y-11968628D01*
X13006238Y-11978152D01*
X12987190Y-11987676D01*
X12930048Y-11987676D01*
X12911000Y-11978152D01*
X12901476Y-11968628D01*
X13101476Y-11787676D02*
X13101476Y-11825771D01*
X13177667Y-11787676D02*
X13177667Y-11825771D01*
X13472905Y-12063867D02*
X13463381Y-12054343D01*
X13444333Y-12025771D01*
X13434809Y-12006724D01*
X13425286Y-11978152D01*
X13415762Y-11930533D01*
X13415762Y-11892438D01*
X13425286Y-11844819D01*
X13434809Y-11816248D01*
X13444333Y-11797200D01*
X13463381Y-11768628D01*
X13472905Y-11759105D01*
X13634809Y-11854343D02*
X13634809Y-11987676D01*
X13587190Y-11778152D02*
X13539571Y-11921009D01*
X13663381Y-11921009D01*
X13891952Y-11987676D02*
X13891952Y-11787676D01*
X13977667Y-11987676D02*
X13977667Y-11882914D01*
X13968143Y-11863867D01*
X13949095Y-11854343D01*
X13920524Y-11854343D01*
X13901476Y-11863867D01*
X13891952Y-11873390D01*
X14101476Y-11987676D02*
X14082428Y-11978152D01*
X14072905Y-11968628D01*
X14063381Y-11949581D01*
X14063381Y-11892438D01*
X14072905Y-11873390D01*
X14082428Y-11863867D01*
X14101476Y-11854343D01*
X14130048Y-11854343D01*
X14149095Y-11863867D01*
X14158619Y-11873390D01*
X14168143Y-11892438D01*
X14168143Y-11949581D01*
X14158619Y-11968628D01*
X14149095Y-11978152D01*
X14130048Y-11987676D01*
X14101476Y-11987676D01*
X14282428Y-11987676D02*
X14263381Y-11978152D01*
X14253857Y-11959105D01*
X14253857Y-11787676D01*
X14434809Y-11978152D02*
X14415762Y-11987676D01*
X14377667Y-11987676D01*
X14358619Y-11978152D01*
X14349095Y-11959105D01*
X14349095Y-11882914D01*
X14358619Y-11863867D01*
X14377667Y-11854343D01*
X14415762Y-11854343D01*
X14434809Y-11863867D01*
X14444333Y-11882914D01*
X14444333Y-11901962D01*
X14349095Y-11921009D01*
X14520524Y-11978152D02*
X14539571Y-11987676D01*
X14577667Y-11987676D01*
X14596714Y-11978152D01*
X14606238Y-11959105D01*
X14606238Y-11949581D01*
X14596714Y-11930533D01*
X14577667Y-11921009D01*
X14549095Y-11921009D01*
X14530048Y-11911486D01*
X14520524Y-11892438D01*
X14520524Y-11882914D01*
X14530048Y-11863867D01*
X14549095Y-11854343D01*
X14577667Y-11854343D01*
X14596714Y-11863867D01*
X14672905Y-12063867D02*
X14682428Y-12054343D01*
X14701476Y-12025771D01*
X14711000Y-12006724D01*
X14720524Y-11978152D01*
X14730048Y-11930533D01*
X14730048Y-11892438D01*
X14720524Y-11844819D01*
X14711000Y-11816248D01*
X14701476Y-11797200D01*
X14682428Y-11768628D01*
X14672905Y-11759105D01*
X15034809Y-12063867D02*
X15025286Y-12054343D01*
X15006238Y-12025771D01*
X14996714Y-12006724D01*
X14987190Y-11978152D01*
X14977667Y-11930533D01*
X14977667Y-11892438D01*
X14987190Y-11844819D01*
X14996714Y-11816248D01*
X15006238Y-11797200D01*
X15025286Y-11768628D01*
X15034809Y-11759105D01*
X15111000Y-11854343D02*
X15111000Y-11987676D01*
X15111000Y-11873390D02*
X15120524Y-11863867D01*
X15139571Y-11854343D01*
X15168143Y-11854343D01*
X15187190Y-11863867D01*
X15196714Y-11882914D01*
X15196714Y-11987676D01*
X15320524Y-11987676D02*
X15301476Y-11978152D01*
X15291952Y-11968628D01*
X15282428Y-11949581D01*
X15282428Y-11892438D01*
X15291952Y-11873390D01*
X15301476Y-11863867D01*
X15320524Y-11854343D01*
X15349095Y-11854343D01*
X15368143Y-11863867D01*
X15377667Y-11873390D01*
X15387190Y-11892438D01*
X15387190Y-11949581D01*
X15377667Y-11968628D01*
X15368143Y-11978152D01*
X15349095Y-11987676D01*
X15320524Y-11987676D01*
X15444333Y-11854343D02*
X15520524Y-11854343D01*
X15472905Y-11787676D02*
X15472905Y-11959105D01*
X15482428Y-11978152D01*
X15501476Y-11987676D01*
X15520524Y-11987676D01*
X15739571Y-11854343D02*
X15739571Y-12054343D01*
X15739571Y-11863867D02*
X15758619Y-11854343D01*
X15796714Y-11854343D01*
X15815762Y-11863867D01*
X15825286Y-11873390D01*
X15834809Y-11892438D01*
X15834809Y-11949581D01*
X15825286Y-11968628D01*
X15815762Y-11978152D01*
X15796714Y-11987676D01*
X15758619Y-11987676D01*
X15739571Y-11978152D01*
X15949095Y-11987676D02*
X15930048Y-11978152D01*
X15920524Y-11959105D01*
X15920524Y-11787676D01*
X16111000Y-11987676D02*
X16111000Y-11882914D01*
X16101476Y-11863867D01*
X16082428Y-11854343D01*
X16044333Y-11854343D01*
X16025286Y-11863867D01*
X16111000Y-11978152D02*
X16091952Y-11987676D01*
X16044333Y-11987676D01*
X16025286Y-11978152D01*
X16015762Y-11959105D01*
X16015762Y-11940057D01*
X16025286Y-11921009D01*
X16044333Y-11911486D01*
X16091952Y-11911486D01*
X16111000Y-11901962D01*
X16177667Y-11854343D02*
X16253857Y-11854343D01*
X16206238Y-11787676D02*
X16206238Y-11959105D01*
X16215762Y-11978152D01*
X16234809Y-11987676D01*
X16253857Y-11987676D01*
X16396714Y-11978152D02*
X16377667Y-11987676D01*
X16339571Y-11987676D01*
X16320524Y-11978152D01*
X16311000Y-11959105D01*
X16311000Y-11882914D01*
X16320524Y-11863867D01*
X16339571Y-11854343D01*
X16377667Y-11854343D01*
X16396714Y-11863867D01*
X16406238Y-11882914D01*
X16406238Y-11901962D01*
X16311000Y-11921009D01*
X16577667Y-11987676D02*
X16577667Y-11787676D01*
X16577667Y-11978152D02*
X16558619Y-11987676D01*
X16520524Y-11987676D01*
X16501476Y-11978152D01*
X16491952Y-11968628D01*
X16482428Y-11949581D01*
X16482428Y-11892438D01*
X16491952Y-11873390D01*
X16501476Y-11863867D01*
X16520524Y-11854343D01*
X16558619Y-11854343D01*
X16577667Y-11863867D01*
X16653857Y-12063867D02*
X16663381Y-12054343D01*
X16682428Y-12025771D01*
X16691952Y-12006724D01*
X16701476Y-11978152D01*
X16711000Y-11930533D01*
X16711000Y-11892438D01*
X16701476Y-11844819D01*
X16691952Y-11816248D01*
X16682428Y-11797200D01*
X16663381Y-11768628D01*
X16653857Y-11759105D01*
M02*
