G04 #@! TF.GenerationSoftware,KiCad,Pcbnew,(6.0.11)*
G04 #@! TF.CreationDate,2023-06-14T00:40:10+03:00*
G04 #@! TF.ProjectId,flyback_48V_48W,666c7962-6163-46b5-9f34-38565f343857,rev?*
G04 #@! TF.SameCoordinates,Original*
G04 #@! TF.FileFunction,Soldermask,Bot*
G04 #@! TF.FilePolarity,Negative*
%FSLAX46Y46*%
G04 Gerber Fmt 4.6, Leading zero omitted, Abs format (unit mm)*
G04 Created by KiCad (PCBNEW (6.0.11)) date 2023-06-14 00:40:10*
%MOMM*%
%LPD*%
G01*
G04 APERTURE LIST*
G04 Aperture macros list*
%AMRoundRect*
0 Rectangle with rounded corners*
0 $1 Rounding radius*
0 $2 $3 $4 $5 $6 $7 $8 $9 X,Y pos of 4 corners*
0 Add a 4 corners polygon primitive as box body*
4,1,4,$2,$3,$4,$5,$6,$7,$8,$9,$2,$3,0*
0 Add four circle primitives for the rounded corners*
1,1,$1+$1,$2,$3*
1,1,$1+$1,$4,$5*
1,1,$1+$1,$6,$7*
1,1,$1+$1,$8,$9*
0 Add four rect primitives between the rounded corners*
20,1,$1+$1,$2,$3,$4,$5,0*
20,1,$1+$1,$4,$5,$6,$7,0*
20,1,$1+$1,$6,$7,$8,$9,0*
20,1,$1+$1,$8,$9,$2,$3,0*%
G04 Aperture macros list end*
%ADD10C,1.524000*%
%ADD11C,3.800000*%
%ADD12O,3.048000X1.524000*%
%ADD13R,2.000000X2.000000*%
%ADD14O,2.000000X2.000000*%
%ADD15R,1.200000X1.200000*%
%ADD16C,1.200000*%
%ADD17C,1.000000*%
%ADD18RoundRect,0.250000X0.400000X0.625000X-0.400000X0.625000X-0.400000X-0.625000X0.400000X-0.625000X0*%
%ADD19RoundRect,0.250000X-0.400000X-0.625000X0.400000X-0.625000X0.400000X0.625000X-0.400000X0.625000X0*%
%ADD20RoundRect,0.250000X0.650000X-0.412500X0.650000X0.412500X-0.650000X0.412500X-0.650000X-0.412500X0*%
%ADD21RoundRect,0.150000X-0.825000X-0.150000X0.825000X-0.150000X0.825000X0.150000X-0.825000X0.150000X0*%
%ADD22RoundRect,0.150000X-0.662500X-0.150000X0.662500X-0.150000X0.662500X0.150000X-0.662500X0.150000X0*%
%ADD23RoundRect,0.250000X-0.650000X0.412500X-0.650000X-0.412500X0.650000X-0.412500X0.650000X0.412500X0*%
%ADD24RoundRect,0.250000X0.412500X0.650000X-0.412500X0.650000X-0.412500X-0.650000X0.412500X-0.650000X0*%
%ADD25RoundRect,0.250000X-0.412500X-0.650000X0.412500X-0.650000X0.412500X0.650000X-0.412500X0.650000X0*%
%ADD26R,0.900000X1.200000*%
%ADD27RoundRect,0.250000X-0.625000X0.400000X-0.625000X-0.400000X0.625000X-0.400000X0.625000X0.400000X0*%
%ADD28RoundRect,0.150000X-0.150000X0.587500X-0.150000X-0.587500X0.150000X-0.587500X0.150000X0.587500X0*%
%ADD29RoundRect,0.250000X0.625000X-0.400000X0.625000X0.400000X-0.625000X0.400000X-0.625000X-0.400000X0*%
%ADD30R,1.200000X0.900000*%
G04 APERTURE END LIST*
D10*
X148270000Y-70730000D03*
X148270000Y-65650000D03*
X145730000Y-73270000D03*
X140650000Y-73270000D03*
X120330000Y-52950000D03*
X120330000Y-47870000D03*
X122870000Y-45330000D03*
X127950000Y-45330000D03*
D11*
X133500000Y-78750000D03*
D12*
X105725000Y-61840000D03*
X105725000Y-56760000D03*
X105725000Y-59300000D03*
D11*
X171500000Y-42750000D03*
D13*
X153189500Y-56710000D03*
D14*
X153189500Y-61790000D03*
D15*
X170180000Y-60500000D03*
D16*
X170180000Y-65500000D03*
D11*
X170500000Y-75750000D03*
D17*
X117400000Y-78200000D03*
X160750000Y-81000000D03*
D11*
X123952000Y-39624000D03*
D17*
X171750000Y-48750000D03*
D18*
X120168000Y-41402000D03*
X117068000Y-41402000D03*
D19*
X110450000Y-64400000D03*
X113550000Y-64400000D03*
D18*
X108750000Y-52500000D03*
X105650000Y-52500000D03*
D20*
X129000000Y-58312500D03*
X129000000Y-55187500D03*
D18*
X118136000Y-43942000D03*
X115036000Y-43942000D03*
D19*
X125200000Y-63100000D03*
X128300000Y-63100000D03*
D21*
X134025000Y-58905000D03*
X134025000Y-57635000D03*
X134025000Y-56365000D03*
X134025000Y-55095000D03*
X138975000Y-55095000D03*
X138975000Y-56365000D03*
X138975000Y-57635000D03*
X138975000Y-58905000D03*
D22*
X146562500Y-52385000D03*
X146562500Y-51115000D03*
X152937500Y-51115000D03*
X152937500Y-52385000D03*
D23*
X141000000Y-62687500D03*
X141000000Y-65812500D03*
D24*
X113562500Y-69900000D03*
X110437500Y-69900000D03*
X161812500Y-41750000D03*
X158687500Y-41750000D03*
D25*
X140437500Y-48500000D03*
X143562500Y-48500000D03*
D18*
X161550000Y-65750000D03*
X158450000Y-65750000D03*
D19*
X158350000Y-68750000D03*
X161450000Y-68750000D03*
D18*
X143300000Y-51750000D03*
X140200000Y-51750000D03*
D26*
X113650000Y-59400000D03*
X110350000Y-59400000D03*
X144146000Y-59000000D03*
X147446000Y-59000000D03*
D24*
X163562500Y-44750000D03*
X160437500Y-44750000D03*
D19*
X131200000Y-63000000D03*
X134300000Y-63000000D03*
D24*
X120180500Y-38862000D03*
X117055500Y-38862000D03*
D25*
X127977500Y-42672000D03*
X131102500Y-42672000D03*
D27*
X165500000Y-52700000D03*
X165500000Y-55800000D03*
D18*
X137300000Y-51750000D03*
X134200000Y-51750000D03*
D28*
X158300000Y-54562500D03*
X160200000Y-54562500D03*
X159250000Y-56437500D03*
D27*
X141250000Y-39200000D03*
X141250000Y-42300000D03*
D29*
X165500000Y-50300000D03*
X165500000Y-47200000D03*
D17*
X166000000Y-39500000D03*
D18*
X135800000Y-45250000D03*
X132700000Y-45250000D03*
D30*
X172250000Y-52600000D03*
X172250000Y-55900000D03*
D25*
X125187500Y-66350000D03*
X128312500Y-66350000D03*
D18*
X157300000Y-44750000D03*
X154200000Y-44750000D03*
D17*
X156500000Y-39000000D03*
D20*
X141986000Y-57696500D03*
X141986000Y-54571500D03*
D17*
X117602000Y-53086000D03*
D29*
X125500000Y-58300000D03*
X125500000Y-55200000D03*
X168750000Y-55800000D03*
X168750000Y-52700000D03*
D18*
X164800000Y-62650000D03*
X161700000Y-62650000D03*
D25*
X127723500Y-39624000D03*
X130848500Y-39624000D03*
M02*
