G04 #@! TF.GenerationSoftware,KiCad,Pcbnew,(6.0.11)*
G04 #@! TF.CreationDate,2023-06-13T18:49:00+03:00*
G04 #@! TF.ProjectId,flyback_48V_48W,666c7962-6163-46b5-9f34-38565f343857,rev?*
G04 #@! TF.SameCoordinates,Original*
G04 #@! TF.FileFunction,Legend,Bot*
G04 #@! TF.FilePolarity,Positive*
%FSLAX46Y46*%
G04 Gerber Fmt 4.6, Leading zero omitted, Abs format (unit mm)*
G04 Created by KiCad (PCBNEW (6.0.11)) date 2023-06-13 18:49:00*
%MOMM*%
%LPD*%
G01*
G04 APERTURE LIST*
G04 Aperture macros list*
%AMRoundRect*
0 Rectangle with rounded corners*
0 $1 Rounding radius*
0 $2 $3 $4 $5 $6 $7 $8 $9 X,Y pos of 4 corners*
0 Add a 4 corners polygon primitive as box body*
4,1,4,$2,$3,$4,$5,$6,$7,$8,$9,$2,$3,0*
0 Add four circle primitives for the rounded corners*
1,1,$1+$1,$2,$3*
1,1,$1+$1,$4,$5*
1,1,$1+$1,$6,$7*
1,1,$1+$1,$8,$9*
0 Add four rect primitives between the rounded corners*
20,1,$1+$1,$2,$3,$4,$5,0*
20,1,$1+$1,$4,$5,$6,$7,0*
20,1,$1+$1,$6,$7,$8,$9,0*
20,1,$1+$1,$8,$9,$2,$3,0*%
G04 Aperture macros list end*
%ADD10C,0.150000*%
%ADD11C,0.120000*%
%ADD12C,3.800000*%
%ADD13O,3.048000X1.524000*%
%ADD14R,2.000000X2.000000*%
%ADD15O,2.000000X2.000000*%
%ADD16R,1.200000X1.200000*%
%ADD17C,1.200000*%
%ADD18C,1.524000*%
%ADD19C,1.000000*%
%ADD20RoundRect,0.250000X-0.625000X0.400000X-0.625000X-0.400000X0.625000X-0.400000X0.625000X0.400000X0*%
%ADD21RoundRect,0.250000X-0.400000X-0.625000X0.400000X-0.625000X0.400000X0.625000X-0.400000X0.625000X0*%
%ADD22RoundRect,0.250000X0.400000X0.625000X-0.400000X0.625000X-0.400000X-0.625000X0.400000X-0.625000X0*%
%ADD23RoundRect,0.250000X0.650000X-0.412500X0.650000X0.412500X-0.650000X0.412500X-0.650000X-0.412500X0*%
%ADD24RoundRect,0.150000X-0.825000X-0.150000X0.825000X-0.150000X0.825000X0.150000X-0.825000X0.150000X0*%
%ADD25RoundRect,0.150000X-0.662500X-0.150000X0.662500X-0.150000X0.662500X0.150000X-0.662500X0.150000X0*%
%ADD26RoundRect,0.250000X-0.650000X0.412500X-0.650000X-0.412500X0.650000X-0.412500X0.650000X0.412500X0*%
%ADD27RoundRect,0.250000X0.412500X0.650000X-0.412500X0.650000X-0.412500X-0.650000X0.412500X-0.650000X0*%
%ADD28RoundRect,0.250000X-0.412500X-0.650000X0.412500X-0.650000X0.412500X0.650000X-0.412500X0.650000X0*%
%ADD29R,0.900000X1.200000*%
%ADD30RoundRect,0.150000X-0.150000X0.587500X-0.150000X-0.587500X0.150000X-0.587500X0.150000X0.587500X0*%
%ADD31RoundRect,0.250000X0.625000X-0.400000X0.625000X0.400000X-0.625000X0.400000X-0.625000X-0.400000X0*%
%ADD32R,1.200000X0.900000*%
G04 APERTURE END LIST*
D10*
X173116666Y-45934380D02*
X172545238Y-45934380D01*
X172830952Y-46934380D02*
X172830952Y-45934380D01*
X172069047Y-46934380D02*
X172164285Y-46886761D01*
X172211904Y-46839142D01*
X172259523Y-46743904D01*
X172259523Y-46458190D01*
X172211904Y-46362952D01*
X172164285Y-46315333D01*
X172069047Y-46267714D01*
X171926190Y-46267714D01*
X171830952Y-46315333D01*
X171783333Y-46362952D01*
X171735714Y-46458190D01*
X171735714Y-46743904D01*
X171783333Y-46839142D01*
X171830952Y-46886761D01*
X171926190Y-46934380D01*
X172069047Y-46934380D01*
X171307142Y-46267714D02*
X171307142Y-47267714D01*
X171307142Y-46315333D02*
X171211904Y-46267714D01*
X171021428Y-46267714D01*
X170926190Y-46315333D01*
X170878571Y-46362952D01*
X170830952Y-46458190D01*
X170830952Y-46743904D01*
X170878571Y-46839142D01*
X170926190Y-46886761D01*
X171021428Y-46934380D01*
X171211904Y-46934380D01*
X171307142Y-46886761D01*
X169878571Y-46934380D02*
X170450000Y-46934380D01*
X170164285Y-46934380D02*
X170164285Y-45934380D01*
X170259523Y-46077238D01*
X170354761Y-46172476D01*
X170450000Y-46220095D01*
X107621809Y-45452380D02*
X107955142Y-44976190D01*
X108193238Y-45452380D02*
X108193238Y-44452380D01*
X107812285Y-44452380D01*
X107717047Y-44500000D01*
X107669428Y-44547619D01*
X107621809Y-44642857D01*
X107621809Y-44785714D01*
X107669428Y-44880952D01*
X107717047Y-44928571D01*
X107812285Y-44976190D01*
X108193238Y-44976190D01*
X107240857Y-45404761D02*
X107145619Y-45452380D01*
X106955142Y-45452380D01*
X106859904Y-45404761D01*
X106812285Y-45309523D01*
X106812285Y-45261904D01*
X106859904Y-45166666D01*
X106955142Y-45119047D01*
X107098000Y-45119047D01*
X107193238Y-45071428D01*
X107240857Y-44976190D01*
X107240857Y-44928571D01*
X107193238Y-44833333D01*
X107098000Y-44785714D01*
X106955142Y-44785714D01*
X106859904Y-44833333D01*
X106383714Y-44785714D02*
X106383714Y-45452380D01*
X106383714Y-44880952D02*
X106336095Y-44833333D01*
X106240857Y-44785714D01*
X106098000Y-44785714D01*
X106002761Y-44833333D01*
X105955142Y-44928571D01*
X105955142Y-45452380D01*
X105526571Y-44547619D02*
X105478952Y-44500000D01*
X105383714Y-44452380D01*
X105145619Y-44452380D01*
X105050380Y-44500000D01*
X105002761Y-44547619D01*
X104955142Y-44642857D01*
X104955142Y-44738095D01*
X105002761Y-44880952D01*
X105574190Y-45452380D01*
X104955142Y-45452380D01*
X115768380Y-62881047D02*
X115292190Y-62547714D01*
X115768380Y-62309619D02*
X114768380Y-62309619D01*
X114768380Y-62690571D01*
X114816000Y-62785809D01*
X114863619Y-62833428D01*
X114958857Y-62881047D01*
X115101714Y-62881047D01*
X115196952Y-62833428D01*
X115244571Y-62785809D01*
X115292190Y-62690571D01*
X115292190Y-62309619D01*
X115768380Y-63309619D02*
X115101714Y-63309619D01*
X115292190Y-63309619D02*
X115196952Y-63357238D01*
X115149333Y-63404857D01*
X115101714Y-63500095D01*
X115101714Y-63595333D01*
X115101714Y-63928666D02*
X115768380Y-63928666D01*
X115196952Y-63928666D02*
X115149333Y-63976285D01*
X115101714Y-64071523D01*
X115101714Y-64214380D01*
X115149333Y-64309619D01*
X115244571Y-64357238D01*
X115768380Y-64357238D01*
X115101714Y-65262000D02*
X115911238Y-65262000D01*
X116006476Y-65214380D01*
X116054095Y-65166761D01*
X116101714Y-65071523D01*
X116101714Y-64928666D01*
X116054095Y-64833428D01*
X115720761Y-65262000D02*
X115768380Y-65166761D01*
X115768380Y-64976285D01*
X115720761Y-64881047D01*
X115673142Y-64833428D01*
X115577904Y-64785809D01*
X115292190Y-64785809D01*
X115196952Y-64833428D01*
X115149333Y-64881047D01*
X115101714Y-64976285D01*
X115101714Y-65166761D01*
X115149333Y-65262000D01*
X115768380Y-66262000D02*
X115768380Y-65690571D01*
X115768380Y-65976285D02*
X114768380Y-65976285D01*
X114911238Y-65881047D01*
X115006476Y-65785809D01*
X115054095Y-65690571D01*
X107619047Y-50802380D02*
X107952380Y-50326190D01*
X108190476Y-50802380D02*
X108190476Y-49802380D01*
X107809523Y-49802380D01*
X107714285Y-49850000D01*
X107666666Y-49897619D01*
X107619047Y-49992857D01*
X107619047Y-50135714D01*
X107666666Y-50230952D01*
X107714285Y-50278571D01*
X107809523Y-50326190D01*
X108190476Y-50326190D01*
X106761904Y-50135714D02*
X106761904Y-50945238D01*
X106809523Y-51040476D01*
X106857142Y-51088095D01*
X106952380Y-51135714D01*
X107095238Y-51135714D01*
X107190476Y-51088095D01*
X106761904Y-50754761D02*
X106857142Y-50802380D01*
X107047619Y-50802380D01*
X107142857Y-50754761D01*
X107190476Y-50707142D01*
X107238095Y-50611904D01*
X107238095Y-50326190D01*
X107190476Y-50230952D01*
X107142857Y-50183333D01*
X107047619Y-50135714D01*
X106857142Y-50135714D01*
X106761904Y-50183333D01*
X105761904Y-50802380D02*
X106333333Y-50802380D01*
X106047619Y-50802380D02*
X106047619Y-49802380D01*
X106142857Y-49945238D01*
X106238095Y-50040476D01*
X106333333Y-50088095D01*
X130286000Y-53443142D02*
X130333619Y-53490761D01*
X130476476Y-53538380D01*
X130571714Y-53538380D01*
X130714571Y-53490761D01*
X130809809Y-53395523D01*
X130857428Y-53300285D01*
X130905047Y-53109809D01*
X130905047Y-52966952D01*
X130857428Y-52776476D01*
X130809809Y-52681238D01*
X130714571Y-52586000D01*
X130571714Y-52538380D01*
X130476476Y-52538380D01*
X130333619Y-52586000D01*
X130286000Y-52633619D01*
X129428857Y-53490761D02*
X129524095Y-53538380D01*
X129714571Y-53538380D01*
X129809809Y-53490761D01*
X129857428Y-53443142D01*
X129905047Y-53347904D01*
X129905047Y-53062190D01*
X129857428Y-52966952D01*
X129809809Y-52919333D01*
X129714571Y-52871714D01*
X129524095Y-52871714D01*
X129428857Y-52919333D01*
X129047904Y-53490761D02*
X128952666Y-53538380D01*
X128762190Y-53538380D01*
X128666952Y-53490761D01*
X128619333Y-53395523D01*
X128619333Y-53347904D01*
X128666952Y-53252666D01*
X128762190Y-53205047D01*
X128905047Y-53205047D01*
X129000285Y-53157428D01*
X129047904Y-53062190D01*
X129047904Y-53014571D01*
X129000285Y-52919333D01*
X128905047Y-52871714D01*
X128762190Y-52871714D01*
X128666952Y-52919333D01*
X127666952Y-53538380D02*
X128238380Y-53538380D01*
X127952666Y-53538380D02*
X127952666Y-52538380D01*
X128047904Y-52681238D01*
X128143142Y-52776476D01*
X128238380Y-52824095D01*
X111103809Y-45754380D02*
X111437142Y-45278190D01*
X111675238Y-45754380D02*
X111675238Y-44754380D01*
X111294285Y-44754380D01*
X111199047Y-44802000D01*
X111151428Y-44849619D01*
X111103809Y-44944857D01*
X111103809Y-45087714D01*
X111151428Y-45182952D01*
X111199047Y-45230571D01*
X111294285Y-45278190D01*
X111675238Y-45278190D01*
X110722857Y-45706761D02*
X110627619Y-45754380D01*
X110437142Y-45754380D01*
X110341904Y-45706761D01*
X110294285Y-45611523D01*
X110294285Y-45563904D01*
X110341904Y-45468666D01*
X110437142Y-45421047D01*
X110580000Y-45421047D01*
X110675238Y-45373428D01*
X110722857Y-45278190D01*
X110722857Y-45230571D01*
X110675238Y-45135333D01*
X110580000Y-45087714D01*
X110437142Y-45087714D01*
X110341904Y-45135333D01*
X109865714Y-45087714D02*
X109865714Y-45754380D01*
X109865714Y-45182952D02*
X109818095Y-45135333D01*
X109722857Y-45087714D01*
X109580000Y-45087714D01*
X109484761Y-45135333D01*
X109437142Y-45230571D01*
X109437142Y-45754380D01*
X108437142Y-45754380D02*
X109008571Y-45754380D01*
X108722857Y-45754380D02*
X108722857Y-44754380D01*
X108818095Y-44897238D01*
X108913333Y-44992476D01*
X109008571Y-45040095D01*
X122880380Y-61587333D02*
X122404190Y-61254000D01*
X122880380Y-61015904D02*
X121880380Y-61015904D01*
X121880380Y-61396857D01*
X121928000Y-61492095D01*
X121975619Y-61539714D01*
X122070857Y-61587333D01*
X122213714Y-61587333D01*
X122308952Y-61539714D01*
X122356571Y-61492095D01*
X122404190Y-61396857D01*
X122404190Y-61015904D01*
X122832761Y-62444476D02*
X122880380Y-62349238D01*
X122880380Y-62158761D01*
X122832761Y-62063523D01*
X122785142Y-62015904D01*
X122689904Y-61968285D01*
X122404190Y-61968285D01*
X122308952Y-62015904D01*
X122261333Y-62063523D01*
X122213714Y-62158761D01*
X122213714Y-62349238D01*
X122261333Y-62444476D01*
X122880380Y-63015904D02*
X122832761Y-62920666D01*
X122785142Y-62873047D01*
X122689904Y-62825428D01*
X122404190Y-62825428D01*
X122308952Y-62873047D01*
X122261333Y-62920666D01*
X122213714Y-63015904D01*
X122213714Y-63158761D01*
X122261333Y-63254000D01*
X122308952Y-63301619D01*
X122404190Y-63349238D01*
X122689904Y-63349238D01*
X122785142Y-63301619D01*
X122832761Y-63254000D01*
X122880380Y-63158761D01*
X122880380Y-63015904D01*
X122880380Y-63777809D02*
X122213714Y-63777809D01*
X122308952Y-63777809D02*
X122261333Y-63825428D01*
X122213714Y-63920666D01*
X122213714Y-64063523D01*
X122261333Y-64158761D01*
X122356571Y-64206380D01*
X122880380Y-64206380D01*
X122356571Y-64206380D02*
X122261333Y-64254000D01*
X122213714Y-64349238D01*
X122213714Y-64492095D01*
X122261333Y-64587333D01*
X122356571Y-64634952D01*
X122880380Y-64634952D01*
X122213714Y-65111142D02*
X123213714Y-65111142D01*
X122261333Y-65111142D02*
X122213714Y-65206380D01*
X122213714Y-65396857D01*
X122261333Y-65492095D01*
X122308952Y-65539714D01*
X122404190Y-65587333D01*
X122689904Y-65587333D01*
X122785142Y-65539714D01*
X122832761Y-65492095D01*
X122880380Y-65396857D01*
X122880380Y-65206380D01*
X122832761Y-65111142D01*
X121975619Y-65968285D02*
X121928000Y-66015904D01*
X121880380Y-66111142D01*
X121880380Y-66349238D01*
X121928000Y-66444476D01*
X121975619Y-66492095D01*
X122070857Y-66539714D01*
X122166095Y-66539714D01*
X122308952Y-66492095D01*
X122880380Y-65920666D01*
X122880380Y-66539714D01*
X137361904Y-56652380D02*
X137361904Y-57461904D01*
X137314285Y-57557142D01*
X137266666Y-57604761D01*
X137171428Y-57652380D01*
X136980952Y-57652380D01*
X136885714Y-57604761D01*
X136838095Y-57557142D01*
X136790476Y-57461904D01*
X136790476Y-56652380D01*
X136361904Y-56747619D02*
X136314285Y-56700000D01*
X136219047Y-56652380D01*
X135980952Y-56652380D01*
X135885714Y-56700000D01*
X135838095Y-56747619D01*
X135790476Y-56842857D01*
X135790476Y-56938095D01*
X135838095Y-57080952D01*
X136409523Y-57652380D01*
X135790476Y-57652380D01*
X150511904Y-53452380D02*
X150511904Y-54261904D01*
X150464285Y-54357142D01*
X150416666Y-54404761D01*
X150321428Y-54452380D01*
X150130952Y-54452380D01*
X150035714Y-54404761D01*
X149988095Y-54357142D01*
X149940476Y-54261904D01*
X149940476Y-53452380D01*
X149559523Y-53452380D02*
X148940476Y-53452380D01*
X149273809Y-53833333D01*
X149130952Y-53833333D01*
X149035714Y-53880952D01*
X148988095Y-53928571D01*
X148940476Y-54023809D01*
X148940476Y-54261904D01*
X148988095Y-54357142D01*
X149035714Y-54404761D01*
X149130952Y-54452380D01*
X149416666Y-54452380D01*
X149511904Y-54404761D01*
X149559523Y-54357142D01*
X138787142Y-63071523D02*
X138834761Y-63023904D01*
X138882380Y-62881047D01*
X138882380Y-62785809D01*
X138834761Y-62642952D01*
X138739523Y-62547714D01*
X138644285Y-62500095D01*
X138453809Y-62452476D01*
X138310952Y-62452476D01*
X138120476Y-62500095D01*
X138025238Y-62547714D01*
X137930000Y-62642952D01*
X137882380Y-62785809D01*
X137882380Y-62881047D01*
X137930000Y-63023904D01*
X137977619Y-63071523D01*
X138882380Y-63500095D02*
X138215714Y-63500095D01*
X138406190Y-63500095D02*
X138310952Y-63547714D01*
X138263333Y-63595333D01*
X138215714Y-63690571D01*
X138215714Y-63785809D01*
X138834761Y-64500095D02*
X138882380Y-64404857D01*
X138882380Y-64214380D01*
X138834761Y-64119142D01*
X138739523Y-64071523D01*
X138358571Y-64071523D01*
X138263333Y-64119142D01*
X138215714Y-64214380D01*
X138215714Y-64404857D01*
X138263333Y-64500095D01*
X138358571Y-64547714D01*
X138453809Y-64547714D01*
X138549047Y-64071523D01*
X138215714Y-64833428D02*
X138215714Y-65214380D01*
X138882380Y-64976285D02*
X138025238Y-64976285D01*
X137930000Y-65023904D01*
X137882380Y-65119142D01*
X137882380Y-65214380D01*
X138882380Y-66071523D02*
X138882380Y-65500095D01*
X138882380Y-65785809D02*
X137882380Y-65785809D01*
X138025238Y-65690571D01*
X138120476Y-65595333D01*
X138168095Y-65500095D01*
X112124952Y-67413142D02*
X112172571Y-67460761D01*
X112315428Y-67508380D01*
X112410666Y-67508380D01*
X112553523Y-67460761D01*
X112648761Y-67365523D01*
X112696380Y-67270285D01*
X112744000Y-67079809D01*
X112744000Y-66936952D01*
X112696380Y-66746476D01*
X112648761Y-66651238D01*
X112553523Y-66556000D01*
X112410666Y-66508380D01*
X112315428Y-66508380D01*
X112172571Y-66556000D01*
X112124952Y-66603619D01*
X111696380Y-67508380D02*
X111696380Y-66841714D01*
X111696380Y-67032190D02*
X111648761Y-66936952D01*
X111601142Y-66889333D01*
X111505904Y-66841714D01*
X111410666Y-66841714D01*
X111077333Y-66841714D02*
X111077333Y-67508380D01*
X111077333Y-66936952D02*
X111029714Y-66889333D01*
X110934476Y-66841714D01*
X110791619Y-66841714D01*
X110696380Y-66889333D01*
X110648761Y-66984571D01*
X110648761Y-67508380D01*
X109744000Y-66841714D02*
X109744000Y-67651238D01*
X109791619Y-67746476D01*
X109839238Y-67794095D01*
X109934476Y-67841714D01*
X110077333Y-67841714D01*
X110172571Y-67794095D01*
X109744000Y-67460761D02*
X109839238Y-67508380D01*
X110029714Y-67508380D01*
X110124952Y-67460761D01*
X110172571Y-67413142D01*
X110220190Y-67317904D01*
X110220190Y-67032190D01*
X110172571Y-66936952D01*
X110124952Y-66889333D01*
X110029714Y-66841714D01*
X109839238Y-66841714D01*
X109744000Y-66889333D01*
X108744000Y-67508380D02*
X109315428Y-67508380D01*
X109029714Y-67508380D02*
X109029714Y-66508380D01*
X109124952Y-66651238D01*
X109220190Y-66746476D01*
X109315428Y-66794095D01*
X154797047Y-42615142D02*
X154844666Y-42662761D01*
X154987523Y-42710380D01*
X155082761Y-42710380D01*
X155225619Y-42662761D01*
X155320857Y-42567523D01*
X155368476Y-42472285D01*
X155416095Y-42281809D01*
X155416095Y-42138952D01*
X155368476Y-41948476D01*
X155320857Y-41853238D01*
X155225619Y-41758000D01*
X155082761Y-41710380D01*
X154987523Y-41710380D01*
X154844666Y-41758000D01*
X154797047Y-41805619D01*
X154368476Y-42043714D02*
X154368476Y-43043714D01*
X154368476Y-42091333D02*
X154273238Y-42043714D01*
X154082761Y-42043714D01*
X153987523Y-42091333D01*
X153939904Y-42138952D01*
X153892285Y-42234190D01*
X153892285Y-42519904D01*
X153939904Y-42615142D01*
X153987523Y-42662761D01*
X154082761Y-42710380D01*
X154273238Y-42710380D01*
X154368476Y-42662761D01*
X153511333Y-41805619D02*
X153463714Y-41758000D01*
X153368476Y-41710380D01*
X153130380Y-41710380D01*
X153035142Y-41758000D01*
X152987523Y-41805619D01*
X152939904Y-41900857D01*
X152939904Y-41996095D01*
X152987523Y-42138952D01*
X153558952Y-42710380D01*
X152939904Y-42710380D01*
X142438380Y-46839142D02*
X142486000Y-46886761D01*
X142628857Y-46934380D01*
X142724095Y-46934380D01*
X142866952Y-46886761D01*
X142962190Y-46791523D01*
X143009809Y-46696285D01*
X143057428Y-46505809D01*
X143057428Y-46362952D01*
X143009809Y-46172476D01*
X142962190Y-46077238D01*
X142866952Y-45982000D01*
X142724095Y-45934380D01*
X142628857Y-45934380D01*
X142486000Y-45982000D01*
X142438380Y-46029619D01*
X142152666Y-46267714D02*
X141771714Y-46267714D01*
X142009809Y-45934380D02*
X142009809Y-46791523D01*
X141962190Y-46886761D01*
X141866952Y-46934380D01*
X141771714Y-46934380D01*
X140914571Y-46934380D02*
X141486000Y-46934380D01*
X141200285Y-46934380D02*
X141200285Y-45934380D01*
X141295523Y-46077238D01*
X141390761Y-46172476D01*
X141486000Y-46220095D01*
X164679238Y-66492380D02*
X165012571Y-66016190D01*
X165250666Y-66492380D02*
X165250666Y-65492380D01*
X164869714Y-65492380D01*
X164774476Y-65540000D01*
X164726857Y-65587619D01*
X164679238Y-65682857D01*
X164679238Y-65825714D01*
X164726857Y-65920952D01*
X164774476Y-65968571D01*
X164869714Y-66016190D01*
X165250666Y-66016190D01*
X163869714Y-66444761D02*
X163964952Y-66492380D01*
X164155428Y-66492380D01*
X164250666Y-66444761D01*
X164298285Y-66349523D01*
X164298285Y-65968571D01*
X164250666Y-65873333D01*
X164155428Y-65825714D01*
X163964952Y-65825714D01*
X163869714Y-65873333D01*
X163822095Y-65968571D01*
X163822095Y-66063809D01*
X164298285Y-66159047D01*
X162869714Y-66492380D02*
X163441142Y-66492380D01*
X163155428Y-66492380D02*
X163155428Y-65492380D01*
X163250666Y-65635238D01*
X163345904Y-65730476D01*
X163441142Y-65778095D01*
X160218380Y-71572380D02*
X160551714Y-71096190D01*
X160789809Y-71572380D02*
X160789809Y-70572380D01*
X160408857Y-70572380D01*
X160313619Y-70620000D01*
X160266000Y-70667619D01*
X160218380Y-70762857D01*
X160218380Y-70905714D01*
X160266000Y-71000952D01*
X160313619Y-71048571D01*
X160408857Y-71096190D01*
X160789809Y-71096190D01*
X159932666Y-70905714D02*
X159551714Y-70905714D01*
X159789809Y-71572380D02*
X159789809Y-70715238D01*
X159742190Y-70620000D01*
X159646952Y-70572380D01*
X159551714Y-70572380D01*
X158694571Y-71572380D02*
X159266000Y-71572380D01*
X158980285Y-71572380D02*
X158980285Y-70572380D01*
X159075523Y-70715238D01*
X159170761Y-70810476D01*
X159266000Y-70858095D01*
X137866380Y-50236380D02*
X138199714Y-49760190D01*
X138437809Y-50236380D02*
X138437809Y-49236380D01*
X138056857Y-49236380D01*
X137961619Y-49284000D01*
X137914000Y-49331619D01*
X137866380Y-49426857D01*
X137866380Y-49569714D01*
X137914000Y-49664952D01*
X137961619Y-49712571D01*
X138056857Y-49760190D01*
X138437809Y-49760190D01*
X137580666Y-49569714D02*
X137199714Y-49569714D01*
X137437809Y-49236380D02*
X137437809Y-50093523D01*
X137390190Y-50188761D01*
X137294952Y-50236380D01*
X137199714Y-50236380D01*
X136342571Y-50236380D02*
X136914000Y-50236380D01*
X136628285Y-50236380D02*
X136628285Y-49236380D01*
X136723523Y-49379238D01*
X136818761Y-49474476D01*
X136914000Y-49522095D01*
X113609238Y-57602380D02*
X113609238Y-56602380D01*
X113371142Y-56602380D01*
X113228285Y-56650000D01*
X113133047Y-56745238D01*
X113085428Y-56840476D01*
X113037809Y-57030952D01*
X113037809Y-57173809D01*
X113085428Y-57364285D01*
X113133047Y-57459523D01*
X113228285Y-57554761D01*
X113371142Y-57602380D01*
X113609238Y-57602380D01*
X112656857Y-57554761D02*
X112561619Y-57602380D01*
X112371142Y-57602380D01*
X112275904Y-57554761D01*
X112228285Y-57459523D01*
X112228285Y-57411904D01*
X112275904Y-57316666D01*
X112371142Y-57269047D01*
X112514000Y-57269047D01*
X112609238Y-57221428D01*
X112656857Y-57126190D01*
X112656857Y-57078571D01*
X112609238Y-56983333D01*
X112514000Y-56935714D01*
X112371142Y-56935714D01*
X112275904Y-56983333D01*
X111799714Y-56935714D02*
X111799714Y-57602380D01*
X111799714Y-57030952D02*
X111752095Y-56983333D01*
X111656857Y-56935714D01*
X111514000Y-56935714D01*
X111418761Y-56983333D01*
X111371142Y-57078571D01*
X111371142Y-57602380D01*
X110371142Y-57602380D02*
X110942571Y-57602380D01*
X110656857Y-57602380D02*
X110656857Y-56602380D01*
X110752095Y-56745238D01*
X110847333Y-56840476D01*
X110942571Y-56888095D01*
X148422952Y-63936571D02*
X148280095Y-63984190D01*
X148232476Y-64031809D01*
X148184857Y-64127047D01*
X148184857Y-64269904D01*
X148232476Y-64365142D01*
X148280095Y-64412761D01*
X148375333Y-64460380D01*
X148756285Y-64460380D01*
X148756285Y-63460380D01*
X148422952Y-63460380D01*
X148327714Y-63508000D01*
X148280095Y-63555619D01*
X148232476Y-63650857D01*
X148232476Y-63746095D01*
X148280095Y-63841333D01*
X148327714Y-63888952D01*
X148422952Y-63936571D01*
X148756285Y-63936571D01*
X147280095Y-63460380D02*
X147756285Y-63460380D01*
X147803904Y-63936571D01*
X147756285Y-63888952D01*
X147661047Y-63841333D01*
X147422952Y-63841333D01*
X147327714Y-63888952D01*
X147280095Y-63936571D01*
X147232476Y-64031809D01*
X147232476Y-64269904D01*
X147280095Y-64365142D01*
X147327714Y-64412761D01*
X147422952Y-64460380D01*
X147661047Y-64460380D01*
X147756285Y-64412761D01*
X147803904Y-64365142D01*
X146661047Y-63888952D02*
X146756285Y-63841333D01*
X146803904Y-63793714D01*
X146851523Y-63698476D01*
X146851523Y-63650857D01*
X146803904Y-63555619D01*
X146756285Y-63508000D01*
X146661047Y-63460380D01*
X146470571Y-63460380D01*
X146375333Y-63508000D01*
X146327714Y-63555619D01*
X146280095Y-63650857D01*
X146280095Y-63698476D01*
X146327714Y-63793714D01*
X146375333Y-63841333D01*
X146470571Y-63888952D01*
X146661047Y-63888952D01*
X146756285Y-63936571D01*
X146803904Y-63984190D01*
X146851523Y-64079428D01*
X146851523Y-64269904D01*
X146803904Y-64365142D01*
X146756285Y-64412761D01*
X146661047Y-64460380D01*
X146470571Y-64460380D01*
X146375333Y-64412761D01*
X146327714Y-64365142D01*
X146280095Y-64269904D01*
X146280095Y-64079428D01*
X146327714Y-63984190D01*
X146375333Y-63936571D01*
X146470571Y-63888952D01*
X145327714Y-64460380D02*
X145899142Y-64460380D01*
X145613428Y-64460380D02*
X145613428Y-63460380D01*
X145708666Y-63603238D01*
X145803904Y-63698476D01*
X145899142Y-63746095D01*
X144851523Y-64460380D02*
X144661047Y-64460380D01*
X144565809Y-64412761D01*
X144518190Y-64365142D01*
X144422952Y-64222285D01*
X144375333Y-64031809D01*
X144375333Y-63650857D01*
X144422952Y-63555619D01*
X144470571Y-63508000D01*
X144565809Y-63460380D01*
X144756285Y-63460380D01*
X144851523Y-63508000D01*
X144899142Y-63555619D01*
X144946761Y-63650857D01*
X144946761Y-63888952D01*
X144899142Y-63984190D01*
X144851523Y-64031809D01*
X144756285Y-64079428D01*
X144565809Y-64079428D01*
X144470571Y-64031809D01*
X144422952Y-63984190D01*
X144375333Y-63888952D01*
X144042000Y-63460380D02*
X143803904Y-64460380D01*
X143613428Y-63746095D01*
X143422952Y-64460380D01*
X143184857Y-63460380D01*
X142280095Y-64460380D02*
X142851523Y-64460380D01*
X142565809Y-64460380D02*
X142565809Y-63460380D01*
X142661047Y-63603238D01*
X142756285Y-63698476D01*
X142851523Y-63746095D01*
X163687047Y-39981142D02*
X163734666Y-40028761D01*
X163877523Y-40076380D01*
X163972761Y-40076380D01*
X164115619Y-40028761D01*
X164210857Y-39933523D01*
X164258476Y-39838285D01*
X164306095Y-39647809D01*
X164306095Y-39504952D01*
X164258476Y-39314476D01*
X164210857Y-39219238D01*
X164115619Y-39124000D01*
X163972761Y-39076380D01*
X163877523Y-39076380D01*
X163734666Y-39124000D01*
X163687047Y-39171619D01*
X163258476Y-39409714D02*
X163258476Y-40409714D01*
X163258476Y-39457333D02*
X163163238Y-39409714D01*
X162972761Y-39409714D01*
X162877523Y-39457333D01*
X162829904Y-39504952D01*
X162782285Y-39600190D01*
X162782285Y-39885904D01*
X162829904Y-39981142D01*
X162877523Y-40028761D01*
X162972761Y-40076380D01*
X163163238Y-40076380D01*
X163258476Y-40028761D01*
X161829904Y-40076380D02*
X162401333Y-40076380D01*
X162115619Y-40076380D02*
X162115619Y-39076380D01*
X162210857Y-39219238D01*
X162306095Y-39314476D01*
X162401333Y-39362095D01*
X132976666Y-61666380D02*
X133310000Y-61190190D01*
X133548095Y-61666380D02*
X133548095Y-60666380D01*
X133167142Y-60666380D01*
X133071904Y-60714000D01*
X133024285Y-60761619D01*
X132976666Y-60856857D01*
X132976666Y-60999714D01*
X133024285Y-61094952D01*
X133071904Y-61142571D01*
X133167142Y-61190190D01*
X133548095Y-61190190D01*
X132119523Y-61618761D02*
X132214761Y-61666380D01*
X132405238Y-61666380D01*
X132500476Y-61618761D01*
X132548095Y-61571142D01*
X132595714Y-61475904D01*
X132595714Y-61190190D01*
X132548095Y-61094952D01*
X132500476Y-61047333D01*
X132405238Y-60999714D01*
X132214761Y-60999714D01*
X132119523Y-61047333D01*
X131548095Y-61666380D02*
X131643333Y-61618761D01*
X131690952Y-61571142D01*
X131738571Y-61475904D01*
X131738571Y-61190190D01*
X131690952Y-61094952D01*
X131643333Y-61047333D01*
X131548095Y-60999714D01*
X131405238Y-60999714D01*
X131310000Y-61047333D01*
X131262380Y-61094952D01*
X131214761Y-61190190D01*
X131214761Y-61475904D01*
X131262380Y-61571142D01*
X131310000Y-61618761D01*
X131405238Y-61666380D01*
X131548095Y-61666380D01*
X130786190Y-61666380D02*
X130786190Y-60999714D01*
X130786190Y-61094952D02*
X130738571Y-61047333D01*
X130643333Y-60999714D01*
X130500476Y-60999714D01*
X130405238Y-61047333D01*
X130357619Y-61142571D01*
X130357619Y-61666380D01*
X130357619Y-61142571D02*
X130310000Y-61047333D01*
X130214761Y-60999714D01*
X130071904Y-60999714D01*
X129976666Y-61047333D01*
X129929047Y-61142571D01*
X129929047Y-61666380D01*
X129452857Y-60999714D02*
X129452857Y-61999714D01*
X129452857Y-61047333D02*
X129357619Y-60999714D01*
X129167142Y-60999714D01*
X129071904Y-61047333D01*
X129024285Y-61094952D01*
X128976666Y-61190190D01*
X128976666Y-61475904D01*
X129024285Y-61571142D01*
X129071904Y-61618761D01*
X129167142Y-61666380D01*
X129357619Y-61666380D01*
X129452857Y-61618761D01*
X128024285Y-61666380D02*
X128595714Y-61666380D01*
X128310000Y-61666380D02*
X128310000Y-60666380D01*
X128405238Y-60809238D01*
X128500476Y-60904476D01*
X128595714Y-60952095D01*
X103481142Y-45458190D02*
X103528761Y-45410571D01*
X103576380Y-45267714D01*
X103576380Y-45172476D01*
X103528761Y-45029619D01*
X103433523Y-44934380D01*
X103338285Y-44886761D01*
X103147809Y-44839142D01*
X103004952Y-44839142D01*
X102814476Y-44886761D01*
X102719238Y-44934380D01*
X102624000Y-45029619D01*
X102576380Y-45172476D01*
X102576380Y-45267714D01*
X102624000Y-45410571D01*
X102671619Y-45458190D01*
X103528761Y-45839142D02*
X103576380Y-45934380D01*
X103576380Y-46124857D01*
X103528761Y-46220095D01*
X103433523Y-46267714D01*
X103385904Y-46267714D01*
X103290666Y-46220095D01*
X103243047Y-46124857D01*
X103243047Y-45982000D01*
X103195428Y-45886761D01*
X103100190Y-45839142D01*
X103052571Y-45839142D01*
X102957333Y-45886761D01*
X102909714Y-45982000D01*
X102909714Y-46124857D01*
X102957333Y-46220095D01*
X102909714Y-46696285D02*
X103576380Y-46696285D01*
X103004952Y-46696285D02*
X102957333Y-46743904D01*
X102909714Y-46839142D01*
X102909714Y-46982000D01*
X102957333Y-47077238D01*
X103052571Y-47124857D01*
X103576380Y-47124857D01*
X103576380Y-48124857D02*
X103576380Y-47553428D01*
X103576380Y-47839142D02*
X102576380Y-47839142D01*
X102719238Y-47743904D01*
X102814476Y-47648666D01*
X102862095Y-47553428D01*
X114555142Y-45357142D02*
X114602761Y-45404761D01*
X114745619Y-45452380D01*
X114840857Y-45452380D01*
X114983714Y-45404761D01*
X115078952Y-45309523D01*
X115126571Y-45214285D01*
X115174190Y-45023809D01*
X115174190Y-44880952D01*
X115126571Y-44690476D01*
X115078952Y-44595238D01*
X114983714Y-44500000D01*
X114840857Y-44452380D01*
X114745619Y-44452380D01*
X114602761Y-44500000D01*
X114555142Y-44547619D01*
X114126571Y-45452380D02*
X114126571Y-44785714D01*
X114126571Y-44452380D02*
X114174190Y-44500000D01*
X114126571Y-44547619D01*
X114078952Y-44500000D01*
X114126571Y-44452380D01*
X114126571Y-44547619D01*
X113650380Y-44785714D02*
X113650380Y-45452380D01*
X113650380Y-44880952D02*
X113602761Y-44833333D01*
X113507523Y-44785714D01*
X113364666Y-44785714D01*
X113269428Y-44833333D01*
X113221809Y-44928571D01*
X113221809Y-45452380D01*
X112793238Y-44547619D02*
X112745619Y-44500000D01*
X112650380Y-44452380D01*
X112412285Y-44452380D01*
X112317047Y-44500000D01*
X112269428Y-44547619D01*
X112221809Y-44642857D01*
X112221809Y-44738095D01*
X112269428Y-44880952D01*
X112840857Y-45452380D01*
X112221809Y-45452380D01*
X167322285Y-58872380D02*
X167655619Y-58396190D01*
X167893714Y-58872380D02*
X167893714Y-57872380D01*
X167512761Y-57872380D01*
X167417523Y-57920000D01*
X167369904Y-57967619D01*
X167322285Y-58062857D01*
X167322285Y-58205714D01*
X167369904Y-58300952D01*
X167417523Y-58348571D01*
X167512761Y-58396190D01*
X167893714Y-58396190D01*
X166893714Y-58872380D02*
X166893714Y-57872380D01*
X166893714Y-58253333D02*
X166798476Y-58205714D01*
X166608000Y-58205714D01*
X166512761Y-58253333D01*
X166465142Y-58300952D01*
X166417523Y-58396190D01*
X166417523Y-58681904D01*
X166465142Y-58777142D01*
X166512761Y-58824761D01*
X166608000Y-58872380D01*
X166798476Y-58872380D01*
X166893714Y-58824761D01*
X165988952Y-58872380D02*
X165988952Y-58205714D01*
X165988952Y-57872380D02*
X166036571Y-57920000D01*
X165988952Y-57967619D01*
X165941333Y-57920000D01*
X165988952Y-57872380D01*
X165988952Y-57967619D01*
X165084190Y-58872380D02*
X165084190Y-58348571D01*
X165131809Y-58253333D01*
X165227047Y-58205714D01*
X165417523Y-58205714D01*
X165512761Y-58253333D01*
X165084190Y-58824761D02*
X165179428Y-58872380D01*
X165417523Y-58872380D01*
X165512761Y-58824761D01*
X165560380Y-58729523D01*
X165560380Y-58634285D01*
X165512761Y-58539047D01*
X165417523Y-58491428D01*
X165179428Y-58491428D01*
X165084190Y-58443809D01*
X164655619Y-58824761D02*
X164560380Y-58872380D01*
X164369904Y-58872380D01*
X164274666Y-58824761D01*
X164227047Y-58729523D01*
X164227047Y-58681904D01*
X164274666Y-58586666D01*
X164369904Y-58539047D01*
X164512761Y-58539047D01*
X164608000Y-58491428D01*
X164655619Y-58396190D01*
X164655619Y-58348571D01*
X164608000Y-58253333D01*
X164512761Y-58205714D01*
X164369904Y-58205714D01*
X164274666Y-58253333D01*
X163846095Y-57967619D02*
X163798476Y-57920000D01*
X163703238Y-57872380D01*
X163465142Y-57872380D01*
X163369904Y-57920000D01*
X163322285Y-57967619D01*
X163274666Y-58062857D01*
X163274666Y-58158095D01*
X163322285Y-58300952D01*
X163893714Y-58872380D01*
X163274666Y-58872380D01*
X132024380Y-51760380D02*
X132357714Y-51284190D01*
X132595809Y-51760380D02*
X132595809Y-50760380D01*
X132214857Y-50760380D01*
X132119619Y-50808000D01*
X132072000Y-50855619D01*
X132024380Y-50950857D01*
X132024380Y-51093714D01*
X132072000Y-51188952D01*
X132119619Y-51236571D01*
X132214857Y-51284190D01*
X132595809Y-51284190D01*
X131738666Y-51093714D02*
X131357714Y-51093714D01*
X131595809Y-50760380D02*
X131595809Y-51617523D01*
X131548190Y-51712761D01*
X131452952Y-51760380D01*
X131357714Y-51760380D01*
X131072000Y-50855619D02*
X131024380Y-50808000D01*
X130929142Y-50760380D01*
X130691047Y-50760380D01*
X130595809Y-50808000D01*
X130548190Y-50855619D01*
X130500571Y-50950857D01*
X130500571Y-51046095D01*
X130548190Y-51188952D01*
X131119619Y-51760380D01*
X130500571Y-51760380D01*
X162266380Y-55626095D02*
X163075904Y-55626095D01*
X163171142Y-55673714D01*
X163218761Y-55721333D01*
X163266380Y-55816571D01*
X163266380Y-56007047D01*
X163218761Y-56102285D01*
X163171142Y-56149904D01*
X163075904Y-56197523D01*
X162266380Y-56197523D01*
X162599714Y-57102285D02*
X163266380Y-57102285D01*
X162218761Y-56864190D02*
X162933047Y-56626095D01*
X162933047Y-57245142D01*
X139416380Y-40154761D02*
X138940190Y-39821428D01*
X139416380Y-39583333D02*
X138416380Y-39583333D01*
X138416380Y-39964285D01*
X138464000Y-40059523D01*
X138511619Y-40107142D01*
X138606857Y-40154761D01*
X138749714Y-40154761D01*
X138844952Y-40107142D01*
X138892571Y-40059523D01*
X138940190Y-39964285D01*
X138940190Y-39583333D01*
X139368761Y-41011904D02*
X139416380Y-40916666D01*
X139416380Y-40726190D01*
X139368761Y-40630952D01*
X139321142Y-40583333D01*
X139225904Y-40535714D01*
X138940190Y-40535714D01*
X138844952Y-40583333D01*
X138797333Y-40630952D01*
X138749714Y-40726190D01*
X138749714Y-40916666D01*
X138797333Y-41011904D01*
X139416380Y-41964285D02*
X139416380Y-41392857D01*
X139416380Y-41678571D02*
X138416380Y-41678571D01*
X138559238Y-41583333D01*
X138654476Y-41488095D01*
X138702095Y-41392857D01*
X168346380Y-42481714D02*
X167870190Y-42148380D01*
X168346380Y-41910285D02*
X167346380Y-41910285D01*
X167346380Y-42291238D01*
X167394000Y-42386476D01*
X167441619Y-42434095D01*
X167536857Y-42481714D01*
X167679714Y-42481714D01*
X167774952Y-42434095D01*
X167822571Y-42386476D01*
X167870190Y-42291238D01*
X167870190Y-41910285D01*
X168346380Y-42910285D02*
X167346380Y-42910285D01*
X167727333Y-42910285D02*
X167679714Y-43005523D01*
X167679714Y-43196000D01*
X167727333Y-43291238D01*
X167774952Y-43338857D01*
X167870190Y-43386476D01*
X168155904Y-43386476D01*
X168251142Y-43338857D01*
X168298761Y-43291238D01*
X168346380Y-43196000D01*
X168346380Y-43005523D01*
X168298761Y-42910285D01*
X168346380Y-43815047D02*
X167679714Y-43815047D01*
X167346380Y-43815047D02*
X167394000Y-43767428D01*
X167441619Y-43815047D01*
X167394000Y-43862666D01*
X167346380Y-43815047D01*
X167441619Y-43815047D01*
X168346380Y-44719809D02*
X167822571Y-44719809D01*
X167727333Y-44672190D01*
X167679714Y-44576952D01*
X167679714Y-44386476D01*
X167727333Y-44291238D01*
X168298761Y-44719809D02*
X168346380Y-44624571D01*
X168346380Y-44386476D01*
X168298761Y-44291238D01*
X168203523Y-44243619D01*
X168108285Y-44243619D01*
X168013047Y-44291238D01*
X167965428Y-44386476D01*
X167965428Y-44624571D01*
X167917809Y-44719809D01*
X168298761Y-45148380D02*
X168346380Y-45243619D01*
X168346380Y-45434095D01*
X168298761Y-45529333D01*
X168203523Y-45576952D01*
X168155904Y-45576952D01*
X168060666Y-45529333D01*
X168013047Y-45434095D01*
X168013047Y-45291238D01*
X167965428Y-45196000D01*
X167870190Y-45148380D01*
X167822571Y-45148380D01*
X167727333Y-45196000D01*
X167679714Y-45291238D01*
X167679714Y-45434095D01*
X167727333Y-45529333D01*
X168346380Y-46529333D02*
X168346380Y-45957904D01*
X168346380Y-46243619D02*
X167346380Y-46243619D01*
X167489238Y-46148380D01*
X167584476Y-46053142D01*
X167632095Y-45957904D01*
X169902000Y-37552380D02*
X169330571Y-37552380D01*
X169616285Y-38552380D02*
X169616285Y-37552380D01*
X169140095Y-37885714D02*
X168759142Y-37885714D01*
X168997238Y-38552380D02*
X168997238Y-37695238D01*
X168949619Y-37600000D01*
X168854380Y-37552380D01*
X168759142Y-37552380D01*
X168425809Y-38552380D02*
X168425809Y-37552380D01*
X168425809Y-37933333D02*
X168330571Y-37885714D01*
X168140095Y-37885714D01*
X168044857Y-37933333D01*
X167997238Y-37980952D01*
X167949619Y-38076190D01*
X167949619Y-38361904D01*
X167997238Y-38457142D01*
X168044857Y-38504761D01*
X168140095Y-38552380D01*
X168330571Y-38552380D01*
X168425809Y-38504761D01*
X166997238Y-38552380D02*
X167568666Y-38552380D01*
X167282952Y-38552380D02*
X167282952Y-37552380D01*
X167378190Y-37695238D01*
X167473428Y-37790476D01*
X167568666Y-37838095D01*
X135169047Y-47902380D02*
X135502380Y-47426190D01*
X135740476Y-47902380D02*
X135740476Y-46902380D01*
X135359523Y-46902380D01*
X135264285Y-46950000D01*
X135216666Y-46997619D01*
X135169047Y-47092857D01*
X135169047Y-47235714D01*
X135216666Y-47330952D01*
X135264285Y-47378571D01*
X135359523Y-47426190D01*
X135740476Y-47426190D01*
X134740476Y-47902380D02*
X134740476Y-46902380D01*
X134740476Y-47283333D02*
X134645238Y-47235714D01*
X134454761Y-47235714D01*
X134359523Y-47283333D01*
X134311904Y-47330952D01*
X134264285Y-47426190D01*
X134264285Y-47711904D01*
X134311904Y-47807142D01*
X134359523Y-47854761D01*
X134454761Y-47902380D01*
X134645238Y-47902380D01*
X134740476Y-47854761D01*
X133311904Y-47902380D02*
X133883333Y-47902380D01*
X133597619Y-47902380D02*
X133597619Y-46902380D01*
X133692857Y-47045238D01*
X133788095Y-47140476D01*
X133883333Y-47188095D01*
X174172571Y-51221047D02*
X174220190Y-51363904D01*
X174267809Y-51411523D01*
X174363047Y-51459142D01*
X174505904Y-51459142D01*
X174601142Y-51411523D01*
X174648761Y-51363904D01*
X174696380Y-51268666D01*
X174696380Y-50887714D01*
X173696380Y-50887714D01*
X173696380Y-51221047D01*
X173744000Y-51316285D01*
X173791619Y-51363904D01*
X173886857Y-51411523D01*
X173982095Y-51411523D01*
X174077333Y-51363904D01*
X174124952Y-51316285D01*
X174172571Y-51221047D01*
X174172571Y-50887714D01*
X173696380Y-52363904D02*
X173696380Y-51887714D01*
X174172571Y-51840095D01*
X174124952Y-51887714D01*
X174077333Y-51982952D01*
X174077333Y-52221047D01*
X174124952Y-52316285D01*
X174172571Y-52363904D01*
X174267809Y-52411523D01*
X174505904Y-52411523D01*
X174601142Y-52363904D01*
X174648761Y-52316285D01*
X174696380Y-52221047D01*
X174696380Y-51982952D01*
X174648761Y-51887714D01*
X174601142Y-51840095D01*
X174124952Y-52982952D02*
X174077333Y-52887714D01*
X174029714Y-52840095D01*
X173934476Y-52792476D01*
X173886857Y-52792476D01*
X173791619Y-52840095D01*
X173744000Y-52887714D01*
X173696380Y-52982952D01*
X173696380Y-53173428D01*
X173744000Y-53268666D01*
X173791619Y-53316285D01*
X173886857Y-53363904D01*
X173934476Y-53363904D01*
X174029714Y-53316285D01*
X174077333Y-53268666D01*
X174124952Y-53173428D01*
X174124952Y-52982952D01*
X174172571Y-52887714D01*
X174220190Y-52840095D01*
X174315428Y-52792476D01*
X174505904Y-52792476D01*
X174601142Y-52840095D01*
X174648761Y-52887714D01*
X174696380Y-52982952D01*
X174696380Y-53173428D01*
X174648761Y-53268666D01*
X174601142Y-53316285D01*
X174505904Y-53363904D01*
X174315428Y-53363904D01*
X174220190Y-53316285D01*
X174172571Y-53268666D01*
X174124952Y-53173428D01*
X174696380Y-54316285D02*
X174696380Y-53744857D01*
X174696380Y-54030571D02*
X173696380Y-54030571D01*
X173839238Y-53935333D01*
X173934476Y-53840095D01*
X173982095Y-53744857D01*
X174696380Y-54792476D02*
X174696380Y-54982952D01*
X174648761Y-55078190D01*
X174601142Y-55125809D01*
X174458285Y-55221047D01*
X174267809Y-55268666D01*
X173886857Y-55268666D01*
X173791619Y-55221047D01*
X173744000Y-55173428D01*
X173696380Y-55078190D01*
X173696380Y-54887714D01*
X173744000Y-54792476D01*
X173791619Y-54744857D01*
X173886857Y-54697238D01*
X174124952Y-54697238D01*
X174220190Y-54744857D01*
X174267809Y-54792476D01*
X174315428Y-54887714D01*
X174315428Y-55078190D01*
X174267809Y-55173428D01*
X174220190Y-55221047D01*
X174124952Y-55268666D01*
X173696380Y-55602000D02*
X174696380Y-55840095D01*
X173982095Y-56030571D01*
X174696380Y-56221047D01*
X173696380Y-56459142D01*
X173791619Y-56792476D02*
X173744000Y-56840095D01*
X173696380Y-56935333D01*
X173696380Y-57173428D01*
X173744000Y-57268666D01*
X173791619Y-57316285D01*
X173886857Y-57363904D01*
X173982095Y-57363904D01*
X174124952Y-57316285D01*
X174696380Y-56744857D01*
X174696380Y-57363904D01*
X128404666Y-68683142D02*
X128452285Y-68730761D01*
X128595142Y-68778380D01*
X128690380Y-68778380D01*
X128833238Y-68730761D01*
X128928476Y-68635523D01*
X128976095Y-68540285D01*
X129023714Y-68349809D01*
X129023714Y-68206952D01*
X128976095Y-68016476D01*
X128928476Y-67921238D01*
X128833238Y-67826000D01*
X128690380Y-67778380D01*
X128595142Y-67778380D01*
X128452285Y-67826000D01*
X128404666Y-67873619D01*
X127547523Y-68730761D02*
X127642761Y-68778380D01*
X127833238Y-68778380D01*
X127928476Y-68730761D01*
X127976095Y-68683142D01*
X128023714Y-68587904D01*
X128023714Y-68302190D01*
X127976095Y-68206952D01*
X127928476Y-68159333D01*
X127833238Y-68111714D01*
X127642761Y-68111714D01*
X127547523Y-68159333D01*
X126976095Y-68778380D02*
X127071333Y-68730761D01*
X127118952Y-68683142D01*
X127166571Y-68587904D01*
X127166571Y-68302190D01*
X127118952Y-68206952D01*
X127071333Y-68159333D01*
X126976095Y-68111714D01*
X126833238Y-68111714D01*
X126738000Y-68159333D01*
X126690380Y-68206952D01*
X126642761Y-68302190D01*
X126642761Y-68587904D01*
X126690380Y-68683142D01*
X126738000Y-68730761D01*
X126833238Y-68778380D01*
X126976095Y-68778380D01*
X126214190Y-68778380D02*
X126214190Y-68111714D01*
X126214190Y-68206952D02*
X126166571Y-68159333D01*
X126071333Y-68111714D01*
X125928476Y-68111714D01*
X125833238Y-68159333D01*
X125785619Y-68254571D01*
X125785619Y-68778380D01*
X125785619Y-68254571D02*
X125738000Y-68159333D01*
X125642761Y-68111714D01*
X125499904Y-68111714D01*
X125404666Y-68159333D01*
X125357047Y-68254571D01*
X125357047Y-68778380D01*
X124880857Y-68111714D02*
X124880857Y-69111714D01*
X124880857Y-68159333D02*
X124785619Y-68111714D01*
X124595142Y-68111714D01*
X124499904Y-68159333D01*
X124452285Y-68206952D01*
X124404666Y-68302190D01*
X124404666Y-68587904D01*
X124452285Y-68683142D01*
X124499904Y-68730761D01*
X124595142Y-68778380D01*
X124785619Y-68778380D01*
X124880857Y-68730761D01*
X123452285Y-68778380D02*
X124023714Y-68778380D01*
X123738000Y-68778380D02*
X123738000Y-67778380D01*
X123833238Y-67921238D01*
X123928476Y-68016476D01*
X124023714Y-68064095D01*
X157591047Y-47442380D02*
X157924380Y-46966190D01*
X158162476Y-47442380D02*
X158162476Y-46442380D01*
X157781523Y-46442380D01*
X157686285Y-46490000D01*
X157638666Y-46537619D01*
X157591047Y-46632857D01*
X157591047Y-46775714D01*
X157638666Y-46870952D01*
X157686285Y-46918571D01*
X157781523Y-46966190D01*
X158162476Y-46966190D01*
X157162476Y-46775714D02*
X157162476Y-47775714D01*
X157162476Y-46823333D02*
X157067238Y-46775714D01*
X156876761Y-46775714D01*
X156781523Y-46823333D01*
X156733904Y-46870952D01*
X156686285Y-46966190D01*
X156686285Y-47251904D01*
X156733904Y-47347142D01*
X156781523Y-47394761D01*
X156876761Y-47442380D01*
X157067238Y-47442380D01*
X157162476Y-47394761D01*
X155733904Y-47442380D02*
X156305333Y-47442380D01*
X156019619Y-47442380D02*
X156019619Y-46442380D01*
X156114857Y-46585238D01*
X156210095Y-46680476D01*
X156305333Y-46728095D01*
X160349523Y-37944380D02*
X159778095Y-37944380D01*
X160063809Y-38944380D02*
X160063809Y-37944380D01*
X159587619Y-38277714D02*
X159206666Y-38277714D01*
X159444761Y-37944380D02*
X159444761Y-38801523D01*
X159397142Y-38896761D01*
X159301904Y-38944380D01*
X159206666Y-38944380D01*
X158730476Y-38944380D02*
X158825714Y-38896761D01*
X158873333Y-38801523D01*
X158873333Y-37944380D01*
X157825714Y-38944380D02*
X158397142Y-38944380D01*
X158111428Y-38944380D02*
X158111428Y-37944380D01*
X158206666Y-38087238D01*
X158301904Y-38182476D01*
X158397142Y-38230095D01*
X122100380Y-40676190D02*
X122100380Y-41247619D01*
X123100380Y-40961904D02*
X122100380Y-40961904D01*
X123100380Y-42009523D02*
X122100380Y-42009523D01*
X123052761Y-42009523D02*
X123100380Y-41914285D01*
X123100380Y-41723809D01*
X123052761Y-41628571D01*
X123005142Y-41580952D01*
X122909904Y-41533333D01*
X122624190Y-41533333D01*
X122528952Y-41580952D01*
X122481333Y-41628571D01*
X122433714Y-41723809D01*
X122433714Y-41914285D01*
X122481333Y-42009523D01*
X123100380Y-42485714D02*
X122433714Y-42485714D01*
X122624190Y-42485714D02*
X122528952Y-42533333D01*
X122481333Y-42580952D01*
X122433714Y-42676190D01*
X122433714Y-42771428D01*
X123100380Y-43628571D02*
X123100380Y-43057142D01*
X123100380Y-43342857D02*
X122100380Y-43342857D01*
X122243238Y-43247619D01*
X122338476Y-43152380D01*
X122386095Y-43057142D01*
X171386285Y-51252380D02*
X171719619Y-50776190D01*
X171957714Y-51252380D02*
X171957714Y-50252380D01*
X171576761Y-50252380D01*
X171481523Y-50300000D01*
X171433904Y-50347619D01*
X171386285Y-50442857D01*
X171386285Y-50585714D01*
X171433904Y-50680952D01*
X171481523Y-50728571D01*
X171576761Y-50776190D01*
X171957714Y-50776190D01*
X170529142Y-51204761D02*
X170624380Y-51252380D01*
X170814857Y-51252380D01*
X170910095Y-51204761D01*
X170957714Y-51157142D01*
X171005333Y-51061904D01*
X171005333Y-50776190D01*
X170957714Y-50680952D01*
X170910095Y-50633333D01*
X170814857Y-50585714D01*
X170624380Y-50585714D01*
X170529142Y-50633333D01*
X169957714Y-51252380D02*
X170052952Y-51204761D01*
X170100571Y-51157142D01*
X170148190Y-51061904D01*
X170148190Y-50776190D01*
X170100571Y-50680952D01*
X170052952Y-50633333D01*
X169957714Y-50585714D01*
X169814857Y-50585714D01*
X169719619Y-50633333D01*
X169672000Y-50680952D01*
X169624380Y-50776190D01*
X169624380Y-51061904D01*
X169672000Y-51157142D01*
X169719619Y-51204761D01*
X169814857Y-51252380D01*
X169957714Y-51252380D01*
X169195809Y-51252380D02*
X169195809Y-50585714D01*
X169195809Y-50680952D02*
X169148190Y-50633333D01*
X169052952Y-50585714D01*
X168910095Y-50585714D01*
X168814857Y-50633333D01*
X168767238Y-50728571D01*
X168767238Y-51252380D01*
X168767238Y-50728571D02*
X168719619Y-50633333D01*
X168624380Y-50585714D01*
X168481523Y-50585714D01*
X168386285Y-50633333D01*
X168338666Y-50728571D01*
X168338666Y-51252380D01*
X167338666Y-51252380D02*
X167910095Y-51252380D01*
X167624380Y-51252380D02*
X167624380Y-50252380D01*
X167719619Y-50395238D01*
X167814857Y-50490476D01*
X167910095Y-50538095D01*
X164195047Y-60904380D02*
X164528380Y-60428190D01*
X164766476Y-60904380D02*
X164766476Y-59904380D01*
X164385523Y-59904380D01*
X164290285Y-59952000D01*
X164242666Y-59999619D01*
X164195047Y-60094857D01*
X164195047Y-60237714D01*
X164242666Y-60332952D01*
X164290285Y-60380571D01*
X164385523Y-60428190D01*
X164766476Y-60428190D01*
X163337904Y-60904380D02*
X163337904Y-59904380D01*
X163337904Y-60856761D02*
X163433142Y-60904380D01*
X163623619Y-60904380D01*
X163718857Y-60856761D01*
X163766476Y-60809142D01*
X163814095Y-60713904D01*
X163814095Y-60428190D01*
X163766476Y-60332952D01*
X163718857Y-60285333D01*
X163623619Y-60237714D01*
X163433142Y-60237714D01*
X163337904Y-60285333D01*
X162337904Y-60904380D02*
X162909333Y-60904380D01*
X162623619Y-60904380D02*
X162623619Y-59904380D01*
X162718857Y-60047238D01*
X162814095Y-60142476D01*
X162909333Y-60190095D01*
X117755142Y-45457142D02*
X117802761Y-45504761D01*
X117945619Y-45552380D01*
X118040857Y-45552380D01*
X118183714Y-45504761D01*
X118278952Y-45409523D01*
X118326571Y-45314285D01*
X118374190Y-45123809D01*
X118374190Y-44980952D01*
X118326571Y-44790476D01*
X118278952Y-44695238D01*
X118183714Y-44600000D01*
X118040857Y-44552380D01*
X117945619Y-44552380D01*
X117802761Y-44600000D01*
X117755142Y-44647619D01*
X117326571Y-45552380D02*
X117326571Y-44885714D01*
X117326571Y-44552380D02*
X117374190Y-44600000D01*
X117326571Y-44647619D01*
X117278952Y-44600000D01*
X117326571Y-44552380D01*
X117326571Y-44647619D01*
X116850380Y-44885714D02*
X116850380Y-45552380D01*
X116850380Y-44980952D02*
X116802761Y-44933333D01*
X116707523Y-44885714D01*
X116564666Y-44885714D01*
X116469428Y-44933333D01*
X116421809Y-45028571D01*
X116421809Y-45552380D01*
X115421809Y-45552380D02*
X115993238Y-45552380D01*
X115707523Y-45552380D02*
X115707523Y-44552380D01*
X115802761Y-44695238D01*
X115898000Y-44790476D01*
X115993238Y-44838095D01*
D11*
X172450000Y-48750000D02*
G75*
G03*
X172450000Y-48750000I-700000J0D01*
G01*
X107608000Y-40572936D02*
X107608000Y-42027064D01*
X105788000Y-40572936D02*
X105788000Y-42027064D01*
X111272936Y-65310000D02*
X112727064Y-65310000D01*
X111272936Y-63490000D02*
X112727064Y-63490000D01*
X107927064Y-53410000D02*
X106472936Y-53410000D01*
X107927064Y-51590000D02*
X106472936Y-51590000D01*
X128090000Y-57461252D02*
X128090000Y-56038748D01*
X129910000Y-57461252D02*
X129910000Y-56038748D01*
X110892000Y-40674936D02*
X110892000Y-42129064D01*
X109072000Y-40674936D02*
X109072000Y-42129064D01*
X126022936Y-64010000D02*
X127477064Y-64010000D01*
X126022936Y-62190000D02*
X127477064Y-62190000D01*
X136500000Y-54440000D02*
X138450000Y-54440000D01*
X136500000Y-59560000D02*
X138450000Y-59560000D01*
X136500000Y-59560000D02*
X133050000Y-59560000D01*
X136500000Y-54440000D02*
X134550000Y-54440000D01*
X152060000Y-53160000D02*
X152060000Y-52945000D01*
X149750000Y-53160000D02*
X147440000Y-53160000D01*
X152060000Y-50340000D02*
X152060000Y-50555000D01*
X147440000Y-50340000D02*
X147440000Y-50555000D01*
X149750000Y-53160000D02*
X152060000Y-53160000D01*
X147440000Y-53160000D02*
X147440000Y-52945000D01*
X147440000Y-52945000D02*
X145750000Y-52945000D01*
X149750000Y-50340000D02*
X147440000Y-50340000D01*
X149750000Y-50340000D02*
X152060000Y-50340000D01*
X141910000Y-63538748D02*
X141910000Y-64961252D01*
X140090000Y-63538748D02*
X140090000Y-64961252D01*
X112711252Y-70810000D02*
X111288748Y-70810000D01*
X112711252Y-68990000D02*
X111288748Y-68990000D01*
X160961252Y-40840000D02*
X159538748Y-40840000D01*
X160961252Y-42660000D02*
X159538748Y-42660000D01*
X141288748Y-47590000D02*
X142711252Y-47590000D01*
X141288748Y-49410000D02*
X142711252Y-49410000D01*
X160727064Y-64840000D02*
X159272936Y-64840000D01*
X160727064Y-66660000D02*
X159272936Y-66660000D01*
X159172936Y-69660000D02*
X160627064Y-69660000D01*
X159172936Y-67840000D02*
X160627064Y-67840000D01*
X142477064Y-50840000D02*
X141022936Y-50840000D01*
X142477064Y-52660000D02*
X141022936Y-52660000D01*
X114250000Y-58400000D02*
X110350000Y-58400000D01*
X114250000Y-60400000D02*
X110350000Y-60400000D01*
X114250000Y-58400000D02*
X114250000Y-60400000D01*
X143000000Y-60000000D02*
X143000000Y-58000000D01*
X143000000Y-60000000D02*
X146900000Y-60000000D01*
X143000000Y-58000000D02*
X146900000Y-58000000D01*
X162711252Y-45660000D02*
X161288748Y-45660000D01*
X162711252Y-43840000D02*
X161288748Y-43840000D01*
X132022936Y-63910000D02*
X133477064Y-63910000D01*
X132022936Y-62090000D02*
X133477064Y-62090000D01*
X104636200Y-40487148D02*
X104636200Y-41909652D01*
X102816200Y-40487148D02*
X102816200Y-41909652D01*
X112392000Y-40588748D02*
X112392000Y-42011252D01*
X114212000Y-40588748D02*
X114212000Y-42011252D01*
X166410000Y-53522936D02*
X166410000Y-54977064D01*
X164590000Y-53522936D02*
X164590000Y-54977064D01*
X136477064Y-52660000D02*
X135022936Y-52660000D01*
X136477064Y-50840000D02*
X135022936Y-50840000D01*
X160810000Y-55500000D02*
X160810000Y-56150000D01*
X157690000Y-55500000D02*
X157690000Y-53825000D01*
X160810000Y-55500000D02*
X160810000Y-54850000D01*
X157690000Y-55500000D02*
X157690000Y-56150000D01*
X140340000Y-40022936D02*
X140340000Y-41477064D01*
X142160000Y-40022936D02*
X142160000Y-41477064D01*
X166410000Y-49477064D02*
X166410000Y-48022936D01*
X164590000Y-49477064D02*
X164590000Y-48022936D01*
X166700000Y-39500000D02*
G75*
G03*
X166700000Y-39500000I-700000J0D01*
G01*
X134977064Y-44340000D02*
X133522936Y-44340000D01*
X134977064Y-46160000D02*
X133522936Y-46160000D01*
X173250000Y-52000000D02*
X173250000Y-55900000D01*
X171250000Y-52000000D02*
X173250000Y-52000000D01*
X171250000Y-52000000D02*
X171250000Y-55900000D01*
X126038748Y-65440000D02*
X127461252Y-65440000D01*
X126038748Y-67260000D02*
X127461252Y-67260000D01*
X156477064Y-45660000D02*
X155022936Y-45660000D01*
X156477064Y-43840000D02*
X155022936Y-43840000D01*
X157200000Y-39000000D02*
G75*
G03*
X157200000Y-39000000I-700000J0D01*
G01*
X144538748Y-54840000D02*
X145961252Y-54840000D01*
X144538748Y-56660000D02*
X145961252Y-56660000D01*
X121900000Y-42200000D02*
G75*
G03*
X121900000Y-42200000I-700000J0D01*
G01*
X124590000Y-57477064D02*
X124590000Y-56022936D01*
X126410000Y-57477064D02*
X126410000Y-56022936D01*
X167840000Y-54977064D02*
X167840000Y-53522936D01*
X169660000Y-54977064D02*
X169660000Y-53522936D01*
X163977064Y-61740000D02*
X162522936Y-61740000D01*
X163977064Y-63560000D02*
X162522936Y-63560000D01*
X115694000Y-40588748D02*
X115694000Y-42011252D01*
X117514000Y-40588748D02*
X117514000Y-42011252D01*
%LPC*%
D12*
X133500000Y-78750000D03*
D13*
X105725000Y-59300000D03*
X105725000Y-56760000D03*
X105725000Y-61840000D03*
D12*
X171500000Y-42750000D03*
D14*
X153189500Y-56710000D03*
D15*
X153189500Y-61790000D03*
D16*
X170180000Y-60500000D03*
D17*
X170180000Y-65500000D03*
D18*
X127950000Y-45330000D03*
X120330000Y-52950000D03*
X140650000Y-73270000D03*
X148270000Y-65650000D03*
D12*
X170500000Y-75750000D03*
D19*
X117400000Y-78200000D03*
X160750000Y-81000000D03*
D12*
X125750000Y-40000000D03*
D19*
X171750000Y-48750000D03*
D20*
X106698000Y-39750000D03*
X106698000Y-42850000D03*
D21*
X110450000Y-64400000D03*
X113550000Y-64400000D03*
D22*
X108750000Y-52500000D03*
X105650000Y-52500000D03*
D23*
X129000000Y-58312500D03*
X129000000Y-55187500D03*
D20*
X109982000Y-39852000D03*
X109982000Y-42952000D03*
D21*
X125200000Y-63100000D03*
X128300000Y-63100000D03*
D24*
X134025000Y-58905000D03*
X134025000Y-57635000D03*
X134025000Y-56365000D03*
X134025000Y-55095000D03*
X138975000Y-55095000D03*
X138975000Y-56365000D03*
X138975000Y-57635000D03*
X138975000Y-58905000D03*
D25*
X146562500Y-52385000D03*
X146562500Y-51115000D03*
X152937500Y-51115000D03*
X152937500Y-52385000D03*
D26*
X141000000Y-62687500D03*
X141000000Y-65812500D03*
D27*
X113562500Y-69900000D03*
X110437500Y-69900000D03*
X161812500Y-41750000D03*
X158687500Y-41750000D03*
D28*
X140437500Y-48500000D03*
X143562500Y-48500000D03*
D22*
X161550000Y-65750000D03*
X158450000Y-65750000D03*
D21*
X158350000Y-68750000D03*
X161450000Y-68750000D03*
D22*
X143300000Y-51750000D03*
X140200000Y-51750000D03*
D29*
X113650000Y-59400000D03*
X110350000Y-59400000D03*
X143600000Y-59000000D03*
X146900000Y-59000000D03*
D27*
X163562500Y-44750000D03*
X160437500Y-44750000D03*
D21*
X131200000Y-63000000D03*
X134300000Y-63000000D03*
D26*
X103726200Y-39635900D03*
X103726200Y-42760900D03*
X113302000Y-39737500D03*
X113302000Y-42862500D03*
D20*
X165500000Y-52700000D03*
X165500000Y-55800000D03*
D22*
X137300000Y-51750000D03*
X134200000Y-51750000D03*
D30*
X158300000Y-54562500D03*
X160200000Y-54562500D03*
X159250000Y-56437500D03*
D20*
X141250000Y-39200000D03*
X141250000Y-42300000D03*
D31*
X165500000Y-50300000D03*
X165500000Y-47200000D03*
D19*
X166000000Y-39500000D03*
D22*
X135800000Y-45250000D03*
X132700000Y-45250000D03*
D32*
X172250000Y-52600000D03*
X172250000Y-55900000D03*
D28*
X125187500Y-66350000D03*
X128312500Y-66350000D03*
D22*
X157300000Y-44750000D03*
X154200000Y-44750000D03*
D19*
X156500000Y-39000000D03*
D28*
X143687500Y-55750000D03*
X146812500Y-55750000D03*
D19*
X121200000Y-42200000D03*
D31*
X125500000Y-58300000D03*
X125500000Y-55200000D03*
X168750000Y-55800000D03*
X168750000Y-52700000D03*
D22*
X164800000Y-62650000D03*
X161700000Y-62650000D03*
D26*
X116604000Y-39737500D03*
X116604000Y-42862500D03*
M02*
